<?xml version="1.0" encoding="UTF-8" standalone="no"?>
<!DOCTYPE svg PUBLIC "-//W3C//DTD SVG 1.1//EN"
 "http://www.w3.org/Graphics/SVG/1.1/DTD/svg11.dtd">
<!-- Generated by graphviz version 2.47.0 (20210316.0004)
 -->
<!-- Title: dependencies Pages: 1 -->
<svg width="946pt" height="211pt"
 viewBox="0.00 0.00 946.00 211.00" xmlns="http://www.w3.org/2000/svg" xmlns:xlink="http://www.w3.org/1999/xlink">
<g id="graph0" class="graph" transform="scale(1 1) rotate(0) translate(4 207)">
<title>dependencies</title>
<polygon fill="white" stroke="transparent" points="-4,4 -4,-207 942,-207 942,4 -4,4"/>
<text text-anchor="start" x="448.01" y="-42.4" font-family="Times-12" font-weight="bold" font-size="14.00">Legend</text>
<polygon fill="#ffffb3" stroke="transparent" points="235,-10 235,-30 255,-30 255,-10 235,-10"/>
<text text-anchor="start" x="258.63" y="-15.4" font-family="Times-12" font-size="14.00"> &#160;Declarations</text>
<polygon fill="#8dd3c7" stroke="transparent" points="348,-10 348,-30 368,-30 368,-10 348,-10"/>
<text text-anchor="start" x="371.73" y="-15.4" font-family="Times-12" font-size="14.00"> &#160;Module</text>
<polygon fill="#80b1d3" stroke="transparent" points="434,-10 434,-30 454,-30 454,-10 434,-10"/>
<text text-anchor="start" x="457.78" y="-15.4" font-family="Times-12" font-size="14.00"> &#160;Bootstrap</text>
<polygon fill="#fdb462" stroke="transparent" points="531,-10 531,-30 551,-30 551,-10 531,-10"/>
<text text-anchor="start" x="554.67" y="-15.4" font-family="Times-12" font-size="14.00"> &#160;Providers</text>
<polygon fill="#fb8072" stroke="transparent" points="627,-10 627,-30 647,-30 647,-10 627,-10"/>
<text text-anchor="start" x="650.73" y="-15.4" font-family="Times-12" font-size="14.00"> &#160;Exports</text>
<g id="clust1" class="cluster">
<title>cluster_SoftDeleteEntitiesModule</title>
<polygon fill="none" stroke="black" stroke-dasharray="1,5" points="8,-70 8,-195 930,-195 930,-70 8,-70"/>
</g>
<g id="clust5" class="cluster">
<title>cluster_SoftDeleteEntitiesModule_imports</title>
<polygon fill="none" stroke="black" points="440,-78 440,-130 922,-130 922,-78 440,-78"/>
</g>
<g id="clust2" class="cluster">
<title>cluster_SoftDeleteEntitiesModule_declarations</title>
<polygon fill="none" stroke="black" points="16,-78 16,-130 432,-130 432,-78 16,-78"/>
</g>
<!-- SoftDeleteCheckboxComponent -->
<g id="node1" class="node">
<title>SoftDeleteCheckboxComponent</title>
<polygon fill="#ffffb3" stroke="black" points="423.96,-122 226.04,-122 226.04,-86 423.96,-86 423.96,-122"/>
<text text-anchor="middle" x="325" y="-99.8" font-family="Times,serif" font-size="14.00">SoftDeleteCheckboxComponent</text>
</g>
<!-- SoftDeleteEntitiesModule -->
<g id="node3" class="node">
<title>SoftDeleteEntitiesModule</title>
<polygon fill="#8dd3c7" stroke="black" points="633.19,-187 630.19,-191 609.19,-191 606.19,-187 470.81,-187 470.81,-151 633.19,-151 633.19,-187"/>
<text text-anchor="middle" x="552" y="-164.8" font-family="Times,serif" font-size="14.00">SoftDeleteEntitiesModule</text>
</g>
<!-- SoftDeleteCheckboxComponent&#45;&gt;SoftDeleteEntitiesModule -->
<g id="edge1" class="edge">
<title>SoftDeleteCheckboxComponent&#45;&gt;SoftDeleteEntitiesModule</title>
<path fill="none" stroke="black" d="M325,-122.02C325,-139.37 325,-163 325,-163 325,-163 460.69,-163 460.69,-163"/>
<polygon fill="black" stroke="black" points="460.69,-166.5 470.69,-163 460.69,-159.5 460.69,-166.5"/>
</g>
<!-- SoftDeleteEntitiesComponent -->
<g id="node2" class="node">
<title>SoftDeleteEntitiesComponent</title>
<polygon fill="#ffffb3" stroke="black" points="207.97,-122 24.03,-122 24.03,-86 207.97,-86 207.97,-122"/>
<text text-anchor="middle" x="116" y="-99.8" font-family="Times,serif" font-size="14.00">SoftDeleteEntitiesComponent</text>
</g>
<!-- SoftDeleteEntitiesComponent&#45;&gt;SoftDeleteEntitiesModule -->
<g id="edge2" class="edge">
<title>SoftDeleteEntitiesComponent&#45;&gt;SoftDeleteEntitiesModule</title>
<path fill="none" stroke="black" d="M116,-122.28C116,-143.32 116,-175 116,-175 116,-175 460.76,-175 460.76,-175"/>
<polygon fill="black" stroke="black" points="460.76,-178.5 470.76,-175 460.76,-171.5 460.76,-178.5"/>
</g>
<!-- DirectivesModule -->
<g id="node4" class="node">
<title>DirectivesModule</title>
<polygon fill="#8dd3c7" stroke="black" points="913.58,-122 910.58,-126 889.58,-126 886.58,-122 796.42,-122 796.42,-86 913.58,-86 913.58,-122"/>
<text text-anchor="middle" x="855" y="-99.8" font-family="Times,serif" font-size="14.00">DirectivesModule</text>
</g>
<!-- DirectivesModule&#45;&gt;SoftDeleteEntitiesModule -->
<g id="edge3" class="edge">
<title>DirectivesModule&#45;&gt;SoftDeleteEntitiesModule</title>
<path fill="none" stroke="black" d="M855,-122.28C855,-143.32 855,-175 855,-175 855,-175 643.2,-175 643.2,-175"/>
<polygon fill="black" stroke="black" points="643.2,-171.5 633.2,-175 643.2,-178.5 643.2,-171.5"/>
</g>
<!-- LayoutsModule -->
<g id="node5" class="node">
<title>LayoutsModule</title>
<polygon fill="#8dd3c7" stroke="black" points="778.15,-122 775.15,-126 754.15,-126 751.15,-122 673.85,-122 673.85,-86 778.15,-86 778.15,-122"/>
<text text-anchor="middle" x="726" y="-99.8" font-family="Times,serif" font-size="14.00">LayoutsModule</text>
</g>
<!-- LayoutsModule&#45;&gt;SoftDeleteEntitiesModule -->
<g id="edge4" class="edge">
<title>LayoutsModule&#45;&gt;SoftDeleteEntitiesModule</title>
<path fill="none" stroke="black" d="M726,-122.02C726,-139.37 726,-163 726,-163 726,-163 643.14,-163 643.14,-163"/>
<polygon fill="black" stroke="black" points="643.14,-159.5 633.14,-163 643.14,-166.5 643.14,-159.5"/>
</g>
<!-- SoftDeleteEntitiesRoutingModule -->
<g id="node6" class="node">
<title>SoftDeleteEntitiesRoutingModule</title>
<polygon fill="#8dd3c7" stroke="black" points="655.81,-122 652.81,-126 631.81,-126 628.81,-122 448.19,-122 448.19,-86 655.81,-86 655.81,-122"/>
<text text-anchor="middle" x="552" y="-99.8" font-family="Times,serif" font-size="14.00">SoftDeleteEntitiesRoutingModule</text>
</g>
<!-- SoftDeleteEntitiesRoutingModule&#45;&gt;SoftDeleteEntitiesModule -->
<g id="edge5" class="edge">
<title>SoftDeleteEntitiesRoutingModule&#45;&gt;SoftDeleteEntitiesModule</title>
<path fill="none" stroke="black" d="M552,-122.11C552,-122.11 552,-140.99 552,-140.99"/>
<polygon fill="black" stroke="black" points="548.5,-140.99 552,-150.99 555.5,-140.99 548.5,-140.99"/>
</g>
</g>
</svg>
