<?xml version="1.0" encoding="UTF-8" standalone="no"?>
<!DOCTYPE svg PUBLIC "-//W3C//DTD SVG 1.1//EN"
 "http://www.w3.org/Graphics/SVG/1.1/DTD/svg11.dtd">
<!-- Generated by graphviz version 2.47.0 (20210316.0004)
 -->
<!-- Title: dependencies Pages: 1 -->
<svg width="516pt" height="211pt"
 viewBox="0.00 0.00 516.00 211.00" xmlns="http://www.w3.org/2000/svg" xmlns:xlink="http://www.w3.org/1999/xlink">
<g id="graph0" class="graph" transform="scale(1 1) rotate(0) translate(4 207)">
<title>dependencies</title>
<polygon fill="white" stroke="transparent" points="-4,4 -4,-207 512,-207 512,4 -4,4"/>
<text text-anchor="start" x="233.01" y="-42.4" font-family="Times-12" font-weight="bold" font-size="14.00">Legend</text>
<polygon fill="#ffffb3" stroke="transparent" points="20,-10 20,-30 40,-30 40,-10 20,-10"/>
<text text-anchor="start" x="43.63" y="-15.4" font-family="Times-12" font-size="14.00"> &#160;Declarations</text>
<polygon fill="#8dd3c7" stroke="transparent" points="133,-10 133,-30 153,-30 153,-10 133,-10"/>
<text text-anchor="start" x="156.73" y="-15.4" font-family="Times-12" font-size="14.00"> &#160;Module</text>
<polygon fill="#80b1d3" stroke="transparent" points="219,-10 219,-30 239,-30 239,-10 219,-10"/>
<text text-anchor="start" x="242.78" y="-15.4" font-family="Times-12" font-size="14.00"> &#160;Bootstrap</text>
<polygon fill="#fdb462" stroke="transparent" points="316,-10 316,-30 336,-30 336,-10 316,-10"/>
<text text-anchor="start" x="339.67" y="-15.4" font-family="Times-12" font-size="14.00"> &#160;Providers</text>
<polygon fill="#fb8072" stroke="transparent" points="412,-10 412,-30 432,-30 432,-10 412,-10"/>
<text text-anchor="start" x="435.73" y="-15.4" font-family="Times-12" font-size="14.00"> &#160;Exports</text>
<g id="clust1" class="cluster">
<title>cluster_CreateResourceGroupModule</title>
<polygon fill="none" stroke="black" stroke-dasharray="1,5" points="8,-70 8,-195 500,-195 500,-70 8,-70"/>
</g>
<g id="clust2" class="cluster">
<title>cluster_CreateResourceGroupModule_declarations</title>
<polygon fill="none" stroke="black" points="270,-78 270,-130 492,-130 492,-78 270,-78"/>
</g>
<g id="clust4" class="cluster">
<title>cluster_CreateResourceGroupModule_imports</title>
<polygon fill="none" stroke="black" points="16,-78 16,-130 262,-130 262,-78 16,-78"/>
</g>
<!-- CreateResourceGroupComponent -->
<g id="node1" class="node">
<title>CreateResourceGroupComponent</title>
<polygon fill="#ffffb3" stroke="black" points="483.72,-122 278.28,-122 278.28,-86 483.72,-86 483.72,-122"/>
<text text-anchor="middle" x="381" y="-99.8" font-family="Times,serif" font-size="14.00">CreateResourceGroupComponent</text>
</g>
<!-- CreateResourceGroupModule -->
<g id="node2" class="node">
<title>CreateResourceGroupModule</title>
<polygon fill="#8dd3c7" stroke="black" points="351.93,-187 348.93,-191 327.93,-191 324.93,-187 168.07,-187 168.07,-151 351.93,-151 351.93,-187"/>
<text text-anchor="middle" x="260" y="-164.8" font-family="Times,serif" font-size="14.00">CreateResourceGroupModule</text>
</g>
<!-- CreateResourceGroupComponent&#45;&gt;CreateResourceGroupModule -->
<g id="edge1" class="edge">
<title>CreateResourceGroupComponent&#45;&gt;CreateResourceGroupModule</title>
<path fill="none" stroke="black" d="M315.05,-122.11C315.05,-122.11 315.05,-140.99 315.05,-140.99"/>
<polygon fill="black" stroke="black" points="311.55,-140.99 315.05,-150.99 318.55,-140.99 311.55,-140.99"/>
</g>
<!-- CreateResourceGroupRoutingModule -->
<g id="node3" class="node">
<title>CreateResourceGroupRoutingModule</title>
<polygon fill="#8dd3c7" stroke="black" points="253.55,-122 250.55,-126 229.55,-126 226.55,-122 24.45,-122 24.45,-86 253.55,-86 253.55,-122"/>
<text text-anchor="middle" x="139" y="-99.8" font-family="Times,serif" font-size="14.00">CreateResourceGroupRoutingModule</text>
</g>
<!-- CreateResourceGroupRoutingModule&#45;&gt;CreateResourceGroupModule -->
<g id="edge2" class="edge">
<title>CreateResourceGroupRoutingModule&#45;&gt;CreateResourceGroupModule</title>
<path fill="none" stroke="black" d="M210.78,-122.11C210.78,-122.11 210.78,-140.99 210.78,-140.99"/>
<polygon fill="black" stroke="black" points="207.28,-140.99 210.78,-150.99 214.28,-140.99 207.28,-140.99"/>
</g>
</g>
</svg>
