<?xml version="1.0" encoding="UTF-8" standalone="no"?>
<!DOCTYPE svg PUBLIC "-//W3C//DTD SVG 1.1//EN"
 "http://www.w3.org/Graphics/SVG/1.1/DTD/svg11.dtd">
<!-- Generated by graphviz version 2.47.0 (20210316.0004)
 -->
<!-- Title: dependencies Pages: 1 -->
<svg width="504pt" height="211pt"
 viewBox="0.00 0.00 504.00 211.00" xmlns="http://www.w3.org/2000/svg" xmlns:xlink="http://www.w3.org/1999/xlink">
<g id="graph0" class="graph" transform="scale(1 1) rotate(0) translate(4 207)">
<title>dependencies</title>
<polygon fill="white" stroke="transparent" points="-4,4 -4,-207 500,-207 500,4 -4,4"/>
<text text-anchor="start" x="227.01" y="-42.4" font-family="Times-12" font-weight="bold" font-size="14.00">Legend</text>
<polygon fill="#ffffb3" stroke="transparent" points="14,-10 14,-30 34,-30 34,-10 14,-10"/>
<text text-anchor="start" x="37.63" y="-15.4" font-family="Times-12" font-size="14.00"> &#160;Declarations</text>
<polygon fill="#8dd3c7" stroke="transparent" points="127,-10 127,-30 147,-30 147,-10 127,-10"/>
<text text-anchor="start" x="150.73" y="-15.4" font-family="Times-12" font-size="14.00"> &#160;Module</text>
<polygon fill="#80b1d3" stroke="transparent" points="213,-10 213,-30 233,-30 233,-10 213,-10"/>
<text text-anchor="start" x="236.78" y="-15.4" font-family="Times-12" font-size="14.00"> &#160;Bootstrap</text>
<polygon fill="#fdb462" stroke="transparent" points="310,-10 310,-30 330,-30 330,-10 310,-10"/>
<text text-anchor="start" x="333.67" y="-15.4" font-family="Times-12" font-size="14.00"> &#160;Providers</text>
<polygon fill="#fb8072" stroke="transparent" points="406,-10 406,-30 426,-30 426,-10 406,-10"/>
<text text-anchor="start" x="429.73" y="-15.4" font-family="Times-12" font-size="14.00"> &#160;Exports</text>
<g id="clust1" class="cluster">
<title>cluster_NoAccessModule</title>
<polygon fill="none" stroke="black" stroke-dasharray="1,5" points="70,-70 70,-195 426,-195 426,-70 70,-70"/>
</g>
<g id="clust4" class="cluster">
<title>cluster_NoAccessModule_imports</title>
<polygon fill="none" stroke="black" points="240,-78 240,-130 418,-130 418,-78 240,-78"/>
</g>
<g id="clust2" class="cluster">
<title>cluster_NoAccessModule_declarations</title>
<polygon fill="none" stroke="black" points="78,-78 78,-130 232,-130 232,-78 78,-78"/>
</g>
<!-- NoAccessComponent -->
<g id="node1" class="node">
<title>NoAccessComponent</title>
<polygon fill="#ffffb3" stroke="black" points="224.08,-122 85.92,-122 85.92,-86 224.08,-86 224.08,-122"/>
<text text-anchor="middle" x="155" y="-99.8" font-family="Times,serif" font-size="14.00">NoAccessComponent</text>
</g>
<!-- NoAccessModule -->
<g id="node2" class="node">
<title>NoAccessModule</title>
<polygon fill="#8dd3c7" stroke="black" points="300.3,-187 297.3,-191 276.3,-191 273.3,-187 183.7,-187 183.7,-151 300.3,-151 300.3,-187"/>
<text text-anchor="middle" x="242" y="-164.8" font-family="Times,serif" font-size="14.00">NoAccessModule</text>
</g>
<!-- NoAccessComponent&#45;&gt;NoAccessModule -->
<g id="edge1" class="edge">
<title>NoAccessComponent&#45;&gt;NoAccessModule</title>
<path fill="none" stroke="black" d="M203.95,-122.11C203.95,-122.11 203.95,-140.99 203.95,-140.99"/>
<polygon fill="black" stroke="black" points="200.45,-140.99 203.95,-150.99 207.45,-140.99 200.45,-140.99"/>
</g>
<!-- NoAccessRoutingModule -->
<g id="node3" class="node">
<title>NoAccessRoutingModule</title>
<polygon fill="#8dd3c7" stroke="black" points="409.91,-122 406.91,-126 385.91,-126 382.91,-122 248.09,-122 248.09,-86 409.91,-86 409.91,-122"/>
<text text-anchor="middle" x="329" y="-99.8" font-family="Times,serif" font-size="14.00">NoAccessRoutingModule</text>
</g>
<!-- NoAccessRoutingModule&#45;&gt;NoAccessModule -->
<g id="edge2" class="edge">
<title>NoAccessRoutingModule&#45;&gt;NoAccessModule</title>
<path fill="none" stroke="black" d="M274.22,-122.11C274.22,-122.11 274.22,-140.99 274.22,-140.99"/>
<polygon fill="black" stroke="black" points="270.72,-140.99 274.22,-150.99 277.72,-140.99 270.72,-140.99"/>
</g>
</g>
</svg>
