<?xml version="1.0" encoding="UTF-8" standalone="no"?>
<!DOCTYPE svg PUBLIC "-//W3C//DTD SVG 1.1//EN"
 "http://www.w3.org/Graphics/SVG/1.1/DTD/svg11.dtd">
<!-- Generated by graphviz version 2.47.0 (20210316.0004)
 -->
<!-- Title: dependencies Pages: 1 -->
<svg width="1101pt" height="211pt"
 viewBox="0.00 0.00 1101.00 211.00" xmlns="http://www.w3.org/2000/svg" xmlns:xlink="http://www.w3.org/1999/xlink">
<g id="graph0" class="graph" transform="scale(1 1) rotate(0) translate(4 207)">
<title>dependencies</title>
<polygon fill="white" stroke="transparent" points="-4,4 -4,-207 1097,-207 1097,4 -4,4"/>
<text text-anchor="start" x="525.51" y="-42.4" font-family="Times-12" font-weight="bold" font-size="14.00">Legend</text>
<polygon fill="#ffffb3" stroke="transparent" points="312.5,-10 312.5,-30 332.5,-30 332.5,-10 312.5,-10"/>
<text text-anchor="start" x="336.13" y="-15.4" font-family="Times-12" font-size="14.00"> &#160;Declarations</text>
<polygon fill="#8dd3c7" stroke="transparent" points="425.5,-10 425.5,-30 445.5,-30 445.5,-10 425.5,-10"/>
<text text-anchor="start" x="449.23" y="-15.4" font-family="Times-12" font-size="14.00"> &#160;Module</text>
<polygon fill="#80b1d3" stroke="transparent" points="511.5,-10 511.5,-30 531.5,-30 531.5,-10 511.5,-10"/>
<text text-anchor="start" x="535.28" y="-15.4" font-family="Times-12" font-size="14.00"> &#160;Bootstrap</text>
<polygon fill="#fdb462" stroke="transparent" points="608.5,-10 608.5,-30 628.5,-30 628.5,-10 608.5,-10"/>
<text text-anchor="start" x="632.17" y="-15.4" font-family="Times-12" font-size="14.00"> &#160;Providers</text>
<polygon fill="#fb8072" stroke="transparent" points="704.5,-10 704.5,-30 724.5,-30 724.5,-10 704.5,-10"/>
<text text-anchor="start" x="728.23" y="-15.4" font-family="Times-12" font-size="14.00"> &#160;Exports</text>
<g id="clust1" class="cluster">
<title>cluster_ClusterDisasterRecoveryModule</title>
<polygon fill="none" stroke="black" stroke-dasharray="1,5" points="8,-70 8,-195 1085,-195 1085,-70 8,-70"/>
</g>
<g id="clust6" class="cluster">
<title>cluster_ClusterDisasterRecoveryModule_imports</title>
<polygon fill="none" stroke="black" points="694,-78 694,-130 1077,-130 1077,-78 694,-78"/>
</g>
<g id="clust2" class="cluster">
<title>cluster_ClusterDisasterRecoveryModule_declarations</title>
<polygon fill="none" stroke="black" points="16,-78 16,-130 686,-130 686,-78 16,-78"/>
</g>
<!-- ClusterDisasterRecoveryComponent -->
<g id="node1" class="node">
<title>ClusterDisasterRecoveryComponent</title>
<polygon fill="#ffffb3" stroke="black" points="677.78,-122 456.22,-122 456.22,-86 677.78,-86 677.78,-122"/>
<text text-anchor="middle" x="567" y="-99.8" font-family="Times,serif" font-size="14.00">ClusterDisasterRecoveryComponent</text>
</g>
<!-- ClusterDisasterRecoveryModule -->
<g id="node4" class="node">
<title>ClusterDisasterRecoveryModule</title>
<polygon fill="#8dd3c7" stroke="black" points="667,-187 664,-191 643,-191 640,-187 467,-187 467,-151 667,-151 667,-187"/>
<text text-anchor="middle" x="567" y="-164.8" font-family="Times,serif" font-size="14.00">ClusterDisasterRecoveryModule</text>
</g>
<!-- ClusterDisasterRecoveryComponent&#45;&gt;ClusterDisasterRecoveryModule -->
<g id="edge1" class="edge">
<title>ClusterDisasterRecoveryComponent&#45;&gt;ClusterDisasterRecoveryModule</title>
<path fill="none" stroke="black" d="M567,-122.11C567,-122.11 567,-140.99 567,-140.99"/>
<polygon fill="black" stroke="black" points="563.5,-140.99 567,-150.99 570.5,-140.99 563.5,-140.99"/>
</g>
<!-- CreateSnapshotDialogComponent -->
<g id="node2" class="node">
<title>CreateSnapshotDialogComponent</title>
<polygon fill="#ffffb3" stroke="black" points="438.8,-122 231.2,-122 231.2,-86 438.8,-86 438.8,-122"/>
<text text-anchor="middle" x="335" y="-99.8" font-family="Times,serif" font-size="14.00">CreateSnapshotDialogComponent</text>
</g>
<!-- CreateSnapshotDialogComponent&#45;&gt;ClusterDisasterRecoveryModule -->
<g id="edge2" class="edge">
<title>CreateSnapshotDialogComponent&#45;&gt;ClusterDisasterRecoveryModule</title>
<path fill="none" stroke="black" d="M335,-122.02C335,-139.37 335,-163 335,-163 335,-163 456.93,-163 456.93,-163"/>
<polygon fill="black" stroke="black" points="456.93,-166.5 466.93,-163 456.93,-159.5 456.93,-166.5"/>
</g>
<!-- PinSnapshotDialogComponent -->
<g id="node3" class="node">
<title>PinSnapshotDialogComponent</title>
<polygon fill="#ffffb3" stroke="black" points="213.94,-122 24.06,-122 24.06,-86 213.94,-86 213.94,-122"/>
<text text-anchor="middle" x="119" y="-99.8" font-family="Times,serif" font-size="14.00">PinSnapshotDialogComponent</text>
</g>
<!-- PinSnapshotDialogComponent&#45;&gt;ClusterDisasterRecoveryModule -->
<g id="edge3" class="edge">
<title>PinSnapshotDialogComponent&#45;&gt;ClusterDisasterRecoveryModule</title>
<path fill="none" stroke="black" d="M119,-122.28C119,-143.32 119,-175 119,-175 119,-175 457.02,-175 457.02,-175"/>
<polygon fill="black" stroke="black" points="457.02,-178.5 467.02,-175 457.02,-171.5 457.02,-178.5"/>
</g>
<!-- ClusterDisasterRecoveryRoutingModule -->
<g id="node5" class="node">
<title>ClusterDisasterRecoveryRoutingModule</title>
<polygon fill="#8dd3c7" stroke="black" points="1069.11,-122 1066.11,-126 1045.11,-126 1042.11,-122 824.89,-122 824.89,-86 1069.11,-86 1069.11,-122"/>
<text text-anchor="middle" x="947" y="-99.8" font-family="Times,serif" font-size="14.00">ClusterDisasterRecoveryRoutingModule</text>
</g>
<!-- ClusterDisasterRecoveryRoutingModule&#45;&gt;ClusterDisasterRecoveryModule -->
<g id="edge4" class="edge">
<title>ClusterDisasterRecoveryRoutingModule&#45;&gt;ClusterDisasterRecoveryModule</title>
<path fill="none" stroke="black" d="M947,-122.28C947,-143.32 947,-175 947,-175 947,-175 676.84,-175 676.84,-175"/>
<polygon fill="black" stroke="black" points="676.84,-171.5 666.84,-175 676.84,-178.5 676.84,-171.5"/>
</g>
<!-- LayoutsModule -->
<g id="node6" class="node">
<title>LayoutsModule</title>
<polygon fill="#8dd3c7" stroke="black" points="806.15,-122 803.15,-126 782.15,-126 779.15,-122 701.85,-122 701.85,-86 806.15,-86 806.15,-122"/>
<text text-anchor="middle" x="754" y="-99.8" font-family="Times,serif" font-size="14.00">LayoutsModule</text>
</g>
<!-- LayoutsModule&#45;&gt;ClusterDisasterRecoveryModule -->
<g id="edge5" class="edge">
<title>LayoutsModule&#45;&gt;ClusterDisasterRecoveryModule</title>
<path fill="none" stroke="black" d="M754,-122.02C754,-139.37 754,-163 754,-163 754,-163 676.8,-163 676.8,-163"/>
<polygon fill="black" stroke="black" points="676.8,-159.5 666.8,-163 676.8,-166.5 676.8,-159.5"/>
</g>
</g>
</svg>
