<?xml version="1.0" encoding="UTF-8" standalone="no"?>
<!DOCTYPE svg PUBLIC "-//W3C//DTD SVG 1.1//EN"
 "http://www.w3.org/Graphics/SVG/1.1/DTD/svg11.dtd">
<!-- Generated by graphviz version 2.47.0 (20210316.0004)
 -->
<!-- Title: dependencies Pages: 1 -->
<svg width="682pt" height="211pt"
 viewBox="0.00 0.00 682.00 211.00" xmlns="http://www.w3.org/2000/svg" xmlns:xlink="http://www.w3.org/1999/xlink">
<g id="graph0" class="graph" transform="scale(1 1) rotate(0) translate(4 207)">
<title>dependencies</title>
<polygon fill="white" stroke="transparent" points="-4,4 -4,-207 678,-207 678,4 -4,4"/>
<text text-anchor="start" x="316.01" y="-42.4" font-family="Times-12" font-weight="bold" font-size="14.00">Legend</text>
<polygon fill="#ffffb3" stroke="transparent" points="103,-10 103,-30 123,-30 123,-10 103,-10"/>
<text text-anchor="start" x="126.63" y="-15.4" font-family="Times-12" font-size="14.00"> &#160;Declarations</text>
<polygon fill="#8dd3c7" stroke="transparent" points="216,-10 216,-30 236,-30 236,-10 216,-10"/>
<text text-anchor="start" x="239.73" y="-15.4" font-family="Times-12" font-size="14.00"> &#160;Module</text>
<polygon fill="#80b1d3" stroke="transparent" points="302,-10 302,-30 322,-30 322,-10 302,-10"/>
<text text-anchor="start" x="325.78" y="-15.4" font-family="Times-12" font-size="14.00"> &#160;Bootstrap</text>
<polygon fill="#fdb462" stroke="transparent" points="399,-10 399,-30 419,-30 419,-10 399,-10"/>
<text text-anchor="start" x="422.67" y="-15.4" font-family="Times-12" font-size="14.00"> &#160;Providers</text>
<polygon fill="#fb8072" stroke="transparent" points="495,-10 495,-30 515,-30 515,-10 495,-10"/>
<text text-anchor="start" x="518.73" y="-15.4" font-family="Times-12" font-size="14.00"> &#160;Exports</text>
<g id="clust1" class="cluster">
<title>cluster_ResourceBlueprintHistoryModule</title>
<polygon fill="none" stroke="black" stroke-dasharray="1,5" points="8,-70 8,-195 666,-195 666,-70 8,-70"/>
</g>
<g id="clust2" class="cluster">
<title>cluster_ResourceBlueprintHistoryModule_declarations</title>
<polygon fill="none" stroke="black" points="414,-78 414,-130 658,-130 658,-78 414,-78"/>
</g>
<g id="clust4" class="cluster">
<title>cluster_ResourceBlueprintHistoryModule_imports</title>
<polygon fill="none" stroke="black" points="16,-78 16,-130 406,-130 406,-78 16,-78"/>
</g>
<!-- ResourceBlueprintHistoryComponent -->
<g id="node1" class="node">
<title>ResourceBlueprintHistoryComponent</title>
<polygon fill="#ffffb3" stroke="black" points="650.29,-122 421.71,-122 421.71,-86 650.29,-86 650.29,-122"/>
<text text-anchor="middle" x="536" y="-99.8" font-family="Times,serif" font-size="14.00">ResourceBlueprintHistoryComponent</text>
</g>
<!-- ResourceBlueprintHistoryModule -->
<g id="node2" class="node">
<title>ResourceBlueprintHistoryModule</title>
<polygon fill="#8dd3c7" stroke="black" points="449.01,-187 446.01,-191 425.01,-191 422.01,-187 242.99,-187 242.99,-151 449.01,-151 449.01,-187"/>
<text text-anchor="middle" x="346" y="-164.8" font-family="Times,serif" font-size="14.00">ResourceBlueprintHistoryModule</text>
</g>
<!-- ResourceBlueprintHistoryComponent&#45;&gt;ResourceBlueprintHistoryModule -->
<g id="edge1" class="edge">
<title>ResourceBlueprintHistoryComponent&#45;&gt;ResourceBlueprintHistoryModule</title>
<path fill="none" stroke="black" d="M435.55,-122.11C435.55,-122.11 435.55,-140.99 435.55,-140.99"/>
<polygon fill="black" stroke="black" points="432.05,-140.99 435.55,-150.99 439.05,-140.99 432.05,-140.99"/>
</g>
<!-- LayoutsModule -->
<g id="node3" class="node">
<title>LayoutsModule</title>
<polygon fill="#8dd3c7" stroke="black" points="398.15,-122 395.15,-126 374.15,-126 371.15,-122 293.85,-122 293.85,-86 398.15,-86 398.15,-122"/>
<text text-anchor="middle" x="346" y="-99.8" font-family="Times,serif" font-size="14.00">LayoutsModule</text>
</g>
<!-- LayoutsModule&#45;&gt;ResourceBlueprintHistoryModule -->
<g id="edge2" class="edge">
<title>LayoutsModule&#45;&gt;ResourceBlueprintHistoryModule</title>
<path fill="none" stroke="black" d="M346,-122.11C346,-122.11 346,-140.99 346,-140.99"/>
<polygon fill="black" stroke="black" points="342.5,-140.99 346,-150.99 349.5,-140.99 342.5,-140.99"/>
</g>
<!-- ResourceBlueprintHistoryRoutingModule -->
<g id="node4" class="node">
<title>ResourceBlueprintHistoryRoutingModule</title>
<polygon fill="#8dd3c7" stroke="black" points="275.63,-122 272.63,-126 251.63,-126 248.63,-122 24.37,-122 24.37,-86 275.63,-86 275.63,-122"/>
<text text-anchor="middle" x="150" y="-99.8" font-family="Times,serif" font-size="14.00">ResourceBlueprintHistoryRoutingModule</text>
</g>
<!-- ResourceBlueprintHistoryRoutingModule&#45;&gt;ResourceBlueprintHistoryModule -->
<g id="edge3" class="edge">
<title>ResourceBlueprintHistoryRoutingModule&#45;&gt;ResourceBlueprintHistoryModule</title>
<path fill="none" stroke="black" d="M259.28,-122.11C259.28,-122.11 259.28,-140.99 259.28,-140.99"/>
<polygon fill="black" stroke="black" points="255.78,-140.99 259.28,-150.99 262.78,-140.99 255.78,-140.99"/>
</g>
</g>
</svg>
