<?xml version="1.0" encoding="UTF-8" standalone="no"?>
<!DOCTYPE svg PUBLIC "-//W3C//DTD SVG 1.1//EN"
 "http://www.w3.org/Graphics/SVG/1.1/DTD/svg11.dtd">
<!-- Generated by graphviz version 2.47.0 (20210316.0004)
 -->
<!-- Title: dependencies Pages: 1 -->
<svg width="664pt" height="211pt"
 viewBox="0.00 0.00 664.00 211.00" xmlns="http://www.w3.org/2000/svg" xmlns:xlink="http://www.w3.org/1999/xlink">
<g id="graph0" class="graph" transform="scale(1 1) rotate(0) translate(4 207)">
<title>dependencies</title>
<polygon fill="white" stroke="transparent" points="-4,4 -4,-207 660,-207 660,4 -4,4"/>
<text text-anchor="start" x="307.01" y="-42.4" font-family="Times-12" font-weight="bold" font-size="14.00">Legend</text>
<polygon fill="#ffffb3" stroke="transparent" points="94,-10 94,-30 114,-30 114,-10 94,-10"/>
<text text-anchor="start" x="117.63" y="-15.4" font-family="Times-12" font-size="14.00"> &#160;Declarations</text>
<polygon fill="#8dd3c7" stroke="transparent" points="207,-10 207,-30 227,-30 227,-10 207,-10"/>
<text text-anchor="start" x="230.73" y="-15.4" font-family="Times-12" font-size="14.00"> &#160;Module</text>
<polygon fill="#80b1d3" stroke="transparent" points="293,-10 293,-30 313,-30 313,-10 293,-10"/>
<text text-anchor="start" x="316.78" y="-15.4" font-family="Times-12" font-size="14.00"> &#160;Bootstrap</text>
<polygon fill="#fdb462" stroke="transparent" points="390,-10 390,-30 410,-30 410,-10 390,-10"/>
<text text-anchor="start" x="413.67" y="-15.4" font-family="Times-12" font-size="14.00"> &#160;Providers</text>
<polygon fill="#fb8072" stroke="transparent" points="486,-10 486,-30 506,-30 506,-10 486,-10"/>
<text text-anchor="start" x="509.73" y="-15.4" font-family="Times-12" font-size="14.00"> &#160;Exports</text>
<g id="clust1" class="cluster">
<title>cluster_StackCreateModule</title>
<polygon fill="none" stroke="black" stroke-dasharray="1,5" points="8,-70 8,-195 648,-195 648,-70 8,-70"/>
</g>
<g id="clust2" class="cluster">
<title>cluster_StackCreateModule_declarations</title>
<polygon fill="none" stroke="black" points="476,-78 476,-130 640,-130 640,-78 476,-78"/>
</g>
<g id="clust4" class="cluster">
<title>cluster_StackCreateModule_imports</title>
<polygon fill="none" stroke="black" points="16,-78 16,-130 468,-130 468,-78 16,-78"/>
</g>
<!-- StackCreateComponent -->
<g id="node1" class="node">
<title>StackCreateComponent</title>
<polygon fill="#ffffb3" stroke="black" points="632.47,-122 483.53,-122 483.53,-86 632.47,-86 632.47,-122"/>
<text text-anchor="middle" x="558" y="-99.8" font-family="Times,serif" font-size="14.00">StackCreateComponent</text>
</g>
<!-- StackCreateModule -->
<g id="node2" class="node">
<title>StackCreateModule</title>
<polygon fill="#8dd3c7" stroke="black" points="399.68,-187 396.68,-191 375.68,-191 372.68,-187 272.32,-187 272.32,-151 399.68,-151 399.68,-187"/>
<text text-anchor="middle" x="336" y="-164.8" font-family="Times,serif" font-size="14.00">StackCreateModule</text>
</g>
<!-- StackCreateComponent&#45;&gt;StackCreateModule -->
<g id="edge1" class="edge">
<title>StackCreateComponent&#45;&gt;StackCreateModule</title>
<path fill="none" stroke="black" d="M558,-122.11C558,-141.34 558,-169 558,-169 558,-169 409.62,-169 409.62,-169"/>
<polygon fill="black" stroke="black" points="409.62,-165.5 399.62,-169 409.62,-172.5 409.62,-165.5"/>
</g>
<!-- DirectivesModule -->
<g id="node3" class="node">
<title>DirectivesModule</title>
<polygon fill="#8dd3c7" stroke="black" points="459.58,-122 456.58,-126 435.58,-126 432.58,-122 342.42,-122 342.42,-86 459.58,-86 459.58,-122"/>
<text text-anchor="middle" x="401" y="-99.8" font-family="Times,serif" font-size="14.00">DirectivesModule</text>
</g>
<!-- DirectivesModule&#45;&gt;StackCreateModule -->
<g id="edge2" class="edge">
<title>DirectivesModule&#45;&gt;StackCreateModule</title>
<path fill="none" stroke="black" d="M371.03,-122.11C371.03,-122.11 371.03,-140.99 371.03,-140.99"/>
<polygon fill="black" stroke="black" points="367.53,-140.99 371.03,-150.99 374.53,-140.99 367.53,-140.99"/>
</g>
<!-- LayoutsModule -->
<g id="node4" class="node">
<title>LayoutsModule</title>
<polygon fill="#8dd3c7" stroke="black" points="324.15,-122 321.15,-126 300.15,-126 297.15,-122 219.85,-122 219.85,-86 324.15,-86 324.15,-122"/>
<text text-anchor="middle" x="272" y="-99.8" font-family="Times,serif" font-size="14.00">LayoutsModule</text>
</g>
<!-- LayoutsModule&#45;&gt;StackCreateModule -->
<g id="edge3" class="edge">
<title>LayoutsModule&#45;&gt;StackCreateModule</title>
<path fill="none" stroke="black" d="M298.37,-122.11C298.37,-122.11 298.37,-140.99 298.37,-140.99"/>
<polygon fill="black" stroke="black" points="294.87,-140.99 298.37,-150.99 301.87,-140.99 294.87,-140.99"/>
</g>
<!-- StackCreatesRoutingModule -->
<g id="node5" class="node">
<title>StackCreatesRoutingModule</title>
<polygon fill="#8dd3c7" stroke="black" points="201.75,-122 198.75,-126 177.75,-126 174.75,-122 24.25,-122 24.25,-86 201.75,-86 201.75,-122"/>
<text text-anchor="middle" x="113" y="-99.8" font-family="Times,serif" font-size="14.00">StackCreatesRoutingModule</text>
</g>
<!-- StackCreatesRoutingModule&#45;&gt;StackCreateModule -->
<g id="edge4" class="edge">
<title>StackCreatesRoutingModule&#45;&gt;StackCreateModule</title>
<path fill="none" stroke="black" d="M113,-122.11C113,-141.34 113,-169 113,-169 113,-169 262.4,-169 262.4,-169"/>
<polygon fill="black" stroke="black" points="262.4,-172.5 272.4,-169 262.4,-165.5 262.4,-172.5"/>
</g>
</g>
</svg>
