<?xml version="1.0" encoding="UTF-8" standalone="no"?>
<!DOCTYPE svg PUBLIC "-//W3C//DTD SVG 1.1//EN"
 "http://www.w3.org/Graphics/SVG/1.1/DTD/svg11.dtd">
<!-- Generated by graphviz version 2.47.0 (20210316.0004)
 -->
<!-- Title: dependencies Pages: 1 -->
<svg width="1102pt" height="211pt"
 viewBox="0.00 0.00 1102.00 211.00" xmlns="http://www.w3.org/2000/svg" xmlns:xlink="http://www.w3.org/1999/xlink">
<g id="graph0" class="graph" transform="scale(1 1) rotate(0) translate(4 207)">
<title>dependencies</title>
<polygon fill="white" stroke="transparent" points="-4,4 -4,-207 1098,-207 1098,4 -4,4"/>
<text text-anchor="start" x="526.01" y="-42.4" font-family="Times-12" font-weight="bold" font-size="14.00">Legend</text>
<polygon fill="#ffffb3" stroke="transparent" points="313,-10 313,-30 333,-30 333,-10 313,-10"/>
<text text-anchor="start" x="336.63" y="-15.4" font-family="Times-12" font-size="14.00"> &#160;Declarations</text>
<polygon fill="#8dd3c7" stroke="transparent" points="426,-10 426,-30 446,-30 446,-10 426,-10"/>
<text text-anchor="start" x="449.73" y="-15.4" font-family="Times-12" font-size="14.00"> &#160;Module</text>
<polygon fill="#80b1d3" stroke="transparent" points="512,-10 512,-30 532,-30 532,-10 512,-10"/>
<text text-anchor="start" x="535.78" y="-15.4" font-family="Times-12" font-size="14.00"> &#160;Bootstrap</text>
<polygon fill="#fdb462" stroke="transparent" points="609,-10 609,-30 629,-30 629,-10 609,-10"/>
<text text-anchor="start" x="632.67" y="-15.4" font-family="Times-12" font-size="14.00"> &#160;Providers</text>
<polygon fill="#fb8072" stroke="transparent" points="705,-10 705,-30 725,-30 725,-10 705,-10"/>
<text text-anchor="start" x="728.73" y="-15.4" font-family="Times-12" font-size="14.00"> &#160;Exports</text>
<g id="clust1" class="cluster">
<title>cluster_ResourceOverviewModule</title>
<polygon fill="none" stroke="black" stroke-dasharray="1,5" points="8,-70 8,-195 1086,-195 1086,-70 8,-70"/>
</g>
<g id="clust2" class="cluster">
<title>cluster_ResourceOverviewModule_declarations</title>
<polygon fill="none" stroke="black" points="687,-78 687,-130 1078,-130 1078,-78 687,-78"/>
</g>
<g id="clust5" class="cluster">
<title>cluster_ResourceOverviewModule_imports</title>
<polygon fill="none" stroke="black" points="16,-78 16,-130 679,-130 679,-78 16,-78"/>
</g>
<!-- CurrentVersionComponent -->
<g id="node1" class="node">
<title>CurrentVersionComponent</title>
<polygon fill="#ffffb3" stroke="black" points="1070.41,-122 901.59,-122 901.59,-86 1070.41,-86 1070.41,-122"/>
<text text-anchor="middle" x="986" y="-99.8" font-family="Times,serif" font-size="14.00">CurrentVersionComponent</text>
</g>
<!-- ResourceOverviewModule -->
<g id="node3" class="node">
<title>ResourceOverviewModule</title>
<polygon fill="#8dd3c7" stroke="black" points="623.33,-187 620.33,-191 599.33,-191 596.33,-187 456.67,-187 456.67,-151 623.33,-151 623.33,-187"/>
<text text-anchor="middle" x="540" y="-164.8" font-family="Times,serif" font-size="14.00">ResourceOverviewModule</text>
</g>
<!-- CurrentVersionComponent&#45;&gt;ResourceOverviewModule -->
<g id="edge1" class="edge">
<title>CurrentVersionComponent&#45;&gt;ResourceOverviewModule</title>
<path fill="none" stroke="black" d="M986,-122.28C986,-143.32 986,-175 986,-175 986,-175 633.37,-175 633.37,-175"/>
<polygon fill="black" stroke="black" points="633.37,-171.5 623.37,-175 633.37,-178.5 633.37,-171.5"/>
</g>
<!-- ResourceOverviewComponent -->
<g id="node2" class="node">
<title>ResourceOverviewComponent</title>
<polygon fill="#ffffb3" stroke="black" points="883.11,-122 694.89,-122 694.89,-86 883.11,-86 883.11,-122"/>
<text text-anchor="middle" x="789" y="-99.8" font-family="Times,serif" font-size="14.00">ResourceOverviewComponent</text>
</g>
<!-- ResourceOverviewComponent&#45;&gt;ResourceOverviewModule -->
<g id="edge2" class="edge">
<title>ResourceOverviewComponent&#45;&gt;ResourceOverviewModule</title>
<path fill="none" stroke="black" d="M789,-122.02C789,-139.37 789,-163 789,-163 789,-163 633.61,-163 633.61,-163"/>
<polygon fill="black" stroke="black" points="633.61,-159.5 623.61,-163 633.61,-166.5 633.61,-159.5"/>
</g>
<!-- ConfigFieldModule -->
<g id="node4" class="node">
<title>ConfigFieldModule</title>
<polygon fill="#8dd3c7" stroke="black" points="670.72,-122 667.72,-126 646.72,-126 643.72,-122 543.28,-122 543.28,-86 670.72,-86 670.72,-122"/>
<text text-anchor="middle" x="607" y="-99.8" font-family="Times,serif" font-size="14.00">ConfigFieldModule</text>
</g>
<!-- ConfigFieldModule&#45;&gt;ResourceOverviewModule -->
<g id="edge3" class="edge">
<title>ConfigFieldModule&#45;&gt;ResourceOverviewModule</title>
<path fill="none" stroke="black" d="M583.4,-122.11C583.4,-122.11 583.4,-140.99 583.4,-140.99"/>
<polygon fill="black" stroke="black" points="579.9,-140.99 583.4,-150.99 586.9,-140.99 579.9,-140.99"/>
</g>
<!-- LayoutsModule -->
<g id="node5" class="node">
<title>LayoutsModule</title>
<polygon fill="#8dd3c7" stroke="black" points="525.15,-122 522.15,-126 501.15,-126 498.15,-122 420.85,-122 420.85,-86 525.15,-86 525.15,-122"/>
<text text-anchor="middle" x="473" y="-99.8" font-family="Times,serif" font-size="14.00">LayoutsModule</text>
</g>
<!-- LayoutsModule&#45;&gt;ResourceOverviewModule -->
<g id="edge4" class="edge">
<title>LayoutsModule&#45;&gt;ResourceOverviewModule</title>
<path fill="none" stroke="black" d="M490.96,-122.11C490.96,-122.11 490.96,-140.99 490.96,-140.99"/>
<polygon fill="black" stroke="black" points="487.46,-140.99 490.96,-150.99 494.46,-140.99 487.46,-140.99"/>
</g>
<!-- ResourceCenterModule -->
<g id="node6" class="node">
<title>ResourceCenterModule</title>
<polygon fill="#8dd3c7" stroke="black" points="402.45,-122 399.45,-126 378.45,-126 375.45,-122 253.55,-122 253.55,-86 402.45,-86 402.45,-122"/>
<text text-anchor="middle" x="328" y="-99.8" font-family="Times,serif" font-size="14.00">ResourceCenterModule</text>
</g>
<!-- ResourceCenterModule&#45;&gt;ResourceOverviewModule -->
<g id="edge5" class="edge">
<title>ResourceCenterModule&#45;&gt;ResourceOverviewModule</title>
<path fill="none" stroke="black" d="M328,-122.02C328,-139.37 328,-163 328,-163 328,-163 446.52,-163 446.52,-163"/>
<polygon fill="black" stroke="black" points="446.52,-166.5 456.52,-163 446.52,-159.5 446.52,-166.5"/>
</g>
<!-- ResourceOverviewRoutingModule -->
<g id="node7" class="node">
<title>ResourceOverviewRoutingModule</title>
<polygon fill="#8dd3c7" stroke="black" points="235.95,-122 232.95,-126 211.95,-126 208.95,-122 24.05,-122 24.05,-86 235.95,-86 235.95,-122"/>
<text text-anchor="middle" x="130" y="-99.8" font-family="Times,serif" font-size="14.00">ResourceOverviewRoutingModule</text>
</g>
<!-- ResourceOverviewRoutingModule&#45;&gt;ResourceOverviewModule -->
<g id="edge6" class="edge">
<title>ResourceOverviewRoutingModule&#45;&gt;ResourceOverviewModule</title>
<path fill="none" stroke="black" d="M130,-122.28C130,-143.32 130,-175 130,-175 130,-175 446.54,-175 446.54,-175"/>
<polygon fill="black" stroke="black" points="446.54,-178.5 456.54,-175 446.54,-171.5 446.54,-178.5"/>
</g>
</g>
</svg>
