<?xml version="1.0" encoding="UTF-8" standalone="no"?>
<!DOCTYPE svg PUBLIC "-//W3C//DTD SVG 1.1//EN"
 "http://www.w3.org/Graphics/SVG/1.1/DTD/svg11.dtd">
<!-- Generated by graphviz version 2.47.0 (20210316.0004)
 -->
<!-- Title: dependencies Pages: 1 -->
<svg width="504pt" height="211pt"
 viewBox="0.00 0.00 504.00 211.00" xmlns="http://www.w3.org/2000/svg" xmlns:xlink="http://www.w3.org/1999/xlink">
<g id="graph0" class="graph" transform="scale(1 1) rotate(0) translate(4 207)">
<title>dependencies</title>
<polygon fill="white" stroke="transparent" points="-4,4 -4,-207 500,-207 500,4 -4,4"/>
<text text-anchor="start" x="227.01" y="-42.4" font-family="Times-12" font-weight="bold" font-size="14.00">Legend</text>
<polygon fill="#ffffb3" stroke="transparent" points="14,-10 14,-30 34,-30 34,-10 14,-10"/>
<text text-anchor="start" x="37.63" y="-15.4" font-family="Times-12" font-size="14.00"> &#160;Declarations</text>
<polygon fill="#8dd3c7" stroke="transparent" points="127,-10 127,-30 147,-30 147,-10 127,-10"/>
<text text-anchor="start" x="150.73" y="-15.4" font-family="Times-12" font-size="14.00"> &#160;Module</text>
<polygon fill="#80b1d3" stroke="transparent" points="213,-10 213,-30 233,-30 233,-10 213,-10"/>
<text text-anchor="start" x="236.78" y="-15.4" font-family="Times-12" font-size="14.00"> &#160;Bootstrap</text>
<polygon fill="#fdb462" stroke="transparent" points="310,-10 310,-30 330,-30 330,-10 310,-10"/>
<text text-anchor="start" x="333.67" y="-15.4" font-family="Times-12" font-size="14.00"> &#160;Providers</text>
<polygon fill="#fb8072" stroke="transparent" points="406,-10 406,-30 426,-30 426,-10 406,-10"/>
<text text-anchor="start" x="429.73" y="-15.4" font-family="Times-12" font-size="14.00"> &#160;Exports</text>
<g id="clust1" class="cluster">
<title>cluster_ArtifactsModule</title>
<polygon fill="none" stroke="black" stroke-dasharray="1,5" points="17,-70 17,-195 479,-195 479,-70 17,-70"/>
</g>
<g id="clust4" class="cluster">
<title>cluster_ArtifactsModule_imports</title>
<polygon fill="none" stroke="black" points="179,-78 179,-130 471,-130 471,-78 179,-78"/>
</g>
<g id="clust2" class="cluster">
<title>cluster_ArtifactsModule_declarations</title>
<polygon fill="none" stroke="black" points="25,-78 25,-130 171,-130 171,-78 25,-78"/>
</g>
<!-- ArtifactsComponent -->
<g id="node1" class="node">
<title>ArtifactsComponent</title>
<polygon fill="#ffffb3" stroke="black" points="163.31,-122 32.69,-122 32.69,-86 163.31,-86 163.31,-122"/>
<text text-anchor="middle" x="98" y="-99.8" font-family="Times,serif" font-size="14.00">ArtifactsComponent</text>
</g>
<!-- ArtifactsModule -->
<g id="node2" class="node">
<title>ArtifactsModule</title>
<polygon fill="#8dd3c7" stroke="black" points="293.02,-187 290.02,-191 269.02,-191 266.02,-187 184.98,-187 184.98,-151 293.02,-151 293.02,-187"/>
<text text-anchor="middle" x="239" y="-164.8" font-family="Times,serif" font-size="14.00">ArtifactsModule</text>
</g>
<!-- ArtifactsComponent&#45;&gt;ArtifactsModule -->
<g id="edge1" class="edge">
<title>ArtifactsComponent&#45;&gt;ArtifactsModule</title>
<path fill="none" stroke="black" d="M98,-122.11C98,-141.34 98,-169 98,-169 98,-169 174.89,-169 174.89,-169"/>
<polygon fill="black" stroke="black" points="174.89,-172.5 184.89,-169 174.89,-165.5 174.89,-172.5"/>
</g>
<!-- ArtifactsRoutingModule -->
<g id="node3" class="node">
<title>ArtifactsRoutingModule</title>
<polygon fill="#8dd3c7" stroke="black" points="462.64,-122 459.64,-126 438.64,-126 435.64,-122 309.36,-122 309.36,-86 462.64,-86 462.64,-122"/>
<text text-anchor="middle" x="386" y="-99.8" font-family="Times,serif" font-size="14.00">ArtifactsRoutingModule</text>
</g>
<!-- ArtifactsRoutingModule&#45;&gt;ArtifactsModule -->
<g id="edge2" class="edge">
<title>ArtifactsRoutingModule&#45;&gt;ArtifactsModule</title>
<path fill="none" stroke="black" d="M386,-122.11C386,-141.34 386,-169 386,-169 386,-169 303.32,-169 303.32,-169"/>
<polygon fill="black" stroke="black" points="303.32,-165.5 293.32,-169 303.32,-172.5 303.32,-165.5"/>
</g>
<!-- LayoutsModule -->
<g id="node4" class="node">
<title>LayoutsModule</title>
<polygon fill="#8dd3c7" stroke="black" points="291.15,-122 288.15,-126 267.15,-126 264.15,-122 186.85,-122 186.85,-86 291.15,-86 291.15,-122"/>
<text text-anchor="middle" x="239" y="-99.8" font-family="Times,serif" font-size="14.00">LayoutsModule</text>
</g>
<!-- LayoutsModule&#45;&gt;ArtifactsModule -->
<g id="edge3" class="edge">
<title>LayoutsModule&#45;&gt;ArtifactsModule</title>
<path fill="none" stroke="black" d="M239,-122.11C239,-122.11 239,-140.99 239,-140.99"/>
<polygon fill="black" stroke="black" points="235.5,-140.99 239,-150.99 242.5,-140.99 235.5,-140.99"/>
</g>
</g>
</svg>
