<?xml version="1.0" encoding="UTF-8" standalone="no"?>
<!DOCTYPE svg PUBLIC "-//W3C//DTD SVG 1.1//EN"
 "http://www.w3.org/Graphics/SVG/1.1/DTD/svg11.dtd">
<!-- Generated by graphviz version 2.47.0 (20210316.0004)
 -->
<!-- Title: dependencies Pages: 1 -->
<svg width="1039pt" height="211pt"
 viewBox="0.00 0.00 1039.00 211.00" xmlns="http://www.w3.org/2000/svg" xmlns:xlink="http://www.w3.org/1999/xlink">
<g id="graph0" class="graph" transform="scale(1 1) rotate(0) translate(4 207)">
<title>dependencies</title>
<polygon fill="white" stroke="transparent" points="-4,4 -4,-207 1035,-207 1035,4 -4,4"/>
<text text-anchor="start" x="494.51" y="-42.4" font-family="Times-12" font-weight="bold" font-size="14.00">Legend</text>
<polygon fill="#ffffb3" stroke="transparent" points="281.5,-10 281.5,-30 301.5,-30 301.5,-10 281.5,-10"/>
<text text-anchor="start" x="305.13" y="-15.4" font-family="Times-12" font-size="14.00"> &#160;Declarations</text>
<polygon fill="#8dd3c7" stroke="transparent" points="394.5,-10 394.5,-30 414.5,-30 414.5,-10 394.5,-10"/>
<text text-anchor="start" x="418.23" y="-15.4" font-family="Times-12" font-size="14.00"> &#160;Module</text>
<polygon fill="#80b1d3" stroke="transparent" points="480.5,-10 480.5,-30 500.5,-30 500.5,-10 480.5,-10"/>
<text text-anchor="start" x="504.28" y="-15.4" font-family="Times-12" font-size="14.00"> &#160;Bootstrap</text>
<polygon fill="#fdb462" stroke="transparent" points="577.5,-10 577.5,-30 597.5,-30 597.5,-10 577.5,-10"/>
<text text-anchor="start" x="601.17" y="-15.4" font-family="Times-12" font-size="14.00"> &#160;Providers</text>
<polygon fill="#fb8072" stroke="transparent" points="673.5,-10 673.5,-30 693.5,-30 693.5,-10 673.5,-10"/>
<text text-anchor="start" x="697.23" y="-15.4" font-family="Times-12" font-size="14.00"> &#160;Exports</text>
<g id="clust1" class="cluster">
<title>cluster_ClusterAlertsManagerModule</title>
<polygon fill="none" stroke="black" stroke-dasharray="1,5" points="8,-70 8,-195 1023,-195 1023,-70 8,-70"/>
</g>
<g id="clust7" class="cluster">
<title>cluster_ClusterAlertsManagerModule_imports</title>
<polygon fill="none" stroke="black" points="769,-78 769,-130 1015,-130 1015,-78 769,-78"/>
</g>
<g id="clust2" class="cluster">
<title>cluster_ClusterAlertsManagerModule_declarations</title>
<polygon fill="none" stroke="black" points="16,-78 16,-130 761,-130 761,-78 16,-78"/>
</g>
<!-- AlertsChartComponent -->
<g id="node1" class="node">
<title>AlertsChartComponent</title>
<polygon fill="#ffffb3" stroke="black" points="753.14,-122 606.86,-122 606.86,-86 753.14,-86 753.14,-122"/>
<text text-anchor="middle" x="680" y="-99.8" font-family="Times,serif" font-size="14.00">AlertsChartComponent</text>
</g>
<!-- ClusterAlertsManagerModule -->
<g id="node5" class="node">
<title>ClusterAlertsManagerModule</title>
<polygon fill="#8dd3c7" stroke="black" points="593.94,-187 590.94,-191 569.94,-191 566.94,-187 410.06,-187 410.06,-151 593.94,-151 593.94,-187"/>
<text text-anchor="middle" x="502" y="-164.8" font-family="Times,serif" font-size="14.00">ClusterAlertsManagerModule</text>
</g>
<!-- AlertsChartComponent&#45;&gt;ClusterAlertsManagerModule -->
<g id="edge1" class="edge">
<title>AlertsChartComponent&#45;&gt;ClusterAlertsManagerModule</title>
<path fill="none" stroke="black" d="M680,-122.02C680,-139.37 680,-163 680,-163 680,-163 604.13,-163 604.13,-163"/>
<polygon fill="black" stroke="black" points="604.13,-159.5 594.13,-163 604.13,-166.5 604.13,-159.5"/>
</g>
<!-- AlertsDefinitionComponent -->
<g id="node2" class="node">
<title>AlertsDefinitionComponent</title>
<polygon fill="#ffffb3" stroke="black" points="588.58,-122 415.42,-122 415.42,-86 588.58,-86 588.58,-122"/>
<text text-anchor="middle" x="502" y="-99.8" font-family="Times,serif" font-size="14.00">AlertsDefinitionComponent</text>
</g>
<!-- AlertsDefinitionComponent&#45;&gt;ClusterAlertsManagerModule -->
<g id="edge2" class="edge">
<title>AlertsDefinitionComponent&#45;&gt;ClusterAlertsManagerModule</title>
<path fill="none" stroke="black" d="M502,-122.11C502,-122.11 502,-140.99 502,-140.99"/>
<polygon fill="black" stroke="black" points="498.5,-140.99 502,-150.99 505.5,-140.99 498.5,-140.99"/>
</g>
<!-- ClusterAlertsManagerComponent -->
<g id="node3" class="node">
<title>ClusterAlertsManagerComponent</title>
<polygon fill="#ffffb3" stroke="black" points="397.73,-122 192.27,-122 192.27,-86 397.73,-86 397.73,-122"/>
<text text-anchor="middle" x="295" y="-99.8" font-family="Times,serif" font-size="14.00">ClusterAlertsManagerComponent</text>
</g>
<!-- ClusterAlertsManagerComponent&#45;&gt;ClusterAlertsManagerModule -->
<g id="edge3" class="edge">
<title>ClusterAlertsManagerComponent&#45;&gt;ClusterAlertsManagerModule</title>
<path fill="none" stroke="black" d="M295,-122.02C295,-139.37 295,-163 295,-163 295,-163 400,-163 400,-163"/>
<polygon fill="black" stroke="black" points="400,-166.5 410,-163 400,-159.5 400,-166.5"/>
</g>
<!-- FiringAlertsComponent -->
<g id="node4" class="node">
<title>FiringAlertsComponent</title>
<polygon fill="#ffffb3" stroke="black" points="173.76,-122 24.24,-122 24.24,-86 173.76,-86 173.76,-122"/>
<text text-anchor="middle" x="99" y="-99.8" font-family="Times,serif" font-size="14.00">FiringAlertsComponent</text>
</g>
<!-- FiringAlertsComponent&#45;&gt;ClusterAlertsManagerModule -->
<g id="edge4" class="edge">
<title>FiringAlertsComponent&#45;&gt;ClusterAlertsManagerModule</title>
<path fill="none" stroke="black" d="M99,-122.28C99,-143.32 99,-175 99,-175 99,-175 400.05,-175 400.05,-175"/>
<polygon fill="black" stroke="black" points="400.05,-178.5 410.05,-175 400.05,-171.5 400.05,-178.5"/>
</g>
<!-- ClusterAlertsManagerRoutingModule -->
<g id="node6" class="node">
<title>ClusterAlertsManagerRoutingModule</title>
<polygon fill="#8dd3c7" stroke="black" points="1006.56,-122 1003.56,-126 982.56,-126 979.56,-122 777.44,-122 777.44,-86 1006.56,-86 1006.56,-122"/>
<text text-anchor="middle" x="892" y="-99.8" font-family="Times,serif" font-size="14.00">ClusterAlertsManagerRoutingModule</text>
</g>
<!-- ClusterAlertsManagerRoutingModule&#45;&gt;ClusterAlertsManagerModule -->
<g id="edge5" class="edge">
<title>ClusterAlertsManagerRoutingModule&#45;&gt;ClusterAlertsManagerModule</title>
<path fill="none" stroke="black" d="M892,-122.28C892,-143.32 892,-175 892,-175 892,-175 604.42,-175 604.42,-175"/>
<polygon fill="black" stroke="black" points="604.42,-171.5 594.42,-175 604.42,-178.5 604.42,-171.5"/>
</g>
</g>
</svg>
