<?xml version="1.0" encoding="UTF-8" standalone="no"?>
<!DOCTYPE svg PUBLIC "-//W3C//DTD SVG 1.1//EN"
 "http://www.w3.org/Graphics/SVG/1.1/DTD/svg11.dtd">
<!-- Generated by graphviz version 2.47.0 (20210316.0004)
 -->
<!-- Title: dependencies Pages: 1 -->
<svg width="702pt" height="211pt"
 viewBox="0.00 0.00 702.00 211.00" xmlns="http://www.w3.org/2000/svg" xmlns:xlink="http://www.w3.org/1999/xlink">
<g id="graph0" class="graph" transform="scale(1 1) rotate(0) translate(4 207)">
<title>dependencies</title>
<polygon fill="white" stroke="transparent" points="-4,4 -4,-207 698,-207 698,4 -4,4"/>
<text text-anchor="start" x="326.01" y="-42.4" font-family="Times-12" font-weight="bold" font-size="14.00">Legend</text>
<polygon fill="#ffffb3" stroke="transparent" points="113,-10 113,-30 133,-30 133,-10 113,-10"/>
<text text-anchor="start" x="136.63" y="-15.4" font-family="Times-12" font-size="14.00"> &#160;Declarations</text>
<polygon fill="#8dd3c7" stroke="transparent" points="226,-10 226,-30 246,-30 246,-10 226,-10"/>
<text text-anchor="start" x="249.73" y="-15.4" font-family="Times-12" font-size="14.00"> &#160;Module</text>
<polygon fill="#80b1d3" stroke="transparent" points="312,-10 312,-30 332,-30 332,-10 312,-10"/>
<text text-anchor="start" x="335.78" y="-15.4" font-family="Times-12" font-size="14.00"> &#160;Bootstrap</text>
<polygon fill="#fdb462" stroke="transparent" points="409,-10 409,-30 429,-30 429,-10 409,-10"/>
<text text-anchor="start" x="432.67" y="-15.4" font-family="Times-12" font-size="14.00"> &#160;Providers</text>
<polygon fill="#fb8072" stroke="transparent" points="505,-10 505,-30 525,-30 525,-10 505,-10"/>
<text text-anchor="start" x="528.73" y="-15.4" font-family="Times-12" font-size="14.00"> &#160;Exports</text>
<g id="clust1" class="cluster">
<title>cluster_CreateEditSubscriptionNewModule</title>
<polygon fill="none" stroke="black" stroke-dasharray="1,5" points="8,-70 8,-195 686,-195 686,-70 8,-70"/>
</g>
<g id="clust4" class="cluster">
<title>cluster_CreateEditSubscriptionNewModule_imports</title>
<polygon fill="none" stroke="black" points="278,-78 278,-130 678,-130 678,-78 278,-78"/>
</g>
<g id="clust2" class="cluster">
<title>cluster_CreateEditSubscriptionNewModule_declarations</title>
<polygon fill="none" stroke="black" points="16,-78 16,-130 270,-130 270,-78 16,-78"/>
</g>
<!-- CreateEditSubscriptionNewComponent -->
<g id="node1" class="node">
<title>CreateEditSubscriptionNewComponent</title>
<polygon fill="#ffffb3" stroke="black" points="262.4,-122 23.6,-122 23.6,-86 262.4,-86 262.4,-122"/>
<text text-anchor="middle" x="143" y="-99.8" font-family="Times,serif" font-size="14.00">CreateEditSubscriptionNewComponent</text>
</g>
<!-- CreateEditSubscriptionNewModule -->
<g id="node2" class="node">
<title>CreateEditSubscriptionNewModule</title>
<polygon fill="#8dd3c7" stroke="black" points="446.12,-187 443.12,-191 422.12,-191 419.12,-187 229.88,-187 229.88,-151 446.12,-151 446.12,-187"/>
<text text-anchor="middle" x="338" y="-164.8" font-family="Times,serif" font-size="14.00">CreateEditSubscriptionNewModule</text>
</g>
<!-- CreateEditSubscriptionNewComponent&#45;&gt;CreateEditSubscriptionNewModule -->
<g id="edge1" class="edge">
<title>CreateEditSubscriptionNewComponent&#45;&gt;CreateEditSubscriptionNewModule</title>
<path fill="none" stroke="black" d="M245.95,-122.11C245.95,-122.11 245.95,-140.99 245.95,-140.99"/>
<polygon fill="black" stroke="black" points="242.45,-140.99 245.95,-150.99 249.45,-140.99 242.45,-140.99"/>
</g>
<!-- CreateEditSubscriptionNewRoutingModule -->
<g id="node3" class="node">
<title>CreateEditSubscriptionNewRoutingModule</title>
<polygon fill="#8dd3c7" stroke="black" points="669.74,-122 666.74,-126 645.74,-126 642.74,-122 408.26,-122 408.26,-86 669.74,-86 669.74,-122"/>
<text text-anchor="middle" x="539" y="-99.8" font-family="Times,serif" font-size="14.00">CreateEditSubscriptionNewRoutingModule</text>
</g>
<!-- CreateEditSubscriptionNewRoutingModule&#45;&gt;CreateEditSubscriptionNewModule -->
<g id="edge2" class="edge">
<title>CreateEditSubscriptionNewRoutingModule&#45;&gt;CreateEditSubscriptionNewModule</title>
<path fill="none" stroke="black" d="M427.22,-122.11C427.22,-122.11 427.22,-140.99 427.22,-140.99"/>
<polygon fill="black" stroke="black" points="423.72,-140.99 427.22,-150.99 430.72,-140.99 423.72,-140.99"/>
</g>
<!-- LayoutsModule -->
<g id="node4" class="node">
<title>LayoutsModule</title>
<polygon fill="#8dd3c7" stroke="black" points="390.15,-122 387.15,-126 366.15,-126 363.15,-122 285.85,-122 285.85,-86 390.15,-86 390.15,-122"/>
<text text-anchor="middle" x="338" y="-99.8" font-family="Times,serif" font-size="14.00">LayoutsModule</text>
</g>
<!-- LayoutsModule&#45;&gt;CreateEditSubscriptionNewModule -->
<g id="edge3" class="edge">
<title>LayoutsModule&#45;&gt;CreateEditSubscriptionNewModule</title>
<path fill="none" stroke="black" d="M338,-122.11C338,-122.11 338,-140.99 338,-140.99"/>
<polygon fill="black" stroke="black" points="334.5,-140.99 338,-150.99 341.5,-140.99 334.5,-140.99"/>
</g>
</g>
</svg>
