<?xml version="1.0" encoding="UTF-8" standalone="no"?>
<!DOCTYPE svg PUBLIC "-//W3C//DTD SVG 1.1//EN"
 "http://www.w3.org/Graphics/SVG/1.1/DTD/svg11.dtd">
<!-- Generated by graphviz version 2.47.0 (20210316.0004)
 -->
<!-- Title: dependencies Pages: 1 -->
<svg width="877pt" height="284pt"
 viewBox="0.00 0.00 877.00 284.00" xmlns="http://www.w3.org/2000/svg" xmlns:xlink="http://www.w3.org/1999/xlink">
<g id="graph0" class="graph" transform="scale(1 1) rotate(0) translate(4 280)">
<title>dependencies</title>
<polygon fill="white" stroke="transparent" points="-4,4 -4,-280 873,-280 873,4 -4,4"/>
<text text-anchor="start" x="413.51" y="-42.4" font-family="Times-12" font-weight="bold" font-size="14.00">Legend</text>
<polygon fill="#ffffb3" stroke="transparent" points="200.5,-10 200.5,-30 220.5,-30 220.5,-10 200.5,-10"/>
<text text-anchor="start" x="224.13" y="-15.4" font-family="Times-12" font-size="14.00"> &#160;Declarations</text>
<polygon fill="#8dd3c7" stroke="transparent" points="313.5,-10 313.5,-30 333.5,-30 333.5,-10 313.5,-10"/>
<text text-anchor="start" x="337.23" y="-15.4" font-family="Times-12" font-size="14.00"> &#160;Module</text>
<polygon fill="#80b1d3" stroke="transparent" points="399.5,-10 399.5,-30 419.5,-30 419.5,-10 399.5,-10"/>
<text text-anchor="start" x="423.28" y="-15.4" font-family="Times-12" font-size="14.00"> &#160;Bootstrap</text>
<polygon fill="#fdb462" stroke="transparent" points="496.5,-10 496.5,-30 516.5,-30 516.5,-10 496.5,-10"/>
<text text-anchor="start" x="520.17" y="-15.4" font-family="Times-12" font-size="14.00"> &#160;Providers</text>
<polygon fill="#fb8072" stroke="transparent" points="592.5,-10 592.5,-30 612.5,-30 612.5,-10 592.5,-10"/>
<text text-anchor="start" x="616.23" y="-15.4" font-family="Times-12" font-size="14.00"> &#160;Exports</text>
<g id="clust1" class="cluster">
<title>cluster_ArtifactsPromotionModule</title>
<polygon fill="none" stroke="black" stroke-dasharray="1,5" points="8,-70 8,-268 861,-268 861,-70 8,-70"/>
</g>
<g id="clust2" class="cluster">
<title>cluster_ArtifactsPromotionModule_declarations</title>
<polygon fill="none" stroke="black" points="427,-78 427,-130 853,-130 853,-78 427,-78"/>
</g>
<g id="clust6" class="cluster">
<title>cluster_ArtifactsPromotionModule_exports</title>
<polygon fill="none" stroke="black" points="309,-208 309,-260 531,-260 531,-208 309,-208"/>
</g>
<g id="clust5" class="cluster">
<title>cluster_ArtifactsPromotionModule_imports</title>
<polygon fill="none" stroke="black" points="16,-78 16,-130 419,-130 419,-78 16,-78"/>
</g>
<!-- ArtifactsPromotionComponent -->
<g id="node1" class="node">
<title>ArtifactsPromotionComponent</title>
<polygon fill="#ffffb3" stroke="black" points="844.92,-122 655.08,-122 655.08,-86 844.92,-86 844.92,-122"/>
<text text-anchor="middle" x="750" y="-99.8" font-family="Times,serif" font-size="14.00">ArtifactsPromotionComponent</text>
</g>
<!-- ArtifactsPromotionModule -->
<g id="node3" class="node">
<title>ArtifactsPromotionModule</title>
<polygon fill="#8dd3c7" stroke="black" points="503.64,-187 500.64,-191 479.64,-191 476.64,-187 336.36,-187 336.36,-151 503.64,-151 503.64,-187"/>
<text text-anchor="middle" x="420" y="-164.8" font-family="Times,serif" font-size="14.00">ArtifactsPromotionModule</text>
</g>
<!-- ArtifactsPromotionComponent&#45;&gt;ArtifactsPromotionModule -->
<g id="edge1" class="edge">
<title>ArtifactsPromotionComponent&#45;&gt;ArtifactsPromotionModule</title>
<path fill="none" stroke="black" d="M750,-122.11C750,-141.34 750,-169 750,-169 750,-169 513.7,-169 513.7,-169"/>
<polygon fill="black" stroke="black" points="513.7,-165.5 503.7,-169 513.7,-172.5 513.7,-165.5"/>
</g>
<!-- SmartTableHierarchyComponent -->
<g id="node2" class="node">
<title>SmartTableHierarchyComponent</title>
<polygon fill="#ffffb3" stroke="black" points="637.11,-122 434.89,-122 434.89,-86 637.11,-86 637.11,-122"/>
<text text-anchor="middle" x="536" y="-99.8" font-family="Times,serif" font-size="14.00">SmartTableHierarchyComponent</text>
</g>
<!-- SmartTableHierarchyComponent&#45;&gt;ArtifactsPromotionModule -->
<g id="edge2" class="edge">
<title>SmartTableHierarchyComponent&#45;&gt;ArtifactsPromotionModule</title>
<path fill="none" stroke="black" d="M469.26,-122.11C469.26,-122.11 469.26,-140.99 469.26,-140.99"/>
<polygon fill="black" stroke="black" points="465.76,-140.99 469.26,-150.99 472.76,-140.99 465.76,-140.99"/>
</g>
<!-- SmartTableHierarchyComponent  -->
<g id="node6" class="node">
<title>SmartTableHierarchyComponent </title>
<polygon fill="#fb8072" stroke="black" points="523.11,-252 316.89,-252 316.89,-216 523.11,-216 523.11,-252"/>
<text text-anchor="middle" x="420" y="-229.8" font-family="Times,serif" font-size="14.00">SmartTableHierarchyComponent </text>
</g>
<!-- ArtifactsPromotionModule&#45;&gt;SmartTableHierarchyComponent  -->
<g id="edge5" class="edge">
<title>ArtifactsPromotionModule&#45;&gt;SmartTableHierarchyComponent </title>
<path fill="none" stroke="black" stroke-dasharray="5,2" d="M420,-187.11C420,-187.11 420,-205.99 420,-205.99"/>
<polygon fill="black" stroke="black" points="416.5,-205.99 420,-215.99 423.5,-205.99 416.5,-205.99"/>
</g>
<!-- ArtifactsPromotionRoutingModule -->
<g id="node4" class="node">
<title>ArtifactsPromotionRoutingModule</title>
<polygon fill="#8dd3c7" stroke="black" points="411.26,-122 408.26,-126 387.26,-126 384.26,-122 198.74,-122 198.74,-86 411.26,-86 411.26,-122"/>
<text text-anchor="middle" x="305" y="-99.8" font-family="Times,serif" font-size="14.00">ArtifactsPromotionRoutingModule</text>
</g>
<!-- ArtifactsPromotionRoutingModule&#45;&gt;ArtifactsPromotionModule -->
<g id="edge3" class="edge">
<title>ArtifactsPromotionRoutingModule&#45;&gt;ArtifactsPromotionModule</title>
<path fill="none" stroke="black" d="M373.78,-122.11C373.78,-122.11 373.78,-140.99 373.78,-140.99"/>
<polygon fill="black" stroke="black" points="370.28,-140.99 373.78,-150.99 377.28,-140.99 370.28,-140.99"/>
</g>
<!-- WorkflowDetailsModule -->
<g id="node5" class="node">
<title>WorkflowDetailsModule</title>
<polygon fill="#8dd3c7" stroke="black" points="180.24,-122 177.24,-126 156.24,-126 153.24,-122 23.76,-122 23.76,-86 180.24,-86 180.24,-122"/>
<text text-anchor="middle" x="102" y="-99.8" font-family="Times,serif" font-size="14.00">WorkflowDetailsModule</text>
</g>
<!-- WorkflowDetailsModule&#45;&gt;ArtifactsPromotionModule -->
<g id="edge4" class="edge">
<title>WorkflowDetailsModule&#45;&gt;ArtifactsPromotionModule</title>
<path fill="none" stroke="black" d="M102,-122.11C102,-141.34 102,-169 102,-169 102,-169 326.03,-169 326.03,-169"/>
<polygon fill="black" stroke="black" points="326.03,-172.5 336.03,-169 326.03,-165.5 326.03,-172.5"/>
</g>
</g>
</svg>
