<?xml version="1.0" encoding="UTF-8" standalone="no"?>
<!DOCTYPE svg PUBLIC "-//W3C//DTD SVG 1.1//EN"
 "http://www.w3.org/Graphics/SVG/1.1/DTD/svg11.dtd">
<!-- Generated by graphviz version 2.47.0 (20210316.0004)
 -->
<!-- Title: dependencies Pages: 1 -->
<svg width="504pt" height="284pt"
 viewBox="0.00 0.00 504.00 284.00" xmlns="http://www.w3.org/2000/svg" xmlns:xlink="http://www.w3.org/1999/xlink">
<g id="graph0" class="graph" transform="scale(1 1) rotate(0) translate(4 280)">
<title>dependencies</title>
<polygon fill="white" stroke="transparent" points="-4,4 -4,-280 500,-280 500,4 -4,4"/>
<text text-anchor="start" x="227.01" y="-42.4" font-family="Times-12" font-weight="bold" font-size="14.00">Legend</text>
<polygon fill="#ffffb3" stroke="transparent" points="14,-10 14,-30 34,-30 34,-10 14,-10"/>
<text text-anchor="start" x="37.63" y="-15.4" font-family="Times-12" font-size="14.00"> &#160;Declarations</text>
<polygon fill="#8dd3c7" stroke="transparent" points="127,-10 127,-30 147,-30 147,-10 127,-10"/>
<text text-anchor="start" x="150.73" y="-15.4" font-family="Times-12" font-size="14.00"> &#160;Module</text>
<polygon fill="#80b1d3" stroke="transparent" points="213,-10 213,-30 233,-30 233,-10 213,-10"/>
<text text-anchor="start" x="236.78" y="-15.4" font-family="Times-12" font-size="14.00"> &#160;Bootstrap</text>
<polygon fill="#fdb462" stroke="transparent" points="310,-10 310,-30 330,-30 330,-10 310,-10"/>
<text text-anchor="start" x="333.67" y="-15.4" font-family="Times-12" font-size="14.00"> &#160;Providers</text>
<polygon fill="#fb8072" stroke="transparent" points="406,-10 406,-30 426,-30 426,-10 406,-10"/>
<text text-anchor="start" x="429.73" y="-15.4" font-family="Times-12" font-size="14.00"> &#160;Exports</text>
<g id="clust1" class="cluster">
<title>cluster_ToolsGrafanaModule</title>
<polygon fill="none" stroke="black" stroke-dasharray="1,5" points="50,-70 50,-268 446,-268 446,-70 50,-70"/>
</g>
<g id="clust5" class="cluster">
<title>cluster_ToolsGrafanaModule_exports</title>
<polygon fill="none" stroke="black" points="154,-208 154,-260 332,-260 332,-208 154,-208"/>
</g>
<g id="clust4" class="cluster">
<title>cluster_ToolsGrafanaModule_imports</title>
<polygon fill="none" stroke="black" points="240,-78 240,-130 438,-130 438,-78 240,-78"/>
</g>
<g id="clust2" class="cluster">
<title>cluster_ToolsGrafanaModule_declarations</title>
<polygon fill="none" stroke="black" points="58,-78 58,-130 232,-130 232,-78 58,-78"/>
</g>
<!-- ToolsGrafanaComponent -->
<g id="node1" class="node">
<title>ToolsGrafanaComponent</title>
<polygon fill="#ffffb3" stroke="black" points="224.29,-122 65.71,-122 65.71,-86 224.29,-86 224.29,-122"/>
<text text-anchor="middle" x="145" y="-99.8" font-family="Times,serif" font-size="14.00">ToolsGrafanaComponent</text>
</g>
<!-- ToolsGrafanaModule -->
<g id="node2" class="node">
<title>ToolsGrafanaModule</title>
<polygon fill="#8dd3c7" stroke="black" points="311.01,-187 308.01,-191 287.01,-191 284.01,-187 174.99,-187 174.99,-151 311.01,-151 311.01,-187"/>
<text text-anchor="middle" x="243" y="-164.8" font-family="Times,serif" font-size="14.00">ToolsGrafanaModule</text>
</g>
<!-- ToolsGrafanaComponent&#45;&gt;ToolsGrafanaModule -->
<g id="edge1" class="edge">
<title>ToolsGrafanaComponent&#45;&gt;ToolsGrafanaModule</title>
<path fill="none" stroke="black" d="M199.45,-122.11C199.45,-122.11 199.45,-140.99 199.45,-140.99"/>
<polygon fill="black" stroke="black" points="195.95,-140.99 199.45,-150.99 202.95,-140.99 195.95,-140.99"/>
</g>
<!-- ToolsGrafanaComponent  -->
<g id="node4" class="node">
<title>ToolsGrafanaComponent </title>
<polygon fill="#fb8072" stroke="black" points="323.79,-252 162.21,-252 162.21,-216 323.79,-216 323.79,-252"/>
<text text-anchor="middle" x="243" y="-229.8" font-family="Times,serif" font-size="14.00">ToolsGrafanaComponent </text>
</g>
<!-- ToolsGrafanaModule&#45;&gt;ToolsGrafanaComponent  -->
<g id="edge3" class="edge">
<title>ToolsGrafanaModule&#45;&gt;ToolsGrafanaComponent </title>
<path fill="none" stroke="black" stroke-dasharray="5,2" d="M243,-187.11C243,-187.11 243,-205.99 243,-205.99"/>
<polygon fill="black" stroke="black" points="239.5,-205.99 243,-215.99 246.5,-205.99 239.5,-205.99"/>
</g>
<!-- ToolsGrafanaRoutingModule -->
<g id="node3" class="node">
<title>ToolsGrafanaRoutingModule</title>
<polygon fill="#8dd3c7" stroke="black" points="429.63,-122 426.63,-126 405.63,-126 402.63,-122 248.37,-122 248.37,-86 429.63,-86 429.63,-122"/>
<text text-anchor="middle" x="339" y="-99.8" font-family="Times,serif" font-size="14.00">ToolsGrafanaRoutingModule</text>
</g>
<!-- ToolsGrafanaRoutingModule&#45;&gt;ToolsGrafanaModule -->
<g id="edge2" class="edge">
<title>ToolsGrafanaRoutingModule&#45;&gt;ToolsGrafanaModule</title>
<path fill="none" stroke="black" d="M279.72,-122.11C279.72,-122.11 279.72,-140.99 279.72,-140.99"/>
<polygon fill="black" stroke="black" points="276.22,-140.99 279.72,-150.99 283.22,-140.99 276.22,-140.99"/>
</g>
</g>
</svg>
