<?xml version="1.0" encoding="UTF-8" standalone="no"?>
<!DOCTYPE svg PUBLIC "-//W3C//DTD SVG 1.1//EN"
 "http://www.w3.org/Graphics/SVG/1.1/DTD/svg11.dtd">
<!-- Generated by graphviz version 2.47.0 (20210316.0004)
 -->
<!-- Title: dependencies Pages: 1 -->
<svg width="896pt" height="211pt"
 viewBox="0.00 0.00 896.00 211.00" xmlns="http://www.w3.org/2000/svg" xmlns:xlink="http://www.w3.org/1999/xlink">
<g id="graph0" class="graph" transform="scale(1 1) rotate(0) translate(4 207)">
<title>dependencies</title>
<polygon fill="white" stroke="transparent" points="-4,4 -4,-207 892,-207 892,4 -4,4"/>
<text text-anchor="start" x="423.01" y="-42.4" font-family="Times-12" font-weight="bold" font-size="14.00">Legend</text>
<polygon fill="#ffffb3" stroke="transparent" points="210,-10 210,-30 230,-30 230,-10 210,-10"/>
<text text-anchor="start" x="233.63" y="-15.4" font-family="Times-12" font-size="14.00"> &#160;Declarations</text>
<polygon fill="#8dd3c7" stroke="transparent" points="323,-10 323,-30 343,-30 343,-10 323,-10"/>
<text text-anchor="start" x="346.73" y="-15.4" font-family="Times-12" font-size="14.00"> &#160;Module</text>
<polygon fill="#80b1d3" stroke="transparent" points="409,-10 409,-30 429,-30 429,-10 409,-10"/>
<text text-anchor="start" x="432.78" y="-15.4" font-family="Times-12" font-size="14.00"> &#160;Bootstrap</text>
<polygon fill="#fdb462" stroke="transparent" points="506,-10 506,-30 526,-30 526,-10 506,-10"/>
<text text-anchor="start" x="529.67" y="-15.4" font-family="Times-12" font-size="14.00"> &#160;Providers</text>
<polygon fill="#fb8072" stroke="transparent" points="602,-10 602,-30 622,-30 622,-10 602,-10"/>
<text text-anchor="start" x="625.73" y="-15.4" font-family="Times-12" font-size="14.00"> &#160;Exports</text>
<g id="clust1" class="cluster">
<title>cluster_ArtifactsPagesModule</title>
<polygon fill="none" stroke="black" stroke-dasharray="1,5" points="8,-70 8,-195 880,-195 880,-70 8,-70"/>
</g>
<g id="clust5" class="cluster">
<title>cluster_ArtifactsPagesModule_imports</title>
<polygon fill="none" stroke="black" points="373,-78 373,-130 872,-130 872,-78 373,-78"/>
</g>
<g id="clust2" class="cluster">
<title>cluster_ArtifactsPagesModule_declarations</title>
<polygon fill="none" stroke="black" points="16,-78 16,-130 365,-130 365,-78 16,-78"/>
</g>
<!-- ArtifactsListComponent -->
<g id="node1" class="node">
<title>ArtifactsListComponent</title>
<polygon fill="#ffffb3" stroke="black" points="357.08,-122 204.92,-122 204.92,-86 357.08,-86 357.08,-122"/>
<text text-anchor="middle" x="281" y="-99.8" font-family="Times,serif" font-size="14.00">ArtifactsListComponent</text>
</g>
<!-- ArtifactsPagesModule -->
<g id="node3" class="node">
<title>ArtifactsPagesModule</title>
<polygon fill="#8dd3c7" stroke="black" points="529.68,-187 526.68,-191 505.68,-191 502.68,-187 388.32,-187 388.32,-151 529.68,-151 529.68,-187"/>
<text text-anchor="middle" x="459" y="-164.8" font-family="Times,serif" font-size="14.00">ArtifactsPagesModule</text>
</g>
<!-- ArtifactsListComponent&#45;&gt;ArtifactsPagesModule -->
<g id="edge1" class="edge">
<title>ArtifactsListComponent&#45;&gt;ArtifactsPagesModule</title>
<path fill="none" stroke="black" d="M281,-122.02C281,-139.37 281,-163 281,-163 281,-163 378.39,-163 378.39,-163"/>
<polygon fill="black" stroke="black" points="378.39,-166.5 388.39,-163 378.39,-159.5 378.39,-166.5"/>
</g>
<!-- ArtifactsPagesComponent -->
<g id="node2" class="node">
<title>ArtifactsPagesComponent</title>
<polygon fill="#ffffb3" stroke="black" points="186.46,-122 23.54,-122 23.54,-86 186.46,-86 186.46,-122"/>
<text text-anchor="middle" x="105" y="-99.8" font-family="Times,serif" font-size="14.00">ArtifactsPagesComponent</text>
</g>
<!-- ArtifactsPagesComponent&#45;&gt;ArtifactsPagesModule -->
<g id="edge2" class="edge">
<title>ArtifactsPagesComponent&#45;&gt;ArtifactsPagesModule</title>
<path fill="none" stroke="black" d="M105,-122.28C105,-143.32 105,-175 105,-175 105,-175 378.21,-175 378.21,-175"/>
<polygon fill="black" stroke="black" points="378.21,-178.5 388.21,-175 378.21,-171.5 378.21,-178.5"/>
</g>
<!-- ArtifactsPagesRoutingModule -->
<g id="node4" class="node">
<title>ArtifactsPagesRoutingModule</title>
<polygon fill="#8dd3c7" stroke="black" points="864.3,-122 861.3,-126 840.3,-126 837.3,-122 677.7,-122 677.7,-86 864.3,-86 864.3,-122"/>
<text text-anchor="middle" x="771" y="-99.8" font-family="Times,serif" font-size="14.00">ArtifactsPagesRoutingModule</text>
</g>
<!-- ArtifactsPagesRoutingModule&#45;&gt;ArtifactsPagesModule -->
<g id="edge3" class="edge">
<title>ArtifactsPagesRoutingModule&#45;&gt;ArtifactsPagesModule</title>
<path fill="none" stroke="black" d="M771,-122.28C771,-143.32 771,-175 771,-175 771,-175 539.8,-175 539.8,-175"/>
<polygon fill="black" stroke="black" points="539.8,-171.5 529.8,-175 539.8,-178.5 539.8,-171.5"/>
</g>
<!-- LayoutsModule -->
<g id="node5" class="node">
<title>LayoutsModule</title>
<polygon fill="#8dd3c7" stroke="black" points="660.15,-122 657.15,-126 636.15,-126 633.15,-122 555.85,-122 555.85,-86 660.15,-86 660.15,-122"/>
<text text-anchor="middle" x="608" y="-99.8" font-family="Times,serif" font-size="14.00">LayoutsModule</text>
</g>
<!-- LayoutsModule&#45;&gt;ArtifactsPagesModule -->
<g id="edge4" class="edge">
<title>LayoutsModule&#45;&gt;ArtifactsPagesModule</title>
<path fill="none" stroke="black" d="M608,-122.02C608,-139.37 608,-163 608,-163 608,-163 540.01,-163 540.01,-163"/>
<polygon fill="black" stroke="black" points="540.01,-159.5 530.01,-163 540.01,-166.5 540.01,-159.5"/>
</g>
<!-- WorkflowDetailsModule -->
<g id="node6" class="node">
<title>WorkflowDetailsModule</title>
<polygon fill="#8dd3c7" stroke="black" points="537.24,-122 534.24,-126 513.24,-126 510.24,-122 380.76,-122 380.76,-86 537.24,-86 537.24,-122"/>
<text text-anchor="middle" x="459" y="-99.8" font-family="Times,serif" font-size="14.00">WorkflowDetailsModule</text>
</g>
<!-- WorkflowDetailsModule&#45;&gt;ArtifactsPagesModule -->
<g id="edge5" class="edge">
<title>WorkflowDetailsModule&#45;&gt;ArtifactsPagesModule</title>
<path fill="none" stroke="black" d="M459,-122.11C459,-122.11 459,-140.99 459,-140.99"/>
<polygon fill="black" stroke="black" points="455.5,-140.99 459,-150.99 462.5,-140.99 455.5,-140.99"/>
</g>
</g>
</svg>
