<?xml version="1.0" encoding="UTF-8" standalone="no"?>
<!DOCTYPE svg PUBLIC "-//W3C//DTD SVG 1.1//EN"
 "http://www.w3.org/Graphics/SVG/1.1/DTD/svg11.dtd">
<!-- Generated by graphviz version 2.47.0 (20210316.0004)
 -->
<!-- Title: dependencies Pages: 1 -->
<svg width="6073pt" height="284pt"
 viewBox="0.00 0.00 6073.00 284.00" xmlns="http://www.w3.org/2000/svg" xmlns:xlink="http://www.w3.org/1999/xlink">
<g id="graph0" class="graph" transform="scale(1 1) rotate(0) translate(4 280)">
<title>dependencies</title>
<polygon fill="white" stroke="transparent" points="-4,4 -4,-280 6069,-280 6069,4 -4,4"/>
<text text-anchor="start" x="3011.51" y="-42.4" font-family="Times-12" font-weight="bold" font-size="14.00">Legend</text>
<polygon fill="#ffffb3" stroke="transparent" points="2798.5,-10 2798.5,-30 2818.5,-30 2818.5,-10 2798.5,-10"/>
<text text-anchor="start" x="2822.13" y="-15.4" font-family="Times-12" font-size="14.00"> &#160;Declarations</text>
<polygon fill="#8dd3c7" stroke="transparent" points="2911.5,-10 2911.5,-30 2931.5,-30 2931.5,-10 2911.5,-10"/>
<text text-anchor="start" x="2935.23" y="-15.4" font-family="Times-12" font-size="14.00"> &#160;Module</text>
<polygon fill="#80b1d3" stroke="transparent" points="2997.5,-10 2997.5,-30 3017.5,-30 3017.5,-10 2997.5,-10"/>
<text text-anchor="start" x="3021.28" y="-15.4" font-family="Times-12" font-size="14.00"> &#160;Bootstrap</text>
<polygon fill="#fdb462" stroke="transparent" points="3094.5,-10 3094.5,-30 3114.5,-30 3114.5,-10 3094.5,-10"/>
<text text-anchor="start" x="3118.17" y="-15.4" font-family="Times-12" font-size="14.00"> &#160;Providers</text>
<polygon fill="#fb8072" stroke="transparent" points="3190.5,-10 3190.5,-30 3210.5,-30 3210.5,-10 3190.5,-10"/>
<text text-anchor="start" x="3214.23" y="-15.4" font-family="Times-12" font-size="14.00"> &#160;Exports</text>
<g id="clust1" class="cluster">
<title>cluster_BlueprintDesignerModule</title>
<polygon fill="none" stroke="black" stroke-dasharray="1,5" points="8,-70 8,-268 6057,-268 6057,-70 8,-70"/>
</g>
<g id="clust2" class="cluster">
<title>cluster_BlueprintDesignerModule_declarations</title>
<polygon fill="none" stroke="black" points="924,-78 924,-130 6049,-130 6049,-78 924,-78"/>
</g>
<g id="clust30" class="cluster">
<title>cluster_BlueprintDesignerModule_exports</title>
<polygon fill="none" stroke="black" points="2784,-208 2784,-260 3196,-260 3196,-208 2784,-208"/>
</g>
<g id="clust29" class="cluster">
<title>cluster_BlueprintDesignerModule_imports</title>
<polygon fill="none" stroke="black" points="16,-78 16,-130 916,-130 916,-78 16,-78"/>
</g>
<!-- ActionTimingComponent -->
<g id="node1" class="node">
<title>ActionTimingComponent</title>
<polygon fill="#ffffb3" stroke="black" points="6041.16,-122 5880.84,-122 5880.84,-86 6041.16,-86 6041.16,-122"/>
<text text-anchor="middle" x="5961" y="-99.8" font-family="Times,serif" font-size="14.00">ActionTimingComponent</text>
</g>
<!-- BlueprintDesignerModule -->
<g id="node27" class="node">
<title>BlueprintDesignerModule</title>
<polygon fill="#8dd3c7" stroke="black" points="3083.47,-187 3080.47,-191 3059.47,-191 3056.47,-187 2920.53,-187 2920.53,-151 3083.47,-151 3083.47,-187"/>
<text text-anchor="middle" x="3002" y="-164.8" font-family="Times,serif" font-size="14.00">BlueprintDesignerModule</text>
</g>
<!-- ActionTimingComponent&#45;&gt;BlueprintDesignerModule -->
<g id="edge1" class="edge">
<title>ActionTimingComponent&#45;&gt;BlueprintDesignerModule</title>
<path fill="none" stroke="black" d="M5961,-122.38C5961,-146.28 5961,-185 5961,-185 5961,-185 3093.84,-185 3093.84,-185"/>
<polygon fill="black" stroke="black" points="3093.84,-181.5 3083.84,-185 3093.84,-188.5 3093.84,-181.5"/>
</g>
<!-- AddNewResourceComponent -->
<g id="node2" class="node">
<title>AddNewResourceComponent</title>
<polygon fill="#ffffb3" stroke="black" points="5862.95,-122 5679.05,-122 5679.05,-86 5862.95,-86 5862.95,-122"/>
<text text-anchor="middle" x="5771" y="-99.8" font-family="Times,serif" font-size="14.00">AddNewResourceComponent</text>
</g>
<!-- AddNewResourceComponent&#45;&gt;BlueprintDesignerModule -->
<g id="edge2" class="edge">
<title>AddNewResourceComponent&#45;&gt;BlueprintDesignerModule</title>
<path fill="none" stroke="black" d="M5771,-122.32C5771,-145.66 5771,-183 5771,-183 5771,-183 3093.74,-183 3093.74,-183"/>
<polygon fill="black" stroke="black" points="3093.75,-179.5 3083.74,-183 3093.74,-186.5 3093.75,-179.5"/>
</g>
<!-- BaseNodeComponent -->
<g id="node3" class="node">
<title>BaseNodeComponent</title>
<polygon fill="#ffffb3" stroke="black" points="5661.36,-122 5522.64,-122 5522.64,-86 5661.36,-86 5661.36,-122"/>
<text text-anchor="middle" x="5592" y="-99.8" font-family="Times,serif" font-size="14.00">BaseNodeComponent</text>
</g>
<!-- BaseNodeComponent&#45;&gt;BlueprintDesignerModule -->
<g id="edge3" class="edge">
<title>BaseNodeComponent&#45;&gt;BlueprintDesignerModule</title>
<path fill="none" stroke="black" d="M5592,-122.25C5592,-145.02 5592,-181 5592,-181 5592,-181 3093.79,-181 3093.79,-181"/>
<polygon fill="black" stroke="black" points="3093.79,-177.5 3083.79,-181 3093.79,-184.5 3093.79,-177.5"/>
</g>
<!-- BlueprintDesignerComponent -->
<g id="node4" class="node">
<title>BlueprintDesignerComponent</title>
<polygon fill="#ffffb3" stroke="black" points="5504.25,-122 5319.75,-122 5319.75,-86 5504.25,-86 5504.25,-122"/>
<text text-anchor="middle" x="5412" y="-99.8" font-family="Times,serif" font-size="14.00">BlueprintDesignerComponent</text>
</g>
<!-- BlueprintDesignerComponent&#45;&gt;BlueprintDesignerModule -->
<g id="edge4" class="edge">
<title>BlueprintDesignerComponent&#45;&gt;BlueprintDesignerModule</title>
<path fill="none" stroke="black" d="M5412,-122.29C5412,-144.21 5412,-178 5412,-178 5412,-178 3093.57,-178 3093.57,-178"/>
<polygon fill="black" stroke="black" points="3093.57,-174.5 3083.57,-178 3093.57,-181.5 3093.57,-174.5"/>
</g>
<!-- BlueprintDesignerGraphComponent -->
<g id="node5" class="node">
<title>BlueprintDesignerGraphComponent</title>
<polygon fill="#ffffb3" stroke="black" points="5301.73,-122 5082.27,-122 5082.27,-86 5301.73,-86 5301.73,-122"/>
<text text-anchor="middle" x="5192" y="-99.8" font-family="Times,serif" font-size="14.00">BlueprintDesignerGraphComponent</text>
</g>
<!-- BlueprintDesignerGraphComponent&#45;&gt;BlueprintDesignerModule -->
<g id="edge5" class="edge">
<title>BlueprintDesignerGraphComponent&#45;&gt;BlueprintDesignerModule</title>
<path fill="none" stroke="black" d="M5192,-122.17C5192,-143.5 5192,-176 5192,-176 5192,-176 3093.52,-176 3093.52,-176"/>
<polygon fill="black" stroke="black" points="3093.52,-172.5 3083.52,-176 3093.52,-179.5 3093.52,-172.5"/>
</g>
<!-- BlueprintDesignerTableComponent -->
<g id="node6" class="node">
<title>BlueprintDesignerTableComponent</title>
<polygon fill="#ffffb3" stroke="black" points="5064.12,-122 4847.88,-122 4847.88,-86 5064.12,-86 5064.12,-122"/>
<text text-anchor="middle" x="4956" y="-99.8" font-family="Times,serif" font-size="14.00">BlueprintDesignerTableComponent</text>
</g>
<!-- BlueprintDesignerTableComponent&#45;&gt;BlueprintDesignerModule -->
<g id="edge6" class="edge">
<title>BlueprintDesignerTableComponent&#45;&gt;BlueprintDesignerModule</title>
<path fill="none" stroke="black" d="M4956,-122.03C4956,-142.77 4956,-174 4956,-174 4956,-174 3093.47,-174 3093.47,-174"/>
<polygon fill="black" stroke="black" points="3093.47,-170.5 3083.47,-174 3093.47,-177.5 3093.47,-170.5"/>
</g>
<!-- DesignerCoderComponent -->
<g id="node7" class="node">
<title>DesignerCoderComponent</title>
<polygon fill="#ffffb3" stroke="black" points="4830.08,-122 4663.92,-122 4663.92,-86 4830.08,-86 4830.08,-122"/>
<text text-anchor="middle" x="4747" y="-99.8" font-family="Times,serif" font-size="14.00">DesignerCoderComponent</text>
</g>
<!-- DesignerCoderComponent&#45;&gt;BlueprintDesignerModule -->
<g id="edge7" class="edge">
<title>DesignerCoderComponent&#45;&gt;BlueprintDesignerModule</title>
<path fill="none" stroke="black" d="M4747,-122.22C4747,-142.37 4747,-172 4747,-172 4747,-172 3093.53,-172 3093.53,-172"/>
<polygon fill="black" stroke="black" points="3093.53,-168.5 3083.53,-172 3093.53,-175.5 3093.53,-168.5"/>
</g>
<!-- DesignerResourcesComponent -->
<g id="node8" class="node">
<title>DesignerResourcesComponent</title>
<polygon fill="#ffffb3" stroke="black" points="4645.89,-122 4456.11,-122 4456.11,-86 4645.89,-86 4645.89,-122"/>
<text text-anchor="middle" x="4551" y="-99.8" font-family="Times,serif" font-size="14.00">DesignerResourcesComponent</text>
</g>
<!-- DesignerResourcesComponent&#45;&gt;BlueprintDesignerModule -->
<g id="edge8" class="edge">
<title>DesignerResourcesComponent&#45;&gt;BlueprintDesignerModule</title>
<path fill="none" stroke="black" d="M4551,-122.11C4551,-141.34 4551,-169 4551,-169 4551,-169 3093.64,-169 3093.64,-169"/>
<polygon fill="black" stroke="black" points="3093.64,-165.5 3083.64,-169 3093.64,-172.5 3093.64,-165.5"/>
</g>
<!-- GithubActionsComponent -->
<g id="node9" class="node">
<title>GithubActionsComponent</title>
<polygon fill="#ffffb3" stroke="black" points="4437.77,-122 4274.23,-122 4274.23,-86 4437.77,-86 4437.77,-122"/>
<text text-anchor="middle" x="4356" y="-99.8" font-family="Times,serif" font-size="14.00">GithubActionsComponent</text>
</g>
<!-- GithubActionsComponent&#45;&gt;BlueprintDesignerModule -->
<g id="edge9" class="edge">
<title>GithubActionsComponent&#45;&gt;BlueprintDesignerModule</title>
<path fill="none" stroke="black" d="M4356,-122.22C4356,-140.83 4356,-167 4356,-167 4356,-167 3093.65,-167 3093.65,-167"/>
<polygon fill="black" stroke="black" points="3093.65,-163.5 3083.65,-167 3093.65,-170.5 3093.65,-163.5"/>
</g>
<!-- HeaderComponent -->
<g id="node10" class="node">
<title>HeaderComponent</title>
<polygon fill="#ffffb3" stroke="black" points="4255.74,-122 4134.26,-122 4134.26,-86 4255.74,-86 4255.74,-122"/>
<text text-anchor="middle" x="4195" y="-99.8" font-family="Times,serif" font-size="14.00">HeaderComponent</text>
</g>
<!-- HeaderComponent&#45;&gt;BlueprintDesignerModule -->
<g id="edge10" class="edge">
<title>HeaderComponent&#45;&gt;BlueprintDesignerModule</title>
<path fill="none" stroke="black" d="M4195,-122.3C4195,-140.27 4195,-165 4195,-165 4195,-165 3093.53,-165 3093.53,-165"/>
<polygon fill="black" stroke="black" points="3093.53,-161.5 3083.53,-165 3093.53,-168.5 3093.53,-161.5"/>
</g>
<!-- OtherNodesComponent -->
<g id="node11" class="node">
<title>OtherNodesComponent</title>
<polygon fill="#ffffb3" stroke="black" points="4116.47,-122 3967.53,-122 3967.53,-86 4116.47,-86 4116.47,-122"/>
<text text-anchor="middle" x="4042" y="-99.8" font-family="Times,serif" font-size="14.00">OtherNodesComponent</text>
</g>
<!-- OtherNodesComponent&#45;&gt;BlueprintDesignerModule -->
<g id="edge11" class="edge">
<title>OtherNodesComponent&#45;&gt;BlueprintDesignerModule</title>
<path fill="none" stroke="black" d="M4042,-122.02C4042,-139.37 4042,-163 4042,-163 4042,-163 3093.61,-163 3093.61,-163"/>
<polygon fill="black" stroke="black" points="3093.61,-159.5 3083.61,-163 3093.61,-166.5 3093.61,-159.5"/>
</g>
<!-- PullRequestsComponent -->
<g id="node12" class="node">
<title>PullRequestsComponent</title>
<polygon fill="#ffffb3" stroke="black" points="3949.44,-122 3794.56,-122 3794.56,-86 3949.44,-86 3949.44,-122"/>
<text text-anchor="middle" x="3872" y="-99.8" font-family="Times,serif" font-size="14.00">PullRequestsComponent</text>
</g>
<!-- PullRequestsComponent&#45;&gt;BlueprintDesignerModule -->
<g id="edge12" class="edge">
<title>PullRequestsComponent&#45;&gt;BlueprintDesignerModule</title>
<path fill="none" stroke="black" d="M3872,-122.03C3872,-138.4 3872,-160 3872,-160 3872,-160 3093.85,-160 3093.85,-160"/>
<polygon fill="black" stroke="black" points="3093.85,-156.5 3083.85,-160 3093.85,-163.5 3093.85,-156.5"/>
</g>
<!-- ResourceArtifactsComponent -->
<g id="node13" class="node">
<title>ResourceArtifactsComponent</title>
<polygon fill="#ffffb3" stroke="black" points="3777.39,-122 3594.61,-122 3594.61,-86 3777.39,-86 3777.39,-122"/>
<text text-anchor="middle" x="3686" y="-99.8" font-family="Times,serif" font-size="14.00">ResourceArtifactsComponent</text>
</g>
<!-- ResourceArtifactsComponent&#45;&gt;BlueprintDesignerModule -->
<g id="edge13" class="edge">
<title>ResourceArtifactsComponent&#45;&gt;BlueprintDesignerModule</title>
<path fill="none" stroke="black" d="M3686,-122.28C3686,-137.95 3686,-158 3686,-158 3686,-158 3093.49,-158 3093.49,-158"/>
<polygon fill="black" stroke="black" points="3093.49,-154.5 3083.49,-158 3093.49,-161.5 3093.49,-154.5"/>
</g>
<!-- ResourceConfigViewerComponent -->
<g id="node14" class="node">
<title>ResourceConfigViewerComponent</title>
<polygon fill="#ffffb3" stroke="black" points="3577,-122 3363,-122 3363,-86 3577,-86 3577,-122"/>
<text text-anchor="middle" x="3470" y="-99.8" font-family="Times,serif" font-size="14.00">ResourceConfigViewerComponent</text>
</g>
<!-- ResourceConfigViewerComponent&#45;&gt;BlueprintDesignerModule -->
<g id="edge14" class="edge">
<title>ResourceConfigViewerComponent&#45;&gt;BlueprintDesignerModule</title>
<path fill="none" stroke="black" d="M3470,-122.19C3470,-137.18 3470,-156 3470,-156 3470,-156 3093.52,-156 3093.52,-156"/>
<polygon fill="black" stroke="black" points="3093.52,-152.5 3083.52,-156 3093.52,-159.5 3093.52,-152.5"/>
</g>
<!-- ResourceConnectionsGraphComponent -->
<g id="node15" class="node">
<title>ResourceConnectionsGraphComponent</title>
<polygon fill="#ffffb3" stroke="black" points="3345.39,-122 3106.61,-122 3106.61,-86 3345.39,-86 3345.39,-122"/>
<text text-anchor="middle" x="3226" y="-99.8" font-family="Times,serif" font-size="14.00">ResourceConnectionsGraphComponent</text>
</g>
<!-- ResourceConnectionsGraphComponent&#45;&gt;BlueprintDesignerModule -->
<g id="edge15" class="edge">
<title>ResourceConnectionsGraphComponent&#45;&gt;BlueprintDesignerModule</title>
<path fill="none" stroke="black" d="M3147.44,-122.05C3147.44,-136.37 3147.44,-154 3147.44,-154 3147.44,-154 3093.65,-154 3093.65,-154"/>
<polygon fill="black" stroke="black" points="3093.65,-150.5 3083.65,-154 3093.65,-157.5 3093.65,-150.5"/>
</g>
<!-- ResourceDetailsComponent -->
<g id="node16" class="node">
<title>ResourceDetailsComponent</title>
<polygon fill="#ffffb3" stroke="black" points="3088.57,-122 2915.43,-122 2915.43,-86 3088.57,-86 3088.57,-122"/>
<text text-anchor="middle" x="3002" y="-99.8" font-family="Times,serif" font-size="14.00">ResourceDetailsComponent</text>
</g>
<!-- ResourceDetailsComponent&#45;&gt;BlueprintDesignerModule -->
<g id="edge16" class="edge">
<title>ResourceDetailsComponent&#45;&gt;BlueprintDesignerModule</title>
<path fill="none" stroke="black" d="M3002,-122.11C3002,-122.11 3002,-140.99 3002,-140.99"/>
<polygon fill="black" stroke="black" points="2998.5,-140.99 3002,-150.99 3005.5,-140.99 2998.5,-140.99"/>
</g>
<!-- ResourceEnvironmentsComponent -->
<g id="node17" class="node">
<title>ResourceEnvironmentsComponent</title>
<polygon fill="#ffffb3" stroke="black" points="2896.96,-122 2685.04,-122 2685.04,-86 2896.96,-86 2896.96,-122"/>
<text text-anchor="middle" x="2791" y="-99.8" font-family="Times,serif" font-size="14.00">ResourceEnvironmentsComponent</text>
</g>
<!-- ResourceEnvironmentsComponent&#45;&gt;BlueprintDesignerModule -->
<g id="edge17" class="edge">
<title>ResourceEnvironmentsComponent&#45;&gt;BlueprintDesignerModule</title>
<path fill="none" stroke="black" d="M2844.32,-122.05C2844.32,-136.37 2844.32,-154 2844.32,-154 2844.32,-154 2910.39,-154 2910.39,-154"/>
<polygon fill="black" stroke="black" points="2910.39,-157.5 2920.39,-154 2910.39,-150.5 2910.39,-157.5"/>
</g>
<!-- ResourceNodeComponent -->
<g id="node18" class="node">
<title>ResourceNodeComponent</title>
<polygon fill="#ffffb3" stroke="black" points="2666.74,-122 2503.26,-122 2503.26,-86 2666.74,-86 2666.74,-122"/>
<text text-anchor="middle" x="2585" y="-99.8" font-family="Times,serif" font-size="14.00">ResourceNodeComponent</text>
</g>
<!-- ResourceNodeComponent&#45;&gt;BlueprintDesignerModule -->
<g id="edge18" class="edge">
<title>ResourceNodeComponent&#45;&gt;BlueprintDesignerModule</title>
<path fill="none" stroke="black" d="M2585,-122.19C2585,-137.18 2585,-156 2585,-156 2585,-156 2910.11,-156 2910.11,-156"/>
<polygon fill="black" stroke="black" points="2910.11,-159.5 2920.11,-156 2910.11,-152.5 2910.11,-159.5"/>
</g>
<!-- ResourceOutPropertiesComponent -->
<g id="node19" class="node">
<title>ResourceOutPropertiesComponent</title>
<polygon fill="#ffffb3" stroke="black" points="2485.67,-122 2274.33,-122 2274.33,-86 2485.67,-86 2485.67,-122"/>
<text text-anchor="middle" x="2380" y="-99.8" font-family="Times,serif" font-size="14.00">ResourceOutPropertiesComponent</text>
</g>
<!-- ResourceOutPropertiesComponent&#45;&gt;BlueprintDesignerModule -->
<g id="edge19" class="edge">
<title>ResourceOutPropertiesComponent&#45;&gt;BlueprintDesignerModule</title>
<path fill="none" stroke="black" d="M2380,-122.28C2380,-137.95 2380,-158 2380,-158 2380,-158 2910.36,-158 2910.36,-158"/>
<polygon fill="black" stroke="black" points="2910.36,-161.5 2920.36,-158 2910.36,-154.5 2910.36,-161.5"/>
</g>
<!-- ResourceOverridesComponent -->
<g id="node20" class="node">
<title>ResourceOverridesComponent</title>
<polygon fill="#ffffb3" stroke="black" points="2256.11,-122 2067.89,-122 2067.89,-86 2256.11,-86 2256.11,-122"/>
<text text-anchor="middle" x="2162" y="-99.8" font-family="Times,serif" font-size="14.00">ResourceOverridesComponent</text>
</g>
<!-- ResourceOverridesComponent&#45;&gt;BlueprintDesignerModule -->
<g id="edge20" class="edge">
<title>ResourceOverridesComponent&#45;&gt;BlueprintDesignerModule</title>
<path fill="none" stroke="black" d="M2162,-122.03C2162,-138.4 2162,-160 2162,-160 2162,-160 2910.31,-160 2910.31,-160"/>
<polygon fill="black" stroke="black" points="2910.31,-163.5 2920.31,-160 2910.31,-156.5 2910.31,-163.5"/>
</g>
<!-- ResourceOverviewComponent -->
<g id="node21" class="node">
<title>ResourceOverviewComponent</title>
<polygon fill="#ffffb3" stroke="black" points="2049.11,-122 1860.89,-122 1860.89,-86 2049.11,-86 2049.11,-122"/>
<text text-anchor="middle" x="1955" y="-99.8" font-family="Times,serif" font-size="14.00">ResourceOverviewComponent</text>
</g>
<!-- ResourceOverviewComponent&#45;&gt;BlueprintDesignerModule -->
<g id="edge21" class="edge">
<title>ResourceOverviewComponent&#45;&gt;BlueprintDesignerModule</title>
<path fill="none" stroke="black" d="M1955,-122.02C1955,-139.37 1955,-163 1955,-163 1955,-163 2910.28,-163 2910.28,-163"/>
<polygon fill="black" stroke="black" points="2910.28,-166.5 2920.28,-163 2910.28,-159.5 2910.28,-166.5"/>
</g>
<!-- ResourceSpecComponent -->
<g id="node22" class="node">
<title>ResourceSpecComponent</title>
<polygon fill="#ffffb3" stroke="black" points="1842.13,-122 1681.87,-122 1681.87,-86 1842.13,-86 1842.13,-122"/>
<text text-anchor="middle" x="1762" y="-99.8" font-family="Times,serif" font-size="14.00">ResourceSpecComponent</text>
</g>
<!-- ResourceSpecComponent&#45;&gt;BlueprintDesignerModule -->
<g id="edge22" class="edge">
<title>ResourceSpecComponent&#45;&gt;BlueprintDesignerModule</title>
<path fill="none" stroke="black" d="M1762,-122.3C1762,-140.27 1762,-165 1762,-165 1762,-165 2910.16,-165 2910.16,-165"/>
<polygon fill="black" stroke="black" points="2910.16,-168.5 2920.16,-165 2910.16,-161.5 2910.16,-168.5"/>
</g>
<!-- SaveAsTemplateComponent -->
<g id="node23" class="node">
<title>SaveAsTemplateComponent</title>
<polygon fill="#ffffb3" stroke="black" points="1663.46,-122 1486.54,-122 1486.54,-86 1663.46,-86 1663.46,-122"/>
<text text-anchor="middle" x="1575" y="-99.8" font-family="Times,serif" font-size="14.00">SaveAsTemplateComponent</text>
</g>
<!-- SaveAsTemplateComponent&#45;&gt;BlueprintDesignerModule -->
<g id="edge23" class="edge">
<title>SaveAsTemplateComponent&#45;&gt;BlueprintDesignerModule</title>
<path fill="none" stroke="black" d="M1575,-122.22C1575,-140.83 1575,-167 1575,-167 1575,-167 2910.41,-167 2910.41,-167"/>
<polygon fill="black" stroke="black" points="2910.41,-170.5 2920.41,-167 2910.41,-163.5 2910.41,-170.5"/>
</g>
<!-- SearchComponent -->
<g id="node24" class="node">
<title>SearchComponent</title>
<polygon fill="#ffffb3" stroke="black" points="1468.92,-122 1349.08,-122 1349.08,-86 1468.92,-86 1468.92,-122"/>
<text text-anchor="middle" x="1409" y="-99.8" font-family="Times,serif" font-size="14.00">SearchComponent</text>
</g>
<!-- SearchComponent&#45;&gt;BlueprintDesignerModule -->
<g id="edge24" class="edge">
<title>SearchComponent&#45;&gt;BlueprintDesignerModule</title>
<path fill="none" stroke="black" d="M1409,-122.11C1409,-141.34 1409,-169 1409,-169 1409,-169 2910.26,-169 2910.26,-169"/>
<polygon fill="black" stroke="black" points="2910.26,-172.5 2920.26,-169 2910.26,-165.5 2910.26,-172.5"/>
</g>
<!-- SimpleResourceNodeComponent -->
<g id="node25" class="node">
<title>SimpleResourceNodeComponent</title>
<polygon fill="#ffffb3" stroke="black" points="1331.91,-122 1128.09,-122 1128.09,-86 1331.91,-86 1331.91,-122"/>
<text text-anchor="middle" x="1230" y="-99.8" font-family="Times,serif" font-size="14.00">SimpleResourceNodeComponent</text>
</g>
<!-- SimpleResourceNodeComponent&#45;&gt;BlueprintDesignerModule -->
<g id="edge25" class="edge">
<title>SimpleResourceNodeComponent&#45;&gt;BlueprintDesignerModule</title>
<path fill="none" stroke="black" d="M1230,-122.22C1230,-142.37 1230,-172 1230,-172 1230,-172 2910.38,-172 2910.38,-172"/>
<polygon fill="black" stroke="black" points="2910.38,-175.5 2920.38,-172 2910.38,-168.5 2910.38,-175.5"/>
</g>
<!-- TransitionLoaderComponent -->
<g id="node26" class="node">
<title>TransitionLoaderComponent</title>
<polygon fill="#ffffb3" stroke="black" points="1110.02,-122 931.98,-122 931.98,-86 1110.02,-86 1110.02,-122"/>
<text text-anchor="middle" x="1021" y="-99.8" font-family="Times,serif" font-size="14.00">TransitionLoaderComponent</text>
</g>
<!-- TransitionLoaderComponent&#45;&gt;BlueprintDesignerModule -->
<g id="edge26" class="edge">
<title>TransitionLoaderComponent&#45;&gt;BlueprintDesignerModule</title>
<path fill="none" stroke="black" d="M1021,-122.03C1021,-142.77 1021,-174 1021,-174 1021,-174 2910.34,-174 2910.34,-174"/>
<polygon fill="black" stroke="black" points="2910.34,-177.5 2920.34,-174 2910.34,-170.5 2910.34,-177.5"/>
</g>
<!-- ActionTimingComponent  -->
<g id="node33" class="node">
<title>ActionTimingComponent </title>
<polygon fill="#fb8072" stroke="black" points="3188.16,-252 3023.84,-252 3023.84,-216 3188.16,-216 3188.16,-252"/>
<text text-anchor="middle" x="3106" y="-229.8" font-family="Times,serif" font-size="14.00">ActionTimingComponent </text>
</g>
<!-- BlueprintDesignerModule&#45;&gt;ActionTimingComponent  -->
<g id="edge32" class="edge">
<title>BlueprintDesignerModule&#45;&gt;ActionTimingComponent </title>
<path fill="none" stroke="black" stroke-dasharray="5,2" d="M3053.7,-187.11C3053.7,-187.11 3053.7,-205.99 3053.7,-205.99"/>
<polygon fill="black" stroke="black" points="3050.2,-205.99 3053.7,-215.99 3057.2,-205.99 3050.2,-205.99"/>
</g>
<!-- ResourceOutPropertiesComponent  -->
<g id="node34" class="node">
<title>ResourceOutPropertiesComponent </title>
<polygon fill="#fb8072" stroke="black" points="3006.17,-252 2791.83,-252 2791.83,-216 3006.17,-216 3006.17,-252"/>
<text text-anchor="middle" x="2899" y="-229.8" font-family="Times,serif" font-size="14.00">ResourceOutPropertiesComponent </text>
</g>
<!-- BlueprintDesignerModule&#45;&gt;ResourceOutPropertiesComponent  -->
<g id="edge33" class="edge">
<title>BlueprintDesignerModule&#45;&gt;ResourceOutPropertiesComponent </title>
<path fill="none" stroke="black" stroke-dasharray="5,2" d="M2963.43,-187.11C2963.43,-187.11 2963.43,-205.99 2963.43,-205.99"/>
<polygon fill="black" stroke="black" points="2959.93,-205.99 2963.43,-215.99 2966.93,-205.99 2959.93,-205.99"/>
</g>
<!-- BlueprintDesignerRoutingModule -->
<g id="node28" class="node">
<title>BlueprintDesignerRoutingModule</title>
<polygon fill="#8dd3c7" stroke="black" points="908.08,-122 905.08,-126 884.08,-126 881.08,-122 699.92,-122 699.92,-86 908.08,-86 908.08,-122"/>
<text text-anchor="middle" x="804" y="-99.8" font-family="Times,serif" font-size="14.00">BlueprintDesignerRoutingModule</text>
</g>
<!-- BlueprintDesignerRoutingModule&#45;&gt;BlueprintDesignerModule -->
<g id="edge27" class="edge">
<title>BlueprintDesignerRoutingModule&#45;&gt;BlueprintDesignerModule</title>
<path fill="none" stroke="black" d="M804,-122.17C804,-143.5 804,-176 804,-176 804,-176 2910.51,-176 2910.51,-176"/>
<polygon fill="black" stroke="black" points="2910.51,-179.5 2920.51,-176 2910.51,-172.5 2910.51,-179.5"/>
</g>
<!-- CIDetailsModule -->
<g id="node29" class="node">
<title>CIDetailsModule</title>
<polygon fill="#8dd3c7" stroke="black" points="681.7,-122 678.7,-126 657.7,-126 654.7,-122 568.3,-122 568.3,-86 681.7,-86 681.7,-122"/>
<text text-anchor="middle" x="625" y="-99.8" font-family="Times,serif" font-size="14.00">CIDetailsModule</text>
</g>
<!-- CIDetailsModule&#45;&gt;BlueprintDesignerModule -->
<g id="edge28" class="edge">
<title>CIDetailsModule&#45;&gt;BlueprintDesignerModule</title>
<path fill="none" stroke="black" d="M625,-122.29C625,-144.21 625,-178 625,-178 625,-178 2910.52,-178 2910.52,-178"/>
<polygon fill="black" stroke="black" points="2910.52,-181.5 2920.52,-178 2910.52,-174.5 2910.52,-181.5"/>
</g>
<!-- MonacoEditorSchemaBasedModule -->
<g id="node30" class="node">
<title>MonacoEditorSchemaBasedModule</title>
<polygon fill="#8dd3c7" stroke="black" points="550.45,-122 547.45,-126 526.45,-126 523.45,-122 331.55,-122 331.55,-86 550.45,-86 550.45,-122"/>
<text text-anchor="middle" x="441" y="-99.8" font-family="Times,serif" font-size="14.00">MonacoEditorSchemaBasedModule</text>
</g>
<!-- MonacoEditorSchemaBasedModule&#45;&gt;BlueprintDesignerModule -->
<g id="edge29" class="edge">
<title>MonacoEditorSchemaBasedModule&#45;&gt;BlueprintDesignerModule</title>
<path fill="none" stroke="black" d="M441,-122.25C441,-145.02 441,-181 441,-181 441,-181 2910.41,-181 2910.41,-181"/>
<polygon fill="black" stroke="black" points="2910.41,-184.5 2920.41,-181 2910.41,-177.5 2910.41,-184.5"/>
</g>
<!-- ResourceListModule -->
<g id="node31" class="node">
<title>ResourceListModule</title>
<polygon fill="#8dd3c7" stroke="black" points="313.91,-122 310.91,-126 289.91,-126 286.91,-122 180.09,-122 180.09,-86 313.91,-86 313.91,-122"/>
<text text-anchor="middle" x="247" y="-99.8" font-family="Times,serif" font-size="14.00">ResourceListModule</text>
</g>
<!-- ResourceListModule&#45;&gt;BlueprintDesignerModule -->
<g id="edge30" class="edge">
<title>ResourceListModule&#45;&gt;BlueprintDesignerModule</title>
<path fill="none" stroke="black" d="M247,-122.32C247,-145.66 247,-183 247,-183 247,-183 2910.3,-183 2910.3,-183"/>
<polygon fill="black" stroke="black" points="2910.3,-186.5 2920.3,-183 2910.3,-179.5 2910.3,-186.5"/>
</g>
<!-- SmoothWidthModule -->
<g id="node32" class="node">
<title>SmoothWidthModule</title>
<polygon fill="#8dd3c7" stroke="black" points="162.11,-122 159.11,-126 138.11,-126 135.11,-122 23.89,-122 23.89,-86 162.11,-86 162.11,-122"/>
<text text-anchor="middle" x="93" y="-99.8" font-family="Times,serif" font-size="14.00">SmoothWidthModule</text>
</g>
<!-- SmoothWidthModule&#45;&gt;BlueprintDesignerModule -->
<g id="edge31" class="edge">
<title>SmoothWidthModule&#45;&gt;BlueprintDesignerModule</title>
<path fill="none" stroke="black" d="M93,-122.38C93,-146.28 93,-185 93,-185 93,-185 2910.39,-185 2910.39,-185"/>
<polygon fill="black" stroke="black" points="2910.39,-188.5 2920.39,-185 2910.39,-181.5 2910.39,-188.5"/>
</g>
</g>
</svg>
