<?xml version="1.0" encoding="UTF-8" standalone="no"?>
<!DOCTYPE svg PUBLIC "-//W3C//DTD SVG 1.1//EN"
 "http://www.w3.org/Graphics/SVG/1.1/DTD/svg11.dtd">
<!-- Generated by graphviz version 2.47.0 (20210316.0004)
 -->
<!-- Title: dependencies Pages: 1 -->
<svg width="534pt" height="211pt"
 viewBox="0.00 0.00 534.00 211.00" xmlns="http://www.w3.org/2000/svg" xmlns:xlink="http://www.w3.org/1999/xlink">
<g id="graph0" class="graph" transform="scale(1 1) rotate(0) translate(4 207)">
<title>dependencies</title>
<polygon fill="white" stroke="transparent" points="-4,4 -4,-207 530,-207 530,4 -4,4"/>
<text text-anchor="start" x="242.01" y="-42.4" font-family="Times-12" font-weight="bold" font-size="14.00">Legend</text>
<polygon fill="#ffffb3" stroke="transparent" points="29,-10 29,-30 49,-30 49,-10 29,-10"/>
<text text-anchor="start" x="52.63" y="-15.4" font-family="Times-12" font-size="14.00"> &#160;Declarations</text>
<polygon fill="#8dd3c7" stroke="transparent" points="142,-10 142,-30 162,-30 162,-10 142,-10"/>
<text text-anchor="start" x="165.73" y="-15.4" font-family="Times-12" font-size="14.00"> &#160;Module</text>
<polygon fill="#80b1d3" stroke="transparent" points="228,-10 228,-30 248,-30 248,-10 228,-10"/>
<text text-anchor="start" x="251.78" y="-15.4" font-family="Times-12" font-size="14.00"> &#160;Bootstrap</text>
<polygon fill="#fdb462" stroke="transparent" points="325,-10 325,-30 345,-30 345,-10 325,-10"/>
<text text-anchor="start" x="348.67" y="-15.4" font-family="Times-12" font-size="14.00"> &#160;Providers</text>
<polygon fill="#fb8072" stroke="transparent" points="421,-10 421,-30 441,-30 441,-10 421,-10"/>
<text text-anchor="start" x="444.73" y="-15.4" font-family="Times-12" font-size="14.00"> &#160;Exports</text>
<g id="clust1" class="cluster">
<title>cluster_ClusterPagesModule</title>
<polygon fill="none" stroke="black" stroke-dasharray="1,5" points="8,-70 8,-195 518,-195 518,-70 8,-70"/>
</g>
<g id="clust4" class="cluster">
<title>cluster_ClusterPagesModule_imports</title>
<polygon fill="none" stroke="black" points="194,-78 194,-130 510,-130 510,-78 194,-78"/>
</g>
<g id="clust2" class="cluster">
<title>cluster_ClusterPagesModule_declarations</title>
<polygon fill="none" stroke="black" points="16,-78 16,-130 186,-130 186,-78 16,-78"/>
</g>
<!-- ClusterPagesComponent -->
<g id="node1" class="node">
<title>ClusterPagesComponent</title>
<polygon fill="#ffffb3" stroke="black" points="178.43,-122 23.57,-122 23.57,-86 178.43,-86 178.43,-122"/>
<text text-anchor="middle" x="101" y="-99.8" font-family="Times,serif" font-size="14.00">ClusterPagesComponent</text>
</g>
<!-- ClusterPagesModule -->
<g id="node2" class="node">
<title>ClusterPagesModule</title>
<polygon fill="#8dd3c7" stroke="black" points="320.14,-187 317.14,-191 296.14,-191 293.14,-187 187.86,-187 187.86,-151 320.14,-151 320.14,-187"/>
<text text-anchor="middle" x="254" y="-164.8" font-family="Times,serif" font-size="14.00">ClusterPagesModule</text>
</g>
<!-- ClusterPagesComponent&#45;&gt;ClusterPagesModule -->
<g id="edge1" class="edge">
<title>ClusterPagesComponent&#45;&gt;ClusterPagesModule</title>
<path fill="none" stroke="black" d="M178.36,-104C188.07,-104 194.68,-104 194.68,-104 194.68,-104 194.68,-140.89 194.68,-140.89"/>
<polygon fill="black" stroke="black" points="191.18,-140.89 194.68,-150.89 198.18,-140.89 191.18,-140.89"/>
</g>
<!-- ClusterPagesRoutingModule -->
<g id="node3" class="node">
<title>ClusterPagesRoutingModule</title>
<polygon fill="#8dd3c7" stroke="black" points="501.76,-122 498.76,-126 477.76,-126 474.76,-122 324.24,-122 324.24,-86 501.76,-86 501.76,-122"/>
<text text-anchor="middle" x="413" y="-99.8" font-family="Times,serif" font-size="14.00">ClusterPagesRoutingModule</text>
</g>
<!-- ClusterPagesRoutingModule&#45;&gt;ClusterPagesModule -->
<g id="edge2" class="edge">
<title>ClusterPagesRoutingModule&#45;&gt;ClusterPagesModule</title>
<path fill="none" stroke="black" d="M323.99,-104C317.44,-104 313.32,-104 313.32,-104 313.32,-104 313.32,-140.89 313.32,-140.89"/>
<polygon fill="black" stroke="black" points="309.82,-140.89 313.32,-150.89 316.82,-140.89 309.82,-140.89"/>
</g>
<!-- LayoutsModule -->
<g id="node4" class="node">
<title>LayoutsModule</title>
<polygon fill="#8dd3c7" stroke="black" points="306.15,-122 303.15,-126 282.15,-126 279.15,-122 201.85,-122 201.85,-86 306.15,-86 306.15,-122"/>
<text text-anchor="middle" x="254" y="-99.8" font-family="Times,serif" font-size="14.00">LayoutsModule</text>
</g>
<!-- LayoutsModule&#45;&gt;ClusterPagesModule -->
<g id="edge3" class="edge">
<title>LayoutsModule&#45;&gt;ClusterPagesModule</title>
<path fill="none" stroke="black" d="M254,-122.11C254,-122.11 254,-140.99 254,-140.99"/>
<polygon fill="black" stroke="black" points="250.5,-140.99 254,-150.99 257.5,-140.99 250.5,-140.99"/>
</g>
</g>
</svg>
