<?xml version="1.0" encoding="UTF-8" standalone="no"?>
<!DOCTYPE svg PUBLIC "-//W3C//DTD SVG 1.1//EN"
 "http://www.w3.org/Graphics/SVG/1.1/DTD/svg11.dtd">
<!-- Generated by graphviz version 2.47.0 (20210316.0004)
 -->
<!-- Title: dependencies Pages: 1 -->
<svg width="653pt" height="211pt"
 viewBox="0.00 0.00 653.00 211.00" xmlns="http://www.w3.org/2000/svg" xmlns:xlink="http://www.w3.org/1999/xlink">
<g id="graph0" class="graph" transform="scale(1 1) rotate(0) translate(4 207)">
<title>dependencies</title>
<polygon fill="white" stroke="transparent" points="-4,4 -4,-207 649,-207 649,4 -4,4"/>
<text text-anchor="start" x="301.51" y="-42.4" font-family="Times-12" font-weight="bold" font-size="14.00">Legend</text>
<polygon fill="#ffffb3" stroke="transparent" points="88.5,-10 88.5,-30 108.5,-30 108.5,-10 88.5,-10"/>
<text text-anchor="start" x="112.13" y="-15.4" font-family="Times-12" font-size="14.00"> &#160;Declarations</text>
<polygon fill="#8dd3c7" stroke="transparent" points="201.5,-10 201.5,-30 221.5,-30 221.5,-10 201.5,-10"/>
<text text-anchor="start" x="225.23" y="-15.4" font-family="Times-12" font-size="14.00"> &#160;Module</text>
<polygon fill="#80b1d3" stroke="transparent" points="287.5,-10 287.5,-30 307.5,-30 307.5,-10 287.5,-10"/>
<text text-anchor="start" x="311.28" y="-15.4" font-family="Times-12" font-size="14.00"> &#160;Bootstrap</text>
<polygon fill="#fdb462" stroke="transparent" points="384.5,-10 384.5,-30 404.5,-30 404.5,-10 384.5,-10"/>
<text text-anchor="start" x="408.17" y="-15.4" font-family="Times-12" font-size="14.00"> &#160;Providers</text>
<polygon fill="#fb8072" stroke="transparent" points="480.5,-10 480.5,-30 500.5,-30 500.5,-10 480.5,-10"/>
<text text-anchor="start" x="504.23" y="-15.4" font-family="Times-12" font-size="14.00"> &#160;Exports</text>
<g id="clust1" class="cluster">
<title>cluster_ClusterResourceDetailsModule</title>
<polygon fill="none" stroke="black" stroke-dasharray="1,5" points="8,-70 8,-195 637,-195 637,-70 8,-70"/>
</g>
<g id="clust4" class="cluster">
<title>cluster_ClusterResourceDetailsModule_imports</title>
<polygon fill="none" stroke="black" points="254,-78 254,-130 629,-130 629,-78 254,-78"/>
</g>
<g id="clust2" class="cluster">
<title>cluster_ClusterResourceDetailsModule_declarations</title>
<polygon fill="none" stroke="black" points="16,-78 16,-130 246,-130 246,-78 16,-78"/>
</g>
<!-- ClusterResourceDetailsComponent -->
<g id="node1" class="node">
<title>ClusterResourceDetailsComponent</title>
<polygon fill="#ffffb3" stroke="black" points="237.51,-122 24.49,-122 24.49,-86 237.51,-86 237.51,-122"/>
<text text-anchor="middle" x="131" y="-99.8" font-family="Times,serif" font-size="14.00">ClusterResourceDetailsComponent</text>
</g>
<!-- ClusterResourceDetailsModule -->
<g id="node2" class="node">
<title>ClusterResourceDetailsModule</title>
<polygon fill="#8dd3c7" stroke="black" points="409.73,-187 406.73,-191 385.73,-191 382.73,-187 218.27,-187 218.27,-151 409.73,-151 409.73,-187"/>
<text text-anchor="middle" x="314" y="-164.8" font-family="Times,serif" font-size="14.00">ClusterResourceDetailsModule</text>
</g>
<!-- ClusterResourceDetailsComponent&#45;&gt;ClusterResourceDetailsModule -->
<g id="edge1" class="edge">
<title>ClusterResourceDetailsComponent&#45;&gt;ClusterResourceDetailsModule</title>
<path fill="none" stroke="black" d="M227.95,-122.11C227.95,-122.11 227.95,-140.99 227.95,-140.99"/>
<polygon fill="black" stroke="black" points="224.45,-140.99 227.95,-150.99 231.45,-140.99 224.45,-140.99"/>
</g>
<!-- ClusterResourceDetailsRoutingModule -->
<g id="node3" class="node">
<title>ClusterResourceDetailsRoutingModule</title>
<polygon fill="#8dd3c7" stroke="black" points="621.34,-122 618.34,-126 597.34,-126 594.34,-122 384.66,-122 384.66,-86 621.34,-86 621.34,-122"/>
<text text-anchor="middle" x="503" y="-99.8" font-family="Times,serif" font-size="14.00">ClusterResourceDetailsRoutingModule</text>
</g>
<!-- ClusterResourceDetailsRoutingModule&#45;&gt;ClusterResourceDetailsModule -->
<g id="edge2" class="edge">
<title>ClusterResourceDetailsRoutingModule&#45;&gt;ClusterResourceDetailsModule</title>
<path fill="none" stroke="black" d="M397.22,-122.11C397.22,-122.11 397.22,-140.99 397.22,-140.99"/>
<polygon fill="black" stroke="black" points="393.72,-140.99 397.22,-150.99 400.72,-140.99 393.72,-140.99"/>
</g>
<!-- LayoutsModule -->
<g id="node4" class="node">
<title>LayoutsModule</title>
<polygon fill="#8dd3c7" stroke="black" points="366.15,-122 363.15,-126 342.15,-126 339.15,-122 261.85,-122 261.85,-86 366.15,-86 366.15,-122"/>
<text text-anchor="middle" x="314" y="-99.8" font-family="Times,serif" font-size="14.00">LayoutsModule</text>
</g>
<!-- LayoutsModule&#45;&gt;ClusterResourceDetailsModule -->
<g id="edge3" class="edge">
<title>LayoutsModule&#45;&gt;ClusterResourceDetailsModule</title>
<path fill="none" stroke="black" d="M314,-122.11C314,-122.11 314,-140.99 314,-140.99"/>
<polygon fill="black" stroke="black" points="310.5,-140.99 314,-150.99 317.5,-140.99 310.5,-140.99"/>
</g>
</g>
</svg>
