<?xml version="1.0" encoding="UTF-8" standalone="no"?>
<!DOCTYPE svg PUBLIC "-//W3C//DTD SVG 1.1//EN"
 "http://www.w3.org/Graphics/SVG/1.1/DTD/svg11.dtd">
<!-- Generated by graphviz version 2.47.0 (20210316.0004)
 -->
<!-- Title: dependencies Pages: 1 -->
<svg width="669pt" height="211pt"
 viewBox="0.00 0.00 669.00 211.00" xmlns="http://www.w3.org/2000/svg" xmlns:xlink="http://www.w3.org/1999/xlink">
<g id="graph0" class="graph" transform="scale(1 1) rotate(0) translate(4 207)">
<title>dependencies</title>
<polygon fill="white" stroke="transparent" points="-4,4 -4,-207 665,-207 665,4 -4,4"/>
<text text-anchor="start" x="309.51" y="-42.4" font-family="Times-12" font-weight="bold" font-size="14.00">Legend</text>
<polygon fill="#ffffb3" stroke="transparent" points="96.5,-10 96.5,-30 116.5,-30 116.5,-10 96.5,-10"/>
<text text-anchor="start" x="120.13" y="-15.4" font-family="Times-12" font-size="14.00"> &#160;Declarations</text>
<polygon fill="#8dd3c7" stroke="transparent" points="209.5,-10 209.5,-30 229.5,-30 229.5,-10 209.5,-10"/>
<text text-anchor="start" x="233.23" y="-15.4" font-family="Times-12" font-size="14.00"> &#160;Module</text>
<polygon fill="#80b1d3" stroke="transparent" points="295.5,-10 295.5,-30 315.5,-30 315.5,-10 295.5,-10"/>
<text text-anchor="start" x="319.28" y="-15.4" font-family="Times-12" font-size="14.00"> &#160;Bootstrap</text>
<polygon fill="#fdb462" stroke="transparent" points="392.5,-10 392.5,-30 412.5,-30 412.5,-10 392.5,-10"/>
<text text-anchor="start" x="416.17" y="-15.4" font-family="Times-12" font-size="14.00"> &#160;Providers</text>
<polygon fill="#fb8072" stroke="transparent" points="488.5,-10 488.5,-30 508.5,-30 508.5,-10 488.5,-10"/>
<text text-anchor="start" x="512.23" y="-15.4" font-family="Times-12" font-size="14.00"> &#160;Exports</text>
<g id="clust1" class="cluster">
<title>cluster_AddSubscriptionPayloadModule</title>
<polygon fill="none" stroke="black" stroke-dasharray="1,5" points="8,-70 8,-195 653,-195 653,-70 8,-70"/>
</g>
<g id="clust4" class="cluster">
<title>cluster_AddSubscriptionPayloadModule_imports</title>
<polygon fill="none" stroke="black" points="262,-78 262,-130 645,-130 645,-78 262,-78"/>
</g>
<g id="clust2" class="cluster">
<title>cluster_AddSubscriptionPayloadModule_declarations</title>
<polygon fill="none" stroke="black" points="16,-78 16,-130 254,-130 254,-78 16,-78"/>
</g>
<!-- AddSubscriptionPayloadComponent -->
<g id="node1" class="node">
<title>AddSubscriptionPayloadComponent</title>
<polygon fill="#ffffb3" stroke="black" points="245.82,-122 24.18,-122 24.18,-86 245.82,-86 245.82,-122"/>
<text text-anchor="middle" x="135" y="-99.8" font-family="Times,serif" font-size="14.00">AddSubscriptionPayloadComponent</text>
</g>
<!-- AddSubscriptionPayloadModule -->
<g id="node2" class="node">
<title>AddSubscriptionPayloadModule</title>
<polygon fill="#8dd3c7" stroke="black" points="421.53,-187 418.53,-191 397.53,-191 394.53,-187 222.47,-187 222.47,-151 421.53,-151 421.53,-187"/>
<text text-anchor="middle" x="322" y="-164.8" font-family="Times,serif" font-size="14.00">AddSubscriptionPayloadModule</text>
</g>
<!-- AddSubscriptionPayloadComponent&#45;&gt;AddSubscriptionPayloadModule -->
<g id="edge1" class="edge">
<title>AddSubscriptionPayloadComponent&#45;&gt;AddSubscriptionPayloadModule</title>
<path fill="none" stroke="black" d="M233.95,-122.11C233.95,-122.11 233.95,-140.99 233.95,-140.99"/>
<polygon fill="black" stroke="black" points="230.45,-140.99 233.95,-150.99 237.45,-140.99 230.45,-140.99"/>
</g>
<!-- AddSubscriptionPayloadRoutingModule -->
<g id="node3" class="node">
<title>AddSubscriptionPayloadRoutingModule</title>
<polygon fill="#8dd3c7" stroke="black" points="637.15,-122 634.15,-126 613.15,-126 610.15,-122 392.85,-122 392.85,-86 637.15,-86 637.15,-122"/>
<text text-anchor="middle" x="515" y="-99.8" font-family="Times,serif" font-size="14.00">AddSubscriptionPayloadRoutingModule</text>
</g>
<!-- AddSubscriptionPayloadRoutingModule&#45;&gt;AddSubscriptionPayloadModule -->
<g id="edge2" class="edge">
<title>AddSubscriptionPayloadRoutingModule&#45;&gt;AddSubscriptionPayloadModule</title>
<path fill="none" stroke="black" d="M407.22,-122.11C407.22,-122.11 407.22,-140.99 407.22,-140.99"/>
<polygon fill="black" stroke="black" points="403.72,-140.99 407.22,-150.99 410.72,-140.99 403.72,-140.99"/>
</g>
<!-- LayoutsModule -->
<g id="node4" class="node">
<title>LayoutsModule</title>
<polygon fill="#8dd3c7" stroke="black" points="374.15,-122 371.15,-126 350.15,-126 347.15,-122 269.85,-122 269.85,-86 374.15,-86 374.15,-122"/>
<text text-anchor="middle" x="322" y="-99.8" font-family="Times,serif" font-size="14.00">LayoutsModule</text>
</g>
<!-- LayoutsModule&#45;&gt;AddSubscriptionPayloadModule -->
<g id="edge3" class="edge">
<title>LayoutsModule&#45;&gt;AddSubscriptionPayloadModule</title>
<path fill="none" stroke="black" d="M322,-122.11C322,-122.11 322,-140.99 322,-140.99"/>
<polygon fill="black" stroke="black" points="318.5,-140.99 322,-150.99 325.5,-140.99 318.5,-140.99"/>
</g>
</g>
</svg>
