<?xml version="1.0" encoding="UTF-8" standalone="no"?>
<!DOCTYPE svg PUBLIC "-//W3C//DTD SVG 1.1//EN"
 "http://www.w3.org/Graphics/SVG/1.1/DTD/svg11.dtd">
<!-- Generated by graphviz version 2.47.0 (20210316.0004)
 -->
<!-- Title: dependencies Pages: 1 -->
<svg width="645pt" height="211pt"
 viewBox="0.00 0.00 645.00 211.00" xmlns="http://www.w3.org/2000/svg" xmlns:xlink="http://www.w3.org/1999/xlink">
<g id="graph0" class="graph" transform="scale(1 1) rotate(0) translate(4 207)">
<title>dependencies</title>
<polygon fill="white" stroke="transparent" points="-4,4 -4,-207 641,-207 641,4 -4,4"/>
<text text-anchor="start" x="297.51" y="-42.4" font-family="Times-12" font-weight="bold" font-size="14.00">Legend</text>
<polygon fill="#ffffb3" stroke="transparent" points="84.5,-10 84.5,-30 104.5,-30 104.5,-10 84.5,-10"/>
<text text-anchor="start" x="108.13" y="-15.4" font-family="Times-12" font-size="14.00"> &#160;Declarations</text>
<polygon fill="#8dd3c7" stroke="transparent" points="197.5,-10 197.5,-30 217.5,-30 217.5,-10 197.5,-10"/>
<text text-anchor="start" x="221.23" y="-15.4" font-family="Times-12" font-size="14.00"> &#160;Module</text>
<polygon fill="#80b1d3" stroke="transparent" points="283.5,-10 283.5,-30 303.5,-30 303.5,-10 283.5,-10"/>
<text text-anchor="start" x="307.28" y="-15.4" font-family="Times-12" font-size="14.00"> &#160;Bootstrap</text>
<polygon fill="#fdb462" stroke="transparent" points="380.5,-10 380.5,-30 400.5,-30 400.5,-10 380.5,-10"/>
<text text-anchor="start" x="404.17" y="-15.4" font-family="Times-12" font-size="14.00"> &#160;Providers</text>
<polygon fill="#fb8072" stroke="transparent" points="476.5,-10 476.5,-30 496.5,-30 496.5,-10 476.5,-10"/>
<text text-anchor="start" x="500.23" y="-15.4" font-family="Times-12" font-size="14.00"> &#160;Exports</text>
<g id="clust1" class="cluster">
<title>cluster_ClusterTemplateInputsModule</title>
<polygon fill="none" stroke="black" stroke-dasharray="1,5" points="8,-70 8,-195 629,-195 629,-70 8,-70"/>
</g>
<g id="clust2" class="cluster">
<title>cluster_ClusterTemplateInputsModule_declarations</title>
<polygon fill="none" stroke="black" points="395,-78 395,-130 621,-130 621,-78 395,-78"/>
</g>
<g id="clust4" class="cluster">
<title>cluster_ClusterTemplateInputsModule_imports</title>
<polygon fill="none" stroke="black" points="16,-78 16,-130 387,-130 387,-78 16,-78"/>
</g>
<!-- ClusterTemplateInputsComponent -->
<g id="node1" class="node">
<title>ClusterTemplateInputsComponent</title>
<polygon fill="#ffffb3" stroke="black" points="612.63,-122 403.37,-122 403.37,-86 612.63,-86 612.63,-122"/>
<text text-anchor="middle" x="508" y="-99.8" font-family="Times,serif" font-size="14.00">ClusterTemplateInputsComponent</text>
</g>
<!-- ClusterTemplateInputsModule -->
<g id="node2" class="node">
<title>ClusterTemplateInputsModule</title>
<polygon fill="#8dd3c7" stroke="black" points="356.85,-187 353.85,-191 332.85,-191 329.85,-187 169.15,-187 169.15,-151 356.85,-151 356.85,-187"/>
<text text-anchor="middle" x="263" y="-164.8" font-family="Times,serif" font-size="14.00">ClusterTemplateInputsModule</text>
</g>
<!-- ClusterTemplateInputsComponent&#45;&gt;ClusterTemplateInputsModule -->
<g id="edge1" class="edge">
<title>ClusterTemplateInputsComponent&#45;&gt;ClusterTemplateInputsModule</title>
<path fill="none" stroke="black" d="M508,-122.11C508,-141.34 508,-169 508,-169 508,-169 367.02,-169 367.02,-169"/>
<polygon fill="black" stroke="black" points="367.02,-165.5 357.02,-169 367.02,-172.5 367.02,-165.5"/>
</g>
<!-- ClusterTemplateInputsRoutingModule -->
<g id="node3" class="node">
<title>ClusterTemplateInputsRoutingModule</title>
<polygon fill="#8dd3c7" stroke="black" points="379.47,-122 376.47,-126 355.47,-126 352.47,-122 146.53,-122 146.53,-86 379.47,-86 379.47,-122"/>
<text text-anchor="middle" x="263" y="-99.8" font-family="Times,serif" font-size="14.00">ClusterTemplateInputsRoutingModule</text>
</g>
<!-- ClusterTemplateInputsRoutingModule&#45;&gt;ClusterTemplateInputsModule -->
<g id="edge2" class="edge">
<title>ClusterTemplateInputsRoutingModule&#45;&gt;ClusterTemplateInputsModule</title>
<path fill="none" stroke="black" d="M263,-122.11C263,-122.11 263,-140.99 263,-140.99"/>
<polygon fill="black" stroke="black" points="259.5,-140.99 263,-150.99 266.5,-140.99 259.5,-140.99"/>
</g>
<!-- LayoutsModule -->
<g id="node4" class="node">
<title>LayoutsModule</title>
<polygon fill="#8dd3c7" stroke="black" points="128.15,-122 125.15,-126 104.15,-126 101.15,-122 23.85,-122 23.85,-86 128.15,-86 128.15,-122"/>
<text text-anchor="middle" x="76" y="-99.8" font-family="Times,serif" font-size="14.00">LayoutsModule</text>
</g>
<!-- LayoutsModule&#45;&gt;ClusterTemplateInputsModule -->
<g id="edge3" class="edge">
<title>LayoutsModule&#45;&gt;ClusterTemplateInputsModule</title>
<path fill="none" stroke="black" d="M76,-122.11C76,-141.34 76,-169 76,-169 76,-169 158.95,-169 158.95,-169"/>
<polygon fill="black" stroke="black" points="158.95,-172.5 168.95,-169 158.95,-165.5 158.95,-172.5"/>
</g>
</g>
</svg>
