<?xml version="1.0" encoding="UTF-8" standalone="no"?>
<!DOCTYPE svg PUBLIC "-//W3C//DTD SVG 1.1//EN"
 "http://www.w3.org/Graphics/SVG/1.1/DTD/svg11.dtd">
<!-- Generated by graphviz version 2.47.0 (20210316.0004)
 -->
<!-- Title: dependencies Pages: 1 -->
<svg width="605pt" height="211pt"
 viewBox="0.00 0.00 605.00 211.00" xmlns="http://www.w3.org/2000/svg" xmlns:xlink="http://www.w3.org/1999/xlink">
<g id="graph0" class="graph" transform="scale(1 1) rotate(0) translate(4 207)">
<title>dependencies</title>
<polygon fill="white" stroke="transparent" points="-4,4 -4,-207 601,-207 601,4 -4,4"/>
<text text-anchor="start" x="277.51" y="-42.4" font-family="Times-12" font-weight="bold" font-size="14.00">Legend</text>
<polygon fill="#ffffb3" stroke="transparent" points="64.5,-10 64.5,-30 84.5,-30 84.5,-10 64.5,-10"/>
<text text-anchor="start" x="88.13" y="-15.4" font-family="Times-12" font-size="14.00"> &#160;Declarations</text>
<polygon fill="#8dd3c7" stroke="transparent" points="177.5,-10 177.5,-30 197.5,-30 197.5,-10 177.5,-10"/>
<text text-anchor="start" x="201.23" y="-15.4" font-family="Times-12" font-size="14.00"> &#160;Module</text>
<polygon fill="#80b1d3" stroke="transparent" points="263.5,-10 263.5,-30 283.5,-30 283.5,-10 263.5,-10"/>
<text text-anchor="start" x="287.28" y="-15.4" font-family="Times-12" font-size="14.00"> &#160;Bootstrap</text>
<polygon fill="#fdb462" stroke="transparent" points="360.5,-10 360.5,-30 380.5,-30 380.5,-10 360.5,-10"/>
<text text-anchor="start" x="384.17" y="-15.4" font-family="Times-12" font-size="14.00"> &#160;Providers</text>
<polygon fill="#fb8072" stroke="transparent" points="456.5,-10 456.5,-30 476.5,-30 476.5,-10 456.5,-10"/>
<text text-anchor="start" x="480.23" y="-15.4" font-family="Times-12" font-size="14.00"> &#160;Exports</text>
<g id="clust1" class="cluster">
<title>cluster_ProvidedResourcesModule</title>
<polygon fill="none" stroke="black" stroke-dasharray="1,5" points="8,-70 8,-195 589,-195 589,-70 8,-70"/>
</g>
<g id="clust4" class="cluster">
<title>cluster_ProvidedResourcesModule_imports</title>
<polygon fill="none" stroke="black" points="230,-78 230,-130 581,-130 581,-78 230,-78"/>
</g>
<g id="clust2" class="cluster">
<title>cluster_ProvidedResourcesModule_declarations</title>
<polygon fill="none" stroke="black" points="16,-78 16,-130 222,-130 222,-78 16,-78"/>
</g>
<!-- ProvidedResourcesComponent -->
<g id="node1" class="node">
<title>ProvidedResourcesComponent</title>
<polygon fill="#ffffb3" stroke="black" points="213.91,-122 24.09,-122 24.09,-86 213.91,-86 213.91,-122"/>
<text text-anchor="middle" x="119" y="-99.8" font-family="Times,serif" font-size="14.00">ProvidedResourcesComponent</text>
</g>
<!-- ProvidedResourcesModule -->
<g id="node2" class="node">
<title>ProvidedResourcesModule</title>
<polygon fill="#8dd3c7" stroke="black" points="427.63,-187 424.63,-191 403.63,-191 400.63,-187 260.37,-187 260.37,-151 427.63,-151 427.63,-187"/>
<text text-anchor="middle" x="344" y="-164.8" font-family="Times,serif" font-size="14.00">ProvidedResourcesModule</text>
</g>
<!-- ProvidedResourcesComponent&#45;&gt;ProvidedResourcesModule -->
<g id="edge1" class="edge">
<title>ProvidedResourcesComponent&#45;&gt;ProvidedResourcesModule</title>
<path fill="none" stroke="black" d="M119,-122.11C119,-141.34 119,-169 119,-169 119,-169 250.22,-169 250.22,-169"/>
<polygon fill="black" stroke="black" points="250.22,-172.5 260.22,-169 250.22,-165.5 250.22,-172.5"/>
</g>
<!-- LayoutsModule -->
<g id="node3" class="node">
<title>LayoutsModule</title>
<polygon fill="#8dd3c7" stroke="black" points="573.15,-122 570.15,-126 549.15,-126 546.15,-122 468.85,-122 468.85,-86 573.15,-86 573.15,-122"/>
<text text-anchor="middle" x="521" y="-99.8" font-family="Times,serif" font-size="14.00">LayoutsModule</text>
</g>
<!-- LayoutsModule&#45;&gt;ProvidedResourcesModule -->
<g id="edge2" class="edge">
<title>LayoutsModule&#45;&gt;ProvidedResourcesModule</title>
<path fill="none" stroke="black" d="M521,-122.11C521,-141.34 521,-169 521,-169 521,-169 437.83,-169 437.83,-169"/>
<polygon fill="black" stroke="black" points="437.83,-165.5 427.83,-169 437.83,-172.5 437.83,-165.5"/>
</g>
<!-- ProvidedResourcesRoutingModule -->
<g id="node4" class="node">
<title>ProvidedResourcesRoutingModule</title>
<polygon fill="#8dd3c7" stroke="black" points="450.25,-122 447.25,-126 426.25,-126 423.25,-122 237.75,-122 237.75,-86 450.25,-86 450.25,-122"/>
<text text-anchor="middle" x="344" y="-99.8" font-family="Times,serif" font-size="14.00">ProvidedResourcesRoutingModule</text>
</g>
<!-- ProvidedResourcesRoutingModule&#45;&gt;ProvidedResourcesModule -->
<g id="edge3" class="edge">
<title>ProvidedResourcesRoutingModule&#45;&gt;ProvidedResourcesModule</title>
<path fill="none" stroke="black" d="M344,-122.11C344,-122.11 344,-140.99 344,-140.99"/>
<polygon fill="black" stroke="black" points="340.5,-140.99 344,-150.99 347.5,-140.99 340.5,-140.99"/>
</g>
</g>
</svg>
