<?xml version="1.0" encoding="UTF-8" standalone="no"?>
<!DOCTYPE svg PUBLIC "-//W3C//DTD SVG 1.1//EN"
 "http://www.w3.org/Graphics/SVG/1.1/DTD/svg11.dtd">
<!-- Generated by graphviz version 2.47.0 (20210316.0004)
 -->
<!-- Title: dependencies Pages: 1 -->
<svg width="540pt" height="284pt"
 viewBox="0.00 0.00 540.00 284.00" xmlns="http://www.w3.org/2000/svg" xmlns:xlink="http://www.w3.org/1999/xlink">
<g id="graph0" class="graph" transform="scale(1 1) rotate(0) translate(4 280)">
<title>dependencies</title>
<polygon fill="white" stroke="transparent" points="-4,4 -4,-280 536,-280 536,4 -4,4"/>
<text text-anchor="start" x="245.01" y="-42.4" font-family="Times-12" font-weight="bold" font-size="14.00">Legend</text>
<polygon fill="#ffffb3" stroke="transparent" points="32,-10 32,-30 52,-30 52,-10 32,-10"/>
<text text-anchor="start" x="55.63" y="-15.4" font-family="Times-12" font-size="14.00"> &#160;Declarations</text>
<polygon fill="#8dd3c7" stroke="transparent" points="145,-10 145,-30 165,-30 165,-10 145,-10"/>
<text text-anchor="start" x="168.73" y="-15.4" font-family="Times-12" font-size="14.00"> &#160;Module</text>
<polygon fill="#80b1d3" stroke="transparent" points="231,-10 231,-30 251,-30 251,-10 231,-10"/>
<text text-anchor="start" x="254.78" y="-15.4" font-family="Times-12" font-size="14.00"> &#160;Bootstrap</text>
<polygon fill="#fdb462" stroke="transparent" points="328,-10 328,-30 348,-30 348,-10 328,-10"/>
<text text-anchor="start" x="351.67" y="-15.4" font-family="Times-12" font-size="14.00"> &#160;Providers</text>
<polygon fill="#fb8072" stroke="transparent" points="424,-10 424,-30 444,-30 444,-10 424,-10"/>
<text text-anchor="start" x="447.73" y="-15.4" font-family="Times-12" font-size="14.00"> &#160;Exports</text>
<g id="clust1" class="cluster">
<title>cluster_ResourceIngressDomainModule</title>
<polygon fill="none" stroke="black" stroke-dasharray="1,5" points="8,-70 8,-268 524,-268 524,-70 8,-70"/>
</g>
<g id="clust2" class="cluster">
<title>cluster_ResourceIngressDomainModule_declarations</title>
<polygon fill="none" stroke="black" points="282,-78 282,-130 516,-130 516,-78 282,-78"/>
</g>
<g id="clust4" class="cluster">
<title>cluster_ResourceIngressDomainModule_imports</title>
<polygon fill="none" stroke="black" points="16,-78 16,-130 274,-130 274,-78 16,-78"/>
</g>
<g id="clust5" class="cluster">
<title>cluster_ResourceIngressDomainModule_exports</title>
<polygon fill="none" stroke="black" points="152,-208 152,-260 390,-260 390,-208 152,-208"/>
</g>
<!-- ResourceIngressDomainComponent -->
<g id="node1" class="node">
<title>ResourceIngressDomainComponent</title>
<polygon fill="#ffffb3" stroke="black" points="508.45,-122 289.55,-122 289.55,-86 508.45,-86 508.45,-122"/>
<text text-anchor="middle" x="399" y="-99.8" font-family="Times,serif" font-size="14.00">ResourceIngressDomainComponent</text>
</g>
<!-- ResourceIngressDomainModule -->
<g id="node2" class="node">
<title>ResourceIngressDomainModule</title>
<polygon fill="#8dd3c7" stroke="black" points="369.66,-187 366.66,-191 345.66,-191 342.66,-187 172.34,-187 172.34,-151 369.66,-151 369.66,-187"/>
<text text-anchor="middle" x="271" y="-164.8" font-family="Times,serif" font-size="14.00">ResourceIngressDomainModule</text>
</g>
<!-- ResourceIngressDomainComponent&#45;&gt;ResourceIngressDomainModule -->
<g id="edge1" class="edge">
<title>ResourceIngressDomainComponent&#45;&gt;ResourceIngressDomainModule</title>
<path fill="none" stroke="black" d="M329.55,-122.11C329.55,-122.11 329.55,-140.99 329.55,-140.99"/>
<polygon fill="black" stroke="black" points="326.05,-140.99 329.55,-150.99 333.05,-140.99 326.05,-140.99"/>
</g>
<!-- ResourceIngressDomainComponent  -->
<g id="node4" class="node">
<title>ResourceIngressDomainComponent </title>
<polygon fill="#fb8072" stroke="black" points="382.45,-252 159.55,-252 159.55,-216 382.45,-216 382.45,-252"/>
<text text-anchor="middle" x="271" y="-229.8" font-family="Times,serif" font-size="14.00">ResourceIngressDomainComponent </text>
</g>
<!-- ResourceIngressDomainModule&#45;&gt;ResourceIngressDomainComponent  -->
<g id="edge3" class="edge">
<title>ResourceIngressDomainModule&#45;&gt;ResourceIngressDomainComponent </title>
<path fill="none" stroke="black" stroke-dasharray="5,2" d="M271,-187.11C271,-187.11 271,-205.99 271,-205.99"/>
<polygon fill="black" stroke="black" points="267.5,-205.99 271,-215.99 274.5,-205.99 267.5,-205.99"/>
</g>
<!-- ResourceIngressDomainRoutingModule -->
<g id="node3" class="node">
<title>ResourceIngressDomainRoutingModule</title>
<polygon fill="#8dd3c7" stroke="black" points="266.28,-122 263.28,-126 242.28,-126 239.28,-122 23.72,-122 23.72,-86 266.28,-86 266.28,-122"/>
<text text-anchor="middle" x="145" y="-99.8" font-family="Times,serif" font-size="14.00">ResourceIngressDomainRoutingModule</text>
</g>
<!-- ResourceIngressDomainRoutingModule&#45;&gt;ResourceIngressDomainModule -->
<g id="edge2" class="edge">
<title>ResourceIngressDomainRoutingModule&#45;&gt;ResourceIngressDomainModule</title>
<path fill="none" stroke="black" d="M219.28,-122.11C219.28,-122.11 219.28,-140.99 219.28,-140.99"/>
<polygon fill="black" stroke="black" points="215.78,-140.99 219.28,-150.99 222.78,-140.99 215.78,-140.99"/>
</g>
</g>
</svg>
