<?xml version="1.0" encoding="UTF-8" standalone="no"?>
<!DOCTYPE svg PUBLIC "-//W3C//DTD SVG 1.1//EN"
 "http://www.w3.org/Graphics/SVG/1.1/DTD/svg11.dtd">
<!-- Generated by graphviz version 2.47.0 (20210316.0004)
 -->
<!-- Title: dependencies Pages: 1 -->
<svg width="504pt" height="211pt"
 viewBox="0.00 0.00 504.00 211.00" xmlns="http://www.w3.org/2000/svg" xmlns:xlink="http://www.w3.org/1999/xlink">
<g id="graph0" class="graph" transform="scale(1 1) rotate(0) translate(4 207)">
<title>dependencies</title>
<polygon fill="white" stroke="transparent" points="-4,4 -4,-207 500,-207 500,4 -4,4"/>
<text text-anchor="start" x="227.01" y="-42.4" font-family="Times-12" font-weight="bold" font-size="14.00">Legend</text>
<polygon fill="#ffffb3" stroke="transparent" points="14,-10 14,-30 34,-30 34,-10 14,-10"/>
<text text-anchor="start" x="37.63" y="-15.4" font-family="Times-12" font-size="14.00"> &#160;Declarations</text>
<polygon fill="#8dd3c7" stroke="transparent" points="127,-10 127,-30 147,-30 147,-10 127,-10"/>
<text text-anchor="start" x="150.73" y="-15.4" font-family="Times-12" font-size="14.00"> &#160;Module</text>
<polygon fill="#80b1d3" stroke="transparent" points="213,-10 213,-30 233,-30 233,-10 213,-10"/>
<text text-anchor="start" x="236.78" y="-15.4" font-family="Times-12" font-size="14.00"> &#160;Bootstrap</text>
<polygon fill="#fdb462" stroke="transparent" points="310,-10 310,-30 330,-30 330,-10 310,-10"/>
<text text-anchor="start" x="333.67" y="-15.4" font-family="Times-12" font-size="14.00"> &#160;Providers</text>
<polygon fill="#fb8072" stroke="transparent" points="406,-10 406,-30 426,-30 426,-10 406,-10"/>
<text text-anchor="start" x="429.73" y="-15.4" font-family="Times-12" font-size="14.00"> &#160;Exports</text>
<g id="clust1" class="cluster">
<title>cluster_ToolsExternalModule</title>
<polygon fill="none" stroke="black" stroke-dasharray="1,5" points="48,-70 48,-195 448,-195 448,-70 48,-70"/>
</g>
<g id="clust2" class="cluster">
<title>cluster_ToolsExternalModule_declarations</title>
<polygon fill="none" stroke="black" points="264,-78 264,-130 440,-130 440,-78 264,-78"/>
</g>
<g id="clust4" class="cluster">
<title>cluster_ToolsExternalModule_imports</title>
<polygon fill="none" stroke="black" points="56,-78 56,-130 256,-130 256,-78 56,-78"/>
</g>
<!-- ToolsExternalComponent -->
<g id="node1" class="node">
<title>ToolsExternalComponent</title>
<polygon fill="#ffffb3" stroke="black" points="432.14,-122 271.86,-122 271.86,-86 432.14,-86 432.14,-122"/>
<text text-anchor="middle" x="352" y="-99.8" font-family="Times,serif" font-size="14.00">ToolsExternalComponent</text>
</g>
<!-- ToolsExternalModule -->
<g id="node2" class="node">
<title>ToolsExternalModule</title>
<polygon fill="#8dd3c7" stroke="black" points="323.36,-187 320.36,-191 299.36,-191 296.36,-187 184.64,-187 184.64,-151 323.36,-151 323.36,-187"/>
<text text-anchor="middle" x="254" y="-164.8" font-family="Times,serif" font-size="14.00">ToolsExternalModule</text>
</g>
<!-- ToolsExternalComponent&#45;&gt;ToolsExternalModule -->
<g id="edge1" class="edge">
<title>ToolsExternalComponent&#45;&gt;ToolsExternalModule</title>
<path fill="none" stroke="black" d="M297.55,-122.11C297.55,-122.11 297.55,-140.99 297.55,-140.99"/>
<polygon fill="black" stroke="black" points="294.05,-140.99 297.55,-150.99 301.05,-140.99 294.05,-140.99"/>
</g>
<!-- ToolsExternalRoutingModule -->
<g id="node3" class="node">
<title>ToolsExternalRoutingModule</title>
<polygon fill="#8dd3c7" stroke="black" points="247.98,-122 244.98,-126 223.98,-126 220.98,-122 64.02,-122 64.02,-86 247.98,-86 247.98,-122"/>
<text text-anchor="middle" x="156" y="-99.8" font-family="Times,serif" font-size="14.00">ToolsExternalRoutingModule</text>
</g>
<!-- ToolsExternalRoutingModule&#45;&gt;ToolsExternalModule -->
<g id="edge2" class="edge">
<title>ToolsExternalRoutingModule&#45;&gt;ToolsExternalModule</title>
<path fill="none" stroke="black" d="M216.28,-122.11C216.28,-122.11 216.28,-140.99 216.28,-140.99"/>
<polygon fill="black" stroke="black" points="212.78,-140.99 216.28,-150.99 219.78,-140.99 212.78,-140.99"/>
</g>
</g>
</svg>
