<?xml version="1.0" encoding="UTF-8" standalone="no"?>
<!DOCTYPE svg PUBLIC "-//W3C//DTD SVG 1.1//EN"
 "http://www.w3.org/Graphics/SVG/1.1/DTD/svg11.dtd">
<!-- Generated by graphviz version 2.47.0 (20210316.0004)
 -->
<!-- Title: dependencies Pages: 1 -->
<svg width="602pt" height="211pt"
 viewBox="0.00 0.00 602.00 211.00" xmlns="http://www.w3.org/2000/svg" xmlns:xlink="http://www.w3.org/1999/xlink">
<g id="graph0" class="graph" transform="scale(1 1) rotate(0) translate(4 207)">
<title>dependencies</title>
<polygon fill="white" stroke="transparent" points="-4,4 -4,-207 598,-207 598,4 -4,4"/>
<text text-anchor="start" x="276.01" y="-42.4" font-family="Times-12" font-weight="bold" font-size="14.00">Legend</text>
<polygon fill="#ffffb3" stroke="transparent" points="63,-10 63,-30 83,-30 83,-10 63,-10"/>
<text text-anchor="start" x="86.63" y="-15.4" font-family="Times-12" font-size="14.00"> &#160;Declarations</text>
<polygon fill="#8dd3c7" stroke="transparent" points="176,-10 176,-30 196,-30 196,-10 176,-10"/>
<text text-anchor="start" x="199.73" y="-15.4" font-family="Times-12" font-size="14.00"> &#160;Module</text>
<polygon fill="#80b1d3" stroke="transparent" points="262,-10 262,-30 282,-30 282,-10 262,-10"/>
<text text-anchor="start" x="285.78" y="-15.4" font-family="Times-12" font-size="14.00"> &#160;Bootstrap</text>
<polygon fill="#fdb462" stroke="transparent" points="359,-10 359,-30 379,-30 379,-10 359,-10"/>
<text text-anchor="start" x="382.67" y="-15.4" font-family="Times-12" font-size="14.00"> &#160;Providers</text>
<polygon fill="#fb8072" stroke="transparent" points="455,-10 455,-30 475,-30 475,-10 455,-10"/>
<text text-anchor="start" x="478.73" y="-15.4" font-family="Times-12" font-size="14.00"> &#160;Exports</text>
<g id="clust1" class="cluster">
<title>cluster_CreateEditChannelModule</title>
<polygon fill="none" stroke="black" stroke-dasharray="1,5" points="8,-70 8,-195 586,-195 586,-70 8,-70"/>
</g>
<g id="clust2" class="cluster">
<title>cluster_CreateEditChannelModule_declarations</title>
<polygon fill="none" stroke="black" points="374,-78 374,-130 578,-130 578,-78 374,-78"/>
</g>
<g id="clust4" class="cluster">
<title>cluster_CreateEditChannelModule_imports</title>
<polygon fill="none" stroke="black" points="16,-78 16,-130 366,-130 366,-78 16,-78"/>
</g>
<!-- CreateEditChannelComponent -->
<g id="node1" class="node">
<title>CreateEditChannelComponent</title>
<polygon fill="#ffffb3" stroke="black" points="569.85,-122 382.15,-122 382.15,-86 569.85,-86 569.85,-122"/>
<text text-anchor="middle" x="476" y="-99.8" font-family="Times,serif" font-size="14.00">CreateEditChannelComponent</text>
</g>
<!-- CreateEditChannelModule -->
<g id="node2" class="node">
<title>CreateEditChannelModule</title>
<polygon fill="#8dd3c7" stroke="black" points="335.07,-187 332.07,-191 311.07,-191 308.07,-187 168.93,-187 168.93,-151 335.07,-151 335.07,-187"/>
<text text-anchor="middle" x="252" y="-164.8" font-family="Times,serif" font-size="14.00">CreateEditChannelModule</text>
</g>
<!-- CreateEditChannelComponent&#45;&gt;CreateEditChannelModule -->
<g id="edge1" class="edge">
<title>CreateEditChannelComponent&#45;&gt;CreateEditChannelModule</title>
<path fill="none" stroke="black" d="M476,-122.11C476,-141.34 476,-169 476,-169 476,-169 345.09,-169 345.09,-169"/>
<polygon fill="black" stroke="black" points="345.09,-165.5 335.09,-169 345.09,-172.5 345.09,-165.5"/>
</g>
<!-- CreateEditChannelRoutingModule -->
<g id="node3" class="node">
<title>CreateEditChannelRoutingModule</title>
<polygon fill="#8dd3c7" stroke="black" points="357.69,-122 354.69,-126 333.69,-126 330.69,-122 146.31,-122 146.31,-86 357.69,-86 357.69,-122"/>
<text text-anchor="middle" x="252" y="-99.8" font-family="Times,serif" font-size="14.00">CreateEditChannelRoutingModule</text>
</g>
<!-- CreateEditChannelRoutingModule&#45;&gt;CreateEditChannelModule -->
<g id="edge2" class="edge">
<title>CreateEditChannelRoutingModule&#45;&gt;CreateEditChannelModule</title>
<path fill="none" stroke="black" d="M252,-122.11C252,-122.11 252,-140.99 252,-140.99"/>
<polygon fill="black" stroke="black" points="248.5,-140.99 252,-150.99 255.5,-140.99 248.5,-140.99"/>
</g>
<!-- LayoutsModule -->
<g id="node4" class="node">
<title>LayoutsModule</title>
<polygon fill="#8dd3c7" stroke="black" points="128.15,-122 125.15,-126 104.15,-126 101.15,-122 23.85,-122 23.85,-86 128.15,-86 128.15,-122"/>
<text text-anchor="middle" x="76" y="-99.8" font-family="Times,serif" font-size="14.00">LayoutsModule</text>
</g>
<!-- LayoutsModule&#45;&gt;CreateEditChannelModule -->
<g id="edge3" class="edge">
<title>LayoutsModule&#45;&gt;CreateEditChannelModule</title>
<path fill="none" stroke="black" d="M76,-122.11C76,-141.34 76,-169 76,-169 76,-169 158.9,-169 158.9,-169"/>
<polygon fill="black" stroke="black" points="158.9,-172.5 168.9,-169 158.9,-165.5 158.9,-172.5"/>
</g>
</g>
</svg>
