<?xml version="1.0" encoding="UTF-8" standalone="no"?>
<!DOCTYPE svg PUBLIC "-//W3C//DTD SVG 1.1//EN"
 "http://www.w3.org/Graphics/SVG/1.1/DTD/svg11.dtd">
<!-- Generated by graphviz version 2.47.0 (20210316.0004)
 -->
<!-- Title: dependencies Pages: 1 -->
<svg width="1463pt" height="211pt"
 viewBox="0.00 0.00 1463.00 211.00" xmlns="http://www.w3.org/2000/svg" xmlns:xlink="http://www.w3.org/1999/xlink">
<g id="graph0" class="graph" transform="scale(1 1) rotate(0) translate(4 207)">
<title>dependencies</title>
<polygon fill="white" stroke="transparent" points="-4,4 -4,-207 1459,-207 1459,4 -4,4"/>
<text text-anchor="start" x="706.51" y="-42.4" font-family="Times-12" font-weight="bold" font-size="14.00">Legend</text>
<polygon fill="#ffffb3" stroke="transparent" points="493.5,-10 493.5,-30 513.5,-30 513.5,-10 493.5,-10"/>
<text text-anchor="start" x="517.13" y="-15.4" font-family="Times-12" font-size="14.00"> &#160;Declarations</text>
<polygon fill="#8dd3c7" stroke="transparent" points="606.5,-10 606.5,-30 626.5,-30 626.5,-10 606.5,-10"/>
<text text-anchor="start" x="630.23" y="-15.4" font-family="Times-12" font-size="14.00"> &#160;Module</text>
<polygon fill="#80b1d3" stroke="transparent" points="692.5,-10 692.5,-30 712.5,-30 712.5,-10 692.5,-10"/>
<text text-anchor="start" x="716.28" y="-15.4" font-family="Times-12" font-size="14.00"> &#160;Bootstrap</text>
<polygon fill="#fdb462" stroke="transparent" points="789.5,-10 789.5,-30 809.5,-30 809.5,-10 789.5,-10"/>
<text text-anchor="start" x="813.17" y="-15.4" font-family="Times-12" font-size="14.00"> &#160;Providers</text>
<polygon fill="#fb8072" stroke="transparent" points="885.5,-10 885.5,-30 905.5,-30 905.5,-10 885.5,-10"/>
<text text-anchor="start" x="909.23" y="-15.4" font-family="Times-12" font-size="14.00"> &#160;Exports</text>
<g id="clust1" class="cluster">
<title>cluster_KubernetesModule</title>
<polygon fill="none" stroke="black" stroke-dasharray="1,5" points="8,-70 8,-195 1447,-195 1447,-70 8,-70"/>
</g>
<g id="clust2" class="cluster">
<title>cluster_KubernetesModule_declarations</title>
<polygon fill="none" stroke="black" points="605,-78 605,-130 1439,-130 1439,-78 605,-78"/>
</g>
<g id="clust8" class="cluster">
<title>cluster_KubernetesModule_imports</title>
<polygon fill="none" stroke="black" points="16,-78 16,-130 597,-130 597,-78 16,-78"/>
</g>
<!-- AppPodsComponent -->
<g id="node1" class="node">
<title>AppPodsComponent</title>
<polygon fill="#ffffb3" stroke="black" points="1431.17,-122 1298.83,-122 1298.83,-86 1431.17,-86 1431.17,-122"/>
<text text-anchor="middle" x="1365" y="-99.8" font-family="Times,serif" font-size="14.00">AppPodsComponent</text>
</g>
<!-- KubernetesModule -->
<g id="node6" class="node">
<title>KubernetesModule</title>
<polygon fill="#8dd3c7" stroke="black" points="747.8,-187 744.8,-191 723.8,-191 720.8,-187 624.2,-187 624.2,-151 747.8,-151 747.8,-187"/>
<text text-anchor="middle" x="686" y="-164.8" font-family="Times,serif" font-size="14.00">KubernetesModule</text>
</g>
<!-- AppPodsComponent&#45;&gt;KubernetesModule -->
<g id="edge1" class="edge">
<title>AppPodsComponent&#45;&gt;KubernetesModule</title>
<path fill="none" stroke="black" d="M1365,-122.01C1365,-144.49 1365,-180 1365,-180 1365,-180 757.76,-180 757.76,-180"/>
<polygon fill="black" stroke="black" points="757.76,-176.5 747.76,-180 757.76,-183.5 757.76,-176.5"/>
</g>
<!-- DisplayFieldComponent -->
<g id="node2" class="node">
<title>DisplayFieldComponent</title>
<polygon fill="#ffffb3" stroke="black" points="1280.66,-122 1127.34,-122 1127.34,-86 1280.66,-86 1280.66,-122"/>
<text text-anchor="middle" x="1204" y="-99.8" font-family="Times,serif" font-size="14.00">DisplayFieldComponent</text>
</g>
<!-- DisplayFieldComponent&#45;&gt;KubernetesModule -->
<g id="edge2" class="edge">
<title>DisplayFieldComponent&#45;&gt;KubernetesModule</title>
<path fill="none" stroke="black" d="M1204,-122.13C1204,-142.57 1204,-173 1204,-173 1204,-173 757.71,-173 757.71,-173"/>
<polygon fill="black" stroke="black" points="757.71,-169.5 747.71,-173 757.71,-176.5 757.71,-169.5"/>
</g>
<!-- IngressDetailsComponent -->
<g id="node3" class="node">
<title>IngressDetailsComponent</title>
<polygon fill="#ffffb3" stroke="black" points="1108.91,-122 947.09,-122 947.09,-86 1108.91,-86 1108.91,-122"/>
<text text-anchor="middle" x="1028" y="-99.8" font-family="Times,serif" font-size="14.00">IngressDetailsComponent</text>
</g>
<!-- IngressDetailsComponent&#45;&gt;KubernetesModule -->
<g id="edge3" class="edge">
<title>IngressDetailsComponent&#45;&gt;KubernetesModule</title>
<path fill="none" stroke="black" d="M1028,-122.27C1028,-140.56 1028,-166 1028,-166 1028,-166 757.93,-166 757.93,-166"/>
<polygon fill="black" stroke="black" points="757.93,-162.5 747.93,-166 757.93,-169.5 757.93,-162.5"/>
</g>
<!-- K8sExplorerComponent -->
<g id="node4" class="node">
<title>K8sExplorerComponent</title>
<polygon fill="#ffffb3" stroke="black" points="929.36,-122 776.64,-122 776.64,-86 929.36,-86 929.36,-122"/>
<text text-anchor="middle" x="853" y="-99.8" font-family="Times,serif" font-size="14.00">K8sExplorerComponent</text>
</g>
<!-- K8sExplorerComponent&#45;&gt;KubernetesModule -->
<g id="edge4" class="edge">
<title>K8sExplorerComponent&#45;&gt;KubernetesModule</title>
<path fill="none" stroke="black" d="M853,-122.01C853,-138.05 853,-159 853,-159 853,-159 757.71,-159 757.71,-159"/>
<polygon fill="black" stroke="black" points="757.71,-155.5 747.71,-159 757.71,-162.5 757.71,-155.5"/>
</g>
<!-- KubernetesComponent -->
<g id="node5" class="node">
<title>KubernetesComponent</title>
<polygon fill="#ffffb3" stroke="black" points="758.58,-122 613.42,-122 613.42,-86 758.58,-86 758.58,-122"/>
<text text-anchor="middle" x="686" y="-99.8" font-family="Times,serif" font-size="14.00">KubernetesComponent</text>
</g>
<!-- KubernetesComponent&#45;&gt;KubernetesModule -->
<g id="edge5" class="edge">
<title>KubernetesComponent&#45;&gt;KubernetesModule</title>
<path fill="none" stroke="black" d="M686,-122.11C686,-122.11 686,-140.99 686,-140.99"/>
<polygon fill="black" stroke="black" points="682.5,-140.99 686,-150.99 689.5,-140.99 682.5,-140.99"/>
</g>
<!-- ConfigFieldModule -->
<g id="node7" class="node">
<title>ConfigFieldModule</title>
<polygon fill="#8dd3c7" stroke="black" points="588.72,-122 585.72,-126 564.72,-126 561.72,-122 461.28,-122 461.28,-86 588.72,-86 588.72,-122"/>
<text text-anchor="middle" x="525" y="-99.8" font-family="Times,serif" font-size="14.00">ConfigFieldModule</text>
</g>
<!-- ConfigFieldModule&#45;&gt;KubernetesModule -->
<g id="edge6" class="edge">
<title>ConfigFieldModule&#45;&gt;KubernetesModule</title>
<path fill="none" stroke="black" d="M525,-122.01C525,-138.05 525,-159 525,-159 525,-159 614.21,-159 614.21,-159"/>
<polygon fill="black" stroke="black" points="614.21,-162.5 624.21,-159 614.21,-155.5 614.21,-162.5"/>
</g>
<!-- KubernetesRoutingModule -->
<g id="node8" class="node">
<title>KubernetesRoutingModule</title>
<polygon fill="#8dd3c7" stroke="black" points="443.41,-122 440.41,-126 419.41,-126 416.41,-122 274.59,-122 274.59,-86 443.41,-86 443.41,-122"/>
<text text-anchor="middle" x="359" y="-99.8" font-family="Times,serif" font-size="14.00">KubernetesRoutingModule</text>
</g>
<!-- KubernetesRoutingModule&#45;&gt;KubernetesModule -->
<g id="edge7" class="edge">
<title>KubernetesRoutingModule&#45;&gt;KubernetesModule</title>
<path fill="none" stroke="black" d="M359,-122.27C359,-140.56 359,-166 359,-166 359,-166 614.11,-166 614.11,-166"/>
<polygon fill="black" stroke="black" points="614.11,-169.5 624.11,-166 614.11,-162.5 614.11,-169.5"/>
</g>
<!-- LayoutsModule -->
<g id="node9" class="node">
<title>LayoutsModule</title>
<polygon fill="#8dd3c7" stroke="black" points="256.15,-122 253.15,-126 232.15,-126 229.15,-122 151.85,-122 151.85,-86 256.15,-86 256.15,-122"/>
<text text-anchor="middle" x="204" y="-99.8" font-family="Times,serif" font-size="14.00">LayoutsModule</text>
</g>
<!-- LayoutsModule&#45;&gt;KubernetesModule -->
<g id="edge8" class="edge">
<title>LayoutsModule&#45;&gt;KubernetesModule</title>
<path fill="none" stroke="black" d="M204,-122.13C204,-142.57 204,-173 204,-173 204,-173 613.97,-173 613.97,-173"/>
<polygon fill="black" stroke="black" points="613.97,-176.5 623.97,-173 613.97,-169.5 613.97,-176.5"/>
</g>
<!-- TailLogsModule -->
<g id="node10" class="node">
<title>TailLogsModule</title>
<polygon fill="#8dd3c7" stroke="black" points="134.1,-122 131.1,-126 110.1,-126 107.1,-122 23.9,-122 23.9,-86 134.1,-86 134.1,-122"/>
<text text-anchor="middle" x="79" y="-99.8" font-family="Times,serif" font-size="14.00">TailLogsModule</text>
</g>
<!-- TailLogsModule&#45;&gt;KubernetesModule -->
<g id="edge9" class="edge">
<title>TailLogsModule&#45;&gt;KubernetesModule</title>
<path fill="none" stroke="black" d="M79,-122.01C79,-144.49 79,-180 79,-180 79,-180 614.18,-180 614.18,-180"/>
<polygon fill="black" stroke="black" points="614.18,-183.5 624.18,-180 614.18,-176.5 614.18,-183.5"/>
</g>
</g>
</svg>
