<?xml version="1.0" encoding="UTF-8" standalone="no"?>
<!DOCTYPE svg PUBLIC "-//W3C//DTD SVG 1.1//EN"
 "http://www.w3.org/Graphics/SVG/1.1/DTD/svg11.dtd">
<!-- Generated by graphviz version 2.47.0 (20210316.0004)
 -->
<!-- Title: dependencies Pages: 1 -->
<svg width="662pt" height="211pt"
 viewBox="0.00 0.00 662.00 211.00" xmlns="http://www.w3.org/2000/svg" xmlns:xlink="http://www.w3.org/1999/xlink">
<g id="graph0" class="graph" transform="scale(1 1) rotate(0) translate(4 207)">
<title>dependencies</title>
<polygon fill="white" stroke="transparent" points="-4,4 -4,-207 658,-207 658,4 -4,4"/>
<text text-anchor="start" x="306.01" y="-42.4" font-family="Times-12" font-weight="bold" font-size="14.00">Legend</text>
<polygon fill="#ffffb3" stroke="transparent" points="93,-10 93,-30 113,-30 113,-10 93,-10"/>
<text text-anchor="start" x="116.63" y="-15.4" font-family="Times-12" font-size="14.00"> &#160;Declarations</text>
<polygon fill="#8dd3c7" stroke="transparent" points="206,-10 206,-30 226,-30 226,-10 206,-10"/>
<text text-anchor="start" x="229.73" y="-15.4" font-family="Times-12" font-size="14.00"> &#160;Module</text>
<polygon fill="#80b1d3" stroke="transparent" points="292,-10 292,-30 312,-30 312,-10 292,-10"/>
<text text-anchor="start" x="315.78" y="-15.4" font-family="Times-12" font-size="14.00"> &#160;Bootstrap</text>
<polygon fill="#fdb462" stroke="transparent" points="389,-10 389,-30 409,-30 409,-10 389,-10"/>
<text text-anchor="start" x="412.67" y="-15.4" font-family="Times-12" font-size="14.00"> &#160;Providers</text>
<polygon fill="#fb8072" stroke="transparent" points="485,-10 485,-30 505,-30 505,-10 485,-10"/>
<text text-anchor="start" x="508.73" y="-15.4" font-family="Times-12" font-size="14.00"> &#160;Exports</text>
<g id="clust1" class="cluster">
<title>cluster_ResourceArtifactHistoryModule</title>
<polygon fill="none" stroke="black" stroke-dasharray="1,5" points="8,-70 8,-195 646,-195 646,-70 8,-70"/>
</g>
<g id="clust2" class="cluster">
<title>cluster_ResourceArtifactHistoryModule_declarations</title>
<polygon fill="none" stroke="black" points="404,-78 404,-130 638,-130 638,-78 404,-78"/>
</g>
<g id="clust4" class="cluster">
<title>cluster_ResourceArtifactHistoryModule_imports</title>
<polygon fill="none" stroke="black" points="16,-78 16,-130 396,-130 396,-78 16,-78"/>
</g>
<!-- ResourceArtifactHistoryComponent -->
<g id="node1" class="node">
<title>ResourceArtifactHistoryComponent</title>
<polygon fill="#ffffb3" stroke="black" points="630.44,-122 411.56,-122 411.56,-86 630.44,-86 630.44,-122"/>
<text text-anchor="middle" x="521" y="-99.8" font-family="Times,serif" font-size="14.00">ResourceArtifactHistoryComponent</text>
</g>
<!-- ResourceArtifactHistoryModule -->
<g id="node2" class="node">
<title>ResourceArtifactHistoryModule</title>
<polygon fill="#8dd3c7" stroke="black" points="434.66,-187 431.66,-191 410.66,-191 407.66,-187 237.34,-187 237.34,-151 434.66,-151 434.66,-187"/>
<text text-anchor="middle" x="336" y="-164.8" font-family="Times,serif" font-size="14.00">ResourceArtifactHistoryModule</text>
</g>
<!-- ResourceArtifactHistoryComponent&#45;&gt;ResourceArtifactHistoryModule -->
<g id="edge1" class="edge">
<title>ResourceArtifactHistoryComponent&#45;&gt;ResourceArtifactHistoryModule</title>
<path fill="none" stroke="black" d="M423.05,-122.11C423.05,-122.11 423.05,-140.99 423.05,-140.99"/>
<polygon fill="black" stroke="black" points="419.55,-140.99 423.05,-150.99 426.55,-140.99 419.55,-140.99"/>
</g>
<!-- LayoutsModule -->
<g id="node3" class="node">
<title>LayoutsModule</title>
<polygon fill="#8dd3c7" stroke="black" points="388.15,-122 385.15,-126 364.15,-126 361.15,-122 283.85,-122 283.85,-86 388.15,-86 388.15,-122"/>
<text text-anchor="middle" x="336" y="-99.8" font-family="Times,serif" font-size="14.00">LayoutsModule</text>
</g>
<!-- LayoutsModule&#45;&gt;ResourceArtifactHistoryModule -->
<g id="edge2" class="edge">
<title>LayoutsModule&#45;&gt;ResourceArtifactHistoryModule</title>
<path fill="none" stroke="black" d="M336,-122.11C336,-122.11 336,-140.99 336,-140.99"/>
<polygon fill="black" stroke="black" points="332.5,-140.99 336,-150.99 339.5,-140.99 332.5,-140.99"/>
</g>
<!-- ResourceArtifactHistoryRoutingModule -->
<g id="node4" class="node">
<title>ResourceArtifactHistoryRoutingModule</title>
<polygon fill="#8dd3c7" stroke="black" points="266.28,-122 263.28,-126 242.28,-126 239.28,-122 23.72,-122 23.72,-86 266.28,-86 266.28,-122"/>
<text text-anchor="middle" x="145" y="-99.8" font-family="Times,serif" font-size="14.00">ResourceArtifactHistoryRoutingModule</text>
</g>
<!-- ResourceArtifactHistoryRoutingModule&#45;&gt;ResourceArtifactHistoryModule -->
<g id="edge3" class="edge">
<title>ResourceArtifactHistoryRoutingModule&#45;&gt;ResourceArtifactHistoryModule</title>
<path fill="none" stroke="black" d="M251.78,-122.11C251.78,-122.11 251.78,-140.99 251.78,-140.99"/>
<polygon fill="black" stroke="black" points="248.28,-140.99 251.78,-150.99 255.28,-140.99 248.28,-140.99"/>
</g>
</g>
</svg>
