<?xml version="1.0" encoding="UTF-8" standalone="no"?>
<!DOCTYPE svg PUBLIC "-//W3C//DTD SVG 1.1//EN"
 "http://www.w3.org/Graphics/SVG/1.1/DTD/svg11.dtd">
<!-- Generated by graphviz version 2.47.0 (20210316.0004)
 -->
<!-- Title: dependencies Pages: 1 -->
<svg width="658pt" height="211pt"
 viewBox="0.00 0.00 658.00 211.00" xmlns="http://www.w3.org/2000/svg" xmlns:xlink="http://www.w3.org/1999/xlink">
<g id="graph0" class="graph" transform="scale(1 1) rotate(0) translate(4 207)">
<title>dependencies</title>
<polygon fill="white" stroke="transparent" points="-4,4 -4,-207 654,-207 654,4 -4,4"/>
<text text-anchor="start" x="304.01" y="-42.4" font-family="Times-12" font-weight="bold" font-size="14.00">Legend</text>
<polygon fill="#ffffb3" stroke="transparent" points="91,-10 91,-30 111,-30 111,-10 91,-10"/>
<text text-anchor="start" x="114.63" y="-15.4" font-family="Times-12" font-size="14.00"> &#160;Declarations</text>
<polygon fill="#8dd3c7" stroke="transparent" points="204,-10 204,-30 224,-30 224,-10 204,-10"/>
<text text-anchor="start" x="227.73" y="-15.4" font-family="Times-12" font-size="14.00"> &#160;Module</text>
<polygon fill="#80b1d3" stroke="transparent" points="290,-10 290,-30 310,-30 310,-10 290,-10"/>
<text text-anchor="start" x="313.78" y="-15.4" font-family="Times-12" font-size="14.00"> &#160;Bootstrap</text>
<polygon fill="#fdb462" stroke="transparent" points="387,-10 387,-30 407,-30 407,-10 387,-10"/>
<text text-anchor="start" x="410.67" y="-15.4" font-family="Times-12" font-size="14.00"> &#160;Providers</text>
<polygon fill="#fb8072" stroke="transparent" points="483,-10 483,-30 503,-30 503,-10 483,-10"/>
<text text-anchor="start" x="506.73" y="-15.4" font-family="Times-12" font-size="14.00"> &#160;Exports</text>
<g id="clust1" class="cluster">
<title>cluster_DeliveryPipelineV2Module</title>
<polygon fill="none" stroke="black" stroke-dasharray="1,5" points="8,-70 8,-195 642,-195 642,-70 8,-70"/>
</g>
<g id="clust2" class="cluster">
<title>cluster_DeliveryPipelineV2Module_declarations</title>
<polygon fill="none" stroke="black" points="182,-78 182,-130 634,-130 634,-78 182,-78"/>
</g>
<g id="clust5" class="cluster">
<title>cluster_DeliveryPipelineV2Module_imports</title>
<polygon fill="none" stroke="black" points="16,-78 16,-130 174,-130 174,-78 16,-78"/>
</g>
<!-- DeliveryPipelineV2Component -->
<g id="node1" class="node">
<title>DeliveryPipelineV2Component</title>
<polygon fill="#ffffb3" stroke="black" points="625.8,-122 432.2,-122 432.2,-86 625.8,-86 625.8,-122"/>
<text text-anchor="middle" x="529" y="-99.8" font-family="Times,serif" font-size="14.00">DeliveryPipelineV2Component</text>
</g>
<!-- DeliveryPipelineV2Module -->
<g id="node3" class="node">
<title>DeliveryPipelineV2Module</title>
<polygon fill="#8dd3c7" stroke="black" points="387.52,-187 384.52,-191 363.52,-191 360.52,-187 216.48,-187 216.48,-151 387.52,-151 387.52,-187"/>
<text text-anchor="middle" x="302" y="-164.8" font-family="Times,serif" font-size="14.00">DeliveryPipelineV2Module</text>
</g>
<!-- DeliveryPipelineV2Component&#45;&gt;DeliveryPipelineV2Module -->
<g id="edge1" class="edge">
<title>DeliveryPipelineV2Component&#45;&gt;DeliveryPipelineV2Module</title>
<path fill="none" stroke="black" d="M529,-122.11C529,-141.34 529,-169 529,-169 529,-169 397.82,-169 397.82,-169"/>
<polygon fill="black" stroke="black" points="397.82,-165.5 387.82,-169 397.82,-172.5 397.82,-165.5"/>
</g>
<!-- DlvPplEnvironmentNodeComponent -->
<g id="node2" class="node">
<title>DlvPplEnvironmentNodeComponent</title>
<polygon fill="#ffffb3" stroke="black" points="414.42,-122 189.58,-122 189.58,-86 414.42,-86 414.42,-122"/>
<text text-anchor="middle" x="302" y="-99.8" font-family="Times,serif" font-size="14.00">DlvPplEnvironmentNodeComponent</text>
</g>
<!-- DlvPplEnvironmentNodeComponent&#45;&gt;DeliveryPipelineV2Module -->
<g id="edge2" class="edge">
<title>DlvPplEnvironmentNodeComponent&#45;&gt;DeliveryPipelineV2Module</title>
<path fill="none" stroke="black" d="M302,-122.11C302,-122.11 302,-140.99 302,-140.99"/>
<polygon fill="black" stroke="black" points="298.5,-140.99 302,-150.99 305.5,-140.99 298.5,-140.99"/>
</g>
<!-- SmoothHeightModule -->
<g id="node4" class="node">
<title>SmoothHeightModule</title>
<polygon fill="#8dd3c7" stroke="black" points="165.72,-122 162.72,-126 141.72,-126 138.72,-122 24.28,-122 24.28,-86 165.72,-86 165.72,-122"/>
<text text-anchor="middle" x="95" y="-99.8" font-family="Times,serif" font-size="14.00">SmoothHeightModule</text>
</g>
<!-- SmoothHeightModule&#45;&gt;DeliveryPipelineV2Module -->
<g id="edge3" class="edge">
<title>SmoothHeightModule&#45;&gt;DeliveryPipelineV2Module</title>
<path fill="none" stroke="black" d="M95,-122.11C95,-141.34 95,-169 95,-169 95,-169 206.31,-169 206.31,-169"/>
<polygon fill="black" stroke="black" points="206.31,-172.5 216.31,-169 206.31,-165.5 206.31,-172.5"/>
</g>
</g>
</svg>
