<?xml version="1.0" encoding="UTF-8" standalone="no"?>
<!DOCTYPE svg PUBLIC "-//W3C//DTD SVG 1.1//EN"
 "http://www.w3.org/Graphics/SVG/1.1/DTD/svg11.dtd">
<!-- Generated by graphviz version 2.47.0 (20210316.0004)
 -->
<!-- Title: dependencies Pages: 1 -->
<svg width="1956pt" height="211pt"
 viewBox="0.00 0.00 1956.00 211.00" xmlns="http://www.w3.org/2000/svg" xmlns:xlink="http://www.w3.org/1999/xlink">
<g id="graph0" class="graph" transform="scale(1 1) rotate(0) translate(4 207)">
<title>dependencies</title>
<polygon fill="white" stroke="transparent" points="-4,4 -4,-207 1952,-207 1952,4 -4,4"/>
<text text-anchor="start" x="953.01" y="-42.4" font-family="Times-12" font-weight="bold" font-size="14.00">Legend</text>
<polygon fill="#ffffb3" stroke="transparent" points="740,-10 740,-30 760,-30 760,-10 740,-10"/>
<text text-anchor="start" x="763.63" y="-15.4" font-family="Times-12" font-size="14.00"> &#160;Declarations</text>
<polygon fill="#8dd3c7" stroke="transparent" points="853,-10 853,-30 873,-30 873,-10 853,-10"/>
<text text-anchor="start" x="876.73" y="-15.4" font-family="Times-12" font-size="14.00"> &#160;Module</text>
<polygon fill="#80b1d3" stroke="transparent" points="939,-10 939,-30 959,-30 959,-10 939,-10"/>
<text text-anchor="start" x="962.78" y="-15.4" font-family="Times-12" font-size="14.00"> &#160;Bootstrap</text>
<polygon fill="#fdb462" stroke="transparent" points="1036,-10 1036,-30 1056,-30 1056,-10 1036,-10"/>
<text text-anchor="start" x="1059.67" y="-15.4" font-family="Times-12" font-size="14.00"> &#160;Providers</text>
<polygon fill="#fb8072" stroke="transparent" points="1132,-10 1132,-30 1152,-30 1152,-10 1132,-10"/>
<text text-anchor="start" x="1155.73" y="-15.4" font-family="Times-12" font-size="14.00"> &#160;Exports</text>
<g id="clust1" class="cluster">
<title>cluster_ResourceLiveReleaseModule</title>
<polygon fill="none" stroke="black" stroke-dasharray="1,5" points="8,-70 8,-195 1940,-195 1940,-70 8,-70"/>
</g>
<g id="clust2" class="cluster">
<title>cluster_ResourceLiveReleaseModule_declarations</title>
<polygon fill="none" stroke="black" points="662,-78 662,-130 1932,-130 1932,-78 662,-78"/>
</g>
<g id="clust9" class="cluster">
<title>cluster_ResourceLiveReleaseModule_imports</title>
<polygon fill="none" stroke="black" points="16,-78 16,-130 654,-130 654,-78 16,-78"/>
</g>
<!-- AppNativeChartsComponent -->
<g id="node1" class="node">
<title>AppNativeChartsComponent</title>
<polygon fill="#ffffb3" stroke="black" points="1923.8,-122 1744.2,-122 1744.2,-86 1923.8,-86 1923.8,-122"/>
<text text-anchor="middle" x="1834" y="-99.8" font-family="Times,serif" font-size="14.00">AppNativeChartsComponent</text>
</g>
<!-- ResourceLiveReleaseModule -->
<g id="node7" class="node">
<title>ResourceLiveReleaseModule</title>
<polygon fill="#8dd3c7" stroke="black" points="938.32,-187 935.32,-191 914.32,-191 911.32,-187 757.68,-187 757.68,-151 938.32,-151 938.32,-187"/>
<text text-anchor="middle" x="848" y="-164.8" font-family="Times,serif" font-size="14.00">ResourceLiveReleaseModule</text>
</g>
<!-- AppNativeChartsComponent&#45;&gt;ResourceLiveReleaseModule -->
<g id="edge1" class="edge">
<title>AppNativeChartsComponent&#45;&gt;ResourceLiveReleaseModule</title>
<path fill="none" stroke="black" d="M1834,-122.01C1834,-144.49 1834,-180 1834,-180 1834,-180 948.55,-180 948.55,-180"/>
<polygon fill="black" stroke="black" points="948.55,-176.5 938.55,-180 948.55,-183.5 948.55,-176.5"/>
</g>
<!-- ContainersCpuUsageChartComponent -->
<g id="node2" class="node">
<title>ContainersCpuUsageChartComponent</title>
<polygon fill="#ffffb3" stroke="black" points="1726.9,-122 1495.1,-122 1495.1,-86 1726.9,-86 1726.9,-122"/>
<text text-anchor="middle" x="1611" y="-99.8" font-family="Times,serif" font-size="14.00">ContainersCpuUsageChartComponent</text>
</g>
<!-- ContainersCpuUsageChartComponent&#45;&gt;ResourceLiveReleaseModule -->
<g id="edge2" class="edge">
<title>ContainersCpuUsageChartComponent&#45;&gt;ResourceLiveReleaseModule</title>
<path fill="none" stroke="black" d="M1611,-122.13C1611,-142.57 1611,-173 1611,-173 1611,-173 948.52,-173 948.52,-173"/>
<polygon fill="black" stroke="black" points="948.52,-169.5 938.52,-173 948.52,-176.5 948.52,-169.5"/>
</g>
<!-- MemoryUsageChartComponent -->
<g id="node3" class="node">
<title>MemoryUsageChartComponent</title>
<polygon fill="#ffffb3" stroke="black" points="1476.63,-122 1281.37,-122 1281.37,-86 1476.63,-86 1476.63,-122"/>
<text text-anchor="middle" x="1379" y="-99.8" font-family="Times,serif" font-size="14.00">MemoryUsageChartComponent</text>
</g>
<!-- MemoryUsageChartComponent&#45;&gt;ResourceLiveReleaseModule -->
<g id="edge3" class="edge">
<title>MemoryUsageChartComponent&#45;&gt;ResourceLiveReleaseModule</title>
<path fill="none" stroke="black" d="M1379,-122.27C1379,-140.56 1379,-166 1379,-166 1379,-166 948.38,-166 948.38,-166"/>
<polygon fill="black" stroke="black" points="948.38,-162.5 938.38,-166 948.38,-169.5 948.38,-162.5"/>
</g>
<!-- PodsResourcesChartComponent -->
<g id="node4" class="node">
<title>PodsResourcesChartComponent</title>
<polygon fill="#ffffb3" stroke="black" points="1263.69,-122 1066.31,-122 1066.31,-86 1263.69,-86 1263.69,-122"/>
<text text-anchor="middle" x="1165" y="-99.8" font-family="Times,serif" font-size="14.00">PodsResourcesChartComponent</text>
</g>
<!-- PodsResourcesChartComponent&#45;&gt;ResourceLiveReleaseModule -->
<g id="edge4" class="edge">
<title>PodsResourcesChartComponent&#45;&gt;ResourceLiveReleaseModule</title>
<path fill="none" stroke="black" d="M1165,-122.01C1165,-138.05 1165,-159 1165,-159 1165,-159 948.42,-159 948.42,-159"/>
<polygon fill="black" stroke="black" points="948.42,-155.5 938.42,-159 948.42,-162.5 948.42,-155.5"/>
</g>
<!-- ResourceLiveReleaseComponent -->
<g id="node5" class="node">
<title>ResourceLiveReleaseComponent</title>
<polygon fill="#ffffb3" stroke="black" points="1048.11,-122 845.89,-122 845.89,-86 1048.11,-86 1048.11,-122"/>
<text text-anchor="middle" x="947" y="-99.8" font-family="Times,serif" font-size="14.00">ResourceLiveReleaseComponent</text>
</g>
<!-- ResourceLiveReleaseComponent&#45;&gt;ResourceLiveReleaseModule -->
<g id="edge5" class="edge">
<title>ResourceLiveReleaseComponent&#45;&gt;ResourceLiveReleaseModule</title>
<path fill="none" stroke="black" d="M892.05,-122.11C892.05,-122.11 892.05,-140.99 892.05,-140.99"/>
<polygon fill="black" stroke="black" points="888.55,-140.99 892.05,-150.99 895.55,-140.99 888.55,-140.99"/>
</g>
<!-- RestartsChartComponent -->
<g id="node6" class="node">
<title>RestartsChartComponent</title>
<polygon fill="#ffffb3" stroke="black" points="827.53,-122 670.47,-122 670.47,-86 827.53,-86 827.53,-122"/>
<text text-anchor="middle" x="749" y="-99.8" font-family="Times,serif" font-size="14.00">RestartsChartComponent</text>
</g>
<!-- RestartsChartComponent&#45;&gt;ResourceLiveReleaseModule -->
<g id="edge6" class="edge">
<title>RestartsChartComponent&#45;&gt;ResourceLiveReleaseModule</title>
<path fill="none" stroke="black" d="M792.68,-122.11C792.68,-122.11 792.68,-140.99 792.68,-140.99"/>
<polygon fill="black" stroke="black" points="789.18,-140.99 792.68,-150.99 796.18,-140.99 789.18,-140.99"/>
</g>
<!-- ConfigFieldModule -->
<g id="node8" class="node">
<title>ConfigFieldModule</title>
<polygon fill="#8dd3c7" stroke="black" points="645.72,-122 642.72,-126 621.72,-126 618.72,-122 518.28,-122 518.28,-86 645.72,-86 645.72,-122"/>
<text text-anchor="middle" x="582" y="-99.8" font-family="Times,serif" font-size="14.00">ConfigFieldModule</text>
</g>
<!-- ConfigFieldModule&#45;&gt;ResourceLiveReleaseModule -->
<g id="edge7" class="edge">
<title>ConfigFieldModule&#45;&gt;ResourceLiveReleaseModule</title>
<path fill="none" stroke="black" d="M582,-122.01C582,-138.05 582,-159 582,-159 582,-159 747.57,-159 747.57,-159"/>
<polygon fill="black" stroke="black" points="747.57,-162.5 757.57,-159 747.57,-155.5 747.57,-162.5"/>
</g>
<!-- LayoutsModule -->
<g id="node9" class="node">
<title>LayoutsModule</title>
<polygon fill="#8dd3c7" stroke="black" points="500.15,-122 497.15,-126 476.15,-126 473.15,-122 395.85,-122 395.85,-86 500.15,-86 500.15,-122"/>
<text text-anchor="middle" x="448" y="-99.8" font-family="Times,serif" font-size="14.00">LayoutsModule</text>
</g>
<!-- LayoutsModule&#45;&gt;ResourceLiveReleaseModule -->
<g id="edge8" class="edge">
<title>LayoutsModule&#45;&gt;ResourceLiveReleaseModule</title>
<path fill="none" stroke="black" d="M448,-122.27C448,-140.56 448,-166 448,-166 448,-166 747.23,-166 747.23,-166"/>
<polygon fill="black" stroke="black" points="747.23,-169.5 757.23,-166 747.23,-162.5 747.23,-169.5"/>
</g>
<!-- ResourceLiveReleaseRoutingModule -->
<g id="node10" class="node">
<title>ResourceLiveReleaseRoutingModule</title>
<polygon fill="#8dd3c7" stroke="black" points="377.94,-122 374.94,-126 353.94,-126 350.94,-122 152.06,-122 152.06,-86 377.94,-86 377.94,-122"/>
<text text-anchor="middle" x="265" y="-99.8" font-family="Times,serif" font-size="14.00">ResourceLiveReleaseRoutingModule</text>
</g>
<!-- ResourceLiveReleaseRoutingModule&#45;&gt;ResourceLiveReleaseModule -->
<g id="edge9" class="edge">
<title>ResourceLiveReleaseRoutingModule&#45;&gt;ResourceLiveReleaseModule</title>
<path fill="none" stroke="black" d="M265,-122.13C265,-142.57 265,-173 265,-173 265,-173 747.55,-173 747.55,-173"/>
<polygon fill="black" stroke="black" points="747.55,-176.5 757.55,-173 747.55,-169.5 747.55,-176.5"/>
</g>
<!-- TailLogsModule -->
<g id="node11" class="node">
<title>TailLogsModule</title>
<polygon fill="#8dd3c7" stroke="black" points="134.1,-122 131.1,-126 110.1,-126 107.1,-122 23.9,-122 23.9,-86 134.1,-86 134.1,-122"/>
<text text-anchor="middle" x="79" y="-99.8" font-family="Times,serif" font-size="14.00">TailLogsModule</text>
</g>
<!-- TailLogsModule&#45;&gt;ResourceLiveReleaseModule -->
<g id="edge10" class="edge">
<title>TailLogsModule&#45;&gt;ResourceLiveReleaseModule</title>
<path fill="none" stroke="black" d="M79,-122.01C79,-144.49 79,-180 79,-180 79,-180 747.52,-180 747.52,-180"/>
<polygon fill="black" stroke="black" points="747.52,-183.5 757.52,-180 747.52,-176.5 747.52,-183.5"/>
</g>
</g>
</svg>
