<?xml version="1.0" encoding="UTF-8" standalone="no"?>
<!DOCTYPE svg PUBLIC "-//W3C//DTD SVG 1.1//EN"
 "http://www.w3.org/Graphics/SVG/1.1/DTD/svg11.dtd">
<!-- Generated by graphviz version 2.47.0 (20210316.0004)
 -->
<!-- Title: dependencies Pages: 1 -->
<svg width="1197pt" height="284pt"
 viewBox="0.00 0.00 1197.00 284.00" xmlns="http://www.w3.org/2000/svg" xmlns:xlink="http://www.w3.org/1999/xlink">
<g id="graph0" class="graph" transform="scale(1 1) rotate(0) translate(4 280)">
<title>dependencies</title>
<polygon fill="white" stroke="transparent" points="-4,4 -4,-280 1193,-280 1193,4 -4,4"/>
<text text-anchor="start" x="573.51" y="-42.4" font-family="Times-12" font-weight="bold" font-size="14.00">Legend</text>
<polygon fill="#ffffb3" stroke="transparent" points="360.5,-10 360.5,-30 380.5,-30 380.5,-10 360.5,-10"/>
<text text-anchor="start" x="384.13" y="-15.4" font-family="Times-12" font-size="14.00"> &#160;Declarations</text>
<polygon fill="#8dd3c7" stroke="transparent" points="473.5,-10 473.5,-30 493.5,-30 493.5,-10 473.5,-10"/>
<text text-anchor="start" x="497.23" y="-15.4" font-family="Times-12" font-size="14.00"> &#160;Module</text>
<polygon fill="#80b1d3" stroke="transparent" points="559.5,-10 559.5,-30 579.5,-30 579.5,-10 559.5,-10"/>
<text text-anchor="start" x="583.28" y="-15.4" font-family="Times-12" font-size="14.00"> &#160;Bootstrap</text>
<polygon fill="#fdb462" stroke="transparent" points="656.5,-10 656.5,-30 676.5,-30 676.5,-10 656.5,-10"/>
<text text-anchor="start" x="680.17" y="-15.4" font-family="Times-12" font-size="14.00"> &#160;Providers</text>
<polygon fill="#fb8072" stroke="transparent" points="752.5,-10 752.5,-30 772.5,-30 772.5,-10 752.5,-10"/>
<text text-anchor="start" x="776.23" y="-15.4" font-family="Times-12" font-size="14.00"> &#160;Exports</text>
<g id="clust1" class="cluster">
<title>cluster_ResourceCenterModule</title>
<polygon fill="none" stroke="black" stroke-dasharray="1,5" points="8,-70 8,-268 1181,-268 1181,-70 8,-70"/>
</g>
<g id="clust8" class="cluster">
<title>cluster_ResourceCenterModule_exports</title>
<polygon fill="none" stroke="black" points="416,-208 416,-260 832,-260 832,-208 416,-208"/>
</g>
<g id="clust7" class="cluster">
<title>cluster_ResourceCenterModule_imports</title>
<polygon fill="none" stroke="black" points="841,-78 841,-130 1173,-130 1173,-78 841,-78"/>
</g>
<g id="clust2" class="cluster">
<title>cluster_ResourceCenterModule_declarations</title>
<polygon fill="none" stroke="black" points="16,-78 16,-130 833,-130 833,-78 16,-78"/>
</g>
<!-- InterfacesAttributesComponent -->
<g id="node1" class="node">
<title>InterfacesAttributesComponent</title>
<polygon fill="#ffffb3" stroke="black" points="825.5,-122 632.5,-122 632.5,-86 825.5,-86 825.5,-122"/>
<text text-anchor="middle" x="729" y="-99.8" font-family="Times,serif" font-size="14.00">InterfacesAttributesComponent</text>
</g>
<!-- ResourceCenterModule -->
<g id="node5" class="node">
<title>ResourceCenterModule</title>
<polygon fill="#8dd3c7" stroke="black" points="695.45,-187 692.45,-191 671.45,-191 668.45,-187 546.55,-187 546.55,-151 695.45,-151 695.45,-187"/>
<text text-anchor="middle" x="621" y="-164.8" font-family="Times,serif" font-size="14.00">ResourceCenterModule</text>
</g>
<!-- InterfacesAttributesComponent&#45;&gt;ResourceCenterModule -->
<g id="edge1" class="edge">
<title>InterfacesAttributesComponent&#45;&gt;ResourceCenterModule</title>
<path fill="none" stroke="black" d="M664.11,-122.11C664.11,-122.11 664.11,-140.99 664.11,-140.99"/>
<polygon fill="black" stroke="black" points="660.61,-140.99 664.11,-150.99 667.61,-140.99 660.61,-140.99"/>
</g>
<!-- OverrideStatusBadgeComponent -->
<g id="node2" class="node">
<title>OverrideStatusBadgeComponent</title>
<polygon fill="#ffffb3" stroke="black" points="614.57,-122 413.43,-122 413.43,-86 614.57,-86 614.57,-122"/>
<text text-anchor="middle" x="514" y="-99.8" font-family="Times,serif" font-size="14.00">OverrideStatusBadgeComponent</text>
</g>
<!-- OverrideStatusBadgeComponent&#45;&gt;ResourceCenterModule -->
<g id="edge2" class="edge">
<title>OverrideStatusBadgeComponent&#45;&gt;ResourceCenterModule</title>
<path fill="none" stroke="black" d="M580.53,-122.11C580.53,-122.11 580.53,-140.99 580.53,-140.99"/>
<polygon fill="black" stroke="black" points="577.03,-140.99 580.53,-150.99 584.03,-140.99 577.03,-140.99"/>
</g>
<!-- ResourceCenterComponent -->
<g id="node3" class="node">
<title>ResourceCenterComponent</title>
<polygon fill="#ffffb3" stroke="black" points="395.24,-122 224.76,-122 224.76,-86 395.24,-86 395.24,-122"/>
<text text-anchor="middle" x="310" y="-99.8" font-family="Times,serif" font-size="14.00">ResourceCenterComponent</text>
</g>
<!-- ResourceCenterComponent&#45;&gt;ResourceCenterModule -->
<g id="edge3" class="edge">
<title>ResourceCenterComponent&#45;&gt;ResourceCenterModule</title>
<path fill="none" stroke="black" d="M310,-122.02C310,-139.37 310,-163 310,-163 310,-163 536.51,-163 536.51,-163"/>
<polygon fill="black" stroke="black" points="536.51,-166.5 546.51,-163 536.51,-159.5 536.51,-166.5"/>
</g>
<!-- TextCircleTooltipComponent -->
<g id="node4" class="node">
<title>TextCircleTooltipComponent</title>
<polygon fill="#ffffb3" stroke="black" points="206.42,-122 23.58,-122 23.58,-86 206.42,-86 206.42,-122"/>
<text text-anchor="middle" x="115" y="-99.8" font-family="Times,serif" font-size="14.00">TextCircleTooltipComponent</text>
</g>
<!-- TextCircleTooltipComponent&#45;&gt;ResourceCenterModule -->
<g id="edge4" class="edge">
<title>TextCircleTooltipComponent&#45;&gt;ResourceCenterModule</title>
<path fill="none" stroke="black" d="M115,-122.28C115,-143.32 115,-175 115,-175 115,-175 536.34,-175 536.34,-175"/>
<polygon fill="black" stroke="black" points="536.34,-178.5 546.34,-175 536.34,-171.5 536.34,-178.5"/>
</g>
<!-- InterfacesAttributesComponent  -->
<g id="node8" class="node">
<title>InterfacesAttributesComponent </title>
<polygon fill="#fb8072" stroke="black" points="824,-252 628,-252 628,-216 824,-216 824,-252"/>
<text text-anchor="middle" x="726" y="-229.8" font-family="Times,serif" font-size="14.00">InterfacesAttributesComponent </text>
</g>
<!-- ResourceCenterModule&#45;&gt;InterfacesAttributesComponent  -->
<g id="edge7" class="edge">
<title>ResourceCenterModule&#45;&gt;InterfacesAttributesComponent </title>
<path fill="none" stroke="black" stroke-dasharray="5,2" d="M661.74,-187.11C661.74,-187.11 661.74,-205.99 661.74,-205.99"/>
<polygon fill="black" stroke="black" points="658.24,-205.99 661.74,-215.99 665.24,-205.99 658.24,-205.99"/>
</g>
<!-- TextCircleTooltipComponent  -->
<g id="node9" class="node">
<title>TextCircleTooltipComponent </title>
<polygon fill="#fb8072" stroke="black" points="609.92,-252 424.08,-252 424.08,-216 609.92,-216 609.92,-252"/>
<text text-anchor="middle" x="517" y="-229.8" font-family="Times,serif" font-size="14.00">TextCircleTooltipComponent </text>
</g>
<!-- ResourceCenterModule&#45;&gt;TextCircleTooltipComponent  -->
<g id="edge8" class="edge">
<title>ResourceCenterModule&#45;&gt;TextCircleTooltipComponent </title>
<path fill="none" stroke="black" stroke-dasharray="5,2" d="M578.24,-187.11C578.24,-187.11 578.24,-205.99 578.24,-205.99"/>
<polygon fill="black" stroke="black" points="574.74,-205.99 578.24,-215.99 581.74,-205.99 574.74,-205.99"/>
</g>
<!-- LayoutsModule -->
<g id="node6" class="node">
<title>LayoutsModule</title>
<polygon fill="#8dd3c7" stroke="black" points="1165.15,-122 1162.15,-126 1141.15,-126 1138.15,-122 1060.85,-122 1060.85,-86 1165.15,-86 1165.15,-122"/>
<text text-anchor="middle" x="1113" y="-99.8" font-family="Times,serif" font-size="14.00">LayoutsModule</text>
</g>
<!-- LayoutsModule&#45;&gt;ResourceCenterModule -->
<g id="edge5" class="edge">
<title>LayoutsModule&#45;&gt;ResourceCenterModule</title>
<path fill="none" stroke="black" d="M1113,-122.28C1113,-143.32 1113,-175 1113,-175 1113,-175 705.46,-175 705.46,-175"/>
<polygon fill="black" stroke="black" points="705.46,-171.5 695.46,-175 705.46,-178.5 705.46,-171.5"/>
</g>
<!-- ResourceCenterRoutingModule -->
<g id="node7" class="node">
<title>ResourceCenterRoutingModule</title>
<polygon fill="#8dd3c7" stroke="black" points="1043.07,-122 1040.07,-126 1019.07,-126 1016.07,-122 848.93,-122 848.93,-86 1043.07,-86 1043.07,-122"/>
<text text-anchor="middle" x="946" y="-99.8" font-family="Times,serif" font-size="14.00">ResourceCenterRoutingModule</text>
</g>
<!-- ResourceCenterRoutingModule&#45;&gt;ResourceCenterModule -->
<g id="edge6" class="edge">
<title>ResourceCenterRoutingModule&#45;&gt;ResourceCenterModule</title>
<path fill="none" stroke="black" d="M946,-122.02C946,-139.37 946,-163 946,-163 946,-163 705.56,-163 705.56,-163"/>
<polygon fill="black" stroke="black" points="705.56,-159.5 695.56,-163 705.56,-166.5 705.56,-159.5"/>
</g>
</g>
</svg>
