<?xml version="1.0" encoding="UTF-8" standalone="no"?>
<!DOCTYPE svg PUBLIC "-//W3C//DTD SVG 1.1//EN"
 "http://www.w3.org/Graphics/SVG/1.1/DTD/svg11.dtd">
<!-- Generated by graphviz version 2.47.0 (20210316.0004)
 -->
<!-- Title: dependencies Pages: 1 -->
<svg width="758pt" height="211pt"
 viewBox="0.00 0.00 758.00 211.00" xmlns="http://www.w3.org/2000/svg" xmlns:xlink="http://www.w3.org/1999/xlink">
<g id="graph0" class="graph" transform="scale(1 1) rotate(0) translate(4 207)">
<title>dependencies</title>
<polygon fill="white" stroke="transparent" points="-4,4 -4,-207 754,-207 754,4 -4,4"/>
<text text-anchor="start" x="354.01" y="-42.4" font-family="Times-12" font-weight="bold" font-size="14.00">Legend</text>
<polygon fill="#ffffb3" stroke="transparent" points="141,-10 141,-30 161,-30 161,-10 141,-10"/>
<text text-anchor="start" x="164.63" y="-15.4" font-family="Times-12" font-size="14.00"> &#160;Declarations</text>
<polygon fill="#8dd3c7" stroke="transparent" points="254,-10 254,-30 274,-30 274,-10 254,-10"/>
<text text-anchor="start" x="277.73" y="-15.4" font-family="Times-12" font-size="14.00"> &#160;Module</text>
<polygon fill="#80b1d3" stroke="transparent" points="340,-10 340,-30 360,-30 360,-10 340,-10"/>
<text text-anchor="start" x="363.78" y="-15.4" font-family="Times-12" font-size="14.00"> &#160;Bootstrap</text>
<polygon fill="#fdb462" stroke="transparent" points="437,-10 437,-30 457,-30 457,-10 437,-10"/>
<text text-anchor="start" x="460.67" y="-15.4" font-family="Times-12" font-size="14.00"> &#160;Providers</text>
<polygon fill="#fb8072" stroke="transparent" points="533,-10 533,-30 553,-30 553,-10 533,-10"/>
<text text-anchor="start" x="556.73" y="-15.4" font-family="Times-12" font-size="14.00"> &#160;Exports</text>
<g id="clust1" class="cluster">
<title>cluster_ClusterCreateUpdateModule</title>
<polygon fill="none" stroke="black" stroke-dasharray="1,5" points="8,-70 8,-195 742,-195 742,-70 8,-70"/>
</g>
<g id="clust4" class="cluster">
<title>cluster_ClusterCreateUpdateModule_imports</title>
<polygon fill="none" stroke="black" points="238,-78 238,-130 734,-130 734,-78 238,-78"/>
</g>
<g id="clust2" class="cluster">
<title>cluster_ClusterCreateUpdateModule_declarations</title>
<polygon fill="none" stroke="black" points="16,-78 16,-130 230,-130 230,-78 16,-78"/>
</g>
<!-- ClusterCreateUpdateComponent -->
<g id="node1" class="node">
<title>ClusterCreateUpdateComponent</title>
<polygon fill="#ffffb3" stroke="black" points="222.23,-122 23.77,-122 23.77,-86 222.23,-86 222.23,-122"/>
<text text-anchor="middle" x="123" y="-99.8" font-family="Times,serif" font-size="14.00">ClusterCreateUpdateComponent</text>
</g>
<!-- ClusterCreateUpdateModule -->
<g id="node2" class="node">
<title>ClusterCreateUpdateModule</title>
<polygon fill="#8dd3c7" stroke="black" points="386.45,-187 383.45,-191 362.45,-191 359.45,-187 209.55,-187 209.55,-151 386.45,-151 386.45,-187"/>
<text text-anchor="middle" x="298" y="-164.8" font-family="Times,serif" font-size="14.00">ClusterCreateUpdateModule</text>
</g>
<!-- ClusterCreateUpdateComponent&#45;&gt;ClusterCreateUpdateModule -->
<g id="edge1" class="edge">
<title>ClusterCreateUpdateComponent&#45;&gt;ClusterCreateUpdateModule</title>
<path fill="none" stroke="black" d="M215.95,-122.11C215.95,-122.11 215.95,-140.99 215.95,-140.99"/>
<polygon fill="black" stroke="black" points="212.45,-140.99 215.95,-150.99 219.45,-140.99 212.45,-140.99"/>
</g>
<!-- ClusterCreateUpdateRoutingModule -->
<g id="node3" class="node">
<title>ClusterCreateUpdateRoutingModule</title>
<polygon fill="#8dd3c7" stroke="black" points="726.06,-122 723.06,-126 702.06,-126 699.06,-122 503.94,-122 503.94,-86 726.06,-86 726.06,-122"/>
<text text-anchor="middle" x="615" y="-99.8" font-family="Times,serif" font-size="14.00">ClusterCreateUpdateRoutingModule</text>
</g>
<!-- ClusterCreateUpdateRoutingModule&#45;&gt;ClusterCreateUpdateModule -->
<g id="edge2" class="edge">
<title>ClusterCreateUpdateRoutingModule&#45;&gt;ClusterCreateUpdateModule</title>
<path fill="none" stroke="black" d="M615,-122.11C615,-141.34 615,-169 615,-169 615,-169 396.72,-169 396.72,-169"/>
<polygon fill="black" stroke="black" points="396.72,-165.5 386.72,-169 396.72,-172.5 396.72,-165.5"/>
</g>
<!-- DirectivesModule -->
<g id="node4" class="node">
<title>DirectivesModule</title>
<polygon fill="#8dd3c7" stroke="black" points="485.58,-122 482.58,-126 461.58,-126 458.58,-122 368.42,-122 368.42,-86 485.58,-86 485.58,-122"/>
<text text-anchor="middle" x="427" y="-99.8" font-family="Times,serif" font-size="14.00">DirectivesModule</text>
</g>
<!-- DirectivesModule&#45;&gt;ClusterCreateUpdateModule -->
<g id="edge3" class="edge">
<title>DirectivesModule&#45;&gt;ClusterCreateUpdateModule</title>
<path fill="none" stroke="black" d="M377.47,-122.11C377.47,-122.11 377.47,-140.99 377.47,-140.99"/>
<polygon fill="black" stroke="black" points="373.97,-140.99 377.47,-150.99 380.97,-140.99 373.97,-140.99"/>
</g>
<!-- LayoutsModule -->
<g id="node5" class="node">
<title>LayoutsModule</title>
<polygon fill="#8dd3c7" stroke="black" points="350.15,-122 347.15,-126 326.15,-126 323.15,-122 245.85,-122 245.85,-86 350.15,-86 350.15,-122"/>
<text text-anchor="middle" x="298" y="-99.8" font-family="Times,serif" font-size="14.00">LayoutsModule</text>
</g>
<!-- LayoutsModule&#45;&gt;ClusterCreateUpdateModule -->
<g id="edge4" class="edge">
<title>LayoutsModule&#45;&gt;ClusterCreateUpdateModule</title>
<path fill="none" stroke="black" d="M315.44,-122.11C315.44,-122.11 315.44,-140.99 315.44,-140.99"/>
<polygon fill="black" stroke="black" points="311.94,-140.99 315.44,-150.99 318.94,-140.99 311.94,-140.99"/>
</g>
<!-- LayoutsModule&#45;&gt;ClusterCreateUpdateModule -->
<g id="edge5" class="edge">
<title>LayoutsModule&#45;&gt;ClusterCreateUpdateModule</title>
<path fill="none" stroke="black" d="M280.56,-122.11C280.56,-122.11 280.56,-140.99 280.56,-140.99"/>
<polygon fill="black" stroke="black" points="277.06,-140.99 280.56,-150.99 284.06,-140.99 277.06,-140.99"/>
</g>
</g>
</svg>
