<?xml version="1.0" encoding="UTF-8" standalone="no"?>
<!DOCTYPE svg PUBLIC "-//W3C//DTD SVG 1.1//EN"
 "http://www.w3.org/Graphics/SVG/1.1/DTD/svg11.dtd">
<!-- Generated by graphviz version 2.47.0 (20210316.0004)
 -->
<!-- Title: dependencies Pages: 1 -->
<svg width="558pt" height="211pt"
 viewBox="0.00 0.00 558.00 211.00" xmlns="http://www.w3.org/2000/svg" xmlns:xlink="http://www.w3.org/1999/xlink">
<g id="graph0" class="graph" transform="scale(1 1) rotate(0) translate(4 207)">
<title>dependencies</title>
<polygon fill="white" stroke="transparent" points="-4,4 -4,-207 554,-207 554,4 -4,4"/>
<text text-anchor="start" x="254.01" y="-42.4" font-family="Times-12" font-weight="bold" font-size="14.00">Legend</text>
<polygon fill="#ffffb3" stroke="transparent" points="41,-10 41,-30 61,-30 61,-10 41,-10"/>
<text text-anchor="start" x="64.63" y="-15.4" font-family="Times-12" font-size="14.00"> &#160;Declarations</text>
<polygon fill="#8dd3c7" stroke="transparent" points="154,-10 154,-30 174,-30 174,-10 154,-10"/>
<text text-anchor="start" x="177.73" y="-15.4" font-family="Times-12" font-size="14.00"> &#160;Module</text>
<polygon fill="#80b1d3" stroke="transparent" points="240,-10 240,-30 260,-30 260,-10 240,-10"/>
<text text-anchor="start" x="263.78" y="-15.4" font-family="Times-12" font-size="14.00"> &#160;Bootstrap</text>
<polygon fill="#fdb462" stroke="transparent" points="337,-10 337,-30 357,-30 357,-10 337,-10"/>
<text text-anchor="start" x="360.67" y="-15.4" font-family="Times-12" font-size="14.00"> &#160;Providers</text>
<polygon fill="#fb8072" stroke="transparent" points="433,-10 433,-30 453,-30 453,-10 433,-10"/>
<text text-anchor="start" x="456.73" y="-15.4" font-family="Times-12" font-size="14.00"> &#160;Exports</text>
<g id="clust1" class="cluster">
<title>cluster_ResetPasswordModule</title>
<polygon fill="none" stroke="black" stroke-dasharray="1,5" points="8,-70 8,-195 542,-195 542,-70 8,-70"/>
</g>
<g id="clust4" class="cluster">
<title>cluster_ResetPasswordModule_imports</title>
<polygon fill="none" stroke="black" points="206,-78 206,-130 534,-130 534,-78 206,-78"/>
</g>
<g id="clust2" class="cluster">
<title>cluster_ResetPasswordModule_declarations</title>
<polygon fill="none" stroke="black" points="16,-78 16,-130 198,-130 198,-78 16,-78"/>
</g>
<!-- ResetPasswordComponent -->
<g id="node1" class="node">
<title>ResetPasswordComponent</title>
<polygon fill="#ffffb3" stroke="black" points="190.09,-122 23.91,-122 23.91,-86 190.09,-86 190.09,-122"/>
<text text-anchor="middle" x="107" y="-99.8" font-family="Times,serif" font-size="14.00">ResetPasswordComponent</text>
</g>
<!-- ResetPasswordModule -->
<g id="node2" class="node">
<title>ResetPasswordModule</title>
<polygon fill="#8dd3c7" stroke="black" points="381.3,-187 378.3,-191 357.3,-191 354.3,-187 236.7,-187 236.7,-151 381.3,-151 381.3,-187"/>
<text text-anchor="middle" x="309" y="-164.8" font-family="Times,serif" font-size="14.00">ResetPasswordModule</text>
</g>
<!-- ResetPasswordComponent&#45;&gt;ResetPasswordModule -->
<g id="edge1" class="edge">
<title>ResetPasswordComponent&#45;&gt;ResetPasswordModule</title>
<path fill="none" stroke="black" d="M107,-122.11C107,-141.34 107,-169 107,-169 107,-169 226.64,-169 226.64,-169"/>
<polygon fill="black" stroke="black" points="226.64,-172.5 236.64,-169 226.64,-165.5 226.64,-172.5"/>
</g>
<!-- LayoutsModule -->
<g id="node3" class="node">
<title>LayoutsModule</title>
<polygon fill="#8dd3c7" stroke="black" points="526.15,-122 523.15,-126 502.15,-126 499.15,-122 421.85,-122 421.85,-86 526.15,-86 526.15,-122"/>
<text text-anchor="middle" x="474" y="-99.8" font-family="Times,serif" font-size="14.00">LayoutsModule</text>
</g>
<!-- LayoutsModule&#45;&gt;ResetPasswordModule -->
<g id="edge2" class="edge">
<title>LayoutsModule&#45;&gt;ResetPasswordModule</title>
<path fill="none" stroke="black" d="M474,-122.11C474,-141.34 474,-169 474,-169 474,-169 391.37,-169 391.37,-169"/>
<polygon fill="black" stroke="black" points="391.37,-165.5 381.37,-169 391.37,-172.5 391.37,-165.5"/>
</g>
<!-- ResetPasswordRoutingModule -->
<g id="node4" class="node">
<title>ResetPasswordRoutingModule</title>
<polygon fill="#8dd3c7" stroke="black" points="403.92,-122 400.92,-126 379.92,-126 376.92,-122 214.08,-122 214.08,-86 403.92,-86 403.92,-122"/>
<text text-anchor="middle" x="309" y="-99.8" font-family="Times,serif" font-size="14.00">ResetPasswordRoutingModule</text>
</g>
<!-- ResetPasswordRoutingModule&#45;&gt;ResetPasswordModule -->
<g id="edge3" class="edge">
<title>ResetPasswordRoutingModule&#45;&gt;ResetPasswordModule</title>
<path fill="none" stroke="black" d="M309,-122.11C309,-122.11 309,-140.99 309,-140.99"/>
<polygon fill="black" stroke="black" points="305.5,-140.99 309,-150.99 312.5,-140.99 305.5,-140.99"/>
</g>
</g>
</svg>
