<?xml version="1.0" encoding="UTF-8" standalone="no"?>
<!DOCTYPE svg PUBLIC "-//W3C//DTD SVG 1.1//EN"
 "http://www.w3.org/Graphics/SVG/1.1/DTD/svg11.dtd">
<!-- Generated by graphviz version 2.47.0 (20210316.0004)
 -->
<!-- Title: dependencies Pages: 1 -->
<svg width="827pt" height="211pt"
 viewBox="0.00 0.00 827.00 211.00" xmlns="http://www.w3.org/2000/svg" xmlns:xlink="http://www.w3.org/1999/xlink">
<g id="graph0" class="graph" transform="scale(1 1) rotate(0) translate(4 207)">
<title>dependencies</title>
<polygon fill="white" stroke="transparent" points="-4,4 -4,-207 823,-207 823,4 -4,4"/>
<text text-anchor="start" x="388.51" y="-42.4" font-family="Times-12" font-weight="bold" font-size="14.00">Legend</text>
<polygon fill="#ffffb3" stroke="transparent" points="175.5,-10 175.5,-30 195.5,-30 195.5,-10 175.5,-10"/>
<text text-anchor="start" x="199.13" y="-15.4" font-family="Times-12" font-size="14.00"> &#160;Declarations</text>
<polygon fill="#8dd3c7" stroke="transparent" points="288.5,-10 288.5,-30 308.5,-30 308.5,-10 288.5,-10"/>
<text text-anchor="start" x="312.23" y="-15.4" font-family="Times-12" font-size="14.00"> &#160;Module</text>
<polygon fill="#80b1d3" stroke="transparent" points="374.5,-10 374.5,-30 394.5,-30 394.5,-10 374.5,-10"/>
<text text-anchor="start" x="398.28" y="-15.4" font-family="Times-12" font-size="14.00"> &#160;Bootstrap</text>
<polygon fill="#fdb462" stroke="transparent" points="471.5,-10 471.5,-30 491.5,-30 491.5,-10 471.5,-10"/>
<text text-anchor="start" x="495.17" y="-15.4" font-family="Times-12" font-size="14.00"> &#160;Providers</text>
<polygon fill="#fb8072" stroke="transparent" points="567.5,-10 567.5,-30 587.5,-30 587.5,-10 567.5,-10"/>
<text text-anchor="start" x="591.23" y="-15.4" font-family="Times-12" font-size="14.00"> &#160;Exports</text>
<g id="clust1" class="cluster">
<title>cluster_AccountsManagementModule</title>
<polygon fill="none" stroke="black" stroke-dasharray="1,5" points="8,-70 8,-195 811,-195 811,-70 8,-70"/>
</g>
<g id="clust2" class="cluster">
<title>cluster_AccountsManagementModule_declarations</title>
<polygon fill="none" stroke="black" points="393,-78 393,-130 803,-130 803,-78 393,-78"/>
</g>
<g id="clust5" class="cluster">
<title>cluster_AccountsManagementModule_imports</title>
<polygon fill="none" stroke="black" points="16,-78 16,-130 385,-130 385,-78 16,-78"/>
</g>
<!-- AccountDetailsComponent -->
<g id="node1" class="node">
<title>AccountDetailsComponent</title>
<polygon fill="#ffffb3" stroke="black" points="795.41,-122 626.59,-122 626.59,-86 795.41,-86 795.41,-122"/>
<text text-anchor="middle" x="711" y="-99.8" font-family="Times,serif" font-size="14.00">AccountDetailsComponent</text>
</g>
<!-- AccountsManagementModule -->
<g id="node3" class="node">
<title>AccountsManagementModule</title>
<polygon fill="#8dd3c7" stroke="black" points="475.51,-187 472.51,-191 451.51,-191 448.51,-187 290.49,-187 290.49,-151 475.51,-151 475.51,-187"/>
<text text-anchor="middle" x="383" y="-164.8" font-family="Times,serif" font-size="14.00">AccountsManagementModule</text>
</g>
<!-- AccountDetailsComponent&#45;&gt;AccountsManagementModule -->
<g id="edge1" class="edge">
<title>AccountDetailsComponent&#45;&gt;AccountsManagementModule</title>
<path fill="none" stroke="black" d="M711,-122.11C711,-141.34 711,-169 711,-169 711,-169 485.68,-169 485.68,-169"/>
<polygon fill="black" stroke="black" points="485.68,-165.5 475.68,-169 485.68,-172.5 485.68,-165.5"/>
</g>
<!-- AccountsManagementComponent -->
<g id="node2" class="node">
<title>AccountsManagementComponent</title>
<polygon fill="#ffffb3" stroke="black" points="608.79,-122 401.21,-122 401.21,-86 608.79,-86 608.79,-122"/>
<text text-anchor="middle" x="505" y="-99.8" font-family="Times,serif" font-size="14.00">AccountsManagementComponent</text>
</g>
<!-- AccountsManagementComponent&#45;&gt;AccountsManagementModule -->
<g id="edge2" class="edge">
<title>AccountsManagementComponent&#45;&gt;AccountsManagementModule</title>
<path fill="none" stroke="black" d="M438.55,-122.11C438.55,-122.11 438.55,-140.99 438.55,-140.99"/>
<polygon fill="black" stroke="black" points="435.05,-140.99 438.55,-150.99 442.05,-140.99 435.05,-140.99"/>
</g>
<!-- AccountsManagementRoutingModule -->
<g id="node4" class="node">
<title>AccountsManagementRoutingModule</title>
<polygon fill="#8dd3c7" stroke="black" points="377.12,-122 374.12,-126 353.12,-126 350.12,-122 146.88,-122 146.88,-86 377.12,-86 377.12,-122"/>
<text text-anchor="middle" x="262" y="-99.8" font-family="Times,serif" font-size="14.00">AccountsManagementRoutingModule</text>
</g>
<!-- AccountsManagementRoutingModule&#45;&gt;AccountsManagementModule -->
<g id="edge3" class="edge">
<title>AccountsManagementRoutingModule&#45;&gt;AccountsManagementModule</title>
<path fill="none" stroke="black" d="M333.78,-122.11C333.78,-122.11 333.78,-140.99 333.78,-140.99"/>
<polygon fill="black" stroke="black" points="330.28,-140.99 333.78,-150.99 337.28,-140.99 330.28,-140.99"/>
</g>
<!-- LayoutsModule -->
<g id="node5" class="node">
<title>LayoutsModule</title>
<polygon fill="#8dd3c7" stroke="black" points="128.15,-122 125.15,-126 104.15,-126 101.15,-122 23.85,-122 23.85,-86 128.15,-86 128.15,-122"/>
<text text-anchor="middle" x="76" y="-99.8" font-family="Times,serif" font-size="14.00">LayoutsModule</text>
</g>
<!-- LayoutsModule&#45;&gt;AccountsManagementModule -->
<g id="edge4" class="edge">
<title>LayoutsModule&#45;&gt;AccountsManagementModule</title>
<path fill="none" stroke="black" d="M76,-122.11C76,-141.34 76,-169 76,-169 76,-169 280.47,-169 280.47,-169"/>
<polygon fill="black" stroke="black" points="280.47,-172.5 290.47,-169 280.47,-165.5 280.47,-172.5"/>
</g>
</g>
</svg>
