<?xml version="1.0" encoding="UTF-8" standalone="no"?>
<!DOCTYPE svg PUBLIC "-//W3C//DTD SVG 1.1//EN"
 "http://www.w3.org/Graphics/SVG/1.1/DTD/svg11.dtd">
<!-- Generated by graphviz version 2.47.0 (20210316.0004)
 -->
<!-- Title: dependencies Pages: 1 -->
<svg width="786pt" height="211pt"
 viewBox="0.00 0.00 786.00 211.00" xmlns="http://www.w3.org/2000/svg" xmlns:xlink="http://www.w3.org/1999/xlink">
<g id="graph0" class="graph" transform="scale(1 1) rotate(0) translate(4 207)">
<title>dependencies</title>
<polygon fill="white" stroke="transparent" points="-4,4 -4,-207 782,-207 782,4 -4,4"/>
<text text-anchor="start" x="368.01" y="-42.4" font-family="Times-12" font-weight="bold" font-size="14.00">Legend</text>
<polygon fill="#ffffb3" stroke="transparent" points="155,-10 155,-30 175,-30 175,-10 155,-10"/>
<text text-anchor="start" x="178.63" y="-15.4" font-family="Times-12" font-size="14.00"> &#160;Declarations</text>
<polygon fill="#8dd3c7" stroke="transparent" points="268,-10 268,-30 288,-30 288,-10 268,-10"/>
<text text-anchor="start" x="291.73" y="-15.4" font-family="Times-12" font-size="14.00"> &#160;Module</text>
<polygon fill="#80b1d3" stroke="transparent" points="354,-10 354,-30 374,-30 374,-10 354,-10"/>
<text text-anchor="start" x="377.78" y="-15.4" font-family="Times-12" font-size="14.00"> &#160;Bootstrap</text>
<polygon fill="#fdb462" stroke="transparent" points="451,-10 451,-30 471,-30 471,-10 451,-10"/>
<text text-anchor="start" x="474.67" y="-15.4" font-family="Times-12" font-size="14.00"> &#160;Providers</text>
<polygon fill="#fb8072" stroke="transparent" points="547,-10 547,-30 567,-30 567,-10 547,-10"/>
<text text-anchor="start" x="570.73" y="-15.4" font-family="Times-12" font-size="14.00"> &#160;Exports</text>
<g id="clust1" class="cluster">
<title>cluster_ResourcePodContainersModule</title>
<polygon fill="none" stroke="black" stroke-dasharray="1,5" points="8,-70 8,-195 770,-195 770,-70 8,-70"/>
</g>
<g id="clust2" class="cluster">
<title>cluster_ResourcePodContainersModule_declarations</title>
<polygon fill="none" stroke="black" points="530,-78 530,-130 762,-130 762,-78 530,-78"/>
</g>
<g id="clust4" class="cluster">
<title>cluster_ResourcePodContainersModule_imports</title>
<polygon fill="none" stroke="black" points="16,-78 16,-130 522,-130 522,-78 16,-78"/>
</g>
<!-- ResourcePodContainersComponent -->
<g id="node1" class="node">
<title>ResourcePodContainersComponent</title>
<polygon fill="#ffffb3" stroke="black" points="753.85,-122 538.15,-122 538.15,-86 753.85,-86 753.85,-122"/>
<text text-anchor="middle" x="646" y="-99.8" font-family="Times,serif" font-size="14.00">ResourcePodContainersComponent</text>
</g>
<!-- ResourcePodContainersModule -->
<g id="node2" class="node">
<title>ResourcePodContainersModule</title>
<polygon fill="#8dd3c7" stroke="black" points="464.07,-187 461.07,-191 440.07,-191 437.07,-187 269.93,-187 269.93,-151 464.07,-151 464.07,-187"/>
<text text-anchor="middle" x="367" y="-164.8" font-family="Times,serif" font-size="14.00">ResourcePodContainersModule</text>
</g>
<!-- ResourcePodContainersComponent&#45;&gt;ResourcePodContainersModule -->
<g id="edge1" class="edge">
<title>ResourcePodContainersComponent&#45;&gt;ResourcePodContainersModule</title>
<path fill="none" stroke="black" d="M646,-122.11C646,-141.34 646,-169 646,-169 646,-169 474.19,-169 474.19,-169"/>
<polygon fill="black" stroke="black" points="474.19,-165.5 464.19,-169 474.19,-172.5 474.19,-165.5"/>
</g>
<!-- LayoutsModule -->
<g id="node3" class="node">
<title>LayoutsModule</title>
<polygon fill="#8dd3c7" stroke="black" points="514.15,-122 511.15,-126 490.15,-126 487.15,-122 409.85,-122 409.85,-86 514.15,-86 514.15,-122"/>
<text text-anchor="middle" x="462" y="-99.8" font-family="Times,serif" font-size="14.00">LayoutsModule</text>
</g>
<!-- LayoutsModule&#45;&gt;ResourcePodContainersModule -->
<g id="edge2" class="edge">
<title>LayoutsModule&#45;&gt;ResourcePodContainersModule</title>
<path fill="none" stroke="black" d="M436.85,-122.11C436.85,-122.11 436.85,-140.99 436.85,-140.99"/>
<polygon fill="black" stroke="black" points="433.35,-140.99 436.85,-150.99 440.35,-140.99 433.35,-140.99"/>
</g>
<!-- ResourcePodContainersRoutingModule -->
<g id="node4" class="node">
<title>ResourcePodContainersRoutingModule</title>
<polygon fill="#8dd3c7" stroke="black" points="391.69,-122 388.69,-126 367.69,-126 364.69,-122 152.31,-122 152.31,-86 391.69,-86 391.69,-122"/>
<text text-anchor="middle" x="272" y="-99.8" font-family="Times,serif" font-size="14.00">ResourcePodContainersRoutingModule</text>
</g>
<!-- ResourcePodContainersRoutingModule&#45;&gt;ResourcePodContainersModule -->
<g id="edge3" class="edge">
<title>ResourcePodContainersRoutingModule&#45;&gt;ResourcePodContainersModule</title>
<path fill="none" stroke="black" d="M330.78,-122.11C330.78,-122.11 330.78,-140.99 330.78,-140.99"/>
<polygon fill="black" stroke="black" points="327.28,-140.99 330.78,-150.99 334.28,-140.99 327.28,-140.99"/>
</g>
<!-- TailLogsModule -->
<g id="node5" class="node">
<title>TailLogsModule</title>
<polygon fill="#8dd3c7" stroke="black" points="134.1,-122 131.1,-126 110.1,-126 107.1,-122 23.9,-122 23.9,-86 134.1,-86 134.1,-122"/>
<text text-anchor="middle" x="79" y="-99.8" font-family="Times,serif" font-size="14.00">TailLogsModule</text>
</g>
<!-- TailLogsModule&#45;&gt;ResourcePodContainersModule -->
<g id="edge4" class="edge">
<title>TailLogsModule&#45;&gt;ResourcePodContainersModule</title>
<path fill="none" stroke="black" d="M79,-122.11C79,-141.34 79,-169 79,-169 79,-169 259.9,-169 259.9,-169"/>
<polygon fill="black" stroke="black" points="259.9,-172.5 269.9,-169 259.9,-165.5 259.9,-172.5"/>
</g>
</g>
</svg>
