<?xml version="1.0" encoding="UTF-8" standalone="no"?>
<!DOCTYPE svg PUBLIC "-//W3C//DTD SVG 1.1//EN"
 "http://www.w3.org/Graphics/SVG/1.1/DTD/svg11.dtd">
<!-- Generated by graphviz version 2.47.0 (20210316.0004)
 -->
<!-- Title: dependencies Pages: 1 -->
<svg width="570pt" height="211pt"
 viewBox="0.00 0.00 570.00 211.00" xmlns="http://www.w3.org/2000/svg" xmlns:xlink="http://www.w3.org/1999/xlink">
<g id="graph0" class="graph" transform="scale(1 1) rotate(0) translate(4 207)">
<title>dependencies</title>
<polygon fill="white" stroke="transparent" points="-4,4 -4,-207 566,-207 566,4 -4,4"/>
<text text-anchor="start" x="260.01" y="-42.4" font-family="Times-12" font-weight="bold" font-size="14.00">Legend</text>
<polygon fill="#ffffb3" stroke="transparent" points="47,-10 47,-30 67,-30 67,-10 47,-10"/>
<text text-anchor="start" x="70.63" y="-15.4" font-family="Times-12" font-size="14.00"> &#160;Declarations</text>
<polygon fill="#8dd3c7" stroke="transparent" points="160,-10 160,-30 180,-30 180,-10 160,-10"/>
<text text-anchor="start" x="183.73" y="-15.4" font-family="Times-12" font-size="14.00"> &#160;Module</text>
<polygon fill="#80b1d3" stroke="transparent" points="246,-10 246,-30 266,-30 266,-10 246,-10"/>
<text text-anchor="start" x="269.78" y="-15.4" font-family="Times-12" font-size="14.00"> &#160;Bootstrap</text>
<polygon fill="#fdb462" stroke="transparent" points="343,-10 343,-30 363,-30 363,-10 343,-10"/>
<text text-anchor="start" x="366.67" y="-15.4" font-family="Times-12" font-size="14.00"> &#160;Providers</text>
<polygon fill="#fb8072" stroke="transparent" points="439,-10 439,-30 459,-30 459,-10 439,-10"/>
<text text-anchor="start" x="462.73" y="-15.4" font-family="Times-12" font-size="14.00"> &#160;Exports</text>
<g id="clust1" class="cluster">
<title>cluster_ForgotPasswordModule</title>
<polygon fill="none" stroke="black" stroke-dasharray="1,5" points="8,-70 8,-195 554,-195 554,-70 8,-70"/>
</g>
<g id="clust2" class="cluster">
<title>cluster_ForgotPasswordModule_declarations</title>
<polygon fill="none" stroke="black" points="358,-78 358,-130 546,-130 546,-78 358,-78"/>
</g>
<g id="clust4" class="cluster">
<title>cluster_ForgotPasswordModule_imports</title>
<polygon fill="none" stroke="black" points="16,-78 16,-130 350,-130 350,-78 16,-78"/>
</g>
<!-- ForgotPasswordComponent -->
<g id="node1" class="node">
<title>ForgotPasswordComponent</title>
<polygon fill="#ffffb3" stroke="black" points="538.32,-122 365.68,-122 365.68,-86 538.32,-86 538.32,-122"/>
<text text-anchor="middle" x="452" y="-99.8" font-family="Times,serif" font-size="14.00">ForgotPasswordComponent</text>
</g>
<!-- ForgotPasswordModule -->
<g id="node2" class="node">
<title>ForgotPasswordModule</title>
<polygon fill="#8dd3c7" stroke="black" points="319.04,-187 316.04,-191 295.04,-191 292.04,-187 168.96,-187 168.96,-151 319.04,-151 319.04,-187"/>
<text text-anchor="middle" x="244" y="-164.8" font-family="Times,serif" font-size="14.00">ForgotPasswordModule</text>
</g>
<!-- ForgotPasswordComponent&#45;&gt;ForgotPasswordModule -->
<g id="edge1" class="edge">
<title>ForgotPasswordComponent&#45;&gt;ForgotPasswordModule</title>
<path fill="none" stroke="black" d="M452,-122.11C452,-141.34 452,-169 452,-169 452,-169 329.09,-169 329.09,-169"/>
<polygon fill="black" stroke="black" points="329.09,-165.5 319.09,-169 329.09,-172.5 329.09,-165.5"/>
</g>
<!-- ForgotPasswordRoutingModule -->
<g id="node3" class="node">
<title>ForgotPasswordRoutingModule</title>
<polygon fill="#8dd3c7" stroke="black" points="341.66,-122 338.66,-126 317.66,-126 314.66,-122 146.34,-122 146.34,-86 341.66,-86 341.66,-122"/>
<text text-anchor="middle" x="244" y="-99.8" font-family="Times,serif" font-size="14.00">ForgotPasswordRoutingModule</text>
</g>
<!-- ForgotPasswordRoutingModule&#45;&gt;ForgotPasswordModule -->
<g id="edge2" class="edge">
<title>ForgotPasswordRoutingModule&#45;&gt;ForgotPasswordModule</title>
<path fill="none" stroke="black" d="M244,-122.11C244,-122.11 244,-140.99 244,-140.99"/>
<polygon fill="black" stroke="black" points="240.5,-140.99 244,-150.99 247.5,-140.99 240.5,-140.99"/>
</g>
<!-- LayoutsModule -->
<g id="node4" class="node">
<title>LayoutsModule</title>
<polygon fill="#8dd3c7" stroke="black" points="128.15,-122 125.15,-126 104.15,-126 101.15,-122 23.85,-122 23.85,-86 128.15,-86 128.15,-122"/>
<text text-anchor="middle" x="76" y="-99.8" font-family="Times,serif" font-size="14.00">LayoutsModule</text>
</g>
<!-- LayoutsModule&#45;&gt;ForgotPasswordModule -->
<g id="edge3" class="edge">
<title>LayoutsModule&#45;&gt;ForgotPasswordModule</title>
<path fill="none" stroke="black" d="M76,-122.11C76,-141.34 76,-169 76,-169 76,-169 158.84,-169 158.84,-169"/>
<polygon fill="black" stroke="black" points="158.84,-172.5 168.84,-169 158.84,-165.5 158.84,-172.5"/>
</g>
</g>
</svg>
