<?xml version="1.0" encoding="UTF-8" standalone="no"?>
<!DOCTYPE svg PUBLIC "-//W3C//DTD SVG 1.1//EN"
 "http://www.w3.org/Graphics/SVG/1.1/DTD/svg11.dtd">
<!-- Generated by graphviz version 2.47.0 (20210316.0004)
 -->
<!-- Title: dependencies Pages: 1 -->
<svg width="1206pt" height="211pt"
 viewBox="0.00 0.00 1206.00 211.00" xmlns="http://www.w3.org/2000/svg" xmlns:xlink="http://www.w3.org/1999/xlink">
<g id="graph0" class="graph" transform="scale(1 1) rotate(0) translate(4 207)">
<title>dependencies</title>
<polygon fill="white" stroke="transparent" points="-4,4 -4,-207 1202,-207 1202,4 -4,4"/>
<text text-anchor="start" x="578.01" y="-42.4" font-family="Times-12" font-weight="bold" font-size="14.00">Legend</text>
<polygon fill="#ffffb3" stroke="transparent" points="365,-10 365,-30 385,-30 385,-10 365,-10"/>
<text text-anchor="start" x="388.63" y="-15.4" font-family="Times-12" font-size="14.00"> &#160;Declarations</text>
<polygon fill="#8dd3c7" stroke="transparent" points="478,-10 478,-30 498,-30 498,-10 478,-10"/>
<text text-anchor="start" x="501.73" y="-15.4" font-family="Times-12" font-size="14.00"> &#160;Module</text>
<polygon fill="#80b1d3" stroke="transparent" points="564,-10 564,-30 584,-30 584,-10 564,-10"/>
<text text-anchor="start" x="587.78" y="-15.4" font-family="Times-12" font-size="14.00"> &#160;Bootstrap</text>
<polygon fill="#fdb462" stroke="transparent" points="661,-10 661,-30 681,-30 681,-10 661,-10"/>
<text text-anchor="start" x="684.67" y="-15.4" font-family="Times-12" font-size="14.00"> &#160;Providers</text>
<polygon fill="#fb8072" stroke="transparent" points="757,-10 757,-30 777,-30 777,-10 757,-10"/>
<text text-anchor="start" x="780.73" y="-15.4" font-family="Times-12" font-size="14.00"> &#160;Exports</text>
<g id="clust1" class="cluster">
<title>cluster_ResourceDiffCompareModule</title>
<polygon fill="none" stroke="black" stroke-dasharray="1,5" points="8,-70 8,-195 1190,-195 1190,-70 8,-70"/>
</g>
<g id="clust2" class="cluster">
<title>cluster_ResourceDiffCompareModule_declarations</title>
<polygon fill="none" stroke="black" points="394,-78 394,-130 1182,-130 1182,-78 394,-78"/>
</g>
<g id="clust7" class="cluster">
<title>cluster_ResourceDiffCompareModule_imports</title>
<polygon fill="none" stroke="black" points="16,-78 16,-130 386,-130 386,-78 16,-78"/>
</g>
<!-- AppDiffCompareComponent -->
<g id="node1" class="node">
<title>AppDiffCompareComponent</title>
<polygon fill="#ffffb3" stroke="black" points="1174.07,-122 993.93,-122 993.93,-86 1174.07,-86 1174.07,-122"/>
<text text-anchor="middle" x="1084" y="-99.8" font-family="Times,serif" font-size="14.00">AppDiffCompareComponent</text>
</g>
<!-- ResourceDiffCompareModule -->
<g id="node5" class="node">
<title>ResourceDiffCompareModule</title>
<polygon fill="#8dd3c7" stroke="black" points="700.27,-187 697.27,-191 676.27,-191 673.27,-187 513.73,-187 513.73,-151 700.27,-151 700.27,-187"/>
<text text-anchor="middle" x="607" y="-164.8" font-family="Times,serif" font-size="14.00">ResourceDiffCompareModule</text>
</g>
<!-- AppDiffCompareComponent&#45;&gt;ResourceDiffCompareModule -->
<g id="edge1" class="edge">
<title>AppDiffCompareComponent&#45;&gt;ResourceDiffCompareModule</title>
<path fill="none" stroke="black" d="M1084,-122.28C1084,-143.32 1084,-175 1084,-175 1084,-175 710.39,-175 710.39,-175"/>
<polygon fill="black" stroke="black" points="710.39,-171.5 700.39,-175 710.39,-178.5 710.39,-171.5"/>
</g>
<!-- DiffValueComponent -->
<g id="node2" class="node">
<title>DiffValueComponent</title>
<polygon fill="#ffffb3" stroke="black" points="976.08,-122 837.92,-122 837.92,-86 976.08,-86 976.08,-122"/>
<text text-anchor="middle" x="907" y="-99.8" font-family="Times,serif" font-size="14.00">DiffValueComponent</text>
</g>
<!-- DiffValueComponent&#45;&gt;ResourceDiffCompareModule -->
<g id="edge2" class="edge">
<title>DiffValueComponent&#45;&gt;ResourceDiffCompareModule</title>
<path fill="none" stroke="black" d="M907,-122.02C907,-139.37 907,-163 907,-163 907,-163 710.28,-163 710.28,-163"/>
<polygon fill="black" stroke="black" points="710.28,-159.5 700.28,-163 710.28,-166.5 710.28,-159.5"/>
</g>
<!-- ResourceDiffCompareComponent -->
<g id="node3" class="node">
<title>ResourceDiffCompareComponent</title>
<polygon fill="#ffffb3" stroke="black" points="820.05,-122 611.95,-122 611.95,-86 820.05,-86 820.05,-122"/>
<text text-anchor="middle" x="716" y="-99.8" font-family="Times,serif" font-size="14.00">ResourceDiffCompareComponent</text>
</g>
<!-- ResourceDiffCompareComponent&#45;&gt;ResourceDiffCompareModule -->
<g id="edge3" class="edge">
<title>ResourceDiffCompareComponent&#45;&gt;ResourceDiffCompareModule</title>
<path fill="none" stroke="black" d="M656.05,-122.11C656.05,-122.11 656.05,-140.99 656.05,-140.99"/>
<polygon fill="black" stroke="black" points="652.55,-140.99 656.05,-150.99 659.55,-140.99 652.55,-140.99"/>
</g>
<!-- SingleDiffCompareComponent -->
<g id="node4" class="node">
<title>SingleDiffCompareComponent</title>
<polygon fill="#ffffb3" stroke="black" points="593.75,-122 402.25,-122 402.25,-86 593.75,-86 593.75,-122"/>
<text text-anchor="middle" x="498" y="-99.8" font-family="Times,serif" font-size="14.00">SingleDiffCompareComponent</text>
</g>
<!-- SingleDiffCompareComponent&#45;&gt;ResourceDiffCompareModule -->
<g id="edge4" class="edge">
<title>SingleDiffCompareComponent&#45;&gt;ResourceDiffCompareModule</title>
<path fill="none" stroke="black" d="M553.87,-122.11C553.87,-122.11 553.87,-140.99 553.87,-140.99"/>
<polygon fill="black" stroke="black" points="550.37,-140.99 553.87,-150.99 557.37,-140.99 550.37,-140.99"/>
</g>
<!-- LayoutsModule -->
<g id="node6" class="node">
<title>LayoutsModule</title>
<polygon fill="#8dd3c7" stroke="black" points="378.15,-122 375.15,-126 354.15,-126 351.15,-122 273.85,-122 273.85,-86 378.15,-86 378.15,-122"/>
<text text-anchor="middle" x="326" y="-99.8" font-family="Times,serif" font-size="14.00">LayoutsModule</text>
</g>
<!-- LayoutsModule&#45;&gt;ResourceDiffCompareModule -->
<g id="edge5" class="edge">
<title>LayoutsModule&#45;&gt;ResourceDiffCompareModule</title>
<path fill="none" stroke="black" d="M326,-122.02C326,-139.37 326,-163 326,-163 326,-163 503.82,-163 503.82,-163"/>
<polygon fill="black" stroke="black" points="503.82,-166.5 513.82,-163 503.82,-159.5 503.82,-166.5"/>
</g>
<!-- ResourceDiffCompareRoutingModule -->
<g id="node7" class="node">
<title>ResourceDiffCompareRoutingModule</title>
<polygon fill="#8dd3c7" stroke="black" points="255.89,-122 252.89,-126 231.89,-126 228.89,-122 24.11,-122 24.11,-86 255.89,-86 255.89,-122"/>
<text text-anchor="middle" x="140" y="-99.8" font-family="Times,serif" font-size="14.00">ResourceDiffCompareRoutingModule</text>
</g>
<!-- ResourceDiffCompareRoutingModule&#45;&gt;ResourceDiffCompareModule -->
<g id="edge6" class="edge">
<title>ResourceDiffCompareRoutingModule&#45;&gt;ResourceDiffCompareModule</title>
<path fill="none" stroke="black" d="M140,-122.28C140,-143.32 140,-175 140,-175 140,-175 503.62,-175 503.62,-175"/>
<polygon fill="black" stroke="black" points="503.62,-178.5 513.62,-175 503.62,-171.5 503.62,-178.5"/>
</g>
</g>
</svg>
