<?xml version="1.0" encoding="UTF-8" standalone="no"?>
<!DOCTYPE svg PUBLIC "-//W3C//DTD SVG 1.1//EN"
 "http://www.w3.org/Graphics/SVG/1.1/DTD/svg11.dtd">
<!-- Generated by graphviz version 2.47.0 (20210316.0004)
 -->
<!-- Title: dependencies Pages: 1 -->
<svg width="717pt" height="211pt"
 viewBox="0.00 0.00 717.00 211.00" xmlns="http://www.w3.org/2000/svg" xmlns:xlink="http://www.w3.org/1999/xlink">
<g id="graph0" class="graph" transform="scale(1 1) rotate(0) translate(4 207)">
<title>dependencies</title>
<polygon fill="white" stroke="transparent" points="-4,4 -4,-207 713,-207 713,4 -4,4"/>
<text text-anchor="start" x="333.51" y="-42.4" font-family="Times-12" font-weight="bold" font-size="14.00">Legend</text>
<polygon fill="#ffffb3" stroke="transparent" points="120.5,-10 120.5,-30 140.5,-30 140.5,-10 120.5,-10"/>
<text text-anchor="start" x="144.13" y="-15.4" font-family="Times-12" font-size="14.00"> &#160;Declarations</text>
<polygon fill="#8dd3c7" stroke="transparent" points="233.5,-10 233.5,-30 253.5,-30 253.5,-10 233.5,-10"/>
<text text-anchor="start" x="257.23" y="-15.4" font-family="Times-12" font-size="14.00"> &#160;Module</text>
<polygon fill="#80b1d3" stroke="transparent" points="319.5,-10 319.5,-30 339.5,-30 339.5,-10 319.5,-10"/>
<text text-anchor="start" x="343.28" y="-15.4" font-family="Times-12" font-size="14.00"> &#160;Bootstrap</text>
<polygon fill="#fdb462" stroke="transparent" points="416.5,-10 416.5,-30 436.5,-30 436.5,-10 416.5,-10"/>
<text text-anchor="start" x="440.17" y="-15.4" font-family="Times-12" font-size="14.00"> &#160;Providers</text>
<polygon fill="#fb8072" stroke="transparent" points="512.5,-10 512.5,-30 532.5,-30 532.5,-10 512.5,-10"/>
<text text-anchor="start" x="536.23" y="-15.4" font-family="Times-12" font-size="14.00"> &#160;Exports</text>
<g id="clust1" class="cluster">
<title>cluster_ChangePasswordModule</title>
<polygon fill="none" stroke="black" stroke-dasharray="1,5" points="8,-70 8,-195 701,-195 701,-70 8,-70"/>
</g>
<g id="clust2" class="cluster">
<title>cluster_ChangePasswordModule_declarations</title>
<polygon fill="none" stroke="black" points="499,-78 499,-130 693,-130 693,-78 499,-78"/>
</g>
<g id="clust4" class="cluster">
<title>cluster_ChangePasswordModule_imports</title>
<polygon fill="none" stroke="black" points="16,-78 16,-130 491,-130 491,-78 16,-78"/>
</g>
<!-- ChangePasswordComponent -->
<g id="node1" class="node">
<title>ChangePasswordComponent</title>
<polygon fill="#ffffb3" stroke="black" points="684.75,-122 507.25,-122 507.25,-86 684.75,-86 684.75,-122"/>
<text text-anchor="middle" x="596" y="-99.8" font-family="Times,serif" font-size="14.00">ChangePasswordComponent</text>
</g>
<!-- ChangePasswordModule -->
<g id="node2" class="node">
<title>ChangePasswordModule</title>
<polygon fill="#8dd3c7" stroke="black" points="370.97,-187 367.97,-191 346.97,-191 343.97,-187 215.03,-187 215.03,-151 370.97,-151 370.97,-187"/>
<text text-anchor="middle" x="293" y="-164.8" font-family="Times,serif" font-size="14.00">ChangePasswordModule</text>
</g>
<!-- ChangePasswordComponent&#45;&gt;ChangePasswordModule -->
<g id="edge1" class="edge">
<title>ChangePasswordComponent&#45;&gt;ChangePasswordModule</title>
<path fill="none" stroke="black" d="M596,-122.11C596,-141.34 596,-169 596,-169 596,-169 381.03,-169 381.03,-169"/>
<polygon fill="black" stroke="black" points="381.03,-165.5 371.03,-169 381.03,-172.5 381.03,-165.5"/>
</g>
<!-- ChangePasswordRoutingModule -->
<g id="node3" class="node">
<title>ChangePasswordRoutingModule</title>
<polygon fill="#8dd3c7" stroke="black" points="482.59,-122 479.59,-126 458.59,-126 455.59,-122 281.41,-122 281.41,-86 482.59,-86 482.59,-122"/>
<text text-anchor="middle" x="382" y="-99.8" font-family="Times,serif" font-size="14.00">ChangePasswordRoutingModule</text>
</g>
<!-- ChangePasswordRoutingModule&#45;&gt;ChangePasswordModule -->
<g id="edge2" class="edge">
<title>ChangePasswordRoutingModule&#45;&gt;ChangePasswordModule</title>
<path fill="none" stroke="black" d="M326.22,-122.11C326.22,-122.11 326.22,-140.99 326.22,-140.99"/>
<polygon fill="black" stroke="black" points="322.72,-140.99 326.22,-150.99 329.72,-140.99 322.72,-140.99"/>
</g>
<!-- DirectivesModule -->
<g id="node4" class="node">
<title>DirectivesModule</title>
<polygon fill="#8dd3c7" stroke="black" points="263.58,-122 260.58,-126 239.58,-126 236.58,-122 146.42,-122 146.42,-86 263.58,-86 263.58,-122"/>
<text text-anchor="middle" x="205" y="-99.8" font-family="Times,serif" font-size="14.00">DirectivesModule</text>
</g>
<!-- DirectivesModule&#45;&gt;ChangePasswordModule -->
<g id="edge3" class="edge">
<title>DirectivesModule&#45;&gt;ChangePasswordModule</title>
<path fill="none" stroke="black" d="M239.28,-122.11C239.28,-122.11 239.28,-140.99 239.28,-140.99"/>
<polygon fill="black" stroke="black" points="235.78,-140.99 239.28,-150.99 242.78,-140.99 235.78,-140.99"/>
</g>
<!-- LayoutsModule -->
<g id="node5" class="node">
<title>LayoutsModule</title>
<polygon fill="#8dd3c7" stroke="black" points="128.15,-122 125.15,-126 104.15,-126 101.15,-122 23.85,-122 23.85,-86 128.15,-86 128.15,-122"/>
<text text-anchor="middle" x="76" y="-99.8" font-family="Times,serif" font-size="14.00">LayoutsModule</text>
</g>
<!-- LayoutsModule&#45;&gt;ChangePasswordModule -->
<g id="edge4" class="edge">
<title>LayoutsModule&#45;&gt;ChangePasswordModule</title>
<path fill="none" stroke="black" d="M76,-122.11C76,-141.34 76,-169 76,-169 76,-169 204.96,-169 204.96,-169"/>
<polygon fill="black" stroke="black" points="204.96,-172.5 214.96,-169 204.96,-165.5 204.96,-172.5"/>
</g>
</g>
</svg>
