<?xml version="1.0" encoding="UTF-8" standalone="no"?>
<!DOCTYPE svg PUBLIC "-//W3C//DTD SVG 1.1//EN"
 "http://www.w3.org/Graphics/SVG/1.1/DTD/svg11.dtd">
<!-- Generated by graphviz version 2.47.0 (20210316.0004)
 -->
<!-- Title: dependencies Pages: 1 -->
<svg width="578pt" height="211pt"
 viewBox="0.00 0.00 578.00 211.00" xmlns="http://www.w3.org/2000/svg" xmlns:xlink="http://www.w3.org/1999/xlink">
<g id="graph0" class="graph" transform="scale(1 1) rotate(0) translate(4 207)">
<title>dependencies</title>
<polygon fill="white" stroke="transparent" points="-4,4 -4,-207 574,-207 574,4 -4,4"/>
<text text-anchor="start" x="264.01" y="-42.4" font-family="Times-12" font-weight="bold" font-size="14.00">Legend</text>
<polygon fill="#ffffb3" stroke="transparent" points="51,-10 51,-30 71,-30 71,-10 51,-10"/>
<text text-anchor="start" x="74.63" y="-15.4" font-family="Times-12" font-size="14.00"> &#160;Declarations</text>
<polygon fill="#8dd3c7" stroke="transparent" points="164,-10 164,-30 184,-30 184,-10 164,-10"/>
<text text-anchor="start" x="187.73" y="-15.4" font-family="Times-12" font-size="14.00"> &#160;Module</text>
<polygon fill="#80b1d3" stroke="transparent" points="250,-10 250,-30 270,-30 270,-10 250,-10"/>
<text text-anchor="start" x="273.78" y="-15.4" font-family="Times-12" font-size="14.00"> &#160;Bootstrap</text>
<polygon fill="#fdb462" stroke="transparent" points="347,-10 347,-30 367,-30 367,-10 347,-10"/>
<text text-anchor="start" x="370.67" y="-15.4" font-family="Times-12" font-size="14.00"> &#160;Providers</text>
<polygon fill="#fb8072" stroke="transparent" points="443,-10 443,-30 463,-30 463,-10 443,-10"/>
<text text-anchor="start" x="466.73" y="-15.4" font-family="Times-12" font-size="14.00"> &#160;Exports</text>
<g id="clust1" class="cluster">
<title>cluster_ResourceListOldModule</title>
<polygon fill="none" stroke="black" stroke-dasharray="1,5" points="8,-70 8,-195 562,-195 562,-70 8,-70"/>
</g>
<g id="clust2" class="cluster">
<title>cluster_ResourceListOldModule_declarations</title>
<polygon fill="none" stroke="black" points="362,-78 362,-130 554,-130 554,-78 362,-78"/>
</g>
<g id="clust4" class="cluster">
<title>cluster_ResourceListOldModule_imports</title>
<polygon fill="none" stroke="black" points="16,-78 16,-130 354,-130 354,-78 16,-78"/>
</g>
<!-- ResourceListOldComponent -->
<g id="node1" class="node">
<title>ResourceListOldComponent</title>
<polygon fill="#ffffb3" stroke="black" points="546.19,-122 369.81,-122 369.81,-86 546.19,-86 546.19,-122"/>
<text text-anchor="middle" x="458" y="-99.8" font-family="Times,serif" font-size="14.00">ResourceListOldComponent</text>
</g>
<!-- ResourceListOldModule -->
<g id="node2" class="node">
<title>ResourceListOldModule</title>
<polygon fill="#8dd3c7" stroke="black" points="371.41,-187 368.41,-191 347.41,-191 344.41,-187 216.59,-187 216.59,-151 371.41,-151 371.41,-187"/>
<text text-anchor="middle" x="294" y="-164.8" font-family="Times,serif" font-size="14.00">ResourceListOldModule</text>
</g>
<!-- ResourceListOldComponent&#45;&gt;ResourceListOldModule -->
<g id="edge1" class="edge">
<title>ResourceListOldComponent&#45;&gt;ResourceListOldModule</title>
<path fill="none" stroke="black" d="M369.57,-104C362.56,-104 358.11,-104 358.11,-104 358.11,-104 358.11,-140.89 358.11,-140.89"/>
<polygon fill="black" stroke="black" points="354.61,-140.89 358.11,-150.89 361.61,-140.89 354.61,-140.89"/>
</g>
<!-- LayoutsModule -->
<g id="node3" class="node">
<title>LayoutsModule</title>
<polygon fill="#8dd3c7" stroke="black" points="346.15,-122 343.15,-126 322.15,-126 319.15,-122 241.85,-122 241.85,-86 346.15,-86 346.15,-122"/>
<text text-anchor="middle" x="294" y="-99.8" font-family="Times,serif" font-size="14.00">LayoutsModule</text>
</g>
<!-- LayoutsModule&#45;&gt;ResourceListOldModule -->
<g id="edge2" class="edge">
<title>LayoutsModule&#45;&gt;ResourceListOldModule</title>
<path fill="none" stroke="black" d="M294,-122.11C294,-122.11 294,-140.99 294,-140.99"/>
<polygon fill="black" stroke="black" points="290.5,-140.99 294,-150.99 297.5,-140.99 290.5,-140.99"/>
</g>
<!-- ResourceListOldRoutingModule -->
<g id="node4" class="node">
<title>ResourceListOldRoutingModule</title>
<polygon fill="#8dd3c7" stroke="black" points="223.53,-122 220.53,-126 199.53,-126 196.53,-122 24.47,-122 24.47,-86 223.53,-86 223.53,-122"/>
<text text-anchor="middle" x="124" y="-99.8" font-family="Times,serif" font-size="14.00">ResourceListOldRoutingModule</text>
</g>
<!-- ResourceListOldRoutingModule&#45;&gt;ResourceListOldModule -->
<g id="edge3" class="edge">
<title>ResourceListOldRoutingModule&#45;&gt;ResourceListOldModule</title>
<path fill="none" stroke="black" d="M223.82,-104C229.36,-104 232.72,-104 232.72,-104 232.72,-104 232.72,-140.89 232.72,-140.89"/>
<polygon fill="black" stroke="black" points="229.22,-140.89 232.72,-150.89 236.22,-140.89 229.22,-140.89"/>
</g>
</g>
</svg>
