<?xml version="1.0" encoding="UTF-8" standalone="no"?>
<!DOCTYPE svg PUBLIC "-//W3C//DTD SVG 1.1//EN"
 "http://www.w3.org/Graphics/SVG/1.1/DTD/svg11.dtd">
<!-- Generated by graphviz version 2.47.0 (20210316.0004)
 -->
<!-- Title: dependencies Pages: 1 -->
<svg width="558pt" height="211pt"
 viewBox="0.00 0.00 558.00 211.00" xmlns="http://www.w3.org/2000/svg" xmlns:xlink="http://www.w3.org/1999/xlink">
<g id="graph0" class="graph" transform="scale(1 1) rotate(0) translate(4 207)">
<title>dependencies</title>
<polygon fill="white" stroke="transparent" points="-4,4 -4,-207 554,-207 554,4 -4,4"/>
<text text-anchor="start" x="254.01" y="-42.4" font-family="Times-12" font-weight="bold" font-size="14.00">Legend</text>
<polygon fill="#ffffb3" stroke="transparent" points="41,-10 41,-30 61,-30 61,-10 41,-10"/>
<text text-anchor="start" x="64.63" y="-15.4" font-family="Times-12" font-size="14.00"> &#160;Declarations</text>
<polygon fill="#8dd3c7" stroke="transparent" points="154,-10 154,-30 174,-30 174,-10 154,-10"/>
<text text-anchor="start" x="177.73" y="-15.4" font-family="Times-12" font-size="14.00"> &#160;Module</text>
<polygon fill="#80b1d3" stroke="transparent" points="240,-10 240,-30 260,-30 260,-10 240,-10"/>
<text text-anchor="start" x="263.78" y="-15.4" font-family="Times-12" font-size="14.00"> &#160;Bootstrap</text>
<polygon fill="#fdb462" stroke="transparent" points="337,-10 337,-30 357,-30 357,-10 337,-10"/>
<text text-anchor="start" x="360.67" y="-15.4" font-family="Times-12" font-size="14.00"> &#160;Providers</text>
<polygon fill="#fb8072" stroke="transparent" points="433,-10 433,-30 453,-30 453,-10 433,-10"/>
<text text-anchor="start" x="456.73" y="-15.4" font-family="Times-12" font-size="14.00"> &#160;Exports</text>
<g id="clust1" class="cluster">
<title>cluster_ClusterSettingsModule</title>
<polygon fill="none" stroke="black" stroke-dasharray="1,5" points="8,-70 8,-195 542,-195 542,-70 8,-70"/>
</g>
<g id="clust4" class="cluster">
<title>cluster_ClusterSettingsModule_imports</title>
<polygon fill="none" stroke="black" points="206,-78 206,-130 534,-130 534,-78 206,-78"/>
</g>
<g id="clust2" class="cluster">
<title>cluster_ClusterSettingsModule_declarations</title>
<polygon fill="none" stroke="black" points="16,-78 16,-130 198,-130 198,-78 16,-78"/>
</g>
<!-- ClusterSettingsComponent -->
<g id="node1" class="node">
<title>ClusterSettingsComponent</title>
<polygon fill="#ffffb3" stroke="black" points="190.38,-122 23.62,-122 23.62,-86 190.38,-86 190.38,-122"/>
<text text-anchor="middle" x="107" y="-99.8" font-family="Times,serif" font-size="14.00">ClusterSettingsComponent</text>
</g>
<!-- ClusterSettingsModule -->
<g id="node2" class="node">
<title>ClusterSettingsModule</title>
<polygon fill="#8dd3c7" stroke="black" points="338.6,-187 335.6,-191 314.6,-191 311.6,-187 193.4,-187 193.4,-151 338.6,-151 338.6,-187"/>
<text text-anchor="middle" x="266" y="-164.8" font-family="Times,serif" font-size="14.00">ClusterSettingsModule</text>
</g>
<!-- ClusterSettingsComponent&#45;&gt;ClusterSettingsModule -->
<g id="edge1" class="edge">
<title>ClusterSettingsComponent&#45;&gt;ClusterSettingsModule</title>
<path fill="none" stroke="black" d="M190.54,-104C198.43,-104 203.56,-104 203.56,-104 203.56,-104 203.56,-140.89 203.56,-140.89"/>
<polygon fill="black" stroke="black" points="200.06,-140.89 203.56,-150.89 207.06,-140.89 200.06,-140.89"/>
</g>
<!-- ClusterSettingsRoutingModule -->
<g id="node3" class="node">
<title>ClusterSettingsRoutingModule</title>
<polygon fill="#8dd3c7" stroke="black" points="526.22,-122 523.22,-126 502.22,-126 499.22,-122 335.78,-122 335.78,-86 526.22,-86 526.22,-122"/>
<text text-anchor="middle" x="431" y="-99.8" font-family="Times,serif" font-size="14.00">ClusterSettingsRoutingModule</text>
</g>
<!-- ClusterSettingsRoutingModule&#45;&gt;ClusterSettingsModule -->
<g id="edge2" class="edge">
<title>ClusterSettingsRoutingModule&#45;&gt;ClusterSettingsModule</title>
<path fill="none" stroke="black" d="M335.61,-104C330.32,-104 327.11,-104 327.11,-104 327.11,-104 327.11,-140.89 327.11,-140.89"/>
<polygon fill="black" stroke="black" points="323.61,-140.89 327.11,-150.89 330.61,-140.89 323.61,-140.89"/>
</g>
<!-- LayoutsModule -->
<g id="node4" class="node">
<title>LayoutsModule</title>
<polygon fill="#8dd3c7" stroke="black" points="318.15,-122 315.15,-126 294.15,-126 291.15,-122 213.85,-122 213.85,-86 318.15,-86 318.15,-122"/>
<text text-anchor="middle" x="266" y="-99.8" font-family="Times,serif" font-size="14.00">LayoutsModule</text>
</g>
<!-- LayoutsModule&#45;&gt;ClusterSettingsModule -->
<g id="edge3" class="edge">
<title>LayoutsModule&#45;&gt;ClusterSettingsModule</title>
<path fill="none" stroke="black" d="M266,-122.11C266,-122.11 266,-140.99 266,-140.99"/>
<polygon fill="black" stroke="black" points="262.5,-140.99 266,-150.99 269.5,-140.99 262.5,-140.99"/>
</g>
</g>
</svg>
