<?xml version="1.0" encoding="UTF-8" standalone="no"?>
<!DOCTYPE svg PUBLIC "-//W3C//DTD SVG 1.1//EN"
 "http://www.w3.org/Graphics/SVG/1.1/DTD/svg11.dtd">
<!-- Generated by graphviz version 2.47.0 (20210316.0004)
 -->
<!-- Title: dependencies Pages: 1 -->
<svg width="2426pt" height="284pt"
 viewBox="0.00 0.00 2426.00 284.00" xmlns="http://www.w3.org/2000/svg" xmlns:xlink="http://www.w3.org/1999/xlink">
<g id="graph0" class="graph" transform="scale(1 1) rotate(0) translate(4 280)">
<title>dependencies</title>
<polygon fill="white" stroke="transparent" points="-4,4 -4,-280 2422,-280 2422,4 -4,4"/>
<text text-anchor="start" x="1188.01" y="-42.4" font-family="Times-12" font-weight="bold" font-size="14.00">Legend</text>
<polygon fill="#ffffb3" stroke="transparent" points="975,-10 975,-30 995,-30 995,-10 975,-10"/>
<text text-anchor="start" x="998.63" y="-15.4" font-family="Times-12" font-size="14.00"> &#160;Declarations</text>
<polygon fill="#8dd3c7" stroke="transparent" points="1088,-10 1088,-30 1108,-30 1108,-10 1088,-10"/>
<text text-anchor="start" x="1111.73" y="-15.4" font-family="Times-12" font-size="14.00"> &#160;Module</text>
<polygon fill="#80b1d3" stroke="transparent" points="1174,-10 1174,-30 1194,-30 1194,-10 1174,-10"/>
<text text-anchor="start" x="1197.78" y="-15.4" font-family="Times-12" font-size="14.00"> &#160;Bootstrap</text>
<polygon fill="#fdb462" stroke="transparent" points="1271,-10 1271,-30 1291,-30 1291,-10 1271,-10"/>
<text text-anchor="start" x="1294.67" y="-15.4" font-family="Times-12" font-size="14.00"> &#160;Providers</text>
<polygon fill="#fb8072" stroke="transparent" points="1367,-10 1367,-30 1387,-30 1387,-10 1367,-10"/>
<text text-anchor="start" x="1390.73" y="-15.4" font-family="Times-12" font-size="14.00"> &#160;Exports</text>
<g id="clust1" class="cluster">
<title>cluster_ClusterReleasesNewModule</title>
<polygon fill="none" stroke="black" stroke-dasharray="1,5" points="8,-70 8,-268 2410,-268 2410,-70 8,-70"/>
</g>
<g id="clust9" class="cluster">
<title>cluster_ClusterReleasesNewModule_imports</title>
<polygon fill="none" stroke="black" points="1355,-78 1355,-130 2402,-130 2402,-78 1355,-78"/>
</g>
<g id="clust10" class="cluster">
<title>cluster_ClusterReleasesNewModule_exports</title>
<polygon fill="none" stroke="black" points="1224,-208 1224,-260 1446,-260 1446,-208 1224,-208"/>
</g>
<g id="clust2" class="cluster">
<title>cluster_ClusterReleasesNewModule_declarations</title>
<polygon fill="none" stroke="black" points="16,-78 16,-130 1347,-130 1347,-78 16,-78"/>
</g>
<!-- ClusterReleaseModalComponent -->
<g id="node1" class="node">
<title>ClusterReleaseModalComponent</title>
<polygon fill="#ffffb3" stroke="black" points="1338.85,-122 1137.15,-122 1137.15,-86 1338.85,-86 1338.85,-122"/>
<text text-anchor="middle" x="1238" y="-99.8" font-family="Times,serif" font-size="14.00">ClusterReleaseModalComponent</text>
</g>
<!-- ClusterReleasesNewModule -->
<g id="node7" class="node">
<title>ClusterReleasesNewModule</title>
<polygon fill="#8dd3c7" stroke="black" points="1422.89,-187 1419.89,-191 1398.89,-191 1395.89,-187 1247.11,-187 1247.11,-151 1422.89,-151 1422.89,-187"/>
<text text-anchor="middle" x="1335" y="-164.8" font-family="Times,serif" font-size="14.00">ClusterReleasesNewModule</text>
</g>
<!-- ClusterReleaseModalComponent&#45;&gt;ClusterReleasesNewModule -->
<g id="edge1" class="edge">
<title>ClusterReleaseModalComponent&#45;&gt;ClusterReleasesNewModule</title>
<path fill="none" stroke="black" d="M1293.12,-122.11C1293.12,-122.11 1293.12,-140.99 1293.12,-140.99"/>
<polygon fill="black" stroke="black" points="1289.62,-140.99 1293.12,-150.99 1296.62,-140.99 1289.62,-140.99"/>
</g>
<!-- ClusterReleasesNewComponent -->
<g id="node2" class="node">
<title>ClusterReleasesNewComponent</title>
<polygon fill="#ffffb3" stroke="black" points="1118.67,-122 921.33,-122 921.33,-86 1118.67,-86 1118.67,-122"/>
<text text-anchor="middle" x="1020" y="-99.8" font-family="Times,serif" font-size="14.00">ClusterReleasesNewComponent</text>
</g>
<!-- ClusterReleasesNewComponent&#45;&gt;ClusterReleasesNewModule -->
<g id="edge2" class="edge">
<title>ClusterReleasesNewComponent&#45;&gt;ClusterReleasesNewModule</title>
<path fill="none" stroke="black" d="M1020,-122.24C1020,-137.57 1020,-157 1020,-157 1020,-157 1237.25,-157 1237.25,-157"/>
<polygon fill="black" stroke="black" points="1237.25,-160.5 1247.25,-157 1237.25,-153.5 1237.25,-160.5"/>
</g>
<!-- ClusterReleasesOverviewComponent -->
<g id="node3" class="node">
<title>ClusterReleasesOverviewComponent</title>
<polygon fill="#ffffb3" stroke="black" points="902.94,-122 677.06,-122 677.06,-86 902.94,-86 902.94,-122"/>
<text text-anchor="middle" x="790" y="-99.8" font-family="Times,serif" font-size="14.00">ClusterReleasesOverviewComponent</text>
</g>
<!-- ClusterReleasesOverviewComponent&#45;&gt;ClusterReleasesNewModule -->
<g id="edge3" class="edge">
<title>ClusterReleasesOverviewComponent&#45;&gt;ClusterReleasesNewModule</title>
<path fill="none" stroke="black" d="M790,-122.02C790,-139.37 790,-163 790,-163 790,-163 1237.13,-163 1237.13,-163"/>
<polygon fill="black" stroke="black" points="1237.13,-166.5 1247.13,-163 1237.13,-159.5 1237.13,-166.5"/>
</g>
<!-- ClusterReleasesValidationsComponent -->
<g id="node4" class="node">
<title>ClusterReleasesValidationsComponent</title>
<polygon fill="#ffffb3" stroke="black" points="658.79,-122 423.21,-122 423.21,-86 658.79,-86 658.79,-122"/>
<text text-anchor="middle" x="541" y="-99.8" font-family="Times,serif" font-size="14.00">ClusterReleasesValidationsComponent</text>
</g>
<!-- ClusterReleasesValidationsComponent&#45;&gt;ClusterReleasesNewModule -->
<g id="edge4" class="edge">
<title>ClusterReleasesValidationsComponent&#45;&gt;ClusterReleasesNewModule</title>
<path fill="none" stroke="black" d="M541,-122.11C541,-141.34 541,-169 541,-169 541,-169 1236.99,-169 1236.99,-169"/>
<polygon fill="black" stroke="black" points="1236.99,-172.5 1246.99,-169 1236.99,-165.5 1236.99,-172.5"/>
</g>
<!-- SmartTableLinkComponent -->
<g id="node5" class="node">
<title>SmartTableLinkComponent</title>
<polygon fill="#ffffb3" stroke="black" points="405.59,-122 232.41,-122 232.41,-86 405.59,-86 405.59,-122"/>
<text text-anchor="middle" x="319" y="-99.8" font-family="Times,serif" font-size="14.00">SmartTableLinkComponent</text>
</g>
<!-- SmartTableLinkComponent&#45;&gt;ClusterReleasesNewModule -->
<g id="edge5" class="edge">
<title>SmartTableLinkComponent&#45;&gt;ClusterReleasesNewModule</title>
<path fill="none" stroke="black" d="M319,-122.28C319,-143.32 319,-175 319,-175 319,-175 1237.06,-175 1237.06,-175"/>
<polygon fill="black" stroke="black" points="1237.06,-178.5 1247.06,-175 1237.06,-171.5 1237.06,-178.5"/>
</g>
<!-- ValidationInfoCardComponent -->
<g id="node6" class="node">
<title>ValidationInfoCardComponent</title>
<polygon fill="#ffffb3" stroke="black" points="214.46,-122 23.54,-122 23.54,-86 214.46,-86 214.46,-122"/>
<text text-anchor="middle" x="119" y="-99.8" font-family="Times,serif" font-size="14.00">ValidationInfoCardComponent</text>
</g>
<!-- ValidationInfoCardComponent&#45;&gt;ClusterReleasesNewModule -->
<g id="edge6" class="edge">
<title>ValidationInfoCardComponent&#45;&gt;ClusterReleasesNewModule</title>
<path fill="none" stroke="black" d="M119,-122.25C119,-145.02 119,-181 119,-181 119,-181 1237.06,-181 1237.06,-181"/>
<polygon fill="black" stroke="black" points="1237.06,-184.5 1247.06,-181 1237.06,-177.5 1237.06,-184.5"/>
</g>
<!-- ClusterReleaseModalComponent  -->
<g id="node14" class="node">
<title>ClusterReleaseModalComponent </title>
<polygon fill="#fb8072" stroke="black" points="1437.85,-252 1232.15,-252 1232.15,-216 1437.85,-216 1437.85,-252"/>
<text text-anchor="middle" x="1335" y="-229.8" font-family="Times,serif" font-size="14.00">ClusterReleaseModalComponent </text>
</g>
<!-- ClusterReleasesNewModule&#45;&gt;ClusterReleaseModalComponent  -->
<g id="edge13" class="edge">
<title>ClusterReleasesNewModule&#45;&gt;ClusterReleaseModalComponent </title>
<path fill="none" stroke="black" stroke-dasharray="5,2" d="M1335,-187.11C1335,-187.11 1335,-205.99 1335,-205.99"/>
<polygon fill="black" stroke="black" points="1331.5,-205.99 1335,-215.99 1338.5,-205.99 1331.5,-205.99"/>
</g>
<!-- ClusterErrorDetailsModule -->
<g id="node8" class="node">
<title>ClusterErrorDetailsModule</title>
<polygon fill="#8dd3c7" stroke="black" points="2393.67,-122 2390.67,-126 2369.67,-126 2366.67,-122 2224.33,-122 2224.33,-86 2393.67,-86 2393.67,-122"/>
<text text-anchor="middle" x="2309" y="-99.8" font-family="Times,serif" font-size="14.00">ClusterErrorDetailsModule</text>
</g>
<!-- ClusterErrorDetailsModule&#45;&gt;ClusterReleasesNewModule -->
<g id="edge7" class="edge">
<title>ClusterErrorDetailsModule&#45;&gt;ClusterReleasesNewModule</title>
<path fill="none" stroke="black" d="M2309,-122.25C2309,-145.02 2309,-181 2309,-181 2309,-181 1432.72,-181 1432.72,-181"/>
<polygon fill="black" stroke="black" points="1432.72,-177.5 1422.72,-181 1432.72,-184.5 1432.72,-177.5"/>
</g>
<!-- ClusterReleasesNewRoutingModule -->
<g id="node9" class="node">
<title>ClusterReleasesNewRoutingModule</title>
<polygon fill="#8dd3c7" stroke="black" points="2206.01,-122 2203.01,-126 2182.01,-126 2179.01,-122 1985.99,-122 1985.99,-86 2206.01,-86 2206.01,-122"/>
<text text-anchor="middle" x="2096" y="-99.8" font-family="Times,serif" font-size="14.00">ClusterReleasesNewRoutingModule</text>
</g>
<!-- ClusterReleasesNewRoutingModule&#45;&gt;ClusterReleasesNewModule -->
<g id="edge8" class="edge">
<title>ClusterReleasesNewRoutingModule&#45;&gt;ClusterReleasesNewModule</title>
<path fill="none" stroke="black" d="M2096,-122.28C2096,-143.32 2096,-175 2096,-175 2096,-175 1433.04,-175 1433.04,-175"/>
<polygon fill="black" stroke="black" points="1433.04,-171.5 1423.04,-175 1433.04,-178.5 1433.04,-171.5"/>
</g>
<!-- ClusterTerminalModule -->
<g id="node10" class="node">
<title>ClusterTerminalModule</title>
<polygon fill="#8dd3c7" stroke="black" points="1967.8,-122 1964.8,-126 1943.8,-126 1940.8,-122 1816.2,-122 1816.2,-86 1967.8,-86 1967.8,-122"/>
<text text-anchor="middle" x="1892" y="-99.8" font-family="Times,serif" font-size="14.00">ClusterTerminalModule</text>
</g>
<!-- ClusterTerminalModule&#45;&gt;ClusterReleasesNewModule -->
<g id="edge9" class="edge">
<title>ClusterTerminalModule&#45;&gt;ClusterReleasesNewModule</title>
<path fill="none" stroke="black" d="M1892,-122.11C1892,-141.34 1892,-169 1892,-169 1892,-169 1432.95,-169 1432.95,-169"/>
<polygon fill="black" stroke="black" points="1432.95,-165.5 1422.95,-169 1432.95,-172.5 1432.95,-165.5"/>
</g>
<!-- ClusterTfVersionModule -->
<g id="node11" class="node">
<title>ClusterTfVersionModule</title>
<polygon fill="#8dd3c7" stroke="black" points="1798.52,-122 1795.52,-126 1774.52,-126 1771.52,-122 1641.48,-122 1641.48,-86 1798.52,-86 1798.52,-122"/>
<text text-anchor="middle" x="1720" y="-99.8" font-family="Times,serif" font-size="14.00">ClusterTfVersionModule</text>
</g>
<!-- ClusterTfVersionModule&#45;&gt;ClusterReleasesNewModule -->
<g id="edge10" class="edge">
<title>ClusterTfVersionModule&#45;&gt;ClusterReleasesNewModule</title>
<path fill="none" stroke="black" d="M1720,-122.02C1720,-139.37 1720,-163 1720,-163 1720,-163 1432.84,-163 1432.84,-163"/>
<polygon fill="black" stroke="black" points="1432.84,-159.5 1422.84,-163 1432.84,-166.5 1432.84,-159.5"/>
</g>
<!-- LayoutsModule -->
<g id="node12" class="node">
<title>LayoutsModule</title>
<polygon fill="#8dd3c7" stroke="black" points="1623.15,-122 1620.15,-126 1599.15,-126 1596.15,-122 1518.85,-122 1518.85,-86 1623.15,-86 1623.15,-122"/>
<text text-anchor="middle" x="1571" y="-99.8" font-family="Times,serif" font-size="14.00">LayoutsModule</text>
</g>
<!-- LayoutsModule&#45;&gt;ClusterReleasesNewModule -->
<g id="edge11" class="edge">
<title>LayoutsModule&#45;&gt;ClusterReleasesNewModule</title>
<path fill="none" stroke="black" d="M1571,-122.24C1571,-137.57 1571,-157 1571,-157 1571,-157 1432.88,-157 1432.88,-157"/>
<polygon fill="black" stroke="black" points="1432.88,-153.5 1422.88,-157 1432.88,-160.5 1432.88,-153.5"/>
</g>
<!-- SmoothWidthModule -->
<g id="node13" class="node">
<title>SmoothWidthModule</title>
<polygon fill="#8dd3c7" stroke="black" points="1501.11,-122 1498.11,-126 1477.11,-126 1474.11,-122 1362.89,-122 1362.89,-86 1501.11,-86 1501.11,-122"/>
<text text-anchor="middle" x="1432" y="-99.8" font-family="Times,serif" font-size="14.00">SmoothWidthModule</text>
</g>
<!-- SmoothWidthModule&#45;&gt;ClusterReleasesNewModule -->
<g id="edge12" class="edge">
<title>SmoothWidthModule&#45;&gt;ClusterReleasesNewModule</title>
<path fill="none" stroke="black" d="M1392.82,-122.11C1392.82,-122.11 1392.82,-140.99 1392.82,-140.99"/>
<polygon fill="black" stroke="black" points="1389.32,-140.99 1392.82,-150.99 1396.32,-140.99 1389.32,-140.99"/>
</g>
</g>
</svg>
