<?xml version="1.0" encoding="UTF-8" standalone="no"?>
<!DOCTYPE svg PUBLIC "-//W3C//DTD SVG 1.1//EN"
 "http://www.w3.org/Graphics/SVG/1.1/DTD/svg11.dtd">
<!-- Generated by graphviz version 2.47.0 (20210316.0004)
 -->
<!-- Title: dependencies Pages: 1 -->
<svg width="504pt" height="284pt"
 viewBox="0.00 0.00 504.00 284.00" xmlns="http://www.w3.org/2000/svg" xmlns:xlink="http://www.w3.org/1999/xlink">
<g id="graph0" class="graph" transform="scale(1 1) rotate(0) translate(4 280)">
<title>dependencies</title>
<polygon fill="white" stroke="transparent" points="-4,4 -4,-280 500,-280 500,4 -4,4"/>
<text text-anchor="start" x="227.01" y="-42.4" font-family="Times-12" font-weight="bold" font-size="14.00">Legend</text>
<polygon fill="#ffffb3" stroke="transparent" points="14,-10 14,-30 34,-30 34,-10 14,-10"/>
<text text-anchor="start" x="37.63" y="-15.4" font-family="Times-12" font-size="14.00"> &#160;Declarations</text>
<polygon fill="#8dd3c7" stroke="transparent" points="127,-10 127,-30 147,-30 147,-10 127,-10"/>
<text text-anchor="start" x="150.73" y="-15.4" font-family="Times-12" font-size="14.00"> &#160;Module</text>
<polygon fill="#80b1d3" stroke="transparent" points="213,-10 213,-30 233,-30 233,-10 213,-10"/>
<text text-anchor="start" x="236.78" y="-15.4" font-family="Times-12" font-size="14.00"> &#160;Bootstrap</text>
<polygon fill="#fdb462" stroke="transparent" points="310,-10 310,-30 330,-30 330,-10 310,-10"/>
<text text-anchor="start" x="333.67" y="-15.4" font-family="Times-12" font-size="14.00"> &#160;Providers</text>
<polygon fill="#fb8072" stroke="transparent" points="406,-10 406,-30 426,-30 426,-10 406,-10"/>
<text text-anchor="start" x="429.73" y="-15.4" font-family="Times-12" font-size="14.00"> &#160;Exports</text>
<g id="clust1" class="cluster">
<title>cluster_DirectivesModule</title>
<polygon fill="none" stroke="black" stroke-dasharray="1,5" points="22,-70 22,-268 474,-268 474,-70 22,-70"/>
</g>
<g id="clust2" class="cluster">
<title>cluster_DirectivesModule_declarations</title>
<polygon fill="none" stroke="black" points="34,-78 34,-130 463,-130 463,-78 34,-78"/>
</g>
<g id="clust6" class="cluster">
<title>cluster_DirectivesModule_exports</title>
<polygon fill="none" stroke="black" points="30,-208 30,-260 466,-260 466,-208 30,-208"/>
</g>
<!-- MinimumOptionSelectionValidationDirective -->
<g id="node1" class="node">
<title>MinimumOptionSelectionValidationDirective</title>
<polygon fill="#ffffb3" stroke="black" points="455.17,-122 180.83,-122 180.83,-86 455.17,-86 455.17,-122"/>
<text text-anchor="middle" x="318" y="-99.8" font-family="Times,serif" font-size="14.00">MinimumOptionSelectionValidationDirective</text>
</g>
<!-- DirectivesModule -->
<g id="node3" class="node">
<title>DirectivesModule</title>
<polygon fill="#8dd3c7" stroke="black" points="161.58,-187 158.58,-191 137.58,-191 134.58,-187 44.42,-187 44.42,-151 161.58,-151 161.58,-187"/>
<text text-anchor="middle" x="103" y="-164.8" font-family="Times,serif" font-size="14.00">DirectivesModule</text>
</g>
<!-- MinimumOptionSelectionValidationDirective&#45;&gt;DirectivesModule -->
<g id="edge1" class="edge">
<title>MinimumOptionSelectionValidationDirective&#45;&gt;DirectivesModule</title>
<path fill="none" stroke="black" d="M363.7,-122.02C363.7,-139.37 363.7,-163 363.7,-163 363.7,-163 171.83,-163 171.83,-163"/>
<polygon fill="black" stroke="black" points="171.83,-159.5 161.83,-163 171.83,-166.5 171.83,-159.5"/>
</g>
<!-- UserRoleDirective -->
<g id="node2" class="node">
<title>UserRoleDirective</title>
<polygon fill="#ffffb3" stroke="black" points="162.45,-122 41.55,-122 41.55,-86 162.45,-86 162.45,-122"/>
<text text-anchor="middle" x="102" y="-99.8" font-family="Times,serif" font-size="14.00">UserRoleDirective</text>
</g>
<!-- UserRoleDirective&#45;&gt;DirectivesModule -->
<g id="edge2" class="edge">
<title>UserRoleDirective&#45;&gt;DirectivesModule</title>
<path fill="none" stroke="black" d="M103,-122.11C103,-122.11 103,-140.99 103,-140.99"/>
<polygon fill="black" stroke="black" points="99.5,-140.99 103,-150.99 106.5,-140.99 99.5,-140.99"/>
</g>
<!-- MinimumOptionSelectionValidationDirective  -->
<g id="node4" class="node">
<title>MinimumOptionSelectionValidationDirective </title>
<polygon fill="#fb8072" stroke="black" points="457.67,-252 180.33,-252 180.33,-216 457.67,-216 457.67,-252"/>
<text text-anchor="middle" x="319" y="-229.8" font-family="Times,serif" font-size="14.00">MinimumOptionSelectionValidationDirective </text>
</g>
<!-- DirectivesModule&#45;&gt;MinimumOptionSelectionValidationDirective  -->
<g id="edge3" class="edge">
<title>DirectivesModule&#45;&gt;MinimumOptionSelectionValidationDirective </title>
<path fill="none" stroke="black" stroke-dasharray="5,2" d="M161.74,-175C210.64,-175 272.3,-175 272.3,-175 272.3,-175 272.3,-205.98 272.3,-205.98"/>
<polygon fill="black" stroke="black" points="268.8,-205.98 272.3,-215.98 275.8,-205.98 268.8,-205.98"/>
</g>
<!-- UserRoleDirective  -->
<g id="node5" class="node">
<title>UserRoleDirective </title>
<polygon fill="#fb8072" stroke="black" points="162.45,-252 37.55,-252 37.55,-216 162.45,-216 162.45,-252"/>
<text text-anchor="middle" x="100" y="-229.8" font-family="Times,serif" font-size="14.00">UserRoleDirective </text>
</g>
<!-- DirectivesModule&#45;&gt;UserRoleDirective  -->
<g id="edge4" class="edge">
<title>DirectivesModule&#45;&gt;UserRoleDirective </title>
<path fill="none" stroke="black" stroke-dasharray="5,2" d="M103,-187.11C103,-187.11 103,-205.99 103,-205.99"/>
<polygon fill="black" stroke="black" points="99.5,-205.99 103,-215.99 106.5,-205.99 99.5,-205.99"/>
</g>
</g>
</svg>
