<?xml version="1.0" encoding="UTF-8" standalone="no"?>
<!DOCTYPE svg PUBLIC "-//W3C//DTD SVG 1.1//EN"
 "http://www.w3.org/Graphics/SVG/1.1/DTD/svg11.dtd">
<!-- Generated by graphviz version 2.47.0 (20210316.0004)
 -->
<!-- Title: dependencies Pages: 1 -->
<svg width="556pt" height="211pt"
 viewBox="0.00 0.00 556.00 211.00" xmlns="http://www.w3.org/2000/svg" xmlns:xlink="http://www.w3.org/1999/xlink">
<g id="graph0" class="graph" transform="scale(1 1) rotate(0) translate(4 207)">
<title>dependencies</title>
<polygon fill="white" stroke="transparent" points="-4,4 -4,-207 552,-207 552,4 -4,4"/>
<text text-anchor="start" x="253.01" y="-42.4" font-family="Times-12" font-weight="bold" font-size="14.00">Legend</text>
<polygon fill="#ffffb3" stroke="transparent" points="40,-10 40,-30 60,-30 60,-10 40,-10"/>
<text text-anchor="start" x="63.63" y="-15.4" font-family="Times-12" font-size="14.00"> &#160;Declarations</text>
<polygon fill="#8dd3c7" stroke="transparent" points="153,-10 153,-30 173,-30 173,-10 153,-10"/>
<text text-anchor="start" x="176.73" y="-15.4" font-family="Times-12" font-size="14.00"> &#160;Module</text>
<polygon fill="#80b1d3" stroke="transparent" points="239,-10 239,-30 259,-30 259,-10 239,-10"/>
<text text-anchor="start" x="262.78" y="-15.4" font-family="Times-12" font-size="14.00"> &#160;Bootstrap</text>
<polygon fill="#fdb462" stroke="transparent" points="336,-10 336,-30 356,-30 356,-10 336,-10"/>
<text text-anchor="start" x="359.67" y="-15.4" font-family="Times-12" font-size="14.00"> &#160;Providers</text>
<polygon fill="#fb8072" stroke="transparent" points="432,-10 432,-30 452,-30 452,-10 432,-10"/>
<text text-anchor="start" x="455.73" y="-15.4" font-family="Times-12" font-size="14.00"> &#160;Exports</text>
<g id="clust1" class="cluster">
<title>cluster_ArtifactsCreatePromotionModule</title>
<polygon fill="none" stroke="black" stroke-dasharray="1,5" points="8,-70 8,-195 540,-195 540,-70 8,-70"/>
</g>
<g id="clust2" class="cluster">
<title>cluster_ArtifactsCreatePromotionModule_declarations</title>
<polygon fill="none" stroke="black" points="290,-78 290,-130 532,-130 532,-78 290,-78"/>
</g>
<g id="clust4" class="cluster">
<title>cluster_ArtifactsCreatePromotionModule_imports</title>
<polygon fill="none" stroke="black" points="16,-78 16,-130 282,-130 282,-78 16,-78"/>
</g>
<!-- ArtifactsCreatePromotionComponent -->
<g id="node1" class="node">
<title>ArtifactsCreatePromotionComponent</title>
<polygon fill="#ffffb3" stroke="black" points="523.95,-122 298.05,-122 298.05,-86 523.95,-86 523.95,-122"/>
<text text-anchor="middle" x="411" y="-99.8" font-family="Times,serif" font-size="14.00">ArtifactsCreatePromotionComponent</text>
</g>
<!-- ArtifactsCreatePromotionModule -->
<g id="node2" class="node">
<title>ArtifactsCreatePromotionModule</title>
<polygon fill="#8dd3c7" stroke="black" points="382.17,-187 379.17,-191 358.17,-191 355.17,-187 177.83,-187 177.83,-151 382.17,-151 382.17,-187"/>
<text text-anchor="middle" x="280" y="-164.8" font-family="Times,serif" font-size="14.00">ArtifactsCreatePromotionModule</text>
</g>
<!-- ArtifactsCreatePromotionComponent&#45;&gt;ArtifactsCreatePromotionModule -->
<g id="edge1" class="edge">
<title>ArtifactsCreatePromotionComponent&#45;&gt;ArtifactsCreatePromotionModule</title>
<path fill="none" stroke="black" d="M340.05,-122.11C340.05,-122.11 340.05,-140.99 340.05,-140.99"/>
<polygon fill="black" stroke="black" points="336.55,-140.99 340.05,-150.99 343.55,-140.99 336.55,-140.99"/>
</g>
<!-- ArtifactsCreatePromotionRoutingModule -->
<g id="node3" class="node">
<title>ArtifactsCreatePromotionRoutingModule</title>
<polygon fill="#8dd3c7" stroke="black" points="273.79,-122 270.79,-126 249.79,-126 246.79,-122 24.21,-122 24.21,-86 273.79,-86 273.79,-122"/>
<text text-anchor="middle" x="149" y="-99.8" font-family="Times,serif" font-size="14.00">ArtifactsCreatePromotionRoutingModule</text>
</g>
<!-- ArtifactsCreatePromotionRoutingModule&#45;&gt;ArtifactsCreatePromotionModule -->
<g id="edge2" class="edge">
<title>ArtifactsCreatePromotionRoutingModule&#45;&gt;ArtifactsCreatePromotionModule</title>
<path fill="none" stroke="black" d="M225.78,-122.11C225.78,-122.11 225.78,-140.99 225.78,-140.99"/>
<polygon fill="black" stroke="black" points="222.28,-140.99 225.78,-150.99 229.28,-140.99 222.28,-140.99"/>
</g>
</g>
</svg>
