<?xml version="1.0" encoding="UTF-8" standalone="no"?>
<!DOCTYPE svg PUBLIC "-//W3C//DTD SVG 1.1//EN"
 "http://www.w3.org/Graphics/SVG/1.1/DTD/svg11.dtd">
<!-- Generated by graphviz version 2.47.0 (20210316.0004)
 -->
<!-- Title: dependencies Pages: 1 -->
<svg width="1338pt" height="284pt"
 viewBox="0.00 0.00 1338.00 284.00" xmlns="http://www.w3.org/2000/svg" xmlns:xlink="http://www.w3.org/1999/xlink">
<g id="graph0" class="graph" transform="scale(1 1) rotate(0) translate(4 280)">
<title>dependencies</title>
<polygon fill="white" stroke="transparent" points="-4,4 -4,-280 1334,-280 1334,4 -4,4"/>
<text text-anchor="start" x="644.01" y="-42.4" font-family="Times-12" font-weight="bold" font-size="14.00">Legend</text>
<polygon fill="#ffffb3" stroke="transparent" points="431,-10 431,-30 451,-30 451,-10 431,-10"/>
<text text-anchor="start" x="454.63" y="-15.4" font-family="Times-12" font-size="14.00"> &#160;Declarations</text>
<polygon fill="#8dd3c7" stroke="transparent" points="544,-10 544,-30 564,-30 564,-10 544,-10"/>
<text text-anchor="start" x="567.73" y="-15.4" font-family="Times-12" font-size="14.00"> &#160;Module</text>
<polygon fill="#80b1d3" stroke="transparent" points="630,-10 630,-30 650,-30 650,-10 630,-10"/>
<text text-anchor="start" x="653.78" y="-15.4" font-family="Times-12" font-size="14.00"> &#160;Bootstrap</text>
<polygon fill="#fdb462" stroke="transparent" points="727,-10 727,-30 747,-30 747,-10 727,-10"/>
<text text-anchor="start" x="750.67" y="-15.4" font-family="Times-12" font-size="14.00"> &#160;Providers</text>
<polygon fill="#fb8072" stroke="transparent" points="823,-10 823,-30 843,-30 843,-10 823,-10"/>
<text text-anchor="start" x="846.73" y="-15.4" font-family="Times-12" font-size="14.00"> &#160;Exports</text>
<g id="clust1" class="cluster">
<title>cluster_ClusterOverviewAssemblerModule</title>
<polygon fill="none" stroke="black" stroke-dasharray="1,5" points="8,-70 8,-268 1322,-268 1322,-70 8,-70"/>
</g>
<g id="clust7" class="cluster">
<title>cluster_ClusterOverviewAssemblerModule_exports</title>
<polygon fill="none" stroke="black" points="451,-208 451,-260 703,-260 703,-208 451,-208"/>
</g>
<g id="clust2" class="cluster">
<title>cluster_ClusterOverviewAssemblerModule_declarations</title>
<polygon fill="none" stroke="black" points="598,-78 598,-130 1314,-130 1314,-78 598,-78"/>
</g>
<g id="clust6" class="cluster">
<title>cluster_ClusterOverviewAssemblerModule_imports</title>
<polygon fill="none" stroke="black" points="16,-78 16,-130 590,-130 590,-78 16,-78"/>
</g>
<!-- ClusterOverviewAssemblerComponent -->
<g id="node1" class="node">
<title>ClusterOverviewAssemblerComponent</title>
<polygon fill="#ffffb3" stroke="black" points="1306.33,-122 1069.67,-122 1069.67,-86 1306.33,-86 1306.33,-122"/>
<text text-anchor="middle" x="1188" y="-99.8" font-family="Times,serif" font-size="14.00">ClusterOverviewAssemblerComponent</text>
</g>
<!-- ClusterOverviewAssemblerModule -->
<g id="node4" class="node">
<title>ClusterOverviewAssemblerModule</title>
<polygon fill="#8dd3c7" stroke="black" points="684.55,-187 681.55,-191 660.55,-191 657.55,-187 469.45,-187 469.45,-151 684.55,-151 684.55,-187"/>
<text text-anchor="middle" x="577" y="-164.8" font-family="Times,serif" font-size="14.00">ClusterOverviewAssemblerModule</text>
</g>
<!-- ClusterOverviewAssemblerComponent&#45;&gt;ClusterOverviewAssemblerModule -->
<g id="edge1" class="edge">
<title>ClusterOverviewAssemblerComponent&#45;&gt;ClusterOverviewAssemblerModule</title>
<path fill="none" stroke="black" d="M1188,-122.28C1188,-143.32 1188,-175 1188,-175 1188,-175 694.83,-175 694.83,-175"/>
<polygon fill="black" stroke="black" points="694.83,-171.5 684.83,-175 694.83,-178.5 694.83,-171.5"/>
</g>
<!-- ClusterResourceAllocationComponent -->
<g id="node2" class="node">
<title>ClusterResourceAllocationComponent</title>
<polygon fill="#ffffb3" stroke="black" points="1051.45,-122 818.55,-122 818.55,-86 1051.45,-86 1051.45,-122"/>
<text text-anchor="middle" x="935" y="-99.8" font-family="Times,serif" font-size="14.00">ClusterResourceAllocationComponent</text>
</g>
<!-- ClusterResourceAllocationComponent&#45;&gt;ClusterOverviewAssemblerModule -->
<g id="edge2" class="edge">
<title>ClusterResourceAllocationComponent&#45;&gt;ClusterOverviewAssemblerModule</title>
<path fill="none" stroke="black" d="M935,-122.02C935,-139.37 935,-163 935,-163 935,-163 694.9,-163 694.9,-163"/>
<polygon fill="black" stroke="black" points="694.9,-159.5 684.9,-163 694.9,-166.5 694.9,-159.5"/>
</g>
<!-- ComponentUpgradeComponent -->
<g id="node3" class="node">
<title>ComponentUpgradeComponent</title>
<polygon fill="#ffffb3" stroke="black" points="800.36,-122 605.64,-122 605.64,-86 800.36,-86 800.36,-122"/>
<text text-anchor="middle" x="703" y="-99.8" font-family="Times,serif" font-size="14.00">ComponentUpgradeComponent</text>
</g>
<!-- ComponentUpgradeComponent&#45;&gt;ClusterOverviewAssemblerModule -->
<g id="edge3" class="edge">
<title>ComponentUpgradeComponent&#45;&gt;ClusterOverviewAssemblerModule</title>
<path fill="none" stroke="black" d="M645.05,-122.11C645.05,-122.11 645.05,-140.99 645.05,-140.99"/>
<polygon fill="black" stroke="black" points="641.55,-140.99 645.05,-150.99 648.55,-140.99 641.55,-140.99"/>
</g>
<!-- ClusterResourceAllocationComponent  -->
<g id="node8" class="node">
<title>ClusterResourceAllocationComponent </title>
<polygon fill="#fb8072" stroke="black" points="695.45,-252 458.55,-252 458.55,-216 695.45,-216 695.45,-252"/>
<text text-anchor="middle" x="577" y="-229.8" font-family="Times,serif" font-size="14.00">ClusterResourceAllocationComponent </text>
</g>
<!-- ClusterOverviewAssemblerModule&#45;&gt;ClusterResourceAllocationComponent  -->
<g id="edge7" class="edge">
<title>ClusterOverviewAssemblerModule&#45;&gt;ClusterResourceAllocationComponent </title>
<path fill="none" stroke="black" stroke-dasharray="5,2" d="M577,-187.11C577,-187.11 577,-205.99 577,-205.99"/>
<polygon fill="black" stroke="black" points="573.5,-205.99 577,-215.99 580.5,-205.99 573.5,-205.99"/>
</g>
<!-- ClusterOverviewAssemblerRoutingModule -->
<g id="node5" class="node">
<title>ClusterOverviewAssemblerRoutingModule</title>
<polygon fill="#8dd3c7" stroke="black" points="582.17,-122 579.17,-126 558.17,-126 555.17,-122 321.83,-122 321.83,-86 582.17,-86 582.17,-122"/>
<text text-anchor="middle" x="452" y="-99.8" font-family="Times,serif" font-size="14.00">ClusterOverviewAssemblerRoutingModule</text>
</g>
<!-- ClusterOverviewAssemblerRoutingModule&#45;&gt;ClusterOverviewAssemblerModule -->
<g id="edge4" class="edge">
<title>ClusterOverviewAssemblerRoutingModule&#45;&gt;ClusterOverviewAssemblerModule</title>
<path fill="none" stroke="black" d="M525.78,-122.11C525.78,-122.11 525.78,-140.99 525.78,-140.99"/>
<polygon fill="black" stroke="black" points="522.28,-140.99 525.78,-150.99 529.28,-140.99 522.28,-140.99"/>
</g>
<!-- ClusterTfVersionModule -->
<g id="node6" class="node">
<title>ClusterTfVersionModule</title>
<polygon fill="#8dd3c7" stroke="black" points="303.52,-122 300.52,-126 279.52,-126 276.52,-122 146.48,-122 146.48,-86 303.52,-86 303.52,-122"/>
<text text-anchor="middle" x="225" y="-99.8" font-family="Times,serif" font-size="14.00">ClusterTfVersionModule</text>
</g>
<!-- ClusterTfVersionModule&#45;&gt;ClusterOverviewAssemblerModule -->
<g id="edge5" class="edge">
<title>ClusterTfVersionModule&#45;&gt;ClusterOverviewAssemblerModule</title>
<path fill="none" stroke="black" d="M225,-122.02C225,-139.37 225,-163 225,-163 225,-163 459.48,-163 459.48,-163"/>
<polygon fill="black" stroke="black" points="459.48,-166.5 469.48,-163 459.48,-159.5 459.48,-166.5"/>
</g>
<!-- LayoutsModule -->
<g id="node7" class="node">
<title>LayoutsModule</title>
<polygon fill="#8dd3c7" stroke="black" points="128.15,-122 125.15,-126 104.15,-126 101.15,-122 23.85,-122 23.85,-86 128.15,-86 128.15,-122"/>
<text text-anchor="middle" x="76" y="-99.8" font-family="Times,serif" font-size="14.00">LayoutsModule</text>
</g>
<!-- LayoutsModule&#45;&gt;ClusterOverviewAssemblerModule -->
<g id="edge6" class="edge">
<title>LayoutsModule&#45;&gt;ClusterOverviewAssemblerModule</title>
<path fill="none" stroke="black" d="M76,-122.28C76,-143.32 76,-175 76,-175 76,-175 459.22,-175 459.22,-175"/>
<polygon fill="black" stroke="black" points="459.22,-178.5 469.22,-175 459.22,-171.5 459.22,-178.5"/>
</g>
</g>
</svg>
