<?xml version="1.0" encoding="UTF-8" standalone="no"?>
<!DOCTYPE svg PUBLIC "-//W3C//DTD SVG 1.1//EN"
 "http://www.w3.org/Graphics/SVG/1.1/DTD/svg11.dtd">
<!-- Generated by graphviz version 2.47.0 (20210316.0004)
 -->
<!-- Title: dependencies Pages: 1 -->
<svg width="598pt" height="284pt"
 viewBox="0.00 0.00 598.00 284.00" xmlns="http://www.w3.org/2000/svg" xmlns:xlink="http://www.w3.org/1999/xlink">
<g id="graph0" class="graph" transform="scale(1 1) rotate(0) translate(4 280)">
<title>dependencies</title>
<polygon fill="white" stroke="transparent" points="-4,4 -4,-280 594,-280 594,4 -4,4"/>
<text text-anchor="start" x="274.01" y="-42.4" font-family="Times-12" font-weight="bold" font-size="14.00">Legend</text>
<polygon fill="#ffffb3" stroke="transparent" points="61,-10 61,-30 81,-30 81,-10 61,-10"/>
<text text-anchor="start" x="84.63" y="-15.4" font-family="Times-12" font-size="14.00"> &#160;Declarations</text>
<polygon fill="#8dd3c7" stroke="transparent" points="174,-10 174,-30 194,-30 194,-10 174,-10"/>
<text text-anchor="start" x="197.73" y="-15.4" font-family="Times-12" font-size="14.00"> &#160;Module</text>
<polygon fill="#80b1d3" stroke="transparent" points="260,-10 260,-30 280,-30 280,-10 260,-10"/>
<text text-anchor="start" x="283.78" y="-15.4" font-family="Times-12" font-size="14.00"> &#160;Bootstrap</text>
<polygon fill="#fdb462" stroke="transparent" points="357,-10 357,-30 377,-30 377,-10 357,-10"/>
<text text-anchor="start" x="380.67" y="-15.4" font-family="Times-12" font-size="14.00"> &#160;Providers</text>
<polygon fill="#fb8072" stroke="transparent" points="453,-10 453,-30 473,-30 473,-10 453,-10"/>
<text text-anchor="start" x="476.73" y="-15.4" font-family="Times-12" font-size="14.00"> &#160;Exports</text>
<g id="clust1" class="cluster">
<title>cluster_NotificationCenterModule</title>
<polygon fill="none" stroke="black" stroke-dasharray="1,5" points="8,-70 8,-268 582,-268 582,-70 8,-70"/>
</g>
<g id="clust5" class="cluster">
<title>cluster_NotificationCenterModule_exports</title>
<polygon fill="none" stroke="black" points="201,-208 201,-260 407,-260 407,-208 201,-208"/>
</g>
<g id="clust2" class="cluster">
<title>cluster_NotificationCenterModule_declarations</title>
<polygon fill="none" stroke="black" points="372,-78 372,-130 574,-130 574,-78 372,-78"/>
</g>
<g id="clust4" class="cluster">
<title>cluster_NotificationCenterModule_imports</title>
<polygon fill="none" stroke="black" points="16,-78 16,-130 364,-130 364,-78 16,-78"/>
</g>
<!-- NotificationCenterComponent -->
<g id="node1" class="node">
<title>NotificationCenterComponent</title>
<polygon fill="#ffffb3" stroke="black" points="566.3,-122 379.7,-122 379.7,-86 566.3,-86 566.3,-122"/>
<text text-anchor="middle" x="473" y="-99.8" font-family="Times,serif" font-size="14.00">NotificationCenterComponent</text>
</g>
<!-- NotificationCenterModule -->
<g id="node2" class="node">
<title>NotificationCenterModule</title>
<polygon fill="#8dd3c7" stroke="black" points="386.02,-187 383.02,-191 362.02,-191 359.02,-187 221.98,-187 221.98,-151 386.02,-151 386.02,-187"/>
<text text-anchor="middle" x="304" y="-164.8" font-family="Times,serif" font-size="14.00">NotificationCenterModule</text>
</g>
<!-- NotificationCenterComponent&#45;&gt;NotificationCenterModule -->
<g id="edge1" class="edge">
<title>NotificationCenterComponent&#45;&gt;NotificationCenterModule</title>
<path fill="none" stroke="black" d="M392.58,-122.11C392.58,-141.34 392.58,-169 392.58,-169 392.58,-169 391.94,-169 391.94,-169"/>
<polygon fill="black" stroke="black" points="396.21,-165.5 386.21,-169 396.21,-172.5 396.21,-165.5"/>
</g>
<!-- NotificationCenterComponent  -->
<g id="node5" class="node">
<title>NotificationCenterComponent </title>
<polygon fill="#fb8072" stroke="black" points="398.8,-252 209.2,-252 209.2,-216 398.8,-216 398.8,-252"/>
<text text-anchor="middle" x="304" y="-229.8" font-family="Times,serif" font-size="14.00">NotificationCenterComponent </text>
</g>
<!-- NotificationCenterModule&#45;&gt;NotificationCenterComponent  -->
<g id="edge4" class="edge">
<title>NotificationCenterModule&#45;&gt;NotificationCenterComponent </title>
<path fill="none" stroke="black" stroke-dasharray="5,2" d="M304,-187.11C304,-187.11 304,-205.99 304,-205.99"/>
<polygon fill="black" stroke="black" points="300.5,-205.99 304,-215.99 307.5,-205.99 300.5,-205.99"/>
</g>
<!-- LayoutsModule -->
<g id="node3" class="node">
<title>LayoutsModule</title>
<polygon fill="#8dd3c7" stroke="black" points="356.15,-122 353.15,-126 332.15,-126 329.15,-122 251.85,-122 251.85,-86 356.15,-86 356.15,-122"/>
<text text-anchor="middle" x="304" y="-99.8" font-family="Times,serif" font-size="14.00">LayoutsModule</text>
</g>
<!-- LayoutsModule&#45;&gt;NotificationCenterModule -->
<g id="edge2" class="edge">
<title>LayoutsModule&#45;&gt;NotificationCenterModule</title>
<path fill="none" stroke="black" d="M304,-122.11C304,-122.11 304,-140.99 304,-140.99"/>
<polygon fill="black" stroke="black" points="300.5,-140.99 304,-150.99 307.5,-140.99 300.5,-140.99"/>
</g>
<!-- NotificationCenterRoutingModule -->
<g id="node4" class="node">
<title>NotificationCenterRoutingModule</title>
<polygon fill="#8dd3c7" stroke="black" points="233.63,-122 230.63,-126 209.63,-126 206.63,-122 24.37,-122 24.37,-86 233.63,-86 233.63,-122"/>
<text text-anchor="middle" x="129" y="-99.8" font-family="Times,serif" font-size="14.00">NotificationCenterRoutingModule</text>
</g>
<!-- NotificationCenterRoutingModule&#45;&gt;NotificationCenterModule -->
<g id="edge3" class="edge">
<title>NotificationCenterRoutingModule&#45;&gt;NotificationCenterModule</title>
<path fill="none" stroke="black" d="M227.78,-122.11C227.78,-122.11 227.78,-140.99 227.78,-140.99"/>
<polygon fill="black" stroke="black" points="224.28,-140.99 227.78,-150.99 231.28,-140.99 224.28,-140.99"/>
</g>
</g>
</svg>
