<?xml version="1.0" encoding="UTF-8" standalone="no"?>
<!DOCTYPE svg PUBLIC "-//W3C//DTD SVG 1.1//EN"
 "http://www.w3.org/Graphics/SVG/1.1/DTD/svg11.dtd">
<!-- Generated by graphviz version 2.47.0 (20210316.0004)
 -->
<!-- Title: dependencies Pages: 1 -->
<svg width="944pt" height="211pt"
 viewBox="0.00 0.00 944.00 211.00" xmlns="http://www.w3.org/2000/svg" xmlns:xlink="http://www.w3.org/1999/xlink">
<g id="graph0" class="graph" transform="scale(1 1) rotate(0) translate(4 207)">
<title>dependencies</title>
<polygon fill="white" stroke="transparent" points="-4,4 -4,-207 940,-207 940,4 -4,4"/>
<text text-anchor="start" x="447.01" y="-42.4" font-family="Times-12" font-weight="bold" font-size="14.00">Legend</text>
<polygon fill="#ffffb3" stroke="transparent" points="234,-10 234,-30 254,-30 254,-10 234,-10"/>
<text text-anchor="start" x="257.63" y="-15.4" font-family="Times-12" font-size="14.00"> &#160;Declarations</text>
<polygon fill="#8dd3c7" stroke="transparent" points="347,-10 347,-30 367,-30 367,-10 347,-10"/>
<text text-anchor="start" x="370.73" y="-15.4" font-family="Times-12" font-size="14.00"> &#160;Module</text>
<polygon fill="#80b1d3" stroke="transparent" points="433,-10 433,-30 453,-30 453,-10 433,-10"/>
<text text-anchor="start" x="456.78" y="-15.4" font-family="Times-12" font-size="14.00"> &#160;Bootstrap</text>
<polygon fill="#fdb462" stroke="transparent" points="530,-10 530,-30 550,-30 550,-10 530,-10"/>
<text text-anchor="start" x="553.67" y="-15.4" font-family="Times-12" font-size="14.00"> &#160;Providers</text>
<polygon fill="#fb8072" stroke="transparent" points="626,-10 626,-30 646,-30 646,-10 626,-10"/>
<text text-anchor="start" x="649.73" y="-15.4" font-family="Times-12" font-size="14.00"> &#160;Exports</text>
<g id="clust1" class="cluster">
<title>cluster_CreateEditCustomRoleModule</title>
<polygon fill="none" stroke="black" stroke-dasharray="1,5" points="8,-70 8,-195 928,-195 928,-70 8,-70"/>
</g>
<g id="clust4" class="cluster">
<title>cluster_CreateEditCustomRoleModule_imports</title>
<polygon fill="none" stroke="black" points="252,-78 252,-130 920,-130 920,-78 252,-78"/>
</g>
<g id="clust2" class="cluster">
<title>cluster_CreateEditCustomRoleModule_declarations</title>
<polygon fill="none" stroke="black" points="16,-78 16,-130 244,-130 244,-78 16,-78"/>
</g>
<!-- CreateEditCustomRoleComponent -->
<g id="node1" class="node">
<title>CreateEditCustomRoleComponent</title>
<polygon fill="#ffffb3" stroke="black" points="235.7,-122 24.3,-122 24.3,-86 235.7,-86 235.7,-122"/>
<text text-anchor="middle" x="130" y="-99.8" font-family="Times,serif" font-size="14.00">CreateEditCustomRoleComponent</text>
</g>
<!-- CreateEditCustomRoleModule -->
<g id="node2" class="node">
<title>CreateEditCustomRoleModule</title>
<polygon fill="#8dd3c7" stroke="black" points="566.92,-187 563.92,-191 542.92,-191 539.92,-187 377.08,-187 377.08,-151 566.92,-151 566.92,-187"/>
<text text-anchor="middle" x="472" y="-164.8" font-family="Times,serif" font-size="14.00">CreateEditCustomRoleModule</text>
</g>
<!-- CreateEditCustomRoleComponent&#45;&gt;CreateEditCustomRoleModule -->
<g id="edge1" class="edge">
<title>CreateEditCustomRoleComponent&#45;&gt;CreateEditCustomRoleModule</title>
<path fill="none" stroke="black" d="M130,-122.11C130,-141.34 130,-169 130,-169 130,-169 367.19,-169 367.19,-169"/>
<polygon fill="black" stroke="black" points="367.19,-172.5 377.19,-169 367.19,-165.5 367.19,-172.5"/>
</g>
<!-- CreateEditCustomRoleRoutingModule -->
<g id="node3" class="node">
<title>CreateEditCustomRoleRoutingModule</title>
<polygon fill="#8dd3c7" stroke="black" points="912.04,-122 909.04,-126 888.04,-126 885.04,-122 677.96,-122 677.96,-86 912.04,-86 912.04,-122"/>
<text text-anchor="middle" x="795" y="-99.8" font-family="Times,serif" font-size="14.00">CreateEditCustomRoleRoutingModule</text>
</g>
<!-- CreateEditCustomRoleRoutingModule&#45;&gt;CreateEditCustomRoleModule -->
<g id="edge2" class="edge">
<title>CreateEditCustomRoleRoutingModule&#45;&gt;CreateEditCustomRoleModule</title>
<path fill="none" stroke="black" d="M795,-122.11C795,-141.34 795,-169 795,-169 795,-169 576.73,-169 576.73,-169"/>
<polygon fill="black" stroke="black" points="576.73,-165.5 566.73,-169 576.73,-172.5 576.73,-165.5"/>
</g>
<!-- DirectivesModule -->
<g id="node4" class="node">
<title>DirectivesModule</title>
<polygon fill="#8dd3c7" stroke="black" points="659.58,-122 656.58,-126 635.58,-126 632.58,-122 542.42,-122 542.42,-86 659.58,-86 659.58,-122"/>
<text text-anchor="middle" x="601" y="-99.8" font-family="Times,serif" font-size="14.00">DirectivesModule</text>
</g>
<!-- DirectivesModule&#45;&gt;CreateEditCustomRoleModule -->
<g id="edge3" class="edge">
<title>DirectivesModule&#45;&gt;CreateEditCustomRoleModule</title>
<path fill="none" stroke="black" d="M554.59,-122.11C554.59,-122.11 554.59,-140.99 554.59,-140.99"/>
<polygon fill="black" stroke="black" points="551.09,-140.99 554.59,-150.99 558.09,-140.99 551.09,-140.99"/>
</g>
<!-- LayoutsModule -->
<g id="node5" class="node">
<title>LayoutsModule</title>
<polygon fill="#8dd3c7" stroke="black" points="524.15,-122 521.15,-126 500.15,-126 497.15,-122 419.85,-122 419.85,-86 524.15,-86 524.15,-122"/>
<text text-anchor="middle" x="472" y="-99.8" font-family="Times,serif" font-size="14.00">LayoutsModule</text>
</g>
<!-- LayoutsModule&#45;&gt;CreateEditCustomRoleModule -->
<g id="edge4" class="edge">
<title>LayoutsModule&#45;&gt;CreateEditCustomRoleModule</title>
<path fill="none" stroke="black" d="M472,-122.11C472,-122.11 472,-140.99 472,-140.99"/>
<polygon fill="black" stroke="black" points="468.5,-140.99 472,-150.99 475.5,-140.99 468.5,-140.99"/>
</g>
<!-- SmoothHeightModule -->
<g id="node6" class="node">
<title>SmoothHeightModule</title>
<polygon fill="#8dd3c7" stroke="black" points="401.72,-122 398.72,-126 377.72,-126 374.72,-122 260.28,-122 260.28,-86 401.72,-86 401.72,-122"/>
<text text-anchor="middle" x="331" y="-99.8" font-family="Times,serif" font-size="14.00">SmoothHeightModule</text>
</g>
<!-- SmoothHeightModule&#45;&gt;CreateEditCustomRoleModule -->
<g id="edge5" class="edge">
<title>SmoothHeightModule&#45;&gt;CreateEditCustomRoleModule</title>
<path fill="none" stroke="black" d="M389.45,-122.11C389.45,-122.11 389.45,-140.99 389.45,-140.99"/>
<polygon fill="black" stroke="black" points="385.95,-140.99 389.45,-150.99 392.95,-140.99 385.95,-140.99"/>
</g>
</g>
</svg>
