<?xml version="1.0" encoding="UTF-8" standalone="no"?>
<!DOCTYPE svg PUBLIC "-//W3C//DTD SVG 1.1//EN"
 "http://www.w3.org/Graphics/SVG/1.1/DTD/svg11.dtd">
<!-- Generated by graphviz version 2.47.0 (20210316.0004)
 -->
<!-- Title: dependencies Pages: 1 -->
<svg width="504pt" height="284pt"
 viewBox="0.00 0.00 504.00 284.00" xmlns="http://www.w3.org/2000/svg" xmlns:xlink="http://www.w3.org/1999/xlink">
<g id="graph0" class="graph" transform="scale(1 1) rotate(0) translate(4 280)">
<title>dependencies</title>
<polygon fill="white" stroke="transparent" points="-4,4 -4,-280 500,-280 500,4 -4,4"/>
<text text-anchor="start" x="227.01" y="-42.4" font-family="Times-12" font-weight="bold" font-size="14.00">Legend</text>
<polygon fill="#ffffb3" stroke="transparent" points="14,-10 14,-30 34,-30 34,-10 14,-10"/>
<text text-anchor="start" x="37.63" y="-15.4" font-family="Times-12" font-size="14.00"> &#160;Declarations</text>
<polygon fill="#8dd3c7" stroke="transparent" points="127,-10 127,-30 147,-30 147,-10 127,-10"/>
<text text-anchor="start" x="150.73" y="-15.4" font-family="Times-12" font-size="14.00"> &#160;Module</text>
<polygon fill="#80b1d3" stroke="transparent" points="213,-10 213,-30 233,-30 233,-10 213,-10"/>
<text text-anchor="start" x="236.78" y="-15.4" font-family="Times-12" font-size="14.00"> &#160;Bootstrap</text>
<polygon fill="#fdb462" stroke="transparent" points="310,-10 310,-30 330,-30 330,-10 310,-10"/>
<text text-anchor="start" x="333.67" y="-15.4" font-family="Times-12" font-size="14.00"> &#160;Providers</text>
<polygon fill="#fb8072" stroke="transparent" points="406,-10 406,-30 426,-30 426,-10 406,-10"/>
<text text-anchor="start" x="429.73" y="-15.4" font-family="Times-12" font-size="14.00"> &#160;Exports</text>
<g id="clust1" class="cluster">
<title>cluster_ClusterTfVersionModule</title>
<polygon fill="none" stroke="black" stroke-dasharray="1,5" points="78,-70 78,-268 418,-268 418,-70 78,-70"/>
</g>
<g id="clust4" class="cluster">
<title>cluster_ClusterTfVersionModule_imports</title>
<polygon fill="none" stroke="black" points="290,-78 290,-130 410,-130 410,-78 290,-78"/>
</g>
<g id="clust5" class="cluster">
<title>cluster_ClusterTfVersionModule_exports</title>
<polygon fill="none" stroke="black" points="149,-208 149,-260 347,-260 347,-208 149,-208"/>
</g>
<g id="clust2" class="cluster">
<title>cluster_ClusterTfVersionModule_declarations</title>
<polygon fill="none" stroke="black" points="86,-78 86,-130 282,-130 282,-78 86,-78"/>
</g>
<!-- ClusterTfVersionComponent -->
<g id="node1" class="node">
<title>ClusterTfVersionComponent</title>
<polygon fill="#ffffb3" stroke="black" points="273.8,-122 94.2,-122 94.2,-86 273.8,-86 273.8,-122"/>
<text text-anchor="middle" x="184" y="-99.8" font-family="Times,serif" font-size="14.00">ClusterTfVersionComponent</text>
</g>
<!-- ClusterTfVersionModule -->
<g id="node2" class="node">
<title>ClusterTfVersionModule</title>
<polygon fill="#8dd3c7" stroke="black" points="326.52,-187 323.52,-191 302.52,-191 299.52,-187 169.48,-187 169.48,-151 326.52,-151 326.52,-187"/>
<text text-anchor="middle" x="248" y="-164.8" font-family="Times,serif" font-size="14.00">ClusterTfVersionModule</text>
</g>
<!-- ClusterTfVersionComponent&#45;&gt;ClusterTfVersionModule -->
<g id="edge1" class="edge">
<title>ClusterTfVersionComponent&#45;&gt;ClusterTfVersionModule</title>
<path fill="none" stroke="black" d="M221.45,-122.11C221.45,-122.11 221.45,-140.99 221.45,-140.99"/>
<polygon fill="black" stroke="black" points="217.95,-140.99 221.45,-150.99 224.95,-140.99 217.95,-140.99"/>
</g>
<!-- ClusterTfVersionComponent  -->
<g id="node4" class="node">
<title>ClusterTfVersionComponent </title>
<polygon fill="#fb8072" stroke="black" points="339.3,-252 156.7,-252 156.7,-216 339.3,-216 339.3,-252"/>
<text text-anchor="middle" x="248" y="-229.8" font-family="Times,serif" font-size="14.00">ClusterTfVersionComponent </text>
</g>
<!-- ClusterTfVersionModule&#45;&gt;ClusterTfVersionComponent  -->
<g id="edge3" class="edge">
<title>ClusterTfVersionModule&#45;&gt;ClusterTfVersionComponent </title>
<path fill="none" stroke="black" stroke-dasharray="5,2" d="M248,-187.11C248,-187.11 248,-205.99 248,-205.99"/>
<polygon fill="black" stroke="black" points="244.5,-205.99 248,-215.99 251.5,-205.99 244.5,-205.99"/>
</g>
<!-- LayoutsModule -->
<g id="node3" class="node">
<title>LayoutsModule</title>
<polygon fill="#8dd3c7" stroke="black" points="402.15,-122 399.15,-126 378.15,-126 375.15,-122 297.85,-122 297.85,-86 402.15,-86 402.15,-122"/>
<text text-anchor="middle" x="350" y="-99.8" font-family="Times,serif" font-size="14.00">LayoutsModule</text>
</g>
<!-- LayoutsModule&#45;&gt;ClusterTfVersionModule -->
<g id="edge2" class="edge">
<title>LayoutsModule&#45;&gt;ClusterTfVersionModule</title>
<path fill="none" stroke="black" d="M312.22,-122.11C312.22,-122.11 312.22,-140.99 312.22,-140.99"/>
<polygon fill="black" stroke="black" points="308.72,-140.99 312.22,-150.99 315.72,-140.99 308.72,-140.99"/>
</g>
</g>
</svg>
