<?xml version="1.0" encoding="UTF-8" standalone="no"?>
<!DOCTYPE svg PUBLIC "-//W3C//DTD SVG 1.1//EN"
 "http://www.w3.org/Graphics/SVG/1.1/DTD/svg11.dtd">
<!-- Generated by graphviz version 2.47.0 (20210316.0004)
 -->
<!-- Title: dependencies Pages: 1 -->
<svg width="504pt" height="284pt"
 viewBox="0.00 0.00 504.00 284.00" xmlns="http://www.w3.org/2000/svg" xmlns:xlink="http://www.w3.org/1999/xlink">
<g id="graph0" class="graph" transform="scale(1 1) rotate(0) translate(4 280)">
<title>dependencies</title>
<polygon fill="white" stroke="transparent" points="-4,4 -4,-280 500,-280 500,4 -4,4"/>
<text text-anchor="start" x="227.01" y="-42.4" font-family="Times-12" font-weight="bold" font-size="14.00">Legend</text>
<polygon fill="#ffffb3" stroke="transparent" points="14,-10 14,-30 34,-30 34,-10 14,-10"/>
<text text-anchor="start" x="37.63" y="-15.4" font-family="Times-12" font-size="14.00"> &#160;Declarations</text>
<polygon fill="#8dd3c7" stroke="transparent" points="127,-10 127,-30 147,-30 147,-10 127,-10"/>
<text text-anchor="start" x="150.73" y="-15.4" font-family="Times-12" font-size="14.00"> &#160;Module</text>
<polygon fill="#80b1d3" stroke="transparent" points="213,-10 213,-30 233,-30 233,-10 213,-10"/>
<text text-anchor="start" x="236.78" y="-15.4" font-family="Times-12" font-size="14.00"> &#160;Bootstrap</text>
<polygon fill="#fdb462" stroke="transparent" points="310,-10 310,-30 330,-30 330,-10 310,-10"/>
<text text-anchor="start" x="333.67" y="-15.4" font-family="Times-12" font-size="14.00"> &#160;Providers</text>
<polygon fill="#fb8072" stroke="transparent" points="406,-10 406,-30 426,-30 426,-10 406,-10"/>
<text text-anchor="start" x="429.73" y="-15.4" font-family="Times-12" font-size="14.00"> &#160;Exports</text>
<g id="clust1" class="cluster">
<title>cluster_ReleaseSteamModule</title>
<polygon fill="none" stroke="black" stroke-dasharray="1,5" points="38,-70 38,-268 458,-268 458,-70 38,-70"/>
</g>
<g id="clust4" class="cluster">
<title>cluster_ReleaseSteamModule_imports</title>
<polygon fill="none" stroke="black" points="240,-78 240,-130 450,-130 450,-78 240,-78"/>
</g>
<g id="clust5" class="cluster">
<title>cluster_ReleaseSteamModule_exports</title>
<polygon fill="none" stroke="black" points="148,-208 148,-260 338,-260 338,-208 148,-208"/>
</g>
<g id="clust2" class="cluster">
<title>cluster_ReleaseSteamModule_declarations</title>
<polygon fill="none" stroke="black" points="46,-78 46,-130 232,-130 232,-78 46,-78"/>
</g>
<!-- ReleaseStreamsComponent -->
<g id="node1" class="node">
<title>ReleaseStreamsComponent</title>
<polygon fill="#ffffb3" stroke="black" points="223.96,-122 54.04,-122 54.04,-86 223.96,-86 223.96,-122"/>
<text text-anchor="middle" x="139" y="-99.8" font-family="Times,serif" font-size="14.00">ReleaseStreamsComponent</text>
</g>
<!-- ReleaseSteamModule -->
<g id="node2" class="node">
<title>ReleaseSteamModule</title>
<polygon fill="#8dd3c7" stroke="black" points="312.07,-187 309.07,-191 288.07,-191 285.07,-187 173.93,-187 173.93,-151 312.07,-151 312.07,-187"/>
<text text-anchor="middle" x="243" y="-164.8" font-family="Times,serif" font-size="14.00">ReleaseSteamModule</text>
</g>
<!-- ReleaseStreamsComponent&#45;&gt;ReleaseSteamModule -->
<g id="edge1" class="edge">
<title>ReleaseStreamsComponent&#45;&gt;ReleaseSteamModule</title>
<path fill="none" stroke="black" d="M198.97,-122.11C198.97,-122.11 198.97,-140.99 198.97,-140.99"/>
<polygon fill="black" stroke="black" points="195.47,-140.99 198.97,-150.99 202.47,-140.99 195.47,-140.99"/>
</g>
<!-- ReleaseStreamsComponent  -->
<g id="node4" class="node">
<title>ReleaseStreamsComponent </title>
<polygon fill="#fb8072" stroke="black" points="329.96,-252 156.04,-252 156.04,-216 329.96,-216 329.96,-252"/>
<text text-anchor="middle" x="243" y="-229.8" font-family="Times,serif" font-size="14.00">ReleaseStreamsComponent </text>
</g>
<!-- ReleaseSteamModule&#45;&gt;ReleaseStreamsComponent  -->
<g id="edge3" class="edge">
<title>ReleaseSteamModule&#45;&gt;ReleaseStreamsComponent </title>
<path fill="none" stroke="black" stroke-dasharray="5,2" d="M243,-187.11C243,-187.11 243,-205.99 243,-205.99"/>
<polygon fill="black" stroke="black" points="239.5,-205.99 243,-215.99 246.5,-205.99 239.5,-205.99"/>
</g>
<!-- ReleaseStreamsRoutingModule -->
<g id="node3" class="node">
<title>ReleaseStreamsRoutingModule</title>
<polygon fill="#8dd3c7" stroke="black" points="441.8,-122 438.8,-126 417.8,-126 414.8,-122 248.2,-122 248.2,-86 441.8,-86 441.8,-122"/>
<text text-anchor="middle" x="345" y="-99.8" font-family="Times,serif" font-size="14.00">ReleaseStreamsRoutingModule</text>
</g>
<!-- ReleaseStreamsRoutingModule&#45;&gt;ReleaseSteamModule -->
<g id="edge2" class="edge">
<title>ReleaseStreamsRoutingModule&#45;&gt;ReleaseSteamModule</title>
<path fill="none" stroke="black" d="M280.19,-122.11C280.19,-122.11 280.19,-140.99 280.19,-140.99"/>
<polygon fill="black" stroke="black" points="276.69,-140.99 280.19,-150.99 283.69,-140.99 276.69,-140.99"/>
</g>
</g>
</svg>
