<?xml version="1.0" encoding="UTF-8" standalone="no"?>
<!DOCTYPE svg PUBLIC "-//W3C//DTD SVG 1.1//EN"
 "http://www.w3.org/Graphics/SVG/1.1/DTD/svg11.dtd">
<!-- Generated by graphviz version 2.47.0 (20210316.0004)
 -->
<!-- Title: dependencies Pages: 1 -->
<svg width="1055pt" height="211pt"
 viewBox="0.00 0.00 1055.00 211.00" xmlns="http://www.w3.org/2000/svg" xmlns:xlink="http://www.w3.org/1999/xlink">
<g id="graph0" class="graph" transform="scale(1 1) rotate(0) translate(4 207)">
<title>dependencies</title>
<polygon fill="white" stroke="transparent" points="-4,4 -4,-207 1051,-207 1051,4 -4,4"/>
<text text-anchor="start" x="502.51" y="-42.4" font-family="Times-12" font-weight="bold" font-size="14.00">Legend</text>
<polygon fill="#ffffb3" stroke="transparent" points="289.5,-10 289.5,-30 309.5,-30 309.5,-10 289.5,-10"/>
<text text-anchor="start" x="313.13" y="-15.4" font-family="Times-12" font-size="14.00"> &#160;Declarations</text>
<polygon fill="#8dd3c7" stroke="transparent" points="402.5,-10 402.5,-30 422.5,-30 422.5,-10 402.5,-10"/>
<text text-anchor="start" x="426.23" y="-15.4" font-family="Times-12" font-size="14.00"> &#160;Module</text>
<polygon fill="#80b1d3" stroke="transparent" points="488.5,-10 488.5,-30 508.5,-30 508.5,-10 488.5,-10"/>
<text text-anchor="start" x="512.28" y="-15.4" font-family="Times-12" font-size="14.00"> &#160;Bootstrap</text>
<polygon fill="#fdb462" stroke="transparent" points="585.5,-10 585.5,-30 605.5,-30 605.5,-10 585.5,-10"/>
<text text-anchor="start" x="609.17" y="-15.4" font-family="Times-12" font-size="14.00"> &#160;Providers</text>
<polygon fill="#fb8072" stroke="transparent" points="681.5,-10 681.5,-30 701.5,-30 701.5,-10 681.5,-10"/>
<text text-anchor="start" x="705.23" y="-15.4" font-family="Times-12" font-size="14.00"> &#160;Exports</text>
<g id="clust1" class="cluster">
<title>cluster_ControlPlaneSettingsModule</title>
<polygon fill="none" stroke="black" stroke-dasharray="1,5" points="8,-70 8,-195 1039,-195 1039,-70 8,-70"/>
</g>
<g id="clust6" class="cluster">
<title>cluster_ControlPlaneSettingsModule_imports</title>
<polygon fill="none" stroke="black" points="669,-78 669,-130 1031,-130 1031,-78 669,-78"/>
</g>
<g id="clust2" class="cluster">
<title>cluster_ControlPlaneSettingsModule_declarations</title>
<polygon fill="none" stroke="black" points="16,-78 16,-130 661,-130 661,-78 16,-78"/>
</g>
<!-- ControlPlaneConfigComponent -->
<g id="node1" class="node">
<title>ControlPlaneConfigComponent</title>
<polygon fill="#ffffb3" stroke="black" points="653.1,-122 458.9,-122 458.9,-86 653.1,-86 653.1,-122"/>
<text text-anchor="middle" x="556" y="-99.8" font-family="Times,serif" font-size="14.00">ControlPlaneConfigComponent</text>
</g>
<!-- ControlPlaneSettingsModule -->
<g id="node4" class="node">
<title>ControlPlaneSettingsModule</title>
<polygon fill="#8dd3c7" stroke="black" points="645.04,-187 642.04,-191 621.04,-191 618.04,-187 466.96,-187 466.96,-151 645.04,-151 645.04,-187"/>
<text text-anchor="middle" x="556" y="-164.8" font-family="Times,serif" font-size="14.00">ControlPlaneSettingsModule</text>
</g>
<!-- ControlPlaneConfigComponent&#45;&gt;ControlPlaneSettingsModule -->
<g id="edge1" class="edge">
<title>ControlPlaneConfigComponent&#45;&gt;ControlPlaneSettingsModule</title>
<path fill="none" stroke="black" d="M556,-122.11C556,-122.11 556,-140.99 556,-140.99"/>
<polygon fill="black" stroke="black" points="552.5,-140.99 556,-150.99 559.5,-140.99 552.5,-140.99"/>
</g>
<!-- ControlPlaneSettingsComponent -->
<g id="node2" class="node">
<title>ControlPlaneSettingsComponent</title>
<polygon fill="#ffffb3" stroke="black" points="441.33,-122 240.67,-122 240.67,-86 441.33,-86 441.33,-122"/>
<text text-anchor="middle" x="341" y="-99.8" font-family="Times,serif" font-size="14.00">ControlPlaneSettingsComponent</text>
</g>
<!-- ControlPlaneSettingsComponent&#45;&gt;ControlPlaneSettingsModule -->
<g id="edge2" class="edge">
<title>ControlPlaneSettingsComponent&#45;&gt;ControlPlaneSettingsModule</title>
<path fill="none" stroke="black" d="M341,-122.02C341,-139.37 341,-163 341,-163 341,-163 456.69,-163 456.69,-163"/>
<polygon fill="black" stroke="black" points="456.69,-166.5 466.69,-163 456.69,-159.5 456.69,-166.5"/>
</g>
<!-- CustomThemeEditorComponent -->
<g id="node3" class="node">
<title>CustomThemeEditorComponent</title>
<polygon fill="#ffffb3" stroke="black" points="222.26,-122 23.74,-122 23.74,-86 222.26,-86 222.26,-122"/>
<text text-anchor="middle" x="123" y="-99.8" font-family="Times,serif" font-size="14.00">CustomThemeEditorComponent</text>
</g>
<!-- CustomThemeEditorComponent&#45;&gt;ControlPlaneSettingsModule -->
<g id="edge3" class="edge">
<title>CustomThemeEditorComponent&#45;&gt;ControlPlaneSettingsModule</title>
<path fill="none" stroke="black" d="M123,-122.28C123,-143.32 123,-175 123,-175 123,-175 456.81,-175 456.81,-175"/>
<polygon fill="black" stroke="black" points="456.81,-178.5 466.81,-175 456.81,-171.5 456.81,-178.5"/>
</g>
<!-- ControlPlaneSettingsRoutingModule -->
<g id="node5" class="node">
<title>ControlPlaneSettingsRoutingModule</title>
<polygon fill="#8dd3c7" stroke="black" points="1022.66,-122 1019.66,-126 998.66,-126 995.66,-122 799.34,-122 799.34,-86 1022.66,-86 1022.66,-122"/>
<text text-anchor="middle" x="911" y="-99.8" font-family="Times,serif" font-size="14.00">ControlPlaneSettingsRoutingModule</text>
</g>
<!-- ControlPlaneSettingsRoutingModule&#45;&gt;ControlPlaneSettingsModule -->
<g id="edge4" class="edge">
<title>ControlPlaneSettingsRoutingModule&#45;&gt;ControlPlaneSettingsModule</title>
<path fill="none" stroke="black" d="M911,-122.28C911,-143.32 911,-175 911,-175 911,-175 655.12,-175 655.12,-175"/>
<polygon fill="black" stroke="black" points="655.12,-171.5 645.12,-175 655.12,-178.5 655.12,-171.5"/>
</g>
<!-- LayoutsModule -->
<g id="node6" class="node">
<title>LayoutsModule</title>
<polygon fill="#8dd3c7" stroke="black" points="781.15,-122 778.15,-126 757.15,-126 754.15,-122 676.85,-122 676.85,-86 781.15,-86 781.15,-122"/>
<text text-anchor="middle" x="729" y="-99.8" font-family="Times,serif" font-size="14.00">LayoutsModule</text>
</g>
<!-- LayoutsModule&#45;&gt;ControlPlaneSettingsModule -->
<g id="edge5" class="edge">
<title>LayoutsModule&#45;&gt;ControlPlaneSettingsModule</title>
<path fill="none" stroke="black" d="M729,-122.02C729,-139.37 729,-163 729,-163 729,-163 655.29,-163 655.29,-163"/>
<polygon fill="black" stroke="black" points="655.29,-159.5 645.29,-163 655.29,-166.5 655.29,-159.5"/>
</g>
</g>
</svg>
