<?xml version="1.0" encoding="UTF-8" standalone="no"?>
<!DOCTYPE svg PUBLIC "-//W3C//DTD SVG 1.1//EN"
 "http://www.w3.org/Graphics/SVG/1.1/DTD/svg11.dtd">
<!-- Generated by graphviz version 2.47.0 (20210316.0004)
 -->
<!-- Title: dependencies Pages: 1 -->
<svg width="504pt" height="211pt"
 viewBox="0.00 0.00 504.00 211.00" xmlns="http://www.w3.org/2000/svg" xmlns:xlink="http://www.w3.org/1999/xlink">
<g id="graph0" class="graph" transform="scale(1 1) rotate(0) translate(4 207)">
<title>dependencies</title>
<polygon fill="white" stroke="transparent" points="-4,4 -4,-207 500,-207 500,4 -4,4"/>
<text text-anchor="start" x="227.01" y="-42.4" font-family="Times-12" font-weight="bold" font-size="14.00">Legend</text>
<polygon fill="#ffffb3" stroke="transparent" points="14,-10 14,-30 34,-30 34,-10 14,-10"/>
<text text-anchor="start" x="37.63" y="-15.4" font-family="Times-12" font-size="14.00"> &#160;Declarations</text>
<polygon fill="#8dd3c7" stroke="transparent" points="127,-10 127,-30 147,-30 147,-10 127,-10"/>
<text text-anchor="start" x="150.73" y="-15.4" font-family="Times-12" font-size="14.00"> &#160;Module</text>
<polygon fill="#80b1d3" stroke="transparent" points="213,-10 213,-30 233,-30 233,-10 213,-10"/>
<text text-anchor="start" x="236.78" y="-15.4" font-family="Times-12" font-size="14.00"> &#160;Bootstrap</text>
<polygon fill="#fdb462" stroke="transparent" points="310,-10 310,-30 330,-30 330,-10 310,-10"/>
<text text-anchor="start" x="333.67" y="-15.4" font-family="Times-12" font-size="14.00"> &#160;Providers</text>
<polygon fill="#fb8072" stroke="transparent" points="406,-10 406,-30 426,-30 426,-10 406,-10"/>
<text text-anchor="start" x="429.73" y="-15.4" font-family="Times-12" font-size="14.00"> &#160;Exports</text>
<g id="clust1" class="cluster">
<title>cluster_ToastersModule</title>
<polygon fill="none" stroke="black" stroke-dasharray="1,5" points="19,-70 19,-195 477,-195 477,-70 19,-70"/>
</g>
<g id="clust2" class="cluster">
<title>cluster_ToastersModule_declarations</title>
<polygon fill="none" stroke="black" points="325,-78 325,-130 469,-130 469,-78 325,-78"/>
</g>
<g id="clust4" class="cluster">
<title>cluster_ToastersModule_imports</title>
<polygon fill="none" stroke="black" points="27,-78 27,-130 317,-130 317,-78 27,-78"/>
</g>
<!-- ToastersComponent -->
<g id="node1" class="node">
<title>ToastersComponent</title>
<polygon fill="#ffffb3" stroke="black" points="461.25,-122 332.75,-122 332.75,-86 461.25,-86 461.25,-122"/>
<text text-anchor="middle" x="397" y="-99.8" font-family="Times,serif" font-size="14.00">ToastersComponent</text>
</g>
<!-- ToastersModule -->
<g id="node2" class="node">
<title>ToastersModule</title>
<polygon fill="#8dd3c7" stroke="black" points="310.47,-187 307.47,-191 286.47,-191 283.47,-187 203.53,-187 203.53,-151 310.47,-151 310.47,-187"/>
<text text-anchor="middle" x="257" y="-164.8" font-family="Times,serif" font-size="14.00">ToastersModule</text>
</g>
<!-- ToastersComponent&#45;&gt;ToastersModule -->
<g id="edge1" class="edge">
<title>ToastersComponent&#45;&gt;ToastersModule</title>
<path fill="none" stroke="black" d="M397,-122.11C397,-141.34 397,-169 397,-169 397,-169 320.73,-169 320.73,-169"/>
<polygon fill="black" stroke="black" points="320.73,-165.5 310.73,-169 320.73,-172.5 320.73,-165.5"/>
</g>
<!-- LayoutsModule -->
<g id="node3" class="node">
<title>LayoutsModule</title>
<polygon fill="#8dd3c7" stroke="black" points="309.15,-122 306.15,-126 285.15,-126 282.15,-122 204.85,-122 204.85,-86 309.15,-86 309.15,-122"/>
<text text-anchor="middle" x="257" y="-99.8" font-family="Times,serif" font-size="14.00">LayoutsModule</text>
</g>
<!-- LayoutsModule&#45;&gt;ToastersModule -->
<g id="edge2" class="edge">
<title>LayoutsModule&#45;&gt;ToastersModule</title>
<path fill="none" stroke="black" d="M257,-122.11C257,-122.11 257,-140.99 257,-140.99"/>
<polygon fill="black" stroke="black" points="253.5,-140.99 257,-150.99 260.5,-140.99 253.5,-140.99"/>
</g>
<!-- ToastersRoutingModule -->
<g id="node4" class="node">
<title>ToastersRoutingModule</title>
<polygon fill="#8dd3c7" stroke="black" points="187.09,-122 184.09,-126 163.09,-126 160.09,-122 34.91,-122 34.91,-86 187.09,-86 187.09,-122"/>
<text text-anchor="middle" x="111" y="-99.8" font-family="Times,serif" font-size="14.00">ToastersRoutingModule</text>
</g>
<!-- ToastersRoutingModule&#45;&gt;ToastersModule -->
<g id="edge3" class="edge">
<title>ToastersRoutingModule&#45;&gt;ToastersModule</title>
<path fill="none" stroke="black" d="M111,-122.11C111,-141.34 111,-169 111,-169 111,-169 193.46,-169 193.46,-169"/>
<polygon fill="black" stroke="black" points="193.46,-172.5 203.46,-169 193.46,-165.5 193.46,-172.5"/>
</g>
</g>
</svg>
