<?xml version="1.0" encoding="UTF-8" standalone="no"?>
<!DOCTYPE svg PUBLIC "-//W3C//DTD SVG 1.1//EN"
 "http://www.w3.org/Graphics/SVG/1.1/DTD/svg11.dtd">
<!-- Generated by graphviz version 2.47.0 (20210316.0004)
 -->
<!-- Title: dependencies Pages: 1 -->
<svg width="1869pt" height="211pt"
 viewBox="0.00 0.00 1869.00 211.00" xmlns="http://www.w3.org/2000/svg" xmlns:xlink="http://www.w3.org/1999/xlink">
<g id="graph0" class="graph" transform="scale(1 1) rotate(0) translate(4 207)">
<title>dependencies</title>
<polygon fill="white" stroke="transparent" points="-4,4 -4,-207 1865,-207 1865,4 -4,4"/>
<text text-anchor="start" x="909.51" y="-42.4" font-family="Times-12" font-weight="bold" font-size="14.00">Legend</text>
<polygon fill="#ffffb3" stroke="transparent" points="696.5,-10 696.5,-30 716.5,-30 716.5,-10 696.5,-10"/>
<text text-anchor="start" x="720.13" y="-15.4" font-family="Times-12" font-size="14.00"> &#160;Declarations</text>
<polygon fill="#8dd3c7" stroke="transparent" points="809.5,-10 809.5,-30 829.5,-30 829.5,-10 809.5,-10"/>
<text text-anchor="start" x="833.23" y="-15.4" font-family="Times-12" font-size="14.00"> &#160;Module</text>
<polygon fill="#80b1d3" stroke="transparent" points="895.5,-10 895.5,-30 915.5,-30 915.5,-10 895.5,-10"/>
<text text-anchor="start" x="919.28" y="-15.4" font-family="Times-12" font-size="14.00"> &#160;Bootstrap</text>
<polygon fill="#fdb462" stroke="transparent" points="992.5,-10 992.5,-30 1012.5,-30 1012.5,-10 992.5,-10"/>
<text text-anchor="start" x="1016.17" y="-15.4" font-family="Times-12" font-size="14.00"> &#160;Providers</text>
<polygon fill="#fb8072" stroke="transparent" points="1088.5,-10 1088.5,-30 1108.5,-30 1108.5,-10 1088.5,-10"/>
<text text-anchor="start" x="1112.23" y="-15.4" font-family="Times-12" font-size="14.00"> &#160;Exports</text>
<g id="clust1" class="cluster">
<title>cluster_ResourceConfigurationModule</title>
<polygon fill="none" stroke="black" stroke-dasharray="1,5" points="8,-70 8,-195 1853,-195 1853,-70 8,-70"/>
</g>
<g id="clust2" class="cluster">
<title>cluster_ResourceConfigurationModule_declarations</title>
<polygon fill="none" stroke="black" points="973,-78 973,-130 1845,-130 1845,-78 973,-78"/>
</g>
<g id="clust7" class="cluster">
<title>cluster_ResourceConfigurationModule_imports</title>
<polygon fill="none" stroke="black" points="16,-78 16,-130 965,-130 965,-78 16,-78"/>
</g>
<!-- AppConfigurationComponent -->
<g id="node1" class="node">
<title>AppConfigurationComponent</title>
<polygon fill="#ffffb3" stroke="black" points="1836.98,-122 1653.02,-122 1653.02,-86 1836.98,-86 1836.98,-122"/>
<text text-anchor="middle" x="1745" y="-99.8" font-family="Times,serif" font-size="14.00">AppConfigurationComponent</text>
</g>
<!-- ResourceConfigurationModule -->
<g id="node5" class="node">
<title>ResourceConfigurationModule</title>
<polygon fill="#8dd3c7" stroke="black" points="988.18,-187 985.18,-191 964.18,-191 961.18,-187 797.82,-187 797.82,-151 988.18,-151 988.18,-187"/>
<text text-anchor="middle" x="893" y="-164.8" font-family="Times,serif" font-size="14.00">ResourceConfigurationModule</text>
</g>
<!-- AppConfigurationComponent&#45;&gt;ResourceConfigurationModule -->
<g id="edge1" class="edge">
<title>AppConfigurationComponent&#45;&gt;ResourceConfigurationModule</title>
<path fill="none" stroke="black" d="M1745,-122.29C1745,-144.21 1745,-178 1745,-178 1745,-178 998.26,-178 998.26,-178"/>
<polygon fill="black" stroke="black" points="998.26,-174.5 988.26,-178 998.26,-181.5 998.26,-174.5"/>
</g>
<!-- ConfigurationEditorComponent -->
<g id="node2" class="node">
<title>ConfigurationEditorComponent</title>
<polygon fill="#ffffb3" stroke="black" points="1635.37,-122 1440.63,-122 1440.63,-86 1635.37,-86 1635.37,-122"/>
<text text-anchor="middle" x="1538" y="-99.8" font-family="Times,serif" font-size="14.00">ConfigurationEditorComponent</text>
</g>
<!-- ConfigurationEditorComponent&#45;&gt;ResourceConfigurationModule -->
<g id="edge2" class="edge">
<title>ConfigurationEditorComponent&#45;&gt;ResourceConfigurationModule</title>
<path fill="none" stroke="black" d="M1538,-122.11C1538,-141.34 1538,-169 1538,-169 1538,-169 998.17,-169 998.17,-169"/>
<polygon fill="black" stroke="black" points="998.17,-165.5 988.17,-169 998.17,-172.5 998.17,-165.5"/>
</g>
<!-- ResourceConfigurationComponent -->
<g id="node3" class="node">
<title>ResourceConfigurationComponent</title>
<polygon fill="#ffffb3" stroke="black" points="1422.96,-122 1211.04,-122 1211.04,-86 1422.96,-86 1422.96,-122"/>
<text text-anchor="middle" x="1317" y="-99.8" font-family="Times,serif" font-size="14.00">ResourceConfigurationComponent</text>
</g>
<!-- ResourceConfigurationComponent&#45;&gt;ResourceConfigurationModule -->
<g id="edge3" class="edge">
<title>ResourceConfigurationComponent&#45;&gt;ResourceConfigurationModule</title>
<path fill="none" stroke="black" d="M1317,-122.03C1317,-138.4 1317,-160 1317,-160 1317,-160 998.15,-160 998.15,-160"/>
<polygon fill="black" stroke="black" points="998.15,-156.5 988.15,-160 998.15,-163.5 998.15,-156.5"/>
</g>
<!-- SimpleResourceConfigComponent -->
<g id="node4" class="node">
<title>SimpleResourceConfigComponent</title>
<polygon fill="#ffffb3" stroke="black" points="1192.97,-122 981.03,-122 981.03,-86 1192.97,-86 1192.97,-122"/>
<text text-anchor="middle" x="1087" y="-99.8" font-family="Times,serif" font-size="14.00">SimpleResourceConfigComponent</text>
</g>
<!-- SimpleResourceConfigComponent&#45;&gt;ResourceConfigurationModule -->
<g id="edge4" class="edge">
<title>SimpleResourceConfigComponent&#45;&gt;ResourceConfigurationModule</title>
<path fill="none" stroke="black" d="M984.55,-122.11C984.55,-122.11 984.55,-140.99 984.55,-140.99"/>
<polygon fill="black" stroke="black" points="981.05,-140.99 984.55,-150.99 988.05,-140.99 981.05,-140.99"/>
</g>
<!-- ConfigFieldModule -->
<g id="node6" class="node">
<title>ConfigFieldModule</title>
<polygon fill="#8dd3c7" stroke="black" points="956.72,-122 953.72,-126 932.72,-126 929.72,-122 829.28,-122 829.28,-86 956.72,-86 956.72,-122"/>
<text text-anchor="middle" x="893" y="-99.8" font-family="Times,serif" font-size="14.00">ConfigFieldModule</text>
</g>
<!-- ConfigFieldModule&#45;&gt;ResourceConfigurationModule -->
<g id="edge5" class="edge">
<title>ConfigFieldModule&#45;&gt;ResourceConfigurationModule</title>
<path fill="none" stroke="black" d="M893,-122.11C893,-122.11 893,-140.99 893,-140.99"/>
<polygon fill="black" stroke="black" points="889.5,-140.99 893,-150.99 896.5,-140.99 889.5,-140.99"/>
</g>
<!-- LayoutsModule -->
<g id="node7" class="node">
<title>LayoutsModule</title>
<polygon fill="#8dd3c7" stroke="black" points="811.15,-122 808.15,-126 787.15,-126 784.15,-122 706.85,-122 706.85,-86 811.15,-86 811.15,-122"/>
<text text-anchor="middle" x="759" y="-99.8" font-family="Times,serif" font-size="14.00">LayoutsModule</text>
</g>
<!-- LayoutsModule&#45;&gt;ResourceConfigurationModule -->
<g id="edge6" class="edge">
<title>LayoutsModule&#45;&gt;ResourceConfigurationModule</title>
<path fill="none" stroke="black" d="M804.62,-122.11C804.62,-122.11 804.62,-140.99 804.62,-140.99"/>
<polygon fill="black" stroke="black" points="801.12,-140.99 804.62,-150.99 808.12,-140.99 801.12,-140.99"/>
</g>
<!-- MonacoEditorSchemaBasedModule -->
<g id="node8" class="node">
<title>MonacoEditorSchemaBasedModule</title>
<polygon fill="#8dd3c7" stroke="black" points="688.45,-122 685.45,-126 664.45,-126 661.45,-122 469.55,-122 469.55,-86 688.45,-86 688.45,-122"/>
<text text-anchor="middle" x="579" y="-99.8" font-family="Times,serif" font-size="14.00">MonacoEditorSchemaBasedModule</text>
</g>
<!-- MonacoEditorSchemaBasedModule&#45;&gt;ResourceConfigurationModule -->
<g id="edge7" class="edge">
<title>MonacoEditorSchemaBasedModule&#45;&gt;ResourceConfigurationModule</title>
<path fill="none" stroke="black" d="M579,-122.03C579,-138.4 579,-160 579,-160 579,-160 787.51,-160 787.51,-160"/>
<polygon fill="black" stroke="black" points="787.51,-163.5 797.51,-160 787.51,-156.5 787.51,-163.5"/>
</g>
<!-- ResourceConfigEditModule -->
<g id="node9" class="node">
<title>ResourceConfigEditModule</title>
<polygon fill="#8dd3c7" stroke="black" points="451.86,-122 448.86,-126 427.86,-126 424.86,-122 278.14,-122 278.14,-86 451.86,-86 451.86,-122"/>
<text text-anchor="middle" x="365" y="-99.8" font-family="Times,serif" font-size="14.00">ResourceConfigEditModule</text>
</g>
<!-- ResourceConfigEditModule&#45;&gt;ResourceConfigurationModule -->
<g id="edge8" class="edge">
<title>ResourceConfigEditModule&#45;&gt;ResourceConfigurationModule</title>
<path fill="none" stroke="black" d="M365,-122.11C365,-141.34 365,-169 365,-169 365,-169 787.69,-169 787.69,-169"/>
<polygon fill="black" stroke="black" points="787.69,-172.5 797.69,-169 787.69,-165.5 787.69,-172.5"/>
</g>
<!-- ResourceConfigurationRoutingModule -->
<g id="node10" class="node">
<title>ResourceConfigurationRoutingModule</title>
<polygon fill="#8dd3c7" stroke="black" points="259.8,-122 256.8,-126 235.8,-126 232.8,-122 24.2,-122 24.2,-86 259.8,-86 259.8,-122"/>
<text text-anchor="middle" x="142" y="-99.8" font-family="Times,serif" font-size="14.00">ResourceConfigurationRoutingModule</text>
</g>
<!-- ResourceConfigurationRoutingModule&#45;&gt;ResourceConfigurationModule -->
<g id="edge9" class="edge">
<title>ResourceConfigurationRoutingModule&#45;&gt;ResourceConfigurationModule</title>
<path fill="none" stroke="black" d="M142,-122.29C142,-144.21 142,-178 142,-178 142,-178 787.89,-178 787.89,-178"/>
<polygon fill="black" stroke="black" points="787.89,-181.5 797.89,-178 787.89,-174.5 787.89,-181.5"/>
</g>
</g>
</svg>
