<?xml version="1.0" encoding="UTF-8" standalone="no"?>
<!DOCTYPE svg PUBLIC "-//W3C//DTD SVG 1.1//EN"
 "http://www.w3.org/Graphics/SVG/1.1/DTD/svg11.dtd">
<!-- Generated by graphviz version 2.47.0 (20210316.0004)
 -->
<!-- Title: dependencies Pages: 1 -->
<svg width="1056pt" height="284pt"
 viewBox="0.00 0.00 1056.00 284.00" xmlns="http://www.w3.org/2000/svg" xmlns:xlink="http://www.w3.org/1999/xlink">
<g id="graph0" class="graph" transform="scale(1 1) rotate(0) translate(4 280)">
<title>dependencies</title>
<polygon fill="white" stroke="transparent" points="-4,4 -4,-280 1052,-280 1052,4 -4,4"/>
<text text-anchor="start" x="503.01" y="-42.4" font-family="Times-12" font-weight="bold" font-size="14.00">Legend</text>
<polygon fill="#ffffb3" stroke="transparent" points="290,-10 290,-30 310,-30 310,-10 290,-10"/>
<text text-anchor="start" x="313.63" y="-15.4" font-family="Times-12" font-size="14.00"> &#160;Declarations</text>
<polygon fill="#8dd3c7" stroke="transparent" points="403,-10 403,-30 423,-30 423,-10 403,-10"/>
<text text-anchor="start" x="426.73" y="-15.4" font-family="Times-12" font-size="14.00"> &#160;Module</text>
<polygon fill="#80b1d3" stroke="transparent" points="489,-10 489,-30 509,-30 509,-10 489,-10"/>
<text text-anchor="start" x="512.78" y="-15.4" font-family="Times-12" font-size="14.00"> &#160;Bootstrap</text>
<polygon fill="#fdb462" stroke="transparent" points="586,-10 586,-30 606,-30 606,-10 586,-10"/>
<text text-anchor="start" x="609.67" y="-15.4" font-family="Times-12" font-size="14.00"> &#160;Providers</text>
<polygon fill="#fb8072" stroke="transparent" points="682,-10 682,-30 702,-30 702,-10 682,-10"/>
<text text-anchor="start" x="705.73" y="-15.4" font-family="Times-12" font-size="14.00"> &#160;Exports</text>
<g id="clust1" class="cluster">
<title>cluster_ResourceConfigEditModule</title>
<polygon fill="none" stroke="black" stroke-dasharray="1,5" points="8,-70 8,-268 1040,-268 1040,-70 8,-70"/>
</g>
<g id="clust2" class="cluster">
<title>cluster_ResourceConfigEditModule_declarations</title>
<polygon fill="none" stroke="black" points="381,-78 381,-130 1032,-130 1032,-78 381,-78"/>
</g>
<g id="clust6" class="cluster">
<title>cluster_ResourceConfigEditModule_imports</title>
<polygon fill="none" stroke="black" points="16,-78 16,-130 373,-130 373,-78 16,-78"/>
</g>
<g id="clust7" class="cluster">
<title>cluster_ResourceConfigEditModule_exports</title>
<polygon fill="none" stroke="black" points="269,-208 269,-260 713,-260 713,-208 269,-208"/>
</g>
<!-- AppConfigEditComponent -->
<g id="node1" class="node">
<title>AppConfigEditComponent</title>
<polygon fill="#ffffb3" stroke="black" points="1023.66,-122 856.34,-122 856.34,-86 1023.66,-86 1023.66,-122"/>
<text text-anchor="middle" x="940" y="-99.8" font-family="Times,serif" font-size="14.00">AppConfigEditComponent</text>
</g>
<!-- ResourceConfigEditModule -->
<g id="node4" class="node">
<title>ResourceConfigEditModule</title>
<polygon fill="#8dd3c7" stroke="black" points="593.86,-187 590.86,-191 569.86,-191 566.86,-187 420.14,-187 420.14,-151 593.86,-151 593.86,-187"/>
<text text-anchor="middle" x="507" y="-164.8" font-family="Times,serif" font-size="14.00">ResourceConfigEditModule</text>
</g>
<!-- AppConfigEditComponent&#45;&gt;ResourceConfigEditModule -->
<g id="edge1" class="edge">
<title>AppConfigEditComponent&#45;&gt;ResourceConfigEditModule</title>
<path fill="none" stroke="black" d="M940,-122.28C940,-143.32 940,-175 940,-175 940,-175 604.1,-175 604.1,-175"/>
<polygon fill="black" stroke="black" points="604.1,-171.5 594.1,-175 604.1,-178.5 604.1,-171.5"/>
</g>
<!-- ResourceConfigEditComponent -->
<g id="node2" class="node">
<title>ResourceConfigEditComponent</title>
<polygon fill="#ffffb3" stroke="black" points="837.64,-122 642.36,-122 642.36,-86 837.64,-86 837.64,-122"/>
<text text-anchor="middle" x="740" y="-99.8" font-family="Times,serif" font-size="14.00">ResourceConfigEditComponent</text>
</g>
<!-- ResourceConfigEditComponent&#45;&gt;ResourceConfigEditModule -->
<g id="edge2" class="edge">
<title>ResourceConfigEditComponent&#45;&gt;ResourceConfigEditModule</title>
<path fill="none" stroke="black" d="M673.38,-122.02C673.38,-139.37 673.38,-163 673.38,-163 673.38,-163 604.09,-163 604.09,-163"/>
<polygon fill="black" stroke="black" points="604.09,-159.5 594.09,-163 604.09,-166.5 604.09,-159.5"/>
</g>
<!-- SimpleResourceConfigEditComponent -->
<g id="node3" class="node">
<title>SimpleResourceConfigEditComponent</title>
<polygon fill="#ffffb3" stroke="black" points="624.81,-122 389.19,-122 389.19,-86 624.81,-86 624.81,-122"/>
<text text-anchor="middle" x="507" y="-99.8" font-family="Times,serif" font-size="14.00">SimpleResourceConfigEditComponent</text>
</g>
<!-- SimpleResourceConfigEditComponent&#45;&gt;ResourceConfigEditModule -->
<g id="edge3" class="edge">
<title>SimpleResourceConfigEditComponent&#45;&gt;ResourceConfigEditModule</title>
<path fill="none" stroke="black" d="M507,-122.11C507,-122.11 507,-140.99 507,-140.99"/>
<polygon fill="black" stroke="black" points="503.5,-140.99 507,-150.99 510.5,-140.99 503.5,-140.99"/>
</g>
<!-- AppConfigEditComponent  -->
<g id="node7" class="node">
<title>AppConfigEditComponent </title>
<polygon fill="#fb8072" stroke="black" points="704.66,-252 533.34,-252 533.34,-216 704.66,-216 704.66,-252"/>
<text text-anchor="middle" x="619" y="-229.8" font-family="Times,serif" font-size="14.00">AppConfigEditComponent </text>
</g>
<!-- ResourceConfigEditModule&#45;&gt;AppConfigEditComponent  -->
<g id="edge6" class="edge">
<title>ResourceConfigEditModule&#45;&gt;AppConfigEditComponent </title>
<path fill="none" stroke="black" stroke-dasharray="5,2" d="M563.67,-187.11C563.67,-187.11 563.67,-205.99 563.67,-205.99"/>
<polygon fill="black" stroke="black" points="560.17,-205.99 563.67,-215.99 567.17,-205.99 560.17,-205.99"/>
</g>
<!-- SimpleResourceConfigEditComponent  -->
<g id="node8" class="node">
<title>SimpleResourceConfigEditComponent </title>
<polygon fill="#fb8072" stroke="black" points="515.31,-252 276.69,-252 276.69,-216 515.31,-216 515.31,-252"/>
<text text-anchor="middle" x="396" y="-229.8" font-family="Times,serif" font-size="14.00">SimpleResourceConfigEditComponent </text>
</g>
<!-- ResourceConfigEditModule&#45;&gt;SimpleResourceConfigEditComponent  -->
<g id="edge7" class="edge">
<title>ResourceConfigEditModule&#45;&gt;SimpleResourceConfigEditComponent </title>
<path fill="none" stroke="black" stroke-dasharray="5,2" d="M467.74,-187.11C467.74,-187.11 467.74,-205.99 467.74,-205.99"/>
<polygon fill="black" stroke="black" points="464.24,-205.99 467.74,-215.99 471.24,-205.99 464.24,-205.99"/>
</g>
<!-- LayoutsModule -->
<g id="node5" class="node">
<title>LayoutsModule</title>
<polygon fill="#8dd3c7" stroke="black" points="365.15,-122 362.15,-126 341.15,-126 338.15,-122 260.85,-122 260.85,-86 365.15,-86 365.15,-122"/>
<text text-anchor="middle" x="313" y="-99.8" font-family="Times,serif" font-size="14.00">LayoutsModule</text>
</g>
<!-- LayoutsModule&#45;&gt;ResourceConfigEditModule -->
<g id="edge4" class="edge">
<title>LayoutsModule&#45;&gt;ResourceConfigEditModule</title>
<path fill="none" stroke="black" d="M320.96,-122.02C320.96,-139.37 320.96,-163 320.96,-163 320.96,-163 409.97,-163 409.97,-163"/>
<polygon fill="black" stroke="black" points="409.97,-166.5 419.97,-163 409.97,-159.5 409.97,-166.5"/>
</g>
<!-- ResourceConfigEditRoutingModule -->
<g id="node6" class="node">
<title>ResourceConfigEditRoutingModule</title>
<polygon fill="#8dd3c7" stroke="black" points="242.47,-122 239.47,-126 218.47,-126 215.47,-122 23.53,-122 23.53,-86 242.47,-86 242.47,-122"/>
<text text-anchor="middle" x="133" y="-99.8" font-family="Times,serif" font-size="14.00">ResourceConfigEditRoutingModule</text>
</g>
<!-- ResourceConfigEditRoutingModule&#45;&gt;ResourceConfigEditModule -->
<g id="edge5" class="edge">
<title>ResourceConfigEditRoutingModule&#45;&gt;ResourceConfigEditModule</title>
<path fill="none" stroke="black" d="M133,-122.28C133,-143.32 133,-175 133,-175 133,-175 409.79,-175 409.79,-175"/>
<polygon fill="black" stroke="black" points="409.79,-178.5 419.79,-175 409.79,-171.5 409.79,-178.5"/>
</g>
</g>
</svg>
