<?xml version="1.0" encoding="UTF-8" standalone="no"?>
<!DOCTYPE svg PUBLIC "-//W3C//DTD SVG 1.1//EN"
 "http://www.w3.org/Graphics/SVG/1.1/DTD/svg11.dtd">
<!-- Generated by graphviz version 2.47.0 (20210316.0004)
 -->
<!-- Title: dependencies Pages: 1 -->
<svg width="622pt" height="284pt"
 viewBox="0.00 0.00 622.00 284.00" xmlns="http://www.w3.org/2000/svg" xmlns:xlink="http://www.w3.org/1999/xlink">
<g id="graph0" class="graph" transform="scale(1 1) rotate(0) translate(4 280)">
<title>dependencies</title>
<polygon fill="white" stroke="transparent" points="-4,4 -4,-280 618,-280 618,4 -4,4"/>
<text text-anchor="start" x="286.01" y="-42.4" font-family="Times-12" font-weight="bold" font-size="14.00">Legend</text>
<polygon fill="#ffffb3" stroke="transparent" points="73,-10 73,-30 93,-30 93,-10 73,-10"/>
<text text-anchor="start" x="96.63" y="-15.4" font-family="Times-12" font-size="14.00"> &#160;Declarations</text>
<polygon fill="#8dd3c7" stroke="transparent" points="186,-10 186,-30 206,-30 206,-10 186,-10"/>
<text text-anchor="start" x="209.73" y="-15.4" font-family="Times-12" font-size="14.00"> &#160;Module</text>
<polygon fill="#80b1d3" stroke="transparent" points="272,-10 272,-30 292,-30 292,-10 272,-10"/>
<text text-anchor="start" x="295.78" y="-15.4" font-family="Times-12" font-size="14.00"> &#160;Bootstrap</text>
<polygon fill="#fdb462" stroke="transparent" points="369,-10 369,-30 389,-30 389,-10 369,-10"/>
<text text-anchor="start" x="392.67" y="-15.4" font-family="Times-12" font-size="14.00"> &#160;Providers</text>
<polygon fill="#fb8072" stroke="transparent" points="465,-10 465,-30 485,-30 485,-10 465,-10"/>
<text text-anchor="start" x="488.73" y="-15.4" font-family="Times-12" font-size="14.00"> &#160;Exports</text>
<g id="clust1" class="cluster">
<title>cluster_AppModule</title>
<polygon fill="none" stroke="black" stroke-dasharray="1,5" points="8,-70 8,-268 606,-268 606,-70 8,-70"/>
</g>
<g id="clust2" class="cluster">
<title>cluster_AppModule_declarations</title>
<polygon fill="none" stroke="black" points="476,-78 476,-130 598,-130 598,-78 476,-78"/>
</g>
<g id="clust7" class="cluster">
<title>cluster_AppModule_providers</title>
<polygon fill="none" stroke="black" points="304,-78 304,-130 468,-130 468,-78 304,-78"/>
</g>
<g id="clust4" class="cluster">
<title>cluster_AppModule_imports</title>
<polygon fill="none" stroke="black" points="16,-78 16,-130 296,-130 296,-78 16,-78"/>
</g>
<g id="clust6" class="cluster">
<title>cluster_AppModule_bootstrap</title>
<polygon fill="none" stroke="black" points="243,-208 243,-260 367,-260 367,-208 243,-208"/>
</g>
<!-- AppComponent -->
<g id="node1" class="node">
<title>AppComponent</title>
<polygon fill="#ffffb3" stroke="black" points="589.94,-122 484.06,-122 484.06,-86 589.94,-86 589.94,-122"/>
<text text-anchor="middle" x="537" y="-99.8" font-family="Times,serif" font-size="14.00">AppComponent</text>
</g>
<!-- AppModule -->
<g id="node2" class="node">
<title>AppModule</title>
<polygon fill="#8dd3c7" stroke="black" points="346.66,-187 343.66,-191 322.66,-191 319.66,-187 263.34,-187 263.34,-151 346.66,-151 346.66,-187"/>
<text text-anchor="middle" x="305" y="-164.8" font-family="Times,serif" font-size="14.00">AppModule</text>
</g>
<!-- AppComponent&#45;&gt;AppModule -->
<g id="edge1" class="edge">
<title>AppComponent&#45;&gt;AppModule</title>
<path fill="none" stroke="black" d="M537,-122.11C537,-141.34 537,-169 537,-169 537,-169 356.74,-169 356.74,-169"/>
<polygon fill="black" stroke="black" points="356.74,-165.5 346.74,-169 356.74,-172.5 356.74,-165.5"/>
</g>
<!-- AppComponent  -->
<g id="node5" class="node">
<title>AppComponent </title>
<polygon fill="#80b1d3" stroke="black" points="359.44,-252 250.56,-252 250.56,-216 359.44,-216 359.44,-252"/>
<text text-anchor="middle" x="305" y="-229.8" font-family="Times,serif" font-size="14.00">AppComponent </text>
</g>
<!-- AppModule&#45;&gt;AppComponent  -->
<g id="edge4" class="edge">
<title>AppModule&#45;&gt;AppComponent </title>
<path fill="none" stroke="black" stroke-dasharray="1,5" d="M305,-187.11C305,-187.11 305,-205.99 305,-205.99"/>
<polygon fill="black" stroke="black" points="301.5,-205.99 305,-215.99 308.5,-205.99 301.5,-205.99"/>
</g>
<!-- AppRoutingModule -->
<g id="node3" class="node">
<title>AppRoutingModule</title>
<polygon fill="#8dd3c7" stroke="black" points="288.27,-122 285.27,-126 264.27,-126 261.27,-122 159.73,-122 159.73,-86 288.27,-86 288.27,-122"/>
<text text-anchor="middle" x="224" y="-99.8" font-family="Times,serif" font-size="14.00">AppRoutingModule</text>
</g>
<!-- AppRoutingModule&#45;&gt;AppModule -->
<g id="edge2" class="edge">
<title>AppRoutingModule&#45;&gt;AppModule</title>
<path fill="none" stroke="black" d="M275.78,-122.11C275.78,-122.11 275.78,-140.99 275.78,-140.99"/>
<polygon fill="black" stroke="black" points="272.28,-140.99 275.78,-150.99 279.28,-140.99 272.28,-140.99"/>
</g>
<!-- DirectivesModule -->
<g id="node4" class="node">
<title>DirectivesModule</title>
<polygon fill="#8dd3c7" stroke="black" points="141.58,-122 138.58,-126 117.58,-126 114.58,-122 24.42,-122 24.42,-86 141.58,-86 141.58,-122"/>
<text text-anchor="middle" x="83" y="-99.8" font-family="Times,serif" font-size="14.00">DirectivesModule</text>
</g>
<!-- DirectivesModule&#45;&gt;AppModule -->
<g id="edge3" class="edge">
<title>DirectivesModule&#45;&gt;AppModule</title>
<path fill="none" stroke="black" d="M83,-122.11C83,-141.34 83,-169 83,-169 83,-169 253.24,-169 253.24,-169"/>
<polygon fill="black" stroke="black" points="253.24,-172.5 263.24,-169 253.24,-165.5 253.24,-172.5"/>
</g>
<!-- ErrorInterceptor -->
<g id="node6" class="node">
<title>ErrorInterceptor</title>
<ellipse fill="#fdb462" stroke="black" cx="386" cy="-104" rx="73.53" ry="18"/>
<text text-anchor="middle" x="386" y="-99.8" font-family="Times,serif" font-size="14.00">ErrorInterceptor</text>
</g>
<!-- ErrorInterceptor&#45;&gt;AppModule -->
<g id="edge5" class="edge">
<title>ErrorInterceptor&#45;&gt;AppModule</title>
<path fill="none" stroke="black" d="M329.53,-115.62C329.53,-115.62 329.53,-140.85 329.53,-140.85"/>
<polygon fill="black" stroke="black" points="326.03,-140.85 329.53,-150.85 333.03,-140.85 326.03,-140.85"/>
</g>
</g>
</svg>
