<?xml version="1.0" encoding="UTF-8" standalone="no"?>
<!DOCTYPE svg PUBLIC "-//W3C//DTD SVG 1.1//EN"
 "http://www.w3.org/Graphics/SVG/1.1/DTD/svg11.dtd">
<!-- Generated by graphviz version 2.47.0 (20210316.0004)
 -->
<!-- Title: dependencies Pages: 1 -->
<svg width="980pt" height="211pt"
 viewBox="0.00 0.00 980.00 211.00" xmlns="http://www.w3.org/2000/svg" xmlns:xlink="http://www.w3.org/1999/xlink">
<g id="graph0" class="graph" transform="scale(1 1) rotate(0) translate(4 207)">
<title>dependencies</title>
<polygon fill="white" stroke="transparent" points="-4,4 -4,-207 976,-207 976,4 -4,4"/>
<text text-anchor="start" x="465.01" y="-42.4" font-family="Times-12" font-weight="bold" font-size="14.00">Legend</text>
<polygon fill="#ffffb3" stroke="transparent" points="252,-10 252,-30 272,-30 272,-10 252,-10"/>
<text text-anchor="start" x="275.63" y="-15.4" font-family="Times-12" font-size="14.00"> &#160;Declarations</text>
<polygon fill="#8dd3c7" stroke="transparent" points="365,-10 365,-30 385,-30 385,-10 365,-10"/>
<text text-anchor="start" x="388.73" y="-15.4" font-family="Times-12" font-size="14.00"> &#160;Module</text>
<polygon fill="#80b1d3" stroke="transparent" points="451,-10 451,-30 471,-30 471,-10 451,-10"/>
<text text-anchor="start" x="474.78" y="-15.4" font-family="Times-12" font-size="14.00"> &#160;Bootstrap</text>
<polygon fill="#fdb462" stroke="transparent" points="548,-10 548,-30 568,-30 568,-10 548,-10"/>
<text text-anchor="start" x="571.67" y="-15.4" font-family="Times-12" font-size="14.00"> &#160;Providers</text>
<polygon fill="#fb8072" stroke="transparent" points="644,-10 644,-30 664,-30 664,-10 644,-10"/>
<text text-anchor="start" x="667.73" y="-15.4" font-family="Times-12" font-size="14.00"> &#160;Exports</text>
<g id="clust1" class="cluster">
<title>cluster_ResourceDiffSelectModule</title>
<polygon fill="none" stroke="black" stroke-dasharray="1,5" points="8,-70 8,-195 964,-195 964,-70 8,-70"/>
</g>
<g id="clust2" class="cluster">
<title>cluster_ResourceDiffSelectModule_declarations</title>
<polygon fill="none" stroke="black" points="376,-78 376,-130 956,-130 956,-78 376,-78"/>
</g>
<g id="clust6" class="cluster">
<title>cluster_ResourceDiffSelectModule_imports</title>
<polygon fill="none" stroke="black" points="16,-78 16,-130 368,-130 368,-78 16,-78"/>
</g>
<!-- AppDiffSelectComponent -->
<g id="node1" class="node">
<title>AppDiffSelectComponent</title>
<polygon fill="#ffffb3" stroke="black" points="948.47,-122 785.53,-122 785.53,-86 948.47,-86 948.47,-122"/>
<text text-anchor="middle" x="867" y="-99.8" font-family="Times,serif" font-size="14.00">AppDiffSelectComponent</text>
</g>
<!-- ResourceDiffSelectModule -->
<g id="node4" class="node">
<title>ResourceDiffSelectModule</title>
<polygon fill="#8dd3c7" stroke="black" points="555.66,-187 552.66,-191 531.66,-191 528.66,-187 386.34,-187 386.34,-151 555.66,-151 555.66,-187"/>
<text text-anchor="middle" x="471" y="-164.8" font-family="Times,serif" font-size="14.00">ResourceDiffSelectModule</text>
</g>
<!-- AppDiffSelectComponent&#45;&gt;ResourceDiffSelectModule -->
<g id="edge1" class="edge">
<title>AppDiffSelectComponent&#45;&gt;ResourceDiffSelectModule</title>
<path fill="none" stroke="black" d="M867,-122.28C867,-143.32 867,-175 867,-175 867,-175 565.95,-175 565.95,-175"/>
<polygon fill="black" stroke="black" points="565.95,-171.5 555.95,-175 565.95,-178.5 565.95,-171.5"/>
</g>
<!-- ResourceDiffSelectComponent -->
<g id="node2" class="node">
<title>ResourceDiffSelectComponent</title>
<polygon fill="#ffffb3" stroke="black" points="767.44,-122 576.56,-122 576.56,-86 767.44,-86 767.44,-122"/>
<text text-anchor="middle" x="672" y="-99.8" font-family="Times,serif" font-size="14.00">ResourceDiffSelectComponent</text>
</g>
<!-- ResourceDiffSelectComponent&#45;&gt;ResourceDiffSelectModule -->
<g id="edge2" class="edge">
<title>ResourceDiffSelectComponent&#45;&gt;ResourceDiffSelectModule</title>
<path fill="none" stroke="black" d="M672,-122.02C672,-139.37 672,-163 672,-163 672,-163 565.66,-163 565.66,-163"/>
<polygon fill="black" stroke="black" points="565.66,-159.5 555.66,-163 565.66,-166.5 565.66,-159.5"/>
</g>
<!-- SingleDiffSelectComponent -->
<g id="node3" class="node">
<title>SingleDiffSelectComponent</title>
<polygon fill="#ffffb3" stroke="black" points="558.14,-122 383.86,-122 383.86,-86 558.14,-86 558.14,-122"/>
<text text-anchor="middle" x="471" y="-99.8" font-family="Times,serif" font-size="14.00">SingleDiffSelectComponent</text>
</g>
<!-- SingleDiffSelectComponent&#45;&gt;ResourceDiffSelectModule -->
<g id="edge3" class="edge">
<title>SingleDiffSelectComponent&#45;&gt;ResourceDiffSelectModule</title>
<path fill="none" stroke="black" d="M471,-122.11C471,-122.11 471,-140.99 471,-140.99"/>
<polygon fill="black" stroke="black" points="467.5,-140.99 471,-150.99 474.5,-140.99 467.5,-140.99"/>
</g>
<!-- LayoutsModule -->
<g id="node5" class="node">
<title>LayoutsModule</title>
<polygon fill="#8dd3c7" stroke="black" points="360.15,-122 357.15,-126 336.15,-126 333.15,-122 255.85,-122 255.85,-86 360.15,-86 360.15,-122"/>
<text text-anchor="middle" x="308" y="-99.8" font-family="Times,serif" font-size="14.00">LayoutsModule</text>
</g>
<!-- LayoutsModule&#45;&gt;ResourceDiffSelectModule -->
<g id="edge4" class="edge">
<title>LayoutsModule&#45;&gt;ResourceDiffSelectModule</title>
<path fill="none" stroke="black" d="M308,-122.02C308,-139.37 308,-163 308,-163 308,-163 376.16,-163 376.16,-163"/>
<polygon fill="black" stroke="black" points="376.16,-166.5 386.16,-163 376.16,-159.5 376.16,-166.5"/>
</g>
<!-- ResourceDiffSelectRoutingModule -->
<g id="node6" class="node">
<title>ResourceDiffSelectRoutingModule</title>
<polygon fill="#8dd3c7" stroke="black" points="238.28,-122 235.28,-126 214.28,-126 211.28,-122 23.72,-122 23.72,-86 238.28,-86 238.28,-122"/>
<text text-anchor="middle" x="131" y="-99.8" font-family="Times,serif" font-size="14.00">ResourceDiffSelectRoutingModule</text>
</g>
<!-- ResourceDiffSelectRoutingModule&#45;&gt;ResourceDiffSelectModule -->
<g id="edge5" class="edge">
<title>ResourceDiffSelectRoutingModule&#45;&gt;ResourceDiffSelectModule</title>
<path fill="none" stroke="black" d="M131,-122.28C131,-143.32 131,-175 131,-175 131,-175 376.08,-175 376.08,-175"/>
<polygon fill="black" stroke="black" points="376.08,-178.5 386.08,-175 376.08,-171.5 376.08,-178.5"/>
</g>
</g>
</svg>
