<?xml version="1.0" encoding="UTF-8" standalone="no"?>
<!DOCTYPE svg PUBLIC "-//W3C//DTD SVG 1.1//EN"
 "http://www.w3.org/Graphics/SVG/1.1/DTD/svg11.dtd">
<!-- Generated by graphviz version 2.47.0 (20210316.0004)
 -->
<!-- Title: dependencies Pages: 1 -->
<svg width="547pt" height="284pt"
 viewBox="0.00 0.00 547.00 284.00" xmlns="http://www.w3.org/2000/svg" xmlns:xlink="http://www.w3.org/1999/xlink">
<g id="graph0" class="graph" transform="scale(1 1) rotate(0) translate(4 280)">
<title>dependencies</title>
<polygon fill="white" stroke="transparent" points="-4,4 -4,-280 543,-280 543,4 -4,4"/>
<text text-anchor="start" x="248.51" y="-42.4" font-family="Times-12" font-weight="bold" font-size="14.00">Legend</text>
<polygon fill="#ffffb3" stroke="transparent" points="35.5,-10 35.5,-30 55.5,-30 55.5,-10 35.5,-10"/>
<text text-anchor="start" x="59.13" y="-15.4" font-family="Times-12" font-size="14.00"> &#160;Declarations</text>
<polygon fill="#8dd3c7" stroke="transparent" points="148.5,-10 148.5,-30 168.5,-30 168.5,-10 148.5,-10"/>
<text text-anchor="start" x="172.23" y="-15.4" font-family="Times-12" font-size="14.00"> &#160;Module</text>
<polygon fill="#80b1d3" stroke="transparent" points="234.5,-10 234.5,-30 254.5,-30 254.5,-10 234.5,-10"/>
<text text-anchor="start" x="258.28" y="-15.4" font-family="Times-12" font-size="14.00"> &#160;Bootstrap</text>
<polygon fill="#fdb462" stroke="transparent" points="331.5,-10 331.5,-30 351.5,-30 351.5,-10 331.5,-10"/>
<text text-anchor="start" x="355.17" y="-15.4" font-family="Times-12" font-size="14.00"> &#160;Providers</text>
<polygon fill="#fb8072" stroke="transparent" points="427.5,-10 427.5,-30 447.5,-30 447.5,-10 427.5,-10"/>
<text text-anchor="start" x="451.23" y="-15.4" font-family="Times-12" font-size="14.00"> &#160;Exports</text>
<g id="clust1" class="cluster">
<title>cluster_CIDetailsModule</title>
<polygon fill="none" stroke="black" stroke-dasharray="1,5" points="8,-70 8,-268 531,-268 531,-70 8,-70"/>
</g>
<g id="clust4" class="cluster">
<title>cluster_CIDetailsModule_imports</title>
<polygon fill="none" stroke="black" points="174,-78 174,-130 523,-130 523,-78 174,-78"/>
</g>
<g id="clust2" class="cluster">
<title>cluster_CIDetailsModule_declarations</title>
<polygon fill="none" stroke="black" points="16,-78 16,-130 166,-130 166,-78 16,-78"/>
</g>
<g id="clust5" class="cluster">
<title>cluster_CIDetailsModule_exports</title>
<polygon fill="none" stroke="black" points="183,-208 183,-260 337,-260 337,-208 183,-208"/>
</g>
<!-- CIDetailsComponent -->
<g id="node1" class="node">
<title>CIDetailsComponent</title>
<polygon fill="#ffffb3" stroke="black" points="158.48,-122 23.52,-122 23.52,-86 158.48,-86 158.48,-122"/>
<text text-anchor="middle" x="91" y="-99.8" font-family="Times,serif" font-size="14.00">CIDetailsComponent</text>
</g>
<!-- CIDetailsModule -->
<g id="node2" class="node">
<title>CIDetailsModule</title>
<polygon fill="#8dd3c7" stroke="black" points="316.7,-187 313.7,-191 292.7,-191 289.7,-187 203.3,-187 203.3,-151 316.7,-151 316.7,-187"/>
<text text-anchor="middle" x="260" y="-164.8" font-family="Times,serif" font-size="14.00">CIDetailsModule</text>
</g>
<!-- CIDetailsComponent&#45;&gt;CIDetailsModule -->
<g id="edge1" class="edge">
<title>CIDetailsComponent&#45;&gt;CIDetailsModule</title>
<path fill="none" stroke="black" d="M91,-122.11C91,-141.34 91,-169 91,-169 91,-169 193.26,-169 193.26,-169"/>
<polygon fill="black" stroke="black" points="193.26,-172.5 203.26,-169 193.26,-165.5 193.26,-172.5"/>
</g>
<!-- CIDetailsComponent  -->
<g id="node5" class="node">
<title>CIDetailsComponent </title>
<polygon fill="#fb8072" stroke="black" points="329.48,-252 190.52,-252 190.52,-216 329.48,-216 329.48,-252"/>
<text text-anchor="middle" x="260" y="-229.8" font-family="Times,serif" font-size="14.00">CIDetailsComponent </text>
</g>
<!-- CIDetailsModule&#45;&gt;CIDetailsComponent  -->
<g id="edge4" class="edge">
<title>CIDetailsModule&#45;&gt;CIDetailsComponent </title>
<path fill="none" stroke="black" stroke-dasharray="5,2" d="M260,-187.11C260,-187.11 260,-205.99 260,-205.99"/>
<polygon fill="black" stroke="black" points="256.5,-205.99 260,-215.99 263.5,-205.99 256.5,-205.99"/>
</g>
<!-- CIDetailsRoutingModule -->
<g id="node3" class="node">
<title>CIDetailsRoutingModule</title>
<polygon fill="#8dd3c7" stroke="black" points="515.32,-122 512.32,-126 491.32,-126 488.32,-122 356.68,-122 356.68,-86 515.32,-86 515.32,-122"/>
<text text-anchor="middle" x="436" y="-99.8" font-family="Times,serif" font-size="14.00">CIDetailsRoutingModule</text>
</g>
<!-- CIDetailsRoutingModule&#45;&gt;CIDetailsModule -->
<g id="edge2" class="edge">
<title>CIDetailsRoutingModule&#45;&gt;CIDetailsModule</title>
<path fill="none" stroke="black" d="M436,-122.11C436,-141.34 436,-169 436,-169 436,-169 326.66,-169 326.66,-169"/>
<polygon fill="black" stroke="black" points="326.66,-165.5 316.66,-169 326.66,-172.5 326.66,-165.5"/>
</g>
<!-- WorkflowDetailsModule -->
<g id="node4" class="node">
<title>WorkflowDetailsModule</title>
<polygon fill="#8dd3c7" stroke="black" points="338.24,-122 335.24,-126 314.24,-126 311.24,-122 181.76,-122 181.76,-86 338.24,-86 338.24,-122"/>
<text text-anchor="middle" x="260" y="-99.8" font-family="Times,serif" font-size="14.00">WorkflowDetailsModule</text>
</g>
<!-- WorkflowDetailsModule&#45;&gt;CIDetailsModule -->
<g id="edge3" class="edge">
<title>WorkflowDetailsModule&#45;&gt;CIDetailsModule</title>
<path fill="none" stroke="black" d="M260,-122.11C260,-122.11 260,-140.99 260,-140.99"/>
<polygon fill="black" stroke="black" points="256.5,-140.99 260,-150.99 263.5,-140.99 256.5,-140.99"/>
</g>
</g>
</svg>
