<?xml version="1.0" encoding="UTF-8" standalone="no"?>
<!DOCTYPE svg PUBLIC "-//W3C//DTD SVG 1.1//EN"
 "http://www.w3.org/Graphics/SVG/1.1/DTD/svg11.dtd">
<!-- Generated by graphviz version 2.47.0 (20210316.0004)
 -->
<!-- Title: dependencies Pages: 1 -->
<svg width="633pt" height="211pt"
 viewBox="0.00 0.00 633.00 211.00" xmlns="http://www.w3.org/2000/svg" xmlns:xlink="http://www.w3.org/1999/xlink">
<g id="graph0" class="graph" transform="scale(1 1) rotate(0) translate(4 207)">
<title>dependencies</title>
<polygon fill="white" stroke="transparent" points="-4,4 -4,-207 629,-207 629,4 -4,4"/>
<text text-anchor="start" x="291.51" y="-42.4" font-family="Times-12" font-weight="bold" font-size="14.00">Legend</text>
<polygon fill="#ffffb3" stroke="transparent" points="78.5,-10 78.5,-30 98.5,-30 98.5,-10 78.5,-10"/>
<text text-anchor="start" x="102.13" y="-15.4" font-family="Times-12" font-size="14.00"> &#160;Declarations</text>
<polygon fill="#8dd3c7" stroke="transparent" points="191.5,-10 191.5,-30 211.5,-30 211.5,-10 191.5,-10"/>
<text text-anchor="start" x="215.23" y="-15.4" font-family="Times-12" font-size="14.00"> &#160;Module</text>
<polygon fill="#80b1d3" stroke="transparent" points="277.5,-10 277.5,-30 297.5,-30 297.5,-10 277.5,-10"/>
<text text-anchor="start" x="301.28" y="-15.4" font-family="Times-12" font-size="14.00"> &#160;Bootstrap</text>
<polygon fill="#fdb462" stroke="transparent" points="374.5,-10 374.5,-30 394.5,-30 394.5,-10 374.5,-10"/>
<text text-anchor="start" x="398.17" y="-15.4" font-family="Times-12" font-size="14.00"> &#160;Providers</text>
<polygon fill="#fb8072" stroke="transparent" points="470.5,-10 470.5,-30 490.5,-30 490.5,-10 470.5,-10"/>
<text text-anchor="start" x="494.23" y="-15.4" font-family="Times-12" font-size="14.00"> &#160;Exports</text>
<g id="clust1" class="cluster">
<title>cluster_PromotionWorkflowsModule</title>
<polygon fill="none" stroke="black" stroke-dasharray="1,5" points="8,-70 8,-195 617,-195 617,-70 8,-70"/>
</g>
<g id="clust4" class="cluster">
<title>cluster_PromotionWorkflowsModule_imports</title>
<polygon fill="none" stroke="black" points="244,-78 244,-130 609,-130 609,-78 244,-78"/>
</g>
<g id="clust2" class="cluster">
<title>cluster_PromotionWorkflowsModule_declarations</title>
<polygon fill="none" stroke="black" points="16,-78 16,-130 236,-130 236,-78 16,-78"/>
</g>
<!-- PromotionWorkflowsComponent -->
<g id="node1" class="node">
<title>PromotionWorkflowsComponent</title>
<polygon fill="#ffffb3" stroke="black" points="227.93,-122 24.07,-122 24.07,-86 227.93,-86 227.93,-122"/>
<text text-anchor="middle" x="126" y="-99.8" font-family="Times,serif" font-size="14.00">PromotionWorkflowsComponent</text>
</g>
<!-- PromotionWorkflowsModule -->
<g id="node2" class="node">
<title>PromotionWorkflowsModule</title>
<polygon fill="#8dd3c7" stroke="black" points="455.64,-187 452.64,-191 431.64,-191 428.64,-187 274.36,-187 274.36,-151 455.64,-151 455.64,-187"/>
<text text-anchor="middle" x="365" y="-164.8" font-family="Times,serif" font-size="14.00">PromotionWorkflowsModule</text>
</g>
<!-- PromotionWorkflowsComponent&#45;&gt;PromotionWorkflowsModule -->
<g id="edge1" class="edge">
<title>PromotionWorkflowsComponent&#45;&gt;PromotionWorkflowsModule</title>
<path fill="none" stroke="black" d="M126,-122.11C126,-141.34 126,-169 126,-169 126,-169 264.3,-169 264.3,-169"/>
<polygon fill="black" stroke="black" points="264.3,-172.5 274.3,-169 264.3,-165.5 264.3,-172.5"/>
</g>
<!-- LayoutsModule -->
<g id="node3" class="node">
<title>LayoutsModule</title>
<polygon fill="#8dd3c7" stroke="black" points="601.15,-122 598.15,-126 577.15,-126 574.15,-122 496.85,-122 496.85,-86 601.15,-86 601.15,-122"/>
<text text-anchor="middle" x="549" y="-99.8" font-family="Times,serif" font-size="14.00">LayoutsModule</text>
</g>
<!-- LayoutsModule&#45;&gt;PromotionWorkflowsModule -->
<g id="edge2" class="edge">
<title>LayoutsModule&#45;&gt;PromotionWorkflowsModule</title>
<path fill="none" stroke="black" d="M549,-122.11C549,-141.34 549,-169 549,-169 549,-169 465.65,-169 465.65,-169"/>
<polygon fill="black" stroke="black" points="465.65,-165.5 455.65,-169 465.65,-172.5 465.65,-165.5"/>
</g>
<!-- PromotionWorkflowsRoutingModule -->
<g id="node4" class="node">
<title>PromotionWorkflowsRoutingModule</title>
<polygon fill="#8dd3c7" stroke="black" points="478.26,-122 475.26,-126 454.26,-126 451.26,-122 251.74,-122 251.74,-86 478.26,-86 478.26,-122"/>
<text text-anchor="middle" x="365" y="-99.8" font-family="Times,serif" font-size="14.00">PromotionWorkflowsRoutingModule</text>
</g>
<!-- PromotionWorkflowsRoutingModule&#45;&gt;PromotionWorkflowsModule -->
<g id="edge3" class="edge">
<title>PromotionWorkflowsRoutingModule&#45;&gt;PromotionWorkflowsModule</title>
<path fill="none" stroke="black" d="M365,-122.11C365,-122.11 365,-140.99 365,-140.99"/>
<polygon fill="black" stroke="black" points="361.5,-140.99 365,-150.99 368.5,-140.99 361.5,-140.99"/>
</g>
</g>
</svg>
