<?xml version="1.0" encoding="UTF-8" standalone="no"?>
<!DOCTYPE svg PUBLIC "-//W3C//DTD SVG 1.1//EN"
 "http://www.w3.org/Graphics/SVG/1.1/DTD/svg11.dtd">
<!-- Generated by graphviz version 2.47.0 (20210316.0004)
 -->
<!-- Title: dependencies Pages: 1 -->
<svg width="580pt" height="284pt"
 viewBox="0.00 0.00 580.00 284.00" xmlns="http://www.w3.org/2000/svg" xmlns:xlink="http://www.w3.org/1999/xlink">
<g id="graph0" class="graph" transform="scale(1 1) rotate(0) translate(4 280)">
<title>dependencies</title>
<polygon fill="white" stroke="transparent" points="-4,4 -4,-280 576,-280 576,4 -4,4"/>
<text text-anchor="start" x="265.01" y="-42.4" font-family="Times-12" font-weight="bold" font-size="14.00">Legend</text>
<polygon fill="#ffffb3" stroke="transparent" points="52,-10 52,-30 72,-30 72,-10 52,-10"/>
<text text-anchor="start" x="75.63" y="-15.4" font-family="Times-12" font-size="14.00"> &#160;Declarations</text>
<polygon fill="#8dd3c7" stroke="transparent" points="165,-10 165,-30 185,-30 185,-10 165,-10"/>
<text text-anchor="start" x="188.73" y="-15.4" font-family="Times-12" font-size="14.00"> &#160;Module</text>
<polygon fill="#80b1d3" stroke="transparent" points="251,-10 251,-30 271,-30 271,-10 251,-10"/>
<text text-anchor="start" x="274.78" y="-15.4" font-family="Times-12" font-size="14.00"> &#160;Bootstrap</text>
<polygon fill="#fdb462" stroke="transparent" points="348,-10 348,-30 368,-30 368,-10 348,-10"/>
<text text-anchor="start" x="371.67" y="-15.4" font-family="Times-12" font-size="14.00"> &#160;Providers</text>
<polygon fill="#fb8072" stroke="transparent" points="444,-10 444,-30 464,-30 464,-10 444,-10"/>
<text text-anchor="start" x="467.73" y="-15.4" font-family="Times-12" font-size="14.00"> &#160;Exports</text>
<g id="clust1" class="cluster">
<title>cluster_ResourceDomainCreateEditModule</title>
<polygon fill="none" stroke="black" stroke-dasharray="1,5" points="8,-70 8,-268 564,-268 564,-70 8,-70"/>
</g>
<g id="clust2" class="cluster">
<title>cluster_ResourceDomainCreateEditModule_declarations</title>
<polygon fill="none" stroke="black" points="302,-78 302,-130 556,-130 556,-78 302,-78"/>
</g>
<g id="clust4" class="cluster">
<title>cluster_ResourceDomainCreateEditModule_imports</title>
<polygon fill="none" stroke="black" points="16,-78 16,-130 294,-130 294,-78 16,-78"/>
</g>
<g id="clust5" class="cluster">
<title>cluster_ResourceDomainCreateEditModule_exports</title>
<polygon fill="none" stroke="black" points="162,-208 162,-260 420,-260 420,-208 162,-208"/>
</g>
<!-- ResourceDomainCreateEditComponent -->
<g id="node1" class="node">
<title>ResourceDomainCreateEditComponent</title>
<polygon fill="#ffffb3" stroke="black" points="548.39,-122 309.61,-122 309.61,-86 548.39,-86 548.39,-122"/>
<text text-anchor="middle" x="429" y="-99.8" font-family="Times,serif" font-size="14.00">ResourceDomainCreateEditComponent</text>
</g>
<!-- ResourceDomainCreateEditModule -->
<g id="node2" class="node">
<title>ResourceDomainCreateEditModule</title>
<polygon fill="#8dd3c7" stroke="black" points="399.1,-187 396.1,-191 375.1,-191 372.1,-187 182.9,-187 182.9,-151 399.1,-151 399.1,-187"/>
<text text-anchor="middle" x="291" y="-164.8" font-family="Times,serif" font-size="14.00">ResourceDomainCreateEditModule</text>
</g>
<!-- ResourceDomainCreateEditComponent&#45;&gt;ResourceDomainCreateEditModule -->
<g id="edge1" class="edge">
<title>ResourceDomainCreateEditComponent&#45;&gt;ResourceDomainCreateEditModule</title>
<path fill="none" stroke="black" d="M354.55,-122.11C354.55,-122.11 354.55,-140.99 354.55,-140.99"/>
<polygon fill="black" stroke="black" points="351.05,-140.99 354.55,-150.99 358.05,-140.99 351.05,-140.99"/>
</g>
<!-- ResourceDomainCreateEditComponent  -->
<g id="node4" class="node">
<title>ResourceDomainCreateEditComponent </title>
<polygon fill="#fb8072" stroke="black" points="411.89,-252 170.11,-252 170.11,-216 411.89,-216 411.89,-252"/>
<text text-anchor="middle" x="291" y="-229.8" font-family="Times,serif" font-size="14.00">ResourceDomainCreateEditComponent </text>
</g>
<!-- ResourceDomainCreateEditModule&#45;&gt;ResourceDomainCreateEditComponent  -->
<g id="edge3" class="edge">
<title>ResourceDomainCreateEditModule&#45;&gt;ResourceDomainCreateEditComponent </title>
<path fill="none" stroke="black" stroke-dasharray="5,2" d="M291,-187.11C291,-187.11 291,-205.99 291,-205.99"/>
<polygon fill="black" stroke="black" points="287.5,-205.99 291,-215.99 294.5,-205.99 287.5,-205.99"/>
</g>
<!-- ResourceDomainCreateEditRoutingModule -->
<g id="node3" class="node">
<title>ResourceDomainCreateEditRoutingModule</title>
<polygon fill="#8dd3c7" stroke="black" points="285.72,-122 282.72,-126 261.72,-126 258.72,-122 24.28,-122 24.28,-86 285.72,-86 285.72,-122"/>
<text text-anchor="middle" x="155" y="-99.8" font-family="Times,serif" font-size="14.00">ResourceDomainCreateEditRoutingModule</text>
</g>
<!-- ResourceDomainCreateEditRoutingModule&#45;&gt;ResourceDomainCreateEditModule -->
<g id="edge2" class="edge">
<title>ResourceDomainCreateEditRoutingModule&#45;&gt;ResourceDomainCreateEditModule</title>
<path fill="none" stroke="black" d="M234.28,-122.11C234.28,-122.11 234.28,-140.99 234.28,-140.99"/>
<polygon fill="black" stroke="black" points="230.78,-140.99 234.28,-150.99 237.78,-140.99 230.78,-140.99"/>
</g>
</g>
</svg>
