<?xml version="1.0" encoding="UTF-8" standalone="no"?>
<!DOCTYPE svg PUBLIC "-//W3C//DTD SVG 1.1//EN"
 "http://www.w3.org/Graphics/SVG/1.1/DTD/svg11.dtd">
<!-- Generated by graphviz version 2.47.0 (20210316.0004)
 -->
<!-- Title: dependencies Pages: 1 -->
<svg width="522pt" height="211pt"
 viewBox="0.00 0.00 522.00 211.00" xmlns="http://www.w3.org/2000/svg" xmlns:xlink="http://www.w3.org/1999/xlink">
<g id="graph0" class="graph" transform="scale(1 1) rotate(0) translate(4 207)">
<title>dependencies</title>
<polygon fill="white" stroke="transparent" points="-4,4 -4,-207 518,-207 518,4 -4,4"/>
<text text-anchor="start" x="236.01" y="-42.4" font-family="Times-12" font-weight="bold" font-size="14.00">Legend</text>
<polygon fill="#ffffb3" stroke="transparent" points="23,-10 23,-30 43,-30 43,-10 23,-10"/>
<text text-anchor="start" x="46.63" y="-15.4" font-family="Times-12" font-size="14.00"> &#160;Declarations</text>
<polygon fill="#8dd3c7" stroke="transparent" points="136,-10 136,-30 156,-30 156,-10 136,-10"/>
<text text-anchor="start" x="159.73" y="-15.4" font-family="Times-12" font-size="14.00"> &#160;Module</text>
<polygon fill="#80b1d3" stroke="transparent" points="222,-10 222,-30 242,-30 242,-10 222,-10"/>
<text text-anchor="start" x="245.78" y="-15.4" font-family="Times-12" font-size="14.00"> &#160;Bootstrap</text>
<polygon fill="#fdb462" stroke="transparent" points="319,-10 319,-30 339,-30 339,-10 319,-10"/>
<text text-anchor="start" x="342.67" y="-15.4" font-family="Times-12" font-size="14.00"> &#160;Providers</text>
<polygon fill="#fb8072" stroke="transparent" points="415,-10 415,-30 435,-30 435,-10 415,-10"/>
<text text-anchor="start" x="438.73" y="-15.4" font-family="Times-12" font-size="14.00"> &#160;Exports</text>
<g id="clust1" class="cluster">
<title>cluster_ClusterVarsModule</title>
<polygon fill="none" stroke="black" stroke-dasharray="1,5" points="8,-70 8,-195 506,-195 506,-70 8,-70"/>
</g>
<g id="clust2" class="cluster">
<title>cluster_ClusterVarsModule_declarations</title>
<polygon fill="none" stroke="black" points="334,-78 334,-130 498,-130 498,-78 334,-78"/>
</g>
<g id="clust4" class="cluster">
<title>cluster_ClusterVarsModule_imports</title>
<polygon fill="none" stroke="black" points="16,-78 16,-130 326,-130 326,-78 16,-78"/>
</g>
<!-- ClusterVarsComponent -->
<g id="node1" class="node">
<title>ClusterVarsComponent</title>
<polygon fill="#ffffb3" stroke="black" points="490.2,-122 341.8,-122 341.8,-86 490.2,-86 490.2,-122"/>
<text text-anchor="middle" x="416" y="-99.8" font-family="Times,serif" font-size="14.00">ClusterVarsComponent</text>
</g>
<!-- ClusterVarsModule -->
<g id="node2" class="node">
<title>ClusterVarsModule</title>
<polygon fill="#8dd3c7" stroke="black" points="295.41,-187 292.41,-191 271.41,-191 268.41,-187 168.59,-187 168.59,-151 295.41,-151 295.41,-187"/>
<text text-anchor="middle" x="232" y="-164.8" font-family="Times,serif" font-size="14.00">ClusterVarsModule</text>
</g>
<!-- ClusterVarsComponent&#45;&gt;ClusterVarsModule -->
<g id="edge1" class="edge">
<title>ClusterVarsComponent&#45;&gt;ClusterVarsModule</title>
<path fill="none" stroke="black" d="M416,-122.11C416,-141.34 416,-169 416,-169 416,-169 305.32,-169 305.32,-169"/>
<polygon fill="black" stroke="black" points="305.32,-165.5 295.32,-169 305.32,-172.5 305.32,-165.5"/>
</g>
<!-- ClusterVarsRoutingModule -->
<g id="node3" class="node">
<title>ClusterVarsRoutingModule</title>
<polygon fill="#8dd3c7" stroke="black" points="317.53,-122 314.53,-126 293.53,-126 290.53,-122 146.47,-122 146.47,-86 317.53,-86 317.53,-122"/>
<text text-anchor="middle" x="232" y="-99.8" font-family="Times,serif" font-size="14.00">ClusterVarsRoutingModule</text>
</g>
<!-- ClusterVarsRoutingModule&#45;&gt;ClusterVarsModule -->
<g id="edge2" class="edge">
<title>ClusterVarsRoutingModule&#45;&gt;ClusterVarsModule</title>
<path fill="none" stroke="black" d="M232,-122.11C232,-122.11 232,-140.99 232,-140.99"/>
<polygon fill="black" stroke="black" points="228.5,-140.99 232,-150.99 235.5,-140.99 228.5,-140.99"/>
</g>
<!-- LayoutsModule -->
<g id="node4" class="node">
<title>LayoutsModule</title>
<polygon fill="#8dd3c7" stroke="black" points="128.15,-122 125.15,-126 104.15,-126 101.15,-122 23.85,-122 23.85,-86 128.15,-86 128.15,-122"/>
<text text-anchor="middle" x="76" y="-99.8" font-family="Times,serif" font-size="14.00">LayoutsModule</text>
</g>
<!-- LayoutsModule&#45;&gt;ClusterVarsModule -->
<g id="edge3" class="edge">
<title>LayoutsModule&#45;&gt;ClusterVarsModule</title>
<path fill="none" stroke="black" d="M76,-122.11C76,-141.34 76,-169 76,-169 76,-169 158.55,-169 158.55,-169"/>
<polygon fill="black" stroke="black" points="158.55,-172.5 168.55,-169 158.55,-165.5 158.55,-172.5"/>
</g>
</g>
</svg>
