<?xml version="1.0" encoding="UTF-8" standalone="no"?>
<!DOCTYPE svg PUBLIC "-//W3C//DTD SVG 1.1//EN"
 "http://www.w3.org/Graphics/SVG/1.1/DTD/svg11.dtd">
<!-- Generated by graphviz version 2.47.0 (20210316.0004)
 -->
<!-- Title: dependencies Pages: 1 -->
<svg width="576pt" height="211pt"
 viewBox="0.00 0.00 576.00 211.00" xmlns="http://www.w3.org/2000/svg" xmlns:xlink="http://www.w3.org/1999/xlink">
<g id="graph0" class="graph" transform="scale(1 1) rotate(0) translate(4 207)">
<title>dependencies</title>
<polygon fill="white" stroke="transparent" points="-4,4 -4,-207 572,-207 572,4 -4,4"/>
<text text-anchor="start" x="263.01" y="-42.4" font-family="Times-12" font-weight="bold" font-size="14.00">Legend</text>
<polygon fill="#ffffb3" stroke="transparent" points="50,-10 50,-30 70,-30 70,-10 50,-10"/>
<text text-anchor="start" x="73.63" y="-15.4" font-family="Times-12" font-size="14.00"> &#160;Declarations</text>
<polygon fill="#8dd3c7" stroke="transparent" points="163,-10 163,-30 183,-30 183,-10 163,-10"/>
<text text-anchor="start" x="186.73" y="-15.4" font-family="Times-12" font-size="14.00"> &#160;Module</text>
<polygon fill="#80b1d3" stroke="transparent" points="249,-10 249,-30 269,-30 269,-10 249,-10"/>
<text text-anchor="start" x="272.78" y="-15.4" font-family="Times-12" font-size="14.00"> &#160;Bootstrap</text>
<polygon fill="#fdb462" stroke="transparent" points="346,-10 346,-30 366,-30 366,-10 346,-10"/>
<text text-anchor="start" x="369.67" y="-15.4" font-family="Times-12" font-size="14.00"> &#160;Providers</text>
<polygon fill="#fb8072" stroke="transparent" points="442,-10 442,-30 462,-30 462,-10 442,-10"/>
<text text-anchor="start" x="465.73" y="-15.4" font-family="Times-12" font-size="14.00"> &#160;Exports</text>
<g id="clust1" class="cluster">
<title>cluster_StackVarsAddModule</title>
<polygon fill="none" stroke="black" stroke-dasharray="1,5" points="8,-70 8,-195 560,-195 560,-70 8,-70"/>
</g>
<g id="clust2" class="cluster">
<title>cluster_StackVarsAddModule_declarations</title>
<polygon fill="none" stroke="black" points="348,-78 348,-130 552,-130 552,-78 348,-78"/>
</g>
<g id="clust4" class="cluster">
<title>cluster_StackVarsAddModule_imports</title>
<polygon fill="none" stroke="black" points="16,-78 16,-130 340,-130 340,-78 16,-78"/>
</g>
<!-- AppStackVarsAddComponent -->
<g id="node1" class="node">
<title>AppStackVarsAddComponent</title>
<polygon fill="#ffffb3" stroke="black" points="543.57,-122 356.43,-122 356.43,-86 543.57,-86 543.57,-122"/>
<text text-anchor="middle" x="450" y="-99.8" font-family="Times,serif" font-size="14.00">AppStackVarsAddComponent</text>
</g>
<!-- StackVarsAddModule -->
<g id="node2" class="node">
<title>StackVarsAddModule</title>
<polygon fill="#8dd3c7" stroke="black" points="350.69,-187 347.69,-191 326.69,-191 323.69,-187 209.31,-187 209.31,-151 350.69,-151 350.69,-187"/>
<text text-anchor="middle" x="280" y="-164.8" font-family="Times,serif" font-size="14.00">StackVarsAddModule</text>
</g>
<!-- AppStackVarsAddComponent&#45;&gt;StackVarsAddModule -->
<g id="edge1" class="edge">
<title>AppStackVarsAddComponent&#45;&gt;StackVarsAddModule</title>
<path fill="none" stroke="black" d="M356.1,-104C347.22,-104 341.46,-104 341.46,-104 341.46,-104 341.46,-140.89 341.46,-140.89"/>
<polygon fill="black" stroke="black" points="337.96,-140.89 341.46,-150.89 344.96,-140.89 337.96,-140.89"/>
</g>
<!-- LayoutsModule -->
<g id="node3" class="node">
<title>LayoutsModule</title>
<polygon fill="#8dd3c7" stroke="black" points="332.15,-122 329.15,-126 308.15,-126 305.15,-122 227.85,-122 227.85,-86 332.15,-86 332.15,-122"/>
<text text-anchor="middle" x="280" y="-99.8" font-family="Times,serif" font-size="14.00">LayoutsModule</text>
</g>
<!-- LayoutsModule&#45;&gt;StackVarsAddModule -->
<g id="edge2" class="edge">
<title>LayoutsModule&#45;&gt;StackVarsAddModule</title>
<path fill="none" stroke="black" d="M280,-122.11C280,-122.11 280,-140.99 280,-140.99"/>
<polygon fill="black" stroke="black" points="276.5,-140.99 280,-150.99 283.5,-140.99 276.5,-140.99"/>
</g>
<!-- StackVarsAddRoutingModule -->
<g id="node4" class="node">
<title>StackVarsAddRoutingModule</title>
<polygon fill="#8dd3c7" stroke="black" points="210.3,-122 207.3,-126 186.3,-126 183.3,-122 23.7,-122 23.7,-86 210.3,-86 210.3,-122"/>
<text text-anchor="middle" x="117" y="-99.8" font-family="Times,serif" font-size="14.00">StackVarsAddRoutingModule</text>
</g>
<!-- StackVarsAddRoutingModule&#45;&gt;StackVarsAddModule -->
<g id="edge3" class="edge">
<title>StackVarsAddRoutingModule&#45;&gt;StackVarsAddModule</title>
<path fill="none" stroke="black" d="M210.22,-104C215.62,-104 218.91,-104 218.91,-104 218.91,-104 218.91,-140.89 218.91,-140.89"/>
<polygon fill="black" stroke="black" points="215.41,-140.89 218.91,-150.89 222.41,-140.89 215.41,-140.89"/>
</g>
</g>
</svg>
