<?xml version="1.0" encoding="UTF-8" standalone="no"?>
<!DOCTYPE svg PUBLIC "-//W3C//DTD SVG 1.1//EN"
 "http://www.w3.org/Graphics/SVG/1.1/DTD/svg11.dtd">
<!-- Generated by graphviz version 2.47.0 (20210316.0004)
 -->
<!-- Title: dependencies Pages: 1 -->
<svg width="908pt" height="211pt"
 viewBox="0.00 0.00 908.00 211.00" xmlns="http://www.w3.org/2000/svg" xmlns:xlink="http://www.w3.org/1999/xlink">
<g id="graph0" class="graph" transform="scale(1 1) rotate(0) translate(4 207)">
<title>dependencies</title>
<polygon fill="white" stroke="transparent" points="-4,4 -4,-207 904,-207 904,4 -4,4"/>
<text text-anchor="start" x="429.01" y="-42.4" font-family="Times-12" font-weight="bold" font-size="14.00">Legend</text>
<polygon fill="#ffffb3" stroke="transparent" points="216,-10 216,-30 236,-30 236,-10 216,-10"/>
<text text-anchor="start" x="239.63" y="-15.4" font-family="Times-12" font-size="14.00"> &#160;Declarations</text>
<polygon fill="#8dd3c7" stroke="transparent" points="329,-10 329,-30 349,-30 349,-10 329,-10"/>
<text text-anchor="start" x="352.73" y="-15.4" font-family="Times-12" font-size="14.00"> &#160;Module</text>
<polygon fill="#80b1d3" stroke="transparent" points="415,-10 415,-30 435,-30 435,-10 415,-10"/>
<text text-anchor="start" x="438.78" y="-15.4" font-family="Times-12" font-size="14.00"> &#160;Bootstrap</text>
<polygon fill="#fdb462" stroke="transparent" points="512,-10 512,-30 532,-30 532,-10 512,-10"/>
<text text-anchor="start" x="535.67" y="-15.4" font-family="Times-12" font-size="14.00"> &#160;Providers</text>
<polygon fill="#fb8072" stroke="transparent" points="608,-10 608,-30 628,-30 628,-10 608,-10"/>
<text text-anchor="start" x="631.73" y="-15.4" font-family="Times-12" font-size="14.00"> &#160;Exports</text>
<g id="clust1" class="cluster">
<title>cluster_DesignerLayoutModule</title>
<polygon fill="none" stroke="black" stroke-dasharray="1,5" points="8,-70 8,-195 892,-195 892,-70 8,-70"/>
</g>
<g id="clust7" class="cluster">
<title>cluster_DesignerLayoutModule_imports</title>
<polygon fill="none" stroke="black" points="674,-78 674,-130 884,-130 884,-78 674,-78"/>
</g>
<g id="clust2" class="cluster">
<title>cluster_DesignerLayoutModule_declarations</title>
<polygon fill="none" stroke="black" points="16,-78 16,-130 666,-130 666,-78 16,-78"/>
</g>
<!-- AddIntentComponent -->
<g id="node1" class="node">
<title>AddIntentComponent</title>
<polygon fill="#ffffb3" stroke="black" points="658.1,-122 519.9,-122 519.9,-86 658.1,-86 658.1,-122"/>
<text text-anchor="middle" x="589" y="-99.8" font-family="Times,serif" font-size="14.00">AddIntentComponent</text>
</g>
<!-- DesignerLayoutModule -->
<g id="node5" class="node">
<title>DesignerLayoutModule</title>
<polygon fill="#8dd3c7" stroke="black" points="507.74,-187 504.74,-191 483.74,-191 480.74,-187 358.26,-187 358.26,-151 507.74,-151 507.74,-187"/>
<text text-anchor="middle" x="433" y="-164.8" font-family="Times,serif" font-size="14.00">DesignerLayoutModule</text>
</g>
<!-- AddIntentComponent&#45;&gt;DesignerLayoutModule -->
<g id="edge1" class="edge">
<title>AddIntentComponent&#45;&gt;DesignerLayoutModule</title>
<path fill="none" stroke="black" d="M589,-122.02C589,-139.37 589,-163 589,-163 589,-163 517.8,-163 517.8,-163"/>
<polygon fill="black" stroke="black" points="517.8,-159.5 507.8,-163 517.8,-166.5 517.8,-159.5"/>
</g>
<!-- AppIntentComponent -->
<g id="node2" class="node">
<title>AppIntentComponent</title>
<polygon fill="#ffffb3" stroke="black" points="502.1,-122 363.9,-122 363.9,-86 502.1,-86 502.1,-122"/>
<text text-anchor="middle" x="433" y="-99.8" font-family="Times,serif" font-size="14.00">AppIntentComponent</text>
</g>
<!-- AppIntentComponent&#45;&gt;DesignerLayoutModule -->
<g id="edge2" class="edge">
<title>AppIntentComponent&#45;&gt;DesignerLayoutModule</title>
<path fill="none" stroke="black" d="M433,-122.11C433,-122.11 433,-140.99 433,-140.99"/>
<polygon fill="black" stroke="black" points="429.5,-140.99 433,-150.99 436.5,-140.99 429.5,-140.99"/>
</g>
<!-- DesignerLayoutComponent -->
<g id="node3" class="node">
<title>DesignerLayoutComponent</title>
<polygon fill="#ffffb3" stroke="black" points="345.52,-122 174.48,-122 174.48,-86 345.52,-86 345.52,-122"/>
<text text-anchor="middle" x="260" y="-99.8" font-family="Times,serif" font-size="14.00">DesignerLayoutComponent</text>
</g>
<!-- DesignerLayoutComponent&#45;&gt;DesignerLayoutModule -->
<g id="edge3" class="edge">
<title>DesignerLayoutComponent&#45;&gt;DesignerLayoutModule</title>
<path fill="none" stroke="black" d="M260,-122.02C260,-139.37 260,-163 260,-163 260,-163 348.13,-163 348.13,-163"/>
<polygon fill="black" stroke="black" points="348.13,-166.5 358.13,-163 348.13,-159.5 348.13,-166.5"/>
</g>
<!-- IntentIdeComponent -->
<g id="node4" class="node">
<title>IntentIdeComponent</title>
<polygon fill="#ffffb3" stroke="black" points="155.86,-122 24.14,-122 24.14,-86 155.86,-86 155.86,-122"/>
<text text-anchor="middle" x="90" y="-99.8" font-family="Times,serif" font-size="14.00">IntentIdeComponent</text>
</g>
<!-- IntentIdeComponent&#45;&gt;DesignerLayoutModule -->
<g id="edge4" class="edge">
<title>IntentIdeComponent&#45;&gt;DesignerLayoutModule</title>
<path fill="none" stroke="black" d="M90,-122.28C90,-143.32 90,-175 90,-175 90,-175 348.15,-175 348.15,-175"/>
<polygon fill="black" stroke="black" points="348.15,-178.5 358.15,-175 348.15,-171.5 348.15,-178.5"/>
</g>
<!-- DesignerLayoutRoutingModule -->
<g id="node6" class="node">
<title>DesignerLayoutRoutingModule</title>
<polygon fill="#8dd3c7" stroke="black" points="876.36,-122 873.36,-126 852.36,-126 849.36,-122 681.64,-122 681.64,-86 876.36,-86 876.36,-122"/>
<text text-anchor="middle" x="779" y="-99.8" font-family="Times,serif" font-size="14.00">DesignerLayoutRoutingModule</text>
</g>
<!-- DesignerLayoutRoutingModule&#45;&gt;DesignerLayoutModule -->
<g id="edge5" class="edge">
<title>DesignerLayoutRoutingModule&#45;&gt;DesignerLayoutModule</title>
<path fill="none" stroke="black" d="M779,-122.28C779,-143.32 779,-175 779,-175 779,-175 518.08,-175 518.08,-175"/>
<polygon fill="black" stroke="black" points="518.08,-171.5 508.08,-175 518.08,-178.5 518.08,-171.5"/>
</g>
</g>
</svg>
