<?xml version="1.0" encoding="UTF-8" standalone="no"?>
<!DOCTYPE svg PUBLIC "-//W3C//DTD SVG 1.1//EN"
 "http://www.w3.org/Graphics/SVG/1.1/DTD/svg11.dtd">
<!-- Generated by graphviz version 2.47.0 (20210316.0004)
 -->
<!-- Title: dependencies Pages: 1 -->
<svg width="1167pt" height="211pt"
 viewBox="0.00 0.00 1167.00 211.00" xmlns="http://www.w3.org/2000/svg" xmlns:xlink="http://www.w3.org/1999/xlink">
<g id="graph0" class="graph" transform="scale(1 1) rotate(0) translate(4 207)">
<title>dependencies</title>
<polygon fill="white" stroke="transparent" points="-4,4 -4,-207 1163,-207 1163,4 -4,4"/>
<text text-anchor="start" x="558.51" y="-42.4" font-family="Times-12" font-weight="bold" font-size="14.00">Legend</text>
<polygon fill="#ffffb3" stroke="transparent" points="345.5,-10 345.5,-30 365.5,-30 365.5,-10 345.5,-10"/>
<text text-anchor="start" x="369.13" y="-15.4" font-family="Times-12" font-size="14.00"> &#160;Declarations</text>
<polygon fill="#8dd3c7" stroke="transparent" points="458.5,-10 458.5,-30 478.5,-30 478.5,-10 458.5,-10"/>
<text text-anchor="start" x="482.23" y="-15.4" font-family="Times-12" font-size="14.00"> &#160;Module</text>
<polygon fill="#80b1d3" stroke="transparent" points="544.5,-10 544.5,-30 564.5,-30 564.5,-10 544.5,-10"/>
<text text-anchor="start" x="568.28" y="-15.4" font-family="Times-12" font-size="14.00"> &#160;Bootstrap</text>
<polygon fill="#fdb462" stroke="transparent" points="641.5,-10 641.5,-30 661.5,-30 661.5,-10 641.5,-10"/>
<text text-anchor="start" x="665.17" y="-15.4" font-family="Times-12" font-size="14.00"> &#160;Providers</text>
<polygon fill="#fb8072" stroke="transparent" points="737.5,-10 737.5,-30 757.5,-30 757.5,-10 737.5,-10"/>
<text text-anchor="start" x="761.23" y="-15.4" font-family="Times-12" font-size="14.00"> &#160;Exports</text>
<g id="clust1" class="cluster">
<title>cluster_ClusterReleaseDetailsModule</title>
<polygon fill="none" stroke="black" stroke-dasharray="1,5" points="8,-70 8,-195 1151,-195 1151,-70 8,-70"/>
</g>
<g id="clust2" class="cluster">
<title>cluster_ClusterReleaseDetailsModule_declarations</title>
<polygon fill="none" stroke="black" points="923,-78 923,-130 1143,-130 1143,-78 923,-78"/>
</g>
<g id="clust4" class="cluster">
<title>cluster_ClusterReleaseDetailsModule_imports</title>
<polygon fill="none" stroke="black" points="16,-78 16,-130 915,-130 915,-78 16,-78"/>
</g>
<!-- ClusterReleaseDetailsComponent -->
<g id="node1" class="node">
<title>ClusterReleaseDetailsComponent</title>
<polygon fill="#ffffb3" stroke="black" points="1135.45,-122 930.55,-122 930.55,-86 1135.45,-86 1135.45,-122"/>
<text text-anchor="middle" x="1033" y="-99.8" font-family="Times,serif" font-size="14.00">ClusterReleaseDetailsComponent</text>
</g>
<!-- ClusterReleaseDetailsModule -->
<g id="node2" class="node">
<title>ClusterReleaseDetailsModule</title>
<polygon fill="#8dd3c7" stroke="black" points="592.67,-187 589.67,-191 568.67,-191 565.67,-187 409.33,-187 409.33,-151 592.67,-151 592.67,-187"/>
<text text-anchor="middle" x="501" y="-164.8" font-family="Times,serif" font-size="14.00">ClusterReleaseDetailsModule</text>
</g>
<!-- ClusterReleaseDetailsComponent&#45;&gt;ClusterReleaseDetailsModule -->
<g id="edge1" class="edge">
<title>ClusterReleaseDetailsComponent&#45;&gt;ClusterReleaseDetailsModule</title>
<path fill="none" stroke="black" d="M1033,-122.28C1033,-143.32 1033,-175 1033,-175 1033,-175 602.76,-175 602.76,-175"/>
<polygon fill="black" stroke="black" points="602.76,-171.5 592.76,-175 602.76,-178.5 602.76,-171.5"/>
</g>
<!-- ClusterErrorDetailsModule -->
<g id="node3" class="node">
<title>ClusterErrorDetailsModule</title>
<polygon fill="#8dd3c7" stroke="black" points="906.67,-122 903.67,-126 882.67,-126 879.67,-122 737.33,-122 737.33,-86 906.67,-86 906.67,-122"/>
<text text-anchor="middle" x="822" y="-99.8" font-family="Times,serif" font-size="14.00">ClusterErrorDetailsModule</text>
</g>
<!-- ClusterErrorDetailsModule&#45;&gt;ClusterReleaseDetailsModule -->
<g id="edge2" class="edge">
<title>ClusterErrorDetailsModule&#45;&gt;ClusterReleaseDetailsModule</title>
<path fill="none" stroke="black" d="M822,-122.02C822,-139.37 822,-163 822,-163 822,-163 602.99,-163 602.99,-163"/>
<polygon fill="black" stroke="black" points="602.99,-159.5 592.99,-163 602.99,-166.5 602.99,-159.5"/>
</g>
<!-- ClusterReleaseDetailsRoutingModule -->
<g id="node4" class="node">
<title>ClusterReleaseDetailsRoutingModule</title>
<polygon fill="#8dd3c7" stroke="black" points="719.29,-122 716.29,-126 695.29,-126 692.29,-122 490.71,-122 490.71,-86 719.29,-86 719.29,-122"/>
<text text-anchor="middle" x="605" y="-99.8" font-family="Times,serif" font-size="14.00">ClusterReleaseDetailsRoutingModule</text>
</g>
<!-- ClusterReleaseDetailsRoutingModule&#45;&gt;ClusterReleaseDetailsModule -->
<g id="edge3" class="edge">
<title>ClusterReleaseDetailsRoutingModule&#45;&gt;ClusterReleaseDetailsModule</title>
<path fill="none" stroke="black" d="M541.72,-122.11C541.72,-122.11 541.72,-140.99 541.72,-140.99"/>
<polygon fill="black" stroke="black" points="538.22,-140.99 541.72,-150.99 545.22,-140.99 538.22,-140.99"/>
</g>
<!-- ClusterTerminalModule -->
<g id="node5" class="node">
<title>ClusterTerminalModule</title>
<polygon fill="#8dd3c7" stroke="black" points="472.8,-122 469.8,-126 448.8,-126 445.8,-122 321.2,-122 321.2,-86 472.8,-86 472.8,-122"/>
<text text-anchor="middle" x="397" y="-99.8" font-family="Times,serif" font-size="14.00">ClusterTerminalModule</text>
</g>
<!-- ClusterTerminalModule&#45;&gt;ClusterReleaseDetailsModule -->
<g id="edge4" class="edge">
<title>ClusterTerminalModule&#45;&gt;ClusterReleaseDetailsModule</title>
<path fill="none" stroke="black" d="M441.03,-122.11C441.03,-122.11 441.03,-140.99 441.03,-140.99"/>
<polygon fill="black" stroke="black" points="437.53,-140.99 441.03,-150.99 444.53,-140.99 437.53,-140.99"/>
</g>
<!-- ClusterTfVersionModule -->
<g id="node6" class="node">
<title>ClusterTfVersionModule</title>
<polygon fill="#8dd3c7" stroke="black" points="303.52,-122 300.52,-126 279.52,-126 276.52,-122 146.48,-122 146.48,-86 303.52,-86 303.52,-122"/>
<text text-anchor="middle" x="225" y="-99.8" font-family="Times,serif" font-size="14.00">ClusterTfVersionModule</text>
</g>
<!-- ClusterTfVersionModule&#45;&gt;ClusterReleaseDetailsModule -->
<g id="edge5" class="edge">
<title>ClusterTfVersionModule&#45;&gt;ClusterReleaseDetailsModule</title>
<path fill="none" stroke="black" d="M225,-122.02C225,-139.37 225,-163 225,-163 225,-163 399.1,-163 399.1,-163"/>
<polygon fill="black" stroke="black" points="399.1,-166.5 409.1,-163 399.1,-159.5 399.1,-166.5"/>
</g>
<!-- LayoutsModule -->
<g id="node7" class="node">
<title>LayoutsModule</title>
<polygon fill="#8dd3c7" stroke="black" points="128.15,-122 125.15,-126 104.15,-126 101.15,-122 23.85,-122 23.85,-86 128.15,-86 128.15,-122"/>
<text text-anchor="middle" x="76" y="-99.8" font-family="Times,serif" font-size="14.00">LayoutsModule</text>
</g>
<!-- LayoutsModule&#45;&gt;ClusterReleaseDetailsModule -->
<g id="edge6" class="edge">
<title>LayoutsModule&#45;&gt;ClusterReleaseDetailsModule</title>
<path fill="none" stroke="black" d="M76,-122.28C76,-143.32 76,-175 76,-175 76,-175 399.3,-175 399.3,-175"/>
<polygon fill="black" stroke="black" points="399.3,-178.5 409.3,-175 399.3,-171.5 399.3,-178.5"/>
</g>
</g>
</svg>
