<?xml version="1.0" encoding="UTF-8" standalone="no"?>
<!DOCTYPE svg PUBLIC "-//W3C//DTD SVG 1.1//EN"
 "http://www.w3.org/Graphics/SVG/1.1/DTD/svg11.dtd">
<!-- Generated by graphviz version 2.47.0 (20210316.0004)
 -->
<!-- Title: dependencies Pages: 1 -->
<svg width="1329pt" height="211pt"
 viewBox="0.00 0.00 1329.00 211.00" xmlns="http://www.w3.org/2000/svg" xmlns:xlink="http://www.w3.org/1999/xlink">
<g id="graph0" class="graph" transform="scale(1 1) rotate(0) translate(4 207)">
<title>dependencies</title>
<polygon fill="white" stroke="transparent" points="-4,4 -4,-207 1325,-207 1325,4 -4,4"/>
<text text-anchor="start" x="639.51" y="-42.4" font-family="Times-12" font-weight="bold" font-size="14.00">Legend</text>
<polygon fill="#ffffb3" stroke="transparent" points="426.5,-10 426.5,-30 446.5,-30 446.5,-10 426.5,-10"/>
<text text-anchor="start" x="450.13" y="-15.4" font-family="Times-12" font-size="14.00"> &#160;Declarations</text>
<polygon fill="#8dd3c7" stroke="transparent" points="539.5,-10 539.5,-30 559.5,-30 559.5,-10 539.5,-10"/>
<text text-anchor="start" x="563.23" y="-15.4" font-family="Times-12" font-size="14.00"> &#160;Module</text>
<polygon fill="#80b1d3" stroke="transparent" points="625.5,-10 625.5,-30 645.5,-30 645.5,-10 625.5,-10"/>
<text text-anchor="start" x="649.28" y="-15.4" font-family="Times-12" font-size="14.00"> &#160;Bootstrap</text>
<polygon fill="#fdb462" stroke="transparent" points="722.5,-10 722.5,-30 742.5,-30 742.5,-10 722.5,-10"/>
<text text-anchor="start" x="746.17" y="-15.4" font-family="Times-12" font-size="14.00"> &#160;Providers</text>
<polygon fill="#fb8072" stroke="transparent" points="818.5,-10 818.5,-30 838.5,-30 838.5,-10 818.5,-10"/>
<text text-anchor="start" x="842.23" y="-15.4" font-family="Times-12" font-size="14.00"> &#160;Exports</text>
<g id="clust1" class="cluster">
<title>cluster_AccountSettingsModule</title>
<polygon fill="none" stroke="black" stroke-dasharray="1,5" points="8,-70 8,-195 1313,-195 1313,-70 8,-70"/>
</g>
<g id="clust2" class="cluster">
<title>cluster_AccountSettingsModule_declarations</title>
<polygon fill="none" stroke="black" points="360,-78 360,-130 1305,-130 1305,-78 360,-78"/>
</g>
<g id="clust8" class="cluster">
<title>cluster_AccountSettingsModule_imports</title>
<polygon fill="none" stroke="black" points="16,-78 16,-130 352,-130 352,-78 16,-78"/>
</g>
<!-- AccountSettingsComponent -->
<g id="node1" class="node">
<title>AccountSettingsComponent</title>
<polygon fill="#ffffb3" stroke="black" points="1296.87,-122 1123.13,-122 1123.13,-86 1296.87,-86 1296.87,-122"/>
<text text-anchor="middle" x="1210" y="-99.8" font-family="Times,serif" font-size="14.00">AccountSettingsComponent</text>
</g>
<!-- AccountSettingsModule -->
<g id="node6" class="node">
<title>AccountSettingsModule</title>
<polygon fill="#8dd3c7" stroke="black" points="700.09,-187 697.09,-191 676.09,-191 673.09,-187 547.91,-187 547.91,-151 700.09,-151 700.09,-187"/>
<text text-anchor="middle" x="624" y="-164.8" font-family="Times,serif" font-size="14.00">AccountSettingsModule</text>
</g>
<!-- AccountSettingsComponent&#45;&gt;AccountSettingsModule -->
<g id="edge1" class="edge">
<title>AccountSettingsComponent&#45;&gt;AccountSettingsModule</title>
<path fill="none" stroke="black" d="M1210,-122.29C1210,-144.21 1210,-178 1210,-178 1210,-178 710.31,-178 710.31,-178"/>
<polygon fill="black" stroke="black" points="710.31,-174.5 700.31,-178 710.31,-181.5 710.31,-174.5"/>
</g>
<!-- GithubCredentialComponent -->
<g id="node2" class="node">
<title>GithubCredentialComponent</title>
<polygon fill="#ffffb3" stroke="black" points="1105.03,-122 926.97,-122 926.97,-86 1105.03,-86 1105.03,-122"/>
<text text-anchor="middle" x="1016" y="-99.8" font-family="Times,serif" font-size="14.00">GithubCredentialComponent</text>
</g>
<!-- GithubCredentialComponent&#45;&gt;AccountSettingsModule -->
<g id="edge2" class="edge">
<title>GithubCredentialComponent&#45;&gt;AccountSettingsModule</title>
<path fill="none" stroke="black" d="M1016,-122.11C1016,-141.34 1016,-169 1016,-169 1016,-169 710.05,-169 710.05,-169"/>
<polygon fill="black" stroke="black" points="710.05,-165.5 700.05,-169 710.05,-172.5 710.05,-165.5"/>
</g>
<!-- UpdatePasswordComponent -->
<g id="node3" class="node">
<title>UpdatePasswordComponent</title>
<polygon fill="#ffffb3" stroke="black" points="908.91,-122 733.09,-122 733.09,-86 908.91,-86 908.91,-122"/>
<text text-anchor="middle" x="821" y="-99.8" font-family="Times,serif" font-size="14.00">UpdatePasswordComponent</text>
</g>
<!-- UpdatePasswordComponent&#45;&gt;AccountSettingsModule -->
<g id="edge3" class="edge">
<title>UpdatePasswordComponent&#45;&gt;AccountSettingsModule</title>
<path fill="none" stroke="black" d="M821,-122.03C821,-138.4 821,-160 821,-160 821,-160 710.17,-160 710.17,-160"/>
<polygon fill="black" stroke="black" points="710.17,-156.5 700.17,-160 710.17,-163.5 710.17,-156.5"/>
</g>
<!-- UserAccessTokenComponent -->
<g id="node4" class="node">
<title>UserAccessTokenComponent</title>
<polygon fill="#ffffb3" stroke="black" points="715.67,-122 532.33,-122 532.33,-86 715.67,-86 715.67,-122"/>
<text text-anchor="middle" x="624" y="-99.8" font-family="Times,serif" font-size="14.00">UserAccessTokenComponent</text>
</g>
<!-- UserAccessTokenComponent&#45;&gt;AccountSettingsModule -->
<g id="edge4" class="edge">
<title>UserAccessTokenComponent&#45;&gt;AccountSettingsModule</title>
<path fill="none" stroke="black" d="M624,-122.11C624,-122.11 624,-140.99 624,-140.99"/>
<polygon fill="black" stroke="black" points="620.5,-140.99 624,-150.99 627.5,-140.99 620.5,-140.99"/>
</g>
<!-- UserProfileComponent -->
<g id="node5" class="node">
<title>UserProfileComponent</title>
<polygon fill="#ffffb3" stroke="black" points="513.86,-122 368.14,-122 368.14,-86 513.86,-86 513.86,-122"/>
<text text-anchor="middle" x="441" y="-99.8" font-family="Times,serif" font-size="14.00">UserProfileComponent</text>
</g>
<!-- UserProfileComponent&#45;&gt;AccountSettingsModule -->
<g id="edge5" class="edge">
<title>UserProfileComponent&#45;&gt;AccountSettingsModule</title>
<path fill="none" stroke="black" d="M441,-122.03C441,-138.4 441,-160 441,-160 441,-160 537.72,-160 537.72,-160"/>
<polygon fill="black" stroke="black" points="537.72,-163.5 547.72,-160 537.72,-156.5 537.72,-163.5"/>
</g>
<!-- AccountSettingsRoutingModule -->
<g id="node7" class="node">
<title>AccountSettingsRoutingModule</title>
<polygon fill="#8dd3c7" stroke="black" points="343.71,-122 340.71,-126 319.71,-126 316.71,-122 146.29,-122 146.29,-86 343.71,-86 343.71,-122"/>
<text text-anchor="middle" x="245" y="-99.8" font-family="Times,serif" font-size="14.00">AccountSettingsRoutingModule</text>
</g>
<!-- AccountSettingsRoutingModule&#45;&gt;AccountSettingsModule -->
<g id="edge6" class="edge">
<title>AccountSettingsRoutingModule&#45;&gt;AccountSettingsModule</title>
<path fill="none" stroke="black" d="M245,-122.11C245,-141.34 245,-169 245,-169 245,-169 537.76,-169 537.76,-169"/>
<polygon fill="black" stroke="black" points="537.76,-172.5 547.76,-169 537.76,-165.5 537.76,-172.5"/>
</g>
<!-- LayoutsModule -->
<g id="node8" class="node">
<title>LayoutsModule</title>
<polygon fill="#8dd3c7" stroke="black" points="128.15,-122 125.15,-126 104.15,-126 101.15,-122 23.85,-122 23.85,-86 128.15,-86 128.15,-122"/>
<text text-anchor="middle" x="76" y="-99.8" font-family="Times,serif" font-size="14.00">LayoutsModule</text>
</g>
<!-- LayoutsModule&#45;&gt;AccountSettingsModule -->
<g id="edge7" class="edge">
<title>LayoutsModule&#45;&gt;AccountSettingsModule</title>
<path fill="none" stroke="black" d="M76,-122.29C76,-144.21 76,-178 76,-178 76,-178 537.8,-178 537.8,-178"/>
<polygon fill="black" stroke="black" points="537.8,-181.5 547.8,-178 537.8,-174.5 537.8,-181.5"/>
</g>
</g>
</svg>
