<?xml version="1.0" encoding="UTF-8" standalone="no"?>
<!DOCTYPE svg PUBLIC "-//W3C//DTD SVG 1.1//EN"
 "http://www.w3.org/Graphics/SVG/1.1/DTD/svg11.dtd">
<!-- Generated by graphviz version 2.47.0 (20210316.0004)
 -->
<!-- Title: dependencies Pages: 1 -->
<svg width="530pt" height="211pt"
 viewBox="0.00 0.00 530.00 211.00" xmlns="http://www.w3.org/2000/svg" xmlns:xlink="http://www.w3.org/1999/xlink">
<g id="graph0" class="graph" transform="scale(1 1) rotate(0) translate(4 207)">
<title>dependencies</title>
<polygon fill="white" stroke="transparent" points="-4,4 -4,-207 526,-207 526,4 -4,4"/>
<text text-anchor="start" x="240.01" y="-42.4" font-family="Times-12" font-weight="bold" font-size="14.00">Legend</text>
<polygon fill="#ffffb3" stroke="transparent" points="27,-10 27,-30 47,-30 47,-10 27,-10"/>
<text text-anchor="start" x="50.63" y="-15.4" font-family="Times-12" font-size="14.00"> &#160;Declarations</text>
<polygon fill="#8dd3c7" stroke="transparent" points="140,-10 140,-30 160,-30 160,-10 140,-10"/>
<text text-anchor="start" x="163.73" y="-15.4" font-family="Times-12" font-size="14.00"> &#160;Module</text>
<polygon fill="#80b1d3" stroke="transparent" points="226,-10 226,-30 246,-30 246,-10 226,-10"/>
<text text-anchor="start" x="249.78" y="-15.4" font-family="Times-12" font-size="14.00"> &#160;Bootstrap</text>
<polygon fill="#fdb462" stroke="transparent" points="323,-10 323,-30 343,-30 343,-10 323,-10"/>
<text text-anchor="start" x="346.67" y="-15.4" font-family="Times-12" font-size="14.00"> &#160;Providers</text>
<polygon fill="#fb8072" stroke="transparent" points="419,-10 419,-30 439,-30 439,-10 419,-10"/>
<text text-anchor="start" x="442.73" y="-15.4" font-family="Times-12" font-size="14.00"> &#160;Exports</text>
<g id="clust1" class="cluster">
<title>cluster_SubscriptionModule</title>
<polygon fill="none" stroke="black" stroke-dasharray="1,5" points="8,-70 8,-195 514,-195 514,-70 8,-70"/>
</g>
<g id="clust4" class="cluster">
<title>cluster_SubscriptionModule_imports</title>
<polygon fill="none" stroke="black" points="192,-78 192,-130 506,-130 506,-78 192,-78"/>
</g>
<g id="clust2" class="cluster">
<title>cluster_SubscriptionModule_declarations</title>
<polygon fill="none" stroke="black" points="16,-78 16,-130 184,-130 184,-78 16,-78"/>
</g>
<!-- SubscriptionComponent -->
<g id="node1" class="node">
<title>SubscriptionComponent</title>
<polygon fill="#ffffb3" stroke="black" points="176.11,-122 23.89,-122 23.89,-86 176.11,-86 176.11,-122"/>
<text text-anchor="middle" x="100" y="-99.8" font-family="Times,serif" font-size="14.00">SubscriptionComponent</text>
</g>
<!-- SubscriptionModule -->
<g id="node2" class="node">
<title>SubscriptionModule</title>
<polygon fill="#8dd3c7" stroke="black" points="353.32,-187 350.32,-191 329.32,-191 326.32,-187 222.68,-187 222.68,-151 353.32,-151 353.32,-187"/>
<text text-anchor="middle" x="288" y="-164.8" font-family="Times,serif" font-size="14.00">SubscriptionModule</text>
</g>
<!-- SubscriptionComponent&#45;&gt;SubscriptionModule -->
<g id="edge1" class="edge">
<title>SubscriptionComponent&#45;&gt;SubscriptionModule</title>
<path fill="none" stroke="black" d="M100,-122.11C100,-141.34 100,-169 100,-169 100,-169 212.77,-169 212.77,-169"/>
<polygon fill="black" stroke="black" points="212.77,-172.5 222.77,-169 212.77,-165.5 212.77,-172.5"/>
</g>
<!-- LayoutsModule -->
<g id="node3" class="node">
<title>LayoutsModule</title>
<polygon fill="#8dd3c7" stroke="black" points="498.15,-122 495.15,-126 474.15,-126 471.15,-122 393.85,-122 393.85,-86 498.15,-86 498.15,-122"/>
<text text-anchor="middle" x="446" y="-99.8" font-family="Times,serif" font-size="14.00">LayoutsModule</text>
</g>
<!-- LayoutsModule&#45;&gt;SubscriptionModule -->
<g id="edge2" class="edge">
<title>LayoutsModule&#45;&gt;SubscriptionModule</title>
<path fill="none" stroke="black" d="M446,-122.11C446,-141.34 446,-169 446,-169 446,-169 363.18,-169 363.18,-169"/>
<polygon fill="black" stroke="black" points="363.18,-165.5 353.18,-169 363.18,-172.5 363.18,-165.5"/>
</g>
<!-- SubscriptionRoutingModule -->
<g id="node4" class="node">
<title>SubscriptionRoutingModule</title>
<polygon fill="#8dd3c7" stroke="black" points="375.94,-122 372.94,-126 351.94,-126 348.94,-122 200.06,-122 200.06,-86 375.94,-86 375.94,-122"/>
<text text-anchor="middle" x="288" y="-99.8" font-family="Times,serif" font-size="14.00">SubscriptionRoutingModule</text>
</g>
<!-- SubscriptionRoutingModule&#45;&gt;SubscriptionModule -->
<g id="edge3" class="edge">
<title>SubscriptionRoutingModule&#45;&gt;SubscriptionModule</title>
<path fill="none" stroke="black" d="M288,-122.11C288,-122.11 288,-140.99 288,-140.99"/>
<polygon fill="black" stroke="black" points="284.5,-140.99 288,-150.99 291.5,-140.99 284.5,-140.99"/>
</g>
</g>
</svg>
