<?xml version="1.0" encoding="UTF-8" standalone="no"?>
<!DOCTYPE svg PUBLIC "-//W3C//DTD SVG 1.1//EN"
 "http://www.w3.org/Graphics/SVG/1.1/DTD/svg11.dtd">
<!-- Generated by graphviz version 2.47.0 (20210316.0004)
 -->
<!-- Title: dependencies Pages: 1 -->
<svg width="504pt" height="211pt"
 viewBox="0.00 0.00 504.00 211.00" xmlns="http://www.w3.org/2000/svg" xmlns:xlink="http://www.w3.org/1999/xlink">
<g id="graph0" class="graph" transform="scale(1 1) rotate(0) translate(4 207)">
<title>dependencies</title>
<polygon fill="white" stroke="transparent" points="-4,4 -4,-207 500,-207 500,4 -4,4"/>
<text text-anchor="start" x="227.01" y="-42.4" font-family="Times-12" font-weight="bold" font-size="14.00">Legend</text>
<polygon fill="#ffffb3" stroke="transparent" points="14,-10 14,-30 34,-30 34,-10 14,-10"/>
<text text-anchor="start" x="37.63" y="-15.4" font-family="Times-12" font-size="14.00"> &#160;Declarations</text>
<polygon fill="#8dd3c7" stroke="transparent" points="127,-10 127,-30 147,-30 147,-10 127,-10"/>
<text text-anchor="start" x="150.73" y="-15.4" font-family="Times-12" font-size="14.00"> &#160;Module</text>
<polygon fill="#80b1d3" stroke="transparent" points="213,-10 213,-30 233,-30 233,-10 213,-10"/>
<text text-anchor="start" x="236.78" y="-15.4" font-family="Times-12" font-size="14.00"> &#160;Bootstrap</text>
<polygon fill="#fdb462" stroke="transparent" points="310,-10 310,-30 330,-30 330,-10 310,-10"/>
<text text-anchor="start" x="333.67" y="-15.4" font-family="Times-12" font-size="14.00"> &#160;Providers</text>
<polygon fill="#fb8072" stroke="transparent" points="406,-10 406,-30 426,-30 426,-10 406,-10"/>
<text text-anchor="start" x="429.73" y="-15.4" font-family="Times-12" font-size="14.00"> &#160;Exports</text>
<g id="clust1" class="cluster">
<title>cluster_StackVarsModule</title>
<polygon fill="none" stroke="black" stroke-dasharray="1,5" points="9,-70 9,-195 487,-195 487,-70 9,-70"/>
</g>
<g id="clust4" class="cluster">
<title>cluster_StackVarsModule_imports</title>
<polygon fill="none" stroke="black" points="179,-78 179,-130 479,-130 479,-78 179,-78"/>
</g>
<g id="clust2" class="cluster">
<title>cluster_StackVarsModule_declarations</title>
<polygon fill="none" stroke="black" points="17,-78 17,-130 171,-130 171,-78 17,-78"/>
</g>
<!-- StackVarsComponent -->
<g id="node1" class="node">
<title>StackVarsComponent</title>
<polygon fill="#ffffb3" stroke="black" points="163.36,-122 24.64,-122 24.64,-86 163.36,-86 163.36,-122"/>
<text text-anchor="middle" x="94" y="-99.8" font-family="Times,serif" font-size="14.00">StackVarsComponent</text>
</g>
<!-- StackVarsModule -->
<g id="node2" class="node">
<title>StackVarsModule</title>
<polygon fill="#8dd3c7" stroke="black" points="326.58,-187 323.58,-191 302.58,-191 299.58,-187 209.42,-187 209.42,-151 326.58,-151 326.58,-187"/>
<text text-anchor="middle" x="268" y="-164.8" font-family="Times,serif" font-size="14.00">StackVarsModule</text>
</g>
<!-- StackVarsComponent&#45;&gt;StackVarsModule -->
<g id="edge1" class="edge">
<title>StackVarsComponent&#45;&gt;StackVarsModule</title>
<path fill="none" stroke="black" d="M94,-122.11C94,-141.34 94,-169 94,-169 94,-169 199.09,-169 199.09,-169"/>
<polygon fill="black" stroke="black" points="199.09,-172.5 209.09,-169 199.09,-165.5 199.09,-172.5"/>
</g>
<!-- LayoutsModule -->
<g id="node3" class="node">
<title>LayoutsModule</title>
<polygon fill="#8dd3c7" stroke="black" points="471.15,-122 468.15,-126 447.15,-126 444.15,-122 366.85,-122 366.85,-86 471.15,-86 471.15,-122"/>
<text text-anchor="middle" x="419" y="-99.8" font-family="Times,serif" font-size="14.00">LayoutsModule</text>
</g>
<!-- LayoutsModule&#45;&gt;StackVarsModule -->
<g id="edge2" class="edge">
<title>LayoutsModule&#45;&gt;StackVarsModule</title>
<path fill="none" stroke="black" d="M419,-122.11C419,-141.34 419,-169 419,-169 419,-169 336.81,-169 336.81,-169"/>
<polygon fill="black" stroke="black" points="336.81,-165.5 326.81,-169 336.81,-172.5 336.81,-165.5"/>
</g>
<!-- StackVarsRoutingModule -->
<g id="node4" class="node">
<title>StackVarsRoutingModule</title>
<polygon fill="#8dd3c7" stroke="black" points="349.2,-122 346.2,-126 325.2,-126 322.2,-122 186.8,-122 186.8,-86 349.2,-86 349.2,-122"/>
<text text-anchor="middle" x="268" y="-99.8" font-family="Times,serif" font-size="14.00">StackVarsRoutingModule</text>
</g>
<!-- StackVarsRoutingModule&#45;&gt;StackVarsModule -->
<g id="edge3" class="edge">
<title>StackVarsRoutingModule&#45;&gt;StackVarsModule</title>
<path fill="none" stroke="black" d="M268,-122.11C268,-122.11 268,-140.99 268,-140.99"/>
<polygon fill="black" stroke="black" points="264.5,-140.99 268,-150.99 271.5,-140.99 264.5,-140.99"/>
</g>
</g>
</svg>
