<?xml version="1.0" encoding="UTF-8" standalone="no"?>
<!DOCTYPE svg PUBLIC "-//W3C//DTD SVG 1.1//EN"
 "http://www.w3.org/Graphics/SVG/1.1/DTD/svg11.dtd">
<!-- Generated by graphviz version 2.47.0 (20210316.0004)
 -->
<!-- Title: dependencies Pages: 1 -->
<svg width="1373pt" height="284pt"
 viewBox="0.00 0.00 1373.00 284.00" xmlns="http://www.w3.org/2000/svg" xmlns:xlink="http://www.w3.org/1999/xlink">
<g id="graph0" class="graph" transform="scale(1 1) rotate(0) translate(4 280)">
<title>dependencies</title>
<polygon fill="white" stroke="transparent" points="-4,4 -4,-280 1369,-280 1369,4 -4,4"/>
<text text-anchor="start" x="661.51" y="-42.4" font-family="Times-12" font-weight="bold" font-size="14.00">Legend</text>
<polygon fill="#ffffb3" stroke="transparent" points="448.5,-10 448.5,-30 468.5,-30 468.5,-10 448.5,-10"/>
<text text-anchor="start" x="472.13" y="-15.4" font-family="Times-12" font-size="14.00"> &#160;Declarations</text>
<polygon fill="#8dd3c7" stroke="transparent" points="561.5,-10 561.5,-30 581.5,-30 581.5,-10 561.5,-10"/>
<text text-anchor="start" x="585.23" y="-15.4" font-family="Times-12" font-size="14.00"> &#160;Module</text>
<polygon fill="#80b1d3" stroke="transparent" points="647.5,-10 647.5,-30 667.5,-30 667.5,-10 647.5,-10"/>
<text text-anchor="start" x="671.28" y="-15.4" font-family="Times-12" font-size="14.00"> &#160;Bootstrap</text>
<polygon fill="#fdb462" stroke="transparent" points="744.5,-10 744.5,-30 764.5,-30 764.5,-10 744.5,-10"/>
<text text-anchor="start" x="768.17" y="-15.4" font-family="Times-12" font-size="14.00"> &#160;Providers</text>
<polygon fill="#fb8072" stroke="transparent" points="840.5,-10 840.5,-30 860.5,-30 860.5,-10 840.5,-10"/>
<text text-anchor="start" x="864.23" y="-15.4" font-family="Times-12" font-size="14.00"> &#160;Exports</text>
<g id="clust1" class="cluster">
<title>cluster_LayoutsModule</title>
<polygon fill="none" stroke="black" stroke-dasharray="1,5" points="8,-70 8,-268 1357,-268 1357,-70 8,-70"/>
</g>
<g id="clust7" class="cluster">
<title>cluster_LayoutsModule_imports</title>
<polygon fill="none" stroke="black" points="738,-78 738,-130 1349,-130 1349,-78 738,-78"/>
</g>
<g id="clust8" class="cluster">
<title>cluster_LayoutsModule_exports</title>
<polygon fill="none" stroke="black" points="347,-208 347,-260 1075,-260 1075,-208 347,-208"/>
</g>
<g id="clust2" class="cluster">
<title>cluster_LayoutsModule_declarations</title>
<polygon fill="none" stroke="black" points="16,-78 16,-130 730,-130 730,-78 16,-78"/>
</g>
<!-- AppLayoutComponent -->
<g id="node1" class="node">
<title>AppLayoutComponent</title>
<polygon fill="#ffffb3" stroke="black" points="721.6,-122 576.4,-122 576.4,-86 721.6,-86 721.6,-122"/>
<text text-anchor="middle" x="649" y="-99.8" font-family="Times,serif" font-size="14.00">AppLayoutComponent</text>
</g>
<!-- LayoutsModule -->
<g id="node5" class="node">
<title>LayoutsModule</title>
<polygon fill="#8dd3c7" stroke="black" points="785.15,-187 782.15,-191 761.15,-191 758.15,-187 680.85,-187 680.85,-151 785.15,-151 785.15,-187"/>
<text text-anchor="middle" x="733" y="-164.8" font-family="Times,serif" font-size="14.00">LayoutsModule</text>
</g>
<!-- AppLayoutComponent&#45;&gt;LayoutsModule -->
<g id="edge1" class="edge">
<title>AppLayoutComponent&#45;&gt;LayoutsModule</title>
<path fill="none" stroke="black" d="M701.11,-122.11C701.11,-122.11 701.11,-140.99 701.11,-140.99"/>
<polygon fill="black" stroke="black" points="697.61,-140.99 701.11,-150.99 704.61,-140.99 697.61,-140.99"/>
</g>
<!-- AppSearchComponent -->
<g id="node2" class="node">
<title>AppSearchComponent</title>
<polygon fill="#ffffb3" stroke="black" points="558.53,-122 415.47,-122 415.47,-86 558.53,-86 558.53,-122"/>
<text text-anchor="middle" x="487" y="-99.8" font-family="Times,serif" font-size="14.00">AppSearchComponent</text>
</g>
<!-- AppSearchComponent&#45;&gt;LayoutsModule -->
<g id="edge2" class="edge">
<title>AppSearchComponent&#45;&gt;LayoutsModule</title>
<path fill="none" stroke="black" d="M550.65,-122.01C550.65,-138.05 550.65,-159 550.65,-159 550.65,-159 670.75,-159 670.75,-159"/>
<polygon fill="black" stroke="black" points="670.75,-162.5 680.75,-159 670.75,-155.5 670.75,-162.5"/>
</g>
<!-- LayoutOneColumnComponent -->
<g id="node3" class="node">
<title>LayoutOneColumnComponent</title>
<polygon fill="#ffffb3" stroke="black" points="397.93,-122 208.07,-122 208.07,-86 397.93,-86 397.93,-122"/>
<text text-anchor="middle" x="303" y="-99.8" font-family="Times,serif" font-size="14.00">LayoutOneColumnComponent</text>
</g>
<!-- LayoutOneColumnComponent&#45;&gt;LayoutsModule -->
<g id="edge3" class="edge">
<title>LayoutOneColumnComponent&#45;&gt;LayoutsModule</title>
<path fill="none" stroke="black" d="M376.46,-122.27C376.46,-140.56 376.46,-166 376.46,-166 376.46,-166 670.77,-166 670.77,-166"/>
<polygon fill="black" stroke="black" points="670.77,-169.5 680.77,-166 670.77,-162.5 670.77,-169.5"/>
</g>
<!-- TopNavigationComponent -->
<g id="node4" class="node">
<title>TopNavigationComponent</title>
<polygon fill="#ffffb3" stroke="black" points="190.09,-122 23.91,-122 23.91,-86 190.09,-86 190.09,-122"/>
<text text-anchor="middle" x="107" y="-99.8" font-family="Times,serif" font-size="14.00">TopNavigationComponent</text>
</g>
<!-- TopNavigationComponent&#45;&gt;LayoutsModule -->
<g id="edge4" class="edge">
<title>TopNavigationComponent&#45;&gt;LayoutsModule</title>
<path fill="none" stroke="black" d="M107,-122.13C107,-142.57 107,-173 107,-173 107,-173 670.7,-173 670.7,-173"/>
<polygon fill="black" stroke="black" points="670.7,-176.5 680.7,-173 670.7,-169.5 670.7,-176.5"/>
</g>
<!-- AppLayoutComponent  -->
<g id="node10" class="node">
<title>AppLayoutComponent </title>
<polygon fill="#fb8072" stroke="black" points="1067.1,-252 918.9,-252 918.9,-216 1067.1,-216 1067.1,-252"/>
<text text-anchor="middle" x="993" y="-229.8" font-family="Times,serif" font-size="14.00">AppLayoutComponent </text>
</g>
<!-- LayoutsModule&#45;&gt;AppLayoutComponent  -->
<g id="edge9" class="edge">
<title>LayoutsModule&#45;&gt;AppLayoutComponent </title>
<path fill="none" stroke="black" stroke-dasharray="5,2" d="M785.38,-180C855.65,-180 971.71,-180 971.71,-180 971.71,-180 971.71,-205.72 971.71,-205.72"/>
<polygon fill="black" stroke="black" points="968.21,-205.72 971.71,-215.72 975.21,-205.72 968.21,-205.72"/>
</g>
<!-- AppSearchComponent  -->
<g id="node11" class="node">
<title>AppSearchComponent </title>
<polygon fill="#fb8072" stroke="black" points="900.53,-252 753.47,-252 753.47,-216 900.53,-216 900.53,-252"/>
<text text-anchor="middle" x="827" y="-229.8" font-family="Times,serif" font-size="14.00">AppSearchComponent </text>
</g>
<!-- LayoutsModule&#45;&gt;AppSearchComponent  -->
<g id="edge10" class="edge">
<title>LayoutsModule&#45;&gt;AppSearchComponent </title>
<path fill="none" stroke="black" stroke-dasharray="5,2" d="M769.41,-187.11C769.41,-187.11 769.41,-205.99 769.41,-205.99"/>
<polygon fill="black" stroke="black" points="765.91,-205.99 769.41,-215.99 772.91,-205.99 765.91,-205.99"/>
</g>
<!-- LayoutOneColumnComponent  -->
<g id="node12" class="node">
<title>LayoutOneColumnComponent </title>
<polygon fill="#fb8072" stroke="black" points="735.43,-252 542.57,-252 542.57,-216 735.43,-216 735.43,-252"/>
<text text-anchor="middle" x="639" y="-229.8" font-family="Times,serif" font-size="14.00">LayoutOneColumnComponent </text>
</g>
<!-- LayoutsModule&#45;&gt;LayoutOneColumnComponent  -->
<g id="edge11" class="edge">
<title>LayoutsModule&#45;&gt;LayoutOneColumnComponent </title>
<path fill="none" stroke="black" stroke-dasharray="5,2" d="M708.07,-187.11C708.07,-187.11 708.07,-205.99 708.07,-205.99"/>
<polygon fill="black" stroke="black" points="704.57,-205.99 708.07,-215.99 711.57,-205.99 704.57,-205.99"/>
</g>
<!-- TopNavigationComponent  -->
<g id="node13" class="node">
<title>TopNavigationComponent </title>
<polygon fill="#fb8072" stroke="black" points="524.59,-252 355.41,-252 355.41,-216 524.59,-216 524.59,-252"/>
<text text-anchor="middle" x="440" y="-229.8" font-family="Times,serif" font-size="14.00">TopNavigationComponent </text>
</g>
<!-- LayoutsModule&#45;&gt;TopNavigationComponent  -->
<g id="edge12" class="edge">
<title>LayoutsModule&#45;&gt;TopNavigationComponent </title>
<path fill="none" stroke="black" stroke-dasharray="5,2" d="M680.73,-180C604.03,-180 470.02,-180 470.02,-180 470.02,-180 470.02,-205.72 470.02,-205.72"/>
<polygon fill="black" stroke="black" points="466.52,-205.72 470.02,-215.72 473.52,-205.72 466.52,-205.72"/>
</g>
<!-- BreadcrumbV2Module -->
<g id="node6" class="node">
<title>BreadcrumbV2Module</title>
<polygon fill="#8dd3c7" stroke="black" points="1340.85,-122 1337.85,-126 1316.85,-126 1313.85,-122 1195.15,-122 1195.15,-86 1340.85,-86 1340.85,-122"/>
<text text-anchor="middle" x="1268" y="-99.8" font-family="Times,serif" font-size="14.00">BreadcrumbV2Module</text>
</g>
<!-- BreadcrumbV2Module&#45;&gt;LayoutsModule -->
<g id="edge5" class="edge">
<title>BreadcrumbV2Module&#45;&gt;LayoutsModule</title>
<path fill="none" stroke="black" d="M1268,-122.13C1268,-142.57 1268,-173 1268,-173 1268,-173 795.27,-173 795.27,-173"/>
<polygon fill="black" stroke="black" points="795.27,-169.5 785.27,-173 795.27,-176.5 795.27,-169.5"/>
</g>
<!-- CustomToastModule -->
<g id="node7" class="node">
<title>CustomToastModule</title>
<polygon fill="#8dd3c7" stroke="black" points="1177.21,-122 1174.21,-126 1153.21,-126 1150.21,-122 1042.79,-122 1042.79,-86 1177.21,-86 1177.21,-122"/>
<text text-anchor="middle" x="1110" y="-99.8" font-family="Times,serif" font-size="14.00">CustomToastModule</text>
</g>
<!-- CustomToastModule&#45;&gt;LayoutsModule -->
<g id="edge6" class="edge">
<title>CustomToastModule&#45;&gt;LayoutsModule</title>
<path fill="none" stroke="black" d="M1055.1,-122.27C1055.1,-140.56 1055.1,-166 1055.1,-166 1055.1,-166 795.47,-166 795.47,-166"/>
<polygon fill="black" stroke="black" points="795.47,-162.5 785.47,-166 795.47,-169.5 795.47,-162.5"/>
</g>
<!-- SidebarV2Module -->
<g id="node8" class="node">
<title>SidebarV2Module</title>
<polygon fill="#8dd3c7" stroke="black" points="1024.92,-122 1021.92,-126 1000.92,-126 997.92,-122 905.08,-122 905.08,-86 1024.92,-86 1024.92,-122"/>
<text text-anchor="middle" x="965" y="-99.8" font-family="Times,serif" font-size="14.00">SidebarV2Module</text>
</g>
<!-- SidebarV2Module&#45;&gt;LayoutsModule -->
<g id="edge7" class="edge">
<title>SidebarV2Module&#45;&gt;LayoutsModule</title>
<path fill="none" stroke="black" d="M912,-122.01C912,-138.05 912,-159 912,-159 912,-159 795.25,-159 795.25,-159"/>
<polygon fill="black" stroke="black" points="795.25,-155.5 785.25,-159 795.25,-162.5 795.25,-155.5"/>
</g>
<!-- SmoothHeightModule -->
<g id="node9" class="node">
<title>SmoothHeightModule</title>
<polygon fill="#8dd3c7" stroke="black" points="887.72,-122 884.72,-126 863.72,-126 860.72,-122 746.28,-122 746.28,-86 887.72,-86 887.72,-122"/>
<text text-anchor="middle" x="817" y="-99.8" font-family="Times,serif" font-size="14.00">SmoothHeightModule</text>
</g>
<!-- SmoothHeightModule&#45;&gt;LayoutsModule -->
<g id="edge8" class="edge">
<title>SmoothHeightModule&#45;&gt;LayoutsModule</title>
<path fill="none" stroke="black" d="M765.86,-122.11C765.86,-122.11 765.86,-140.99 765.86,-140.99"/>
<polygon fill="black" stroke="black" points="762.36,-140.99 765.86,-150.99 769.36,-140.99 762.36,-140.99"/>
</g>
</g>
</svg>
