<?xml version="1.0" encoding="UTF-8" standalone="no"?>
<!DOCTYPE svg PUBLIC "-//W3C//DTD SVG 1.1//EN"
 "http://www.w3.org/Graphics/SVG/1.1/DTD/svg11.dtd">
<!-- Generated by graphviz version 2.47.0 (20210316.0004)
 -->
<!-- Title: dependencies Pages: 1 -->
<svg width="713pt" height="284pt"
 viewBox="0.00 0.00 713.00 284.00" xmlns="http://www.w3.org/2000/svg" xmlns:xlink="http://www.w3.org/1999/xlink">
<g id="graph0" class="graph" transform="scale(1 1) rotate(0) translate(4 280)">
<title>dependencies</title>
<polygon fill="white" stroke="transparent" points="-4,4 -4,-280 709,-280 709,4 -4,4"/>
<text text-anchor="start" x="331.51" y="-42.4" font-family="Times-12" font-weight="bold" font-size="14.00">Legend</text>
<polygon fill="#ffffb3" stroke="transparent" points="118.5,-10 118.5,-30 138.5,-30 138.5,-10 118.5,-10"/>
<text text-anchor="start" x="142.13" y="-15.4" font-family="Times-12" font-size="14.00"> &#160;Declarations</text>
<polygon fill="#8dd3c7" stroke="transparent" points="231.5,-10 231.5,-30 251.5,-30 251.5,-10 231.5,-10"/>
<text text-anchor="start" x="255.23" y="-15.4" font-family="Times-12" font-size="14.00"> &#160;Module</text>
<polygon fill="#80b1d3" stroke="transparent" points="317.5,-10 317.5,-30 337.5,-30 337.5,-10 317.5,-10"/>
<text text-anchor="start" x="341.28" y="-15.4" font-family="Times-12" font-size="14.00"> &#160;Bootstrap</text>
<polygon fill="#fdb462" stroke="transparent" points="414.5,-10 414.5,-30 434.5,-30 434.5,-10 414.5,-10"/>
<text text-anchor="start" x="438.17" y="-15.4" font-family="Times-12" font-size="14.00"> &#160;Providers</text>
<polygon fill="#fb8072" stroke="transparent" points="510.5,-10 510.5,-30 530.5,-30 530.5,-10 510.5,-10"/>
<text text-anchor="start" x="534.23" y="-15.4" font-family="Times-12" font-size="14.00"> &#160;Exports</text>
<g id="clust1" class="cluster">
<title>cluster_BreadcrumbV2Module</title>
<polygon fill="none" stroke="black" stroke-dasharray="1,5" points="8,-70 8,-268 697,-268 697,-70 8,-70"/>
</g>
<g id="clust6" class="cluster">
<title>cluster_BreadcrumbV2Module_exports</title>
<polygon fill="none" stroke="black" points="159,-208 159,-260 541,-260 541,-208 159,-208"/>
</g>
<g id="clust5" class="cluster">
<title>cluster_BreadcrumbV2Module_imports</title>
<polygon fill="none" stroke="black" points="399,-78 399,-130 689,-130 689,-78 399,-78"/>
</g>
<g id="clust2" class="cluster">
<title>cluster_BreadcrumbV2Module_declarations</title>
<polygon fill="none" stroke="black" points="16,-78 16,-130 391,-130 391,-78 16,-78"/>
</g>
<!-- BranchSelectorComponent -->
<g id="node1" class="node">
<title>BranchSelectorComponent</title>
<polygon fill="#ffffb3" stroke="black" points="382.63,-122 215.37,-122 215.37,-86 382.63,-86 382.63,-122"/>
<text text-anchor="middle" x="299" y="-99.8" font-family="Times,serif" font-size="14.00">BranchSelectorComponent</text>
</g>
<!-- BreadcrumbV2Module -->
<g id="node3" class="node">
<title>BreadcrumbV2Module</title>
<polygon fill="#8dd3c7" stroke="black" points="423.85,-187 420.85,-191 399.85,-191 396.85,-187 278.15,-187 278.15,-151 423.85,-151 423.85,-187"/>
<text text-anchor="middle" x="351" y="-164.8" font-family="Times,serif" font-size="14.00">BreadcrumbV2Module</text>
</g>
<!-- BranchSelectorComponent&#45;&gt;BreadcrumbV2Module -->
<g id="edge1" class="edge">
<title>BranchSelectorComponent&#45;&gt;BreadcrumbV2Module</title>
<path fill="none" stroke="black" d="M330.44,-122.11C330.44,-122.11 330.44,-140.99 330.44,-140.99"/>
<polygon fill="black" stroke="black" points="326.94,-140.99 330.44,-150.99 333.94,-140.99 326.94,-140.99"/>
</g>
<!-- BreadcrumbsV2Component -->
<g id="node2" class="node">
<title>BreadcrumbsV2Component</title>
<polygon fill="#ffffb3" stroke="black" points="197.58,-122 24.42,-122 24.42,-86 197.58,-86 197.58,-122"/>
<text text-anchor="middle" x="111" y="-99.8" font-family="Times,serif" font-size="14.00">BreadcrumbsV2Component</text>
</g>
<!-- BreadcrumbsV2Component&#45;&gt;BreadcrumbV2Module -->
<g id="edge2" class="edge">
<title>BreadcrumbsV2Component&#45;&gt;BreadcrumbV2Module</title>
<path fill="none" stroke="black" d="M182.12,-122.11C182.12,-141.34 182.12,-169 182.12,-169 182.12,-169 267.91,-169 267.91,-169"/>
<polygon fill="black" stroke="black" points="267.91,-172.5 277.91,-169 267.91,-165.5 267.91,-172.5"/>
</g>
<!-- BranchSelectorComponent  -->
<g id="node6" class="node">
<title>BranchSelectorComponent </title>
<polygon fill="#fb8072" stroke="black" points="532.63,-252 361.37,-252 361.37,-216 532.63,-216 532.63,-252"/>
<text text-anchor="middle" x="447" y="-229.8" font-family="Times,serif" font-size="14.00">BranchSelectorComponent </text>
</g>
<!-- BreadcrumbV2Module&#45;&gt;BranchSelectorComponent  -->
<g id="edge5" class="edge">
<title>BreadcrumbV2Module&#45;&gt;BranchSelectorComponent </title>
<path fill="none" stroke="black" stroke-dasharray="5,2" d="M392.68,-187.11C392.68,-187.11 392.68,-205.99 392.68,-205.99"/>
<polygon fill="black" stroke="black" points="389.18,-205.99 392.68,-215.99 396.18,-205.99 389.18,-205.99"/>
</g>
<!-- BreadcrumbsV2Component  -->
<g id="node7" class="node">
<title>BreadcrumbsV2Component </title>
<polygon fill="#fb8072" stroke="black" points="343.08,-252 166.92,-252 166.92,-216 343.08,-216 343.08,-252"/>
<text text-anchor="middle" x="255" y="-229.8" font-family="Times,serif" font-size="14.00">BreadcrumbsV2Component </text>
</g>
<!-- BreadcrumbV2Module&#45;&gt;BreadcrumbsV2Component  -->
<g id="edge6" class="edge">
<title>BreadcrumbV2Module&#45;&gt;BreadcrumbsV2Component </title>
<path fill="none" stroke="black" stroke-dasharray="5,2" d="M310.68,-187.11C310.68,-187.11 310.68,-205.99 310.68,-205.99"/>
<polygon fill="black" stroke="black" points="307.18,-205.99 310.68,-215.99 314.18,-205.99 307.18,-205.99"/>
</g>
<!-- DirectivesModule -->
<g id="node4" class="node">
<title>DirectivesModule</title>
<polygon fill="#8dd3c7" stroke="black" points="680.58,-122 677.58,-126 656.58,-126 653.58,-122 563.42,-122 563.42,-86 680.58,-86 680.58,-122"/>
<text text-anchor="middle" x="622" y="-99.8" font-family="Times,serif" font-size="14.00">DirectivesModule</text>
</g>
<!-- DirectivesModule&#45;&gt;BreadcrumbV2Module -->
<g id="edge3" class="edge">
<title>DirectivesModule&#45;&gt;BreadcrumbV2Module</title>
<path fill="none" stroke="black" d="M622,-122.11C622,-141.34 622,-169 622,-169 622,-169 433.98,-169 433.98,-169"/>
<polygon fill="black" stroke="black" points="433.98,-165.5 423.98,-169 433.98,-172.5 433.98,-165.5"/>
</g>
<!-- SmoothWidthModule -->
<g id="node5" class="node">
<title>SmoothWidthModule</title>
<polygon fill="#8dd3c7" stroke="black" points="545.11,-122 542.11,-126 521.11,-126 518.11,-122 406.89,-122 406.89,-86 545.11,-86 545.11,-122"/>
<text text-anchor="middle" x="476" y="-99.8" font-family="Times,serif" font-size="14.00">SmoothWidthModule</text>
</g>
<!-- SmoothWidthModule&#45;&gt;BreadcrumbV2Module -->
<g id="edge4" class="edge">
<title>SmoothWidthModule&#45;&gt;BreadcrumbV2Module</title>
<path fill="none" stroke="black" d="M415.43,-122.11C415.43,-122.11 415.43,-140.99 415.43,-140.99"/>
<polygon fill="black" stroke="black" points="411.93,-140.99 415.43,-150.99 418.93,-140.99 411.93,-140.99"/>
</g>
</g>
</svg>
