<?xml version="1.0" encoding="UTF-8" standalone="no"?>
<!DOCTYPE svg PUBLIC "-//W3C//DTD SVG 1.1//EN"
 "http://www.w3.org/Graphics/SVG/1.1/DTD/svg11.dtd">
<!-- Generated by graphviz version 2.47.0 (20210316.0004)
 -->
<!-- Title: dependencies Pages: 1 -->
<svg width="721pt" height="211pt"
 viewBox="0.00 0.00 721.00 211.00" xmlns="http://www.w3.org/2000/svg" xmlns:xlink="http://www.w3.org/1999/xlink">
<g id="graph0" class="graph" transform="scale(1 1) rotate(0) translate(4 207)">
<title>dependencies</title>
<polygon fill="white" stroke="transparent" points="-4,4 -4,-207 717,-207 717,4 -4,4"/>
<text text-anchor="start" x="335.51" y="-42.4" font-family="Times-12" font-weight="bold" font-size="14.00">Legend</text>
<polygon fill="#ffffb3" stroke="transparent" points="122.5,-10 122.5,-30 142.5,-30 142.5,-10 122.5,-10"/>
<text text-anchor="start" x="146.13" y="-15.4" font-family="Times-12" font-size="14.00"> &#160;Declarations</text>
<polygon fill="#8dd3c7" stroke="transparent" points="235.5,-10 235.5,-30 255.5,-30 255.5,-10 235.5,-10"/>
<text text-anchor="start" x="259.23" y="-15.4" font-family="Times-12" font-size="14.00"> &#160;Module</text>
<polygon fill="#80b1d3" stroke="transparent" points="321.5,-10 321.5,-30 341.5,-30 341.5,-10 321.5,-10"/>
<text text-anchor="start" x="345.28" y="-15.4" font-family="Times-12" font-size="14.00"> &#160;Bootstrap</text>
<polygon fill="#fdb462" stroke="transparent" points="418.5,-10 418.5,-30 438.5,-30 438.5,-10 418.5,-10"/>
<text text-anchor="start" x="442.17" y="-15.4" font-family="Times-12" font-size="14.00"> &#160;Providers</text>
<polygon fill="#fb8072" stroke="transparent" points="514.5,-10 514.5,-30 534.5,-30 534.5,-10 514.5,-10"/>
<text text-anchor="start" x="538.23" y="-15.4" font-family="Times-12" font-size="14.00"> &#160;Exports</text>
<g id="clust1" class="cluster">
<title>cluster_CreateUserGroupModule</title>
<polygon fill="none" stroke="black" stroke-dasharray="1,5" points="8,-70 8,-195 705,-195 705,-70 8,-70"/>
</g>
<g id="clust2" class="cluster">
<title>cluster_CreateUserGroupModule_declarations</title>
<polygon fill="none" stroke="black" points="501,-78 501,-130 697,-130 697,-78 501,-78"/>
</g>
<g id="clust4" class="cluster">
<title>cluster_CreateUserGroupModule_imports</title>
<polygon fill="none" stroke="black" points="16,-78 16,-130 493,-130 493,-78 16,-78"/>
</g>
<!-- CreateUserGroupComponent -->
<g id="node1" class="node">
<title>CreateUserGroupComponent</title>
<polygon fill="#ffffb3" stroke="black" points="689.06,-122 508.94,-122 508.94,-86 689.06,-86 689.06,-122"/>
<text text-anchor="middle" x="599" y="-99.8" font-family="Times,serif" font-size="14.00">CreateUserGroupComponent</text>
</g>
<!-- CreateUserGroupModule -->
<g id="node2" class="node">
<title>CreateUserGroupModule</title>
<polygon fill="#8dd3c7" stroke="black" points="373.28,-187 370.28,-191 349.28,-191 346.28,-187 214.72,-187 214.72,-151 373.28,-151 373.28,-187"/>
<text text-anchor="middle" x="294" y="-164.8" font-family="Times,serif" font-size="14.00">CreateUserGroupModule</text>
</g>
<!-- CreateUserGroupComponent&#45;&gt;CreateUserGroupModule -->
<g id="edge1" class="edge">
<title>CreateUserGroupComponent&#45;&gt;CreateUserGroupModule</title>
<path fill="none" stroke="black" d="M599,-122.11C599,-141.34 599,-169 599,-169 599,-169 383.34,-169 383.34,-169"/>
<polygon fill="black" stroke="black" points="383.34,-165.5 373.34,-169 383.34,-172.5 383.34,-165.5"/>
</g>
<!-- CreateUserGroupRoutingModule -->
<g id="node3" class="node">
<title>CreateUserGroupRoutingModule</title>
<polygon fill="#8dd3c7" stroke="black" points="484.89,-122 481.89,-126 460.89,-126 457.89,-122 281.11,-122 281.11,-86 484.89,-86 484.89,-122"/>
<text text-anchor="middle" x="383" y="-99.8" font-family="Times,serif" font-size="14.00">CreateUserGroupRoutingModule</text>
</g>
<!-- CreateUserGroupRoutingModule&#45;&gt;CreateUserGroupModule -->
<g id="edge2" class="edge">
<title>CreateUserGroupRoutingModule&#45;&gt;CreateUserGroupModule</title>
<path fill="none" stroke="black" d="M327.22,-122.11C327.22,-122.11 327.22,-140.99 327.22,-140.99"/>
<polygon fill="black" stroke="black" points="323.72,-140.99 327.22,-150.99 330.72,-140.99 323.72,-140.99"/>
</g>
<!-- DirectivesModule -->
<g id="node4" class="node">
<title>DirectivesModule</title>
<polygon fill="#8dd3c7" stroke="black" points="263.58,-122 260.58,-126 239.58,-126 236.58,-122 146.42,-122 146.42,-86 263.58,-86 263.58,-122"/>
<text text-anchor="middle" x="205" y="-99.8" font-family="Times,serif" font-size="14.00">DirectivesModule</text>
</g>
<!-- DirectivesModule&#45;&gt;CreateUserGroupModule -->
<g id="edge3" class="edge">
<title>DirectivesModule&#45;&gt;CreateUserGroupModule</title>
<path fill="none" stroke="black" d="M239.2,-122.11C239.2,-122.11 239.2,-140.99 239.2,-140.99"/>
<polygon fill="black" stroke="black" points="235.7,-140.99 239.2,-150.99 242.7,-140.99 235.7,-140.99"/>
</g>
<!-- LayoutsModule -->
<g id="node5" class="node">
<title>LayoutsModule</title>
<polygon fill="#8dd3c7" stroke="black" points="128.15,-122 125.15,-126 104.15,-126 101.15,-122 23.85,-122 23.85,-86 128.15,-86 128.15,-122"/>
<text text-anchor="middle" x="76" y="-99.8" font-family="Times,serif" font-size="14.00">LayoutsModule</text>
</g>
<!-- LayoutsModule&#45;&gt;CreateUserGroupModule -->
<g id="edge4" class="edge">
<title>LayoutsModule&#45;&gt;CreateUserGroupModule</title>
<path fill="none" stroke="black" d="M76,-122.11C76,-141.34 76,-169 76,-169 76,-169 204.68,-169 204.68,-169"/>
<polygon fill="black" stroke="black" points="204.68,-172.5 214.68,-169 204.68,-165.5 204.68,-172.5"/>
</g>
</g>
</svg>
