<?xml version="1.0" encoding="UTF-8" standalone="no"?>
<!DOCTYPE svg PUBLIC "-//W3C//DTD SVG 1.1//EN"
 "http://www.w3.org/Graphics/SVG/1.1/DTD/svg11.dtd">
<!-- Generated by graphviz version 2.47.0 (20210316.0004)
 -->
<!-- Title: dependencies Pages: 1 -->
<svg width="504pt" height="211pt"
 viewBox="0.00 0.00 504.00 211.00" xmlns="http://www.w3.org/2000/svg" xmlns:xlink="http://www.w3.org/1999/xlink">
<g id="graph0" class="graph" transform="scale(1 1) rotate(0) translate(4 207)">
<title>dependencies</title>
<polygon fill="white" stroke="transparent" points="-4,4 -4,-207 500,-207 500,4 -4,4"/>
<text text-anchor="start" x="227.01" y="-42.4" font-family="Times-12" font-weight="bold" font-size="14.00">Legend</text>
<polygon fill="#ffffb3" stroke="transparent" points="14,-10 14,-30 34,-30 34,-10 14,-10"/>
<text text-anchor="start" x="37.63" y="-15.4" font-family="Times-12" font-size="14.00"> &#160;Declarations</text>
<polygon fill="#8dd3c7" stroke="transparent" points="127,-10 127,-30 147,-30 147,-10 127,-10"/>
<text text-anchor="start" x="150.73" y="-15.4" font-family="Times-12" font-size="14.00"> &#160;Module</text>
<polygon fill="#80b1d3" stroke="transparent" points="213,-10 213,-30 233,-30 233,-10 213,-10"/>
<text text-anchor="start" x="236.78" y="-15.4" font-family="Times-12" font-size="14.00"> &#160;Bootstrap</text>
<polygon fill="#fdb462" stroke="transparent" points="310,-10 310,-30 330,-30 330,-10 310,-10"/>
<text text-anchor="start" x="333.67" y="-15.4" font-family="Times-12" font-size="14.00"> &#160;Providers</text>
<polygon fill="#fb8072" stroke="transparent" points="406,-10 406,-30 426,-30 426,-10 406,-10"/>
<text text-anchor="start" x="429.73" y="-15.4" font-family="Times-12" font-size="14.00"> &#160;Exports</text>
<g id="clust1" class="cluster">
<title>cluster_QuickLogSearchModule</title>
<polygon fill="none" stroke="black" stroke-dasharray="1,5" points="32,-70 32,-195 464,-195 464,-70 32,-70"/>
</g>
<g id="clust4" class="cluster">
<title>cluster_QuickLogSearchModule_imports</title>
<polygon fill="none" stroke="black" points="240,-78 240,-130 456,-130 456,-78 240,-78"/>
</g>
<g id="clust2" class="cluster">
<title>cluster_QuickLogSearchModule_declarations</title>
<polygon fill="none" stroke="black" points="40,-78 40,-130 232,-130 232,-78 40,-78"/>
</g>
<!-- QuickLogSearchComponent -->
<g id="node1" class="node">
<title>QuickLogSearchComponent</title>
<polygon fill="#ffffb3" stroke="black" points="224.18,-122 47.82,-122 47.82,-86 224.18,-86 224.18,-122"/>
<text text-anchor="middle" x="136" y="-99.8" font-family="Times,serif" font-size="14.00">QuickLogSearchComponent</text>
</g>
<!-- QuickLogSearchModule -->
<g id="node2" class="node">
<title>QuickLogSearchModule</title>
<polygon fill="#8dd3c7" stroke="black" points="319.4,-187 316.4,-191 295.4,-191 292.4,-187 164.6,-187 164.6,-151 319.4,-151 319.4,-187"/>
<text text-anchor="middle" x="242" y="-164.8" font-family="Times,serif" font-size="14.00">QuickLogSearchModule</text>
</g>
<!-- QuickLogSearchComponent&#45;&gt;QuickLogSearchModule -->
<g id="edge1" class="edge">
<title>QuickLogSearchComponent&#45;&gt;QuickLogSearchModule</title>
<path fill="none" stroke="black" d="M194.45,-122.11C194.45,-122.11 194.45,-140.99 194.45,-140.99"/>
<polygon fill="black" stroke="black" points="190.95,-140.99 194.45,-150.99 197.95,-140.99 190.95,-140.99"/>
</g>
<!-- QuickLogSearchRoutingModule -->
<g id="node3" class="node">
<title>QuickLogSearchRoutingModule</title>
<polygon fill="#8dd3c7" stroke="black" points="447.52,-122 444.52,-126 423.52,-126 420.52,-122 248.48,-122 248.48,-86 447.52,-86 447.52,-122"/>
<text text-anchor="middle" x="348" y="-99.8" font-family="Times,serif" font-size="14.00">QuickLogSearchRoutingModule</text>
</g>
<!-- QuickLogSearchRoutingModule&#45;&gt;QuickLogSearchModule -->
<g id="edge2" class="edge">
<title>QuickLogSearchRoutingModule&#45;&gt;QuickLogSearchModule</title>
<path fill="none" stroke="black" d="M283.72,-122.11C283.72,-122.11 283.72,-140.99 283.72,-140.99"/>
<polygon fill="black" stroke="black" points="280.22,-140.99 283.72,-150.99 287.22,-140.99 280.22,-140.99"/>
</g>
</g>
</svg>
