<?xml version="1.0" encoding="UTF-8" standalone="no"?>
<!DOCTYPE svg PUBLIC "-//W3C//DTD SVG 1.1//EN"
 "http://www.w3.org/Graphics/SVG/1.1/DTD/svg11.dtd">
<!-- Generated by graphviz version 2.47.0 (20210316.0004)
 -->
<!-- Title: dependencies Pages: 1 -->
<svg width="573pt" height="211pt"
 viewBox="0.00 0.00 573.00 211.00" xmlns="http://www.w3.org/2000/svg" xmlns:xlink="http://www.w3.org/1999/xlink">
<g id="graph0" class="graph" transform="scale(1 1) rotate(0) translate(4 207)">
<title>dependencies</title>
<polygon fill="white" stroke="transparent" points="-4,4 -4,-207 569,-207 569,4 -4,4"/>
<text text-anchor="start" x="261.51" y="-42.4" font-family="Times-12" font-weight="bold" font-size="14.00">Legend</text>
<polygon fill="#ffffb3" stroke="transparent" points="48.5,-10 48.5,-30 68.5,-30 68.5,-10 48.5,-10"/>
<text text-anchor="start" x="72.13" y="-15.4" font-family="Times-12" font-size="14.00"> &#160;Declarations</text>
<polygon fill="#8dd3c7" stroke="transparent" points="161.5,-10 161.5,-30 181.5,-30 181.5,-10 161.5,-10"/>
<text text-anchor="start" x="185.23" y="-15.4" font-family="Times-12" font-size="14.00"> &#160;Module</text>
<polygon fill="#80b1d3" stroke="transparent" points="247.5,-10 247.5,-30 267.5,-30 267.5,-10 247.5,-10"/>
<text text-anchor="start" x="271.28" y="-15.4" font-family="Times-12" font-size="14.00"> &#160;Bootstrap</text>
<polygon fill="#fdb462" stroke="transparent" points="344.5,-10 344.5,-30 364.5,-30 364.5,-10 344.5,-10"/>
<text text-anchor="start" x="368.17" y="-15.4" font-family="Times-12" font-size="14.00"> &#160;Providers</text>
<polygon fill="#fb8072" stroke="transparent" points="440.5,-10 440.5,-30 460.5,-30 460.5,-10 440.5,-10"/>
<text text-anchor="start" x="464.23" y="-15.4" font-family="Times-12" font-size="14.00"> &#160;Exports</text>
<g id="clust1" class="cluster">
<title>cluster_ResourceDetailsModule</title>
<polygon fill="none" stroke="black" stroke-dasharray="1,5" points="8,-70 8,-195 557,-195 557,-70 8,-70"/>
</g>
<g id="clust4" class="cluster">
<title>cluster_ResourceDetailsModule_imports</title>
<polygon fill="none" stroke="black" points="214,-78 214,-130 549,-130 549,-78 214,-78"/>
</g>
<g id="clust2" class="cluster">
<title>cluster_ResourceDetailsModule_declarations</title>
<polygon fill="none" stroke="black" points="16,-78 16,-130 206,-130 206,-78 16,-78"/>
</g>
<!-- ResourceDetailsComponent -->
<g id="node1" class="node">
<title>ResourceDetailsComponent</title>
<polygon fill="#ffffb3" stroke="black" points="197.57,-122 24.43,-122 24.43,-86 197.57,-86 197.57,-122"/>
<text text-anchor="middle" x="111" y="-99.8" font-family="Times,serif" font-size="14.00">ResourceDetailsComponent</text>
</g>
<!-- ResourceDetailsModule -->
<g id="node2" class="node">
<title>ResourceDetailsModule</title>
<polygon fill="#8dd3c7" stroke="black" points="395.79,-187 392.79,-191 371.79,-191 368.79,-187 244.21,-187 244.21,-151 395.79,-151 395.79,-187"/>
<text text-anchor="middle" x="320" y="-164.8" font-family="Times,serif" font-size="14.00">ResourceDetailsModule</text>
</g>
<!-- ResourceDetailsComponent&#45;&gt;ResourceDetailsModule -->
<g id="edge1" class="edge">
<title>ResourceDetailsComponent&#45;&gt;ResourceDetailsModule</title>
<path fill="none" stroke="black" d="M111,-122.11C111,-141.34 111,-169 111,-169 111,-169 234.25,-169 234.25,-169"/>
<polygon fill="black" stroke="black" points="234.25,-172.5 244.25,-169 234.25,-165.5 234.25,-172.5"/>
</g>
<!-- LayoutsModule -->
<g id="node3" class="node">
<title>LayoutsModule</title>
<polygon fill="#8dd3c7" stroke="black" points="541.15,-122 538.15,-126 517.15,-126 514.15,-122 436.85,-122 436.85,-86 541.15,-86 541.15,-122"/>
<text text-anchor="middle" x="489" y="-99.8" font-family="Times,serif" font-size="14.00">LayoutsModule</text>
</g>
<!-- LayoutsModule&#45;&gt;ResourceDetailsModule -->
<g id="edge2" class="edge">
<title>LayoutsModule&#45;&gt;ResourceDetailsModule</title>
<path fill="none" stroke="black" d="M489,-122.11C489,-141.34 489,-169 489,-169 489,-169 406.1,-169 406.1,-169"/>
<polygon fill="black" stroke="black" points="406.1,-165.5 396.1,-169 406.1,-172.5 406.1,-165.5"/>
</g>
<!-- ResourceDetailsRoutingModule -->
<g id="node4" class="node">
<title>ResourceDetailsRoutingModule</title>
<polygon fill="#8dd3c7" stroke="black" points="418.41,-122 415.41,-126 394.41,-126 391.41,-122 221.59,-122 221.59,-86 418.41,-86 418.41,-122"/>
<text text-anchor="middle" x="320" y="-99.8" font-family="Times,serif" font-size="14.00">ResourceDetailsRoutingModule</text>
</g>
<!-- ResourceDetailsRoutingModule&#45;&gt;ResourceDetailsModule -->
<g id="edge3" class="edge">
<title>ResourceDetailsRoutingModule&#45;&gt;ResourceDetailsModule</title>
<path fill="none" stroke="black" d="M320,-122.11C320,-122.11 320,-140.99 320,-140.99"/>
<polygon fill="black" stroke="black" points="316.5,-140.99 320,-150.99 323.5,-140.99 316.5,-140.99"/>
</g>
</g>
</svg>
