<?xml version="1.0" encoding="UTF-8" standalone="no"?>
<!DOCTYPE svg PUBLIC "-//W3C//DTD SVG 1.1//EN"
 "http://www.w3.org/Graphics/SVG/1.1/DTD/svg11.dtd">
<!-- Generated by graphviz version 2.47.0 (20210316.0004)
 -->
<!-- Title: dependencies Pages: 1 -->
<svg width="770pt" height="284pt"
 viewBox="0.00 0.00 770.00 284.00" xmlns="http://www.w3.org/2000/svg" xmlns:xlink="http://www.w3.org/1999/xlink">
<g id="graph0" class="graph" transform="scale(1 1) rotate(0) translate(4 280)">
<title>dependencies</title>
<polygon fill="white" stroke="transparent" points="-4,4 -4,-280 766,-280 766,4 -4,4"/>
<text text-anchor="start" x="360.01" y="-42.4" font-family="Times-12" font-weight="bold" font-size="14.00">Legend</text>
<polygon fill="#ffffb3" stroke="transparent" points="147,-10 147,-30 167,-30 167,-10 147,-10"/>
<text text-anchor="start" x="170.63" y="-15.4" font-family="Times-12" font-size="14.00"> &#160;Declarations</text>
<polygon fill="#8dd3c7" stroke="transparent" points="260,-10 260,-30 280,-30 280,-10 260,-10"/>
<text text-anchor="start" x="283.73" y="-15.4" font-family="Times-12" font-size="14.00"> &#160;Module</text>
<polygon fill="#80b1d3" stroke="transparent" points="346,-10 346,-30 366,-30 366,-10 346,-10"/>
<text text-anchor="start" x="369.78" y="-15.4" font-family="Times-12" font-size="14.00"> &#160;Bootstrap</text>
<polygon fill="#fdb462" stroke="transparent" points="443,-10 443,-30 463,-30 463,-10 443,-10"/>
<text text-anchor="start" x="466.67" y="-15.4" font-family="Times-12" font-size="14.00"> &#160;Providers</text>
<polygon fill="#fb8072" stroke="transparent" points="539,-10 539,-30 559,-30 559,-10 539,-10"/>
<text text-anchor="start" x="562.73" y="-15.4" font-family="Times-12" font-size="14.00"> &#160;Exports</text>
<g id="clust1" class="cluster">
<title>cluster_ResourceListModule</title>
<polygon fill="none" stroke="black" stroke-dasharray="1,5" points="8,-70 8,-268 754,-268 754,-70 8,-70"/>
</g>
<g id="clust5" class="cluster">
<title>cluster_ResourceListModule_imports</title>
<polygon fill="none" stroke="black" points="429,-78 429,-130 746,-130 746,-78 429,-78"/>
</g>
<g id="clust6" class="cluster">
<title>cluster_ResourceListModule_exports</title>
<polygon fill="none" stroke="black" points="298,-208 298,-260 532,-260 532,-208 298,-208"/>
</g>
<g id="clust2" class="cluster">
<title>cluster_ResourceListModule_declarations</title>
<polygon fill="none" stroke="black" points="16,-78 16,-130 421,-130 421,-78 16,-78"/>
</g>
<!-- EnableDisableResourceComponent -->
<g id="node1" class="node">
<title>EnableDisableResourceComponent</title>
<polygon fill="#ffffb3" stroke="black" points="412.55,-122 197.45,-122 197.45,-86 412.55,-86 412.55,-122"/>
<text text-anchor="middle" x="305" y="-99.8" font-family="Times,serif" font-size="14.00">EnableDisableResourceComponent</text>
</g>
<!-- ResourceListModule -->
<g id="node3" class="node">
<title>ResourceListModule</title>
<polygon fill="#8dd3c7" stroke="black" points="481.91,-187 478.91,-191 457.91,-191 454.91,-187 348.09,-187 348.09,-151 481.91,-151 481.91,-187"/>
<text text-anchor="middle" x="415" y="-164.8" font-family="Times,serif" font-size="14.00">ResourceListModule</text>
</g>
<!-- EnableDisableResourceComponent&#45;&gt;ResourceListModule -->
<g id="edge1" class="edge">
<title>EnableDisableResourceComponent&#45;&gt;ResourceListModule</title>
<path fill="none" stroke="black" d="M380.41,-122.11C380.41,-122.11 380.41,-140.99 380.41,-140.99"/>
<polygon fill="black" stroke="black" points="376.91,-140.99 380.41,-150.99 383.91,-140.99 376.91,-140.99"/>
</g>
<!-- ResourceListComponent -->
<g id="node2" class="node">
<title>ResourceListComponent</title>
<polygon fill="#ffffb3" stroke="black" points="179.7,-122 24.3,-122 24.3,-86 179.7,-86 179.7,-122"/>
<text text-anchor="middle" x="102" y="-99.8" font-family="Times,serif" font-size="14.00">ResourceListComponent</text>
</g>
<!-- ResourceListComponent&#45;&gt;ResourceListModule -->
<g id="edge2" class="edge">
<title>ResourceListComponent&#45;&gt;ResourceListModule</title>
<path fill="none" stroke="black" d="M102,-122.11C102,-141.34 102,-169 102,-169 102,-169 338.24,-169 338.24,-169"/>
<polygon fill="black" stroke="black" points="338.24,-172.5 348.24,-169 338.24,-165.5 338.24,-172.5"/>
</g>
<!-- EnableDisableResourceComponent  -->
<g id="node6" class="node">
<title>EnableDisableResourceComponent </title>
<polygon fill="#fb8072" stroke="black" points="524.05,-252 305.95,-252 305.95,-216 524.05,-216 524.05,-252"/>
<text text-anchor="middle" x="415" y="-229.8" font-family="Times,serif" font-size="14.00">EnableDisableResourceComponent </text>
</g>
<!-- ResourceListModule&#45;&gt;EnableDisableResourceComponent  -->
<g id="edge5" class="edge">
<title>ResourceListModule&#45;&gt;EnableDisableResourceComponent </title>
<path fill="none" stroke="black" stroke-dasharray="5,2" d="M415,-187.11C415,-187.11 415,-205.99 415,-205.99"/>
<polygon fill="black" stroke="black" points="411.5,-205.99 415,-215.99 418.5,-205.99 411.5,-205.99"/>
</g>
<!-- LayoutsModule -->
<g id="node4" class="node">
<title>LayoutsModule</title>
<polygon fill="#8dd3c7" stroke="black" points="738.15,-122 735.15,-126 714.15,-126 711.15,-122 633.85,-122 633.85,-86 738.15,-86 738.15,-122"/>
<text text-anchor="middle" x="686" y="-99.8" font-family="Times,serif" font-size="14.00">LayoutsModule</text>
</g>
<!-- LayoutsModule&#45;&gt;ResourceListModule -->
<g id="edge3" class="edge">
<title>LayoutsModule&#45;&gt;ResourceListModule</title>
<path fill="none" stroke="black" d="M686,-122.11C686,-141.34 686,-169 686,-169 686,-169 491.99,-169 491.99,-169"/>
<polygon fill="black" stroke="black" points="491.99,-165.5 481.99,-169 491.99,-172.5 491.99,-165.5"/>
</g>
<!-- ResourceListRoutingModule -->
<g id="node5" class="node">
<title>ResourceListRoutingModule</title>
<polygon fill="#8dd3c7" stroke="black" points="615.03,-122 612.03,-126 591.03,-126 588.03,-122 436.97,-122 436.97,-86 615.03,-86 615.03,-122"/>
<text text-anchor="middle" x="526" y="-99.8" font-family="Times,serif" font-size="14.00">ResourceListRoutingModule</text>
</g>
<!-- ResourceListRoutingModule&#45;&gt;ResourceListModule -->
<g id="edge4" class="edge">
<title>ResourceListRoutingModule&#45;&gt;ResourceListModule</title>
<path fill="none" stroke="black" d="M459.22,-122.11C459.22,-122.11 459.22,-140.99 459.22,-140.99"/>
<polygon fill="black" stroke="black" points="455.72,-140.99 459.22,-150.99 462.72,-140.99 455.72,-140.99"/>
</g>
</g>
</svg>
