<?xml version="1.0" encoding="UTF-8" standalone="no"?>
<!DOCTYPE svg PUBLIC "-//W3C//DTD SVG 1.1//EN"
 "http://www.w3.org/Graphics/SVG/1.1/DTD/svg11.dtd">
<!-- Generated by graphviz version 2.47.0 (20210316.0004)
 -->
<!-- Title: dependencies Pages: 1 -->
<svg width="857pt" height="284pt"
 viewBox="0.00 0.00 857.00 284.00" xmlns="http://www.w3.org/2000/svg" xmlns:xlink="http://www.w3.org/1999/xlink">
<g id="graph0" class="graph" transform="scale(1 1) rotate(0) translate(4 280)">
<title>dependencies</title>
<polygon fill="white" stroke="transparent" points="-4,4 -4,-280 853,-280 853,4 -4,4"/>
<text text-anchor="start" x="403.51" y="-42.4" font-family="Times-12" font-weight="bold" font-size="14.00">Legend</text>
<polygon fill="#ffffb3" stroke="transparent" points="190.5,-10 190.5,-30 210.5,-30 210.5,-10 190.5,-10"/>
<text text-anchor="start" x="214.13" y="-15.4" font-family="Times-12" font-size="14.00"> &#160;Declarations</text>
<polygon fill="#8dd3c7" stroke="transparent" points="303.5,-10 303.5,-30 323.5,-30 323.5,-10 303.5,-10"/>
<text text-anchor="start" x="327.23" y="-15.4" font-family="Times-12" font-size="14.00"> &#160;Module</text>
<polygon fill="#80b1d3" stroke="transparent" points="389.5,-10 389.5,-30 409.5,-30 409.5,-10 389.5,-10"/>
<text text-anchor="start" x="413.28" y="-15.4" font-family="Times-12" font-size="14.00"> &#160;Bootstrap</text>
<polygon fill="#fdb462" stroke="transparent" points="486.5,-10 486.5,-30 506.5,-30 506.5,-10 486.5,-10"/>
<text text-anchor="start" x="510.17" y="-15.4" font-family="Times-12" font-size="14.00"> &#160;Providers</text>
<polygon fill="#fb8072" stroke="transparent" points="582.5,-10 582.5,-30 602.5,-30 602.5,-10 582.5,-10"/>
<text text-anchor="start" x="606.23" y="-15.4" font-family="Times-12" font-size="14.00"> &#160;Exports</text>
<g id="clust1" class="cluster">
<title>cluster_OauthClientsModule</title>
<polygon fill="none" stroke="black" stroke-dasharray="1,5" points="8,-70 8,-268 841,-268 841,-70 8,-70"/>
</g>
<g id="clust2" class="cluster">
<title>cluster_OauthClientsModule_declarations</title>
<polygon fill="none" stroke="black" points="477,-78 477,-130 833,-130 833,-78 477,-78"/>
</g>
<g id="clust5" class="cluster">
<title>cluster_OauthClientsModule_imports</title>
<polygon fill="none" stroke="black" points="16,-78 16,-130 469,-130 469,-78 16,-78"/>
</g>
<g id="clust6" class="cluster">
<title>cluster_OauthClientsModule_exports</title>
<polygon fill="none" stroke="black" points="315,-208 315,-260 489,-260 489,-208 315,-208"/>
</g>
<!-- AddIntegrationComponent -->
<g id="node1" class="node">
<title>AddIntegrationComponent</title>
<polygon fill="#ffffb3" stroke="black" points="825.36,-122 658.64,-122 658.64,-86 825.36,-86 825.36,-122"/>
<text text-anchor="middle" x="742" y="-99.8" font-family="Times,serif" font-size="14.00">AddIntegrationComponent</text>
</g>
<!-- OauthClientsModule -->
<g id="node3" class="node">
<title>OauthClientsModule</title>
<polygon fill="#8dd3c7" stroke="black" points="468.93,-187 465.93,-191 444.93,-191 441.93,-187 335.07,-187 335.07,-151 468.93,-151 468.93,-187"/>
<text text-anchor="middle" x="402" y="-164.8" font-family="Times,serif" font-size="14.00">OauthClientsModule</text>
</g>
<!-- AddIntegrationComponent&#45;&gt;OauthClientsModule -->
<g id="edge1" class="edge">
<title>AddIntegrationComponent&#45;&gt;OauthClientsModule</title>
<path fill="none" stroke="black" d="M742,-122.11C742,-141.34 742,-169 742,-169 742,-169 478.77,-169 478.77,-169"/>
<polygon fill="black" stroke="black" points="478.77,-165.5 468.77,-169 478.77,-172.5 478.77,-165.5"/>
</g>
<!-- OauthClientsComponent -->
<g id="node2" class="node">
<title>OauthClientsComponent</title>
<polygon fill="#ffffb3" stroke="black" points="640.71,-122 485.29,-122 485.29,-86 640.71,-86 640.71,-122"/>
<text text-anchor="middle" x="563" y="-99.8" font-family="Times,serif" font-size="14.00">OauthClientsComponent</text>
</g>
<!-- OauthClientsComponent&#45;&gt;OauthClientsModule -->
<g id="edge2" class="edge">
<title>OauthClientsComponent&#45;&gt;OauthClientsModule</title>
<path fill="none" stroke="black" d="M485.01,-104C473.07,-104 464.63,-104 464.63,-104 464.63,-104 464.63,-140.89 464.63,-140.89"/>
<polygon fill="black" stroke="black" points="461.13,-140.89 464.63,-150.89 468.13,-140.89 461.13,-140.89"/>
</g>
<!-- OauthClientsComponent  -->
<g id="node7" class="node">
<title>OauthClientsComponent </title>
<polygon fill="#fb8072" stroke="black" points="481.21,-252 322.79,-252 322.79,-216 481.21,-216 481.21,-252"/>
<text text-anchor="middle" x="402" y="-229.8" font-family="Times,serif" font-size="14.00">OauthClientsComponent </text>
</g>
<!-- OauthClientsModule&#45;&gt;OauthClientsComponent  -->
<g id="edge6" class="edge">
<title>OauthClientsModule&#45;&gt;OauthClientsComponent </title>
<path fill="none" stroke="black" stroke-dasharray="5,2" d="M402,-187.11C402,-187.11 402,-205.99 402,-205.99"/>
<polygon fill="black" stroke="black" points="398.5,-205.99 402,-215.99 405.5,-205.99 398.5,-205.99"/>
</g>
<!-- DirectivesModule -->
<g id="node4" class="node">
<title>DirectivesModule</title>
<polygon fill="#8dd3c7" stroke="black" points="460.58,-122 457.58,-126 436.58,-126 433.58,-122 343.42,-122 343.42,-86 460.58,-86 460.58,-122"/>
<text text-anchor="middle" x="402" y="-99.8" font-family="Times,serif" font-size="14.00">DirectivesModule</text>
</g>
<!-- DirectivesModule&#45;&gt;OauthClientsModule -->
<g id="edge3" class="edge">
<title>DirectivesModule&#45;&gt;OauthClientsModule</title>
<path fill="none" stroke="black" d="M402,-122.11C402,-122.11 402,-140.99 402,-140.99"/>
<polygon fill="black" stroke="black" points="398.5,-140.99 402,-150.99 405.5,-140.99 398.5,-140.99"/>
</g>
<!-- LayoutsModule -->
<g id="node5" class="node">
<title>LayoutsModule</title>
<polygon fill="#8dd3c7" stroke="black" points="325.15,-122 322.15,-126 301.15,-126 298.15,-122 220.85,-122 220.85,-86 325.15,-86 325.15,-122"/>
<text text-anchor="middle" x="273" y="-99.8" font-family="Times,serif" font-size="14.00">LayoutsModule</text>
</g>
<!-- LayoutsModule&#45;&gt;OauthClientsModule -->
<g id="edge4" class="edge">
<title>LayoutsModule&#45;&gt;OauthClientsModule</title>
<path fill="none" stroke="black" d="M325.3,-104C333.52,-104 339.37,-104 339.37,-104 339.37,-104 339.37,-140.89 339.37,-140.89"/>
<polygon fill="black" stroke="black" points="335.87,-140.89 339.37,-150.89 342.87,-140.89 335.87,-140.89"/>
</g>
<!-- OauthClientsRoutingModule -->
<g id="node6" class="node">
<title>OauthClientsRoutingModule</title>
<polygon fill="#8dd3c7" stroke="black" points="202.05,-122 199.05,-126 178.05,-126 175.05,-122 23.95,-122 23.95,-86 202.05,-86 202.05,-122"/>
<text text-anchor="middle" x="113" y="-99.8" font-family="Times,serif" font-size="14.00">OauthClientsRoutingModule</text>
</g>
<!-- OauthClientsRoutingModule&#45;&gt;OauthClientsModule -->
<g id="edge5" class="edge">
<title>OauthClientsRoutingModule&#45;&gt;OauthClientsModule</title>
<path fill="none" stroke="black" d="M113,-122.11C113,-141.34 113,-169 113,-169 113,-169 324.97,-169 324.97,-169"/>
<polygon fill="black" stroke="black" points="324.97,-172.5 334.97,-169 324.97,-165.5 324.97,-172.5"/>
</g>
</g>
</svg>
