<?xml version="1.0" encoding="UTF-8" standalone="no"?>
<!DOCTYPE svg PUBLIC "-//W3C//DTD SVG 1.1//EN"
 "http://www.w3.org/Graphics/SVG/1.1/DTD/svg11.dtd">
<!-- Generated by graphviz version 2.47.0 (20210316.0004)
 -->
<!-- Title: dependencies Pages: 1 -->
<svg width="733pt" height="211pt"
 viewBox="0.00 0.00 733.00 211.00" xmlns="http://www.w3.org/2000/svg" xmlns:xlink="http://www.w3.org/1999/xlink">
<g id="graph0" class="graph" transform="scale(1 1) rotate(0) translate(4 207)">
<title>dependencies</title>
<polygon fill="white" stroke="transparent" points="-4,4 -4,-207 729,-207 729,4 -4,4"/>
<text text-anchor="start" x="341.51" y="-42.4" font-family="Times-12" font-weight="bold" font-size="14.00">Legend</text>
<polygon fill="#ffffb3" stroke="transparent" points="128.5,-10 128.5,-30 148.5,-30 148.5,-10 128.5,-10"/>
<text text-anchor="start" x="152.13" y="-15.4" font-family="Times-12" font-size="14.00"> &#160;Declarations</text>
<polygon fill="#8dd3c7" stroke="transparent" points="241.5,-10 241.5,-30 261.5,-30 261.5,-10 241.5,-10"/>
<text text-anchor="start" x="265.23" y="-15.4" font-family="Times-12" font-size="14.00"> &#160;Module</text>
<polygon fill="#80b1d3" stroke="transparent" points="327.5,-10 327.5,-30 347.5,-30 347.5,-10 327.5,-10"/>
<text text-anchor="start" x="351.28" y="-15.4" font-family="Times-12" font-size="14.00"> &#160;Bootstrap</text>
<polygon fill="#fdb462" stroke="transparent" points="424.5,-10 424.5,-30 444.5,-30 444.5,-10 424.5,-10"/>
<text text-anchor="start" x="448.17" y="-15.4" font-family="Times-12" font-size="14.00"> &#160;Providers</text>
<polygon fill="#fb8072" stroke="transparent" points="520.5,-10 520.5,-30 540.5,-30 540.5,-10 520.5,-10"/>
<text text-anchor="start" x="544.23" y="-15.4" font-family="Times-12" font-size="14.00"> &#160;Exports</text>
<g id="clust1" class="cluster">
<title>cluster_IngressOverviewDashboardModule</title>
<polygon fill="none" stroke="black" stroke-dasharray="1,5" points="8,-70 8,-195 717,-195 717,-70 8,-70"/>
</g>
<g id="clust2" class="cluster">
<title>cluster_IngressOverviewDashboardModule_declarations</title>
<polygon fill="none" stroke="black" points="455,-78 455,-130 709,-130 709,-78 455,-78"/>
</g>
<g id="clust4" class="cluster">
<title>cluster_IngressOverviewDashboardModule_imports</title>
<polygon fill="none" stroke="black" points="16,-78 16,-130 447,-130 447,-78 16,-78"/>
</g>
<!-- IngressOverviewDashboardComponent -->
<g id="node1" class="node">
<title>IngressOverviewDashboardComponent</title>
<polygon fill="#ffffb3" stroke="black" points="700.59,-122 463.41,-122 463.41,-86 700.59,-86 700.59,-122"/>
<text text-anchor="middle" x="582" y="-99.8" font-family="Times,serif" font-size="14.00">IngressOverviewDashboardComponent</text>
</g>
<!-- IngressOverviewDashboardModule -->
<g id="node2" class="node">
<title>IngressOverviewDashboardModule</title>
<polygon fill="#8dd3c7" stroke="black" points="416.81,-187 413.81,-191 392.81,-191 389.81,-187 201.19,-187 201.19,-151 416.81,-151 416.81,-187"/>
<text text-anchor="middle" x="309" y="-164.8" font-family="Times,serif" font-size="14.00">IngressOverviewDashboardModule</text>
</g>
<!-- IngressOverviewDashboardComponent&#45;&gt;IngressOverviewDashboardModule -->
<g id="edge1" class="edge">
<title>IngressOverviewDashboardComponent&#45;&gt;IngressOverviewDashboardModule</title>
<path fill="none" stroke="black" d="M582,-122.11C582,-141.34 582,-169 582,-169 582,-169 426.9,-169 426.9,-169"/>
<polygon fill="black" stroke="black" points="426.9,-165.5 416.9,-169 426.9,-172.5 426.9,-165.5"/>
</g>
<!-- IngressOverviewDashboardRoutingModule -->
<g id="node3" class="node">
<title>IngressOverviewDashboardRoutingModule</title>
<polygon fill="#8dd3c7" stroke="black" points="439.43,-122 436.43,-126 415.43,-126 412.43,-122 178.57,-122 178.57,-86 439.43,-86 439.43,-122"/>
<text text-anchor="middle" x="309" y="-99.8" font-family="Times,serif" font-size="14.00">IngressOverviewDashboardRoutingModule</text>
</g>
<!-- IngressOverviewDashboardRoutingModule&#45;&gt;IngressOverviewDashboardModule -->
<g id="edge2" class="edge">
<title>IngressOverviewDashboardRoutingModule&#45;&gt;IngressOverviewDashboardModule</title>
<path fill="none" stroke="black" d="M309,-122.11C309,-122.11 309,-140.99 309,-140.99"/>
<polygon fill="black" stroke="black" points="305.5,-140.99 309,-150.99 312.5,-140.99 305.5,-140.99"/>
</g>
<!-- ToolsGrafanaModule -->
<g id="node4" class="node">
<title>ToolsGrafanaModule</title>
<polygon fill="#8dd3c7" stroke="black" points="160.01,-122 157.01,-126 136.01,-126 133.01,-122 23.99,-122 23.99,-86 160.01,-86 160.01,-122"/>
<text text-anchor="middle" x="92" y="-99.8" font-family="Times,serif" font-size="14.00">ToolsGrafanaModule</text>
</g>
<!-- ToolsGrafanaModule&#45;&gt;IngressOverviewDashboardModule -->
<g id="edge3" class="edge">
<title>ToolsGrafanaModule&#45;&gt;IngressOverviewDashboardModule</title>
<path fill="none" stroke="black" d="M92,-122.11C92,-141.34 92,-169 92,-169 92,-169 191.14,-169 191.14,-169"/>
<polygon fill="black" stroke="black" points="191.14,-172.5 201.14,-169 191.14,-165.5 191.14,-172.5"/>
</g>
</g>
</svg>
