<?xml version="1.0" encoding="UTF-8" standalone="no"?>
<!DOCTYPE svg PUBLIC "-//W3C//DTD SVG 1.1//EN"
 "http://www.w3.org/Graphics/SVG/1.1/DTD/svg11.dtd">
<!-- Generated by graphviz version 2.47.0 (20210316.0004)
 -->
<!-- Title: dependencies Pages: 1 -->
<svg width="734pt" height="211pt"
 viewBox="0.00 0.00 734.00 211.00" xmlns="http://www.w3.org/2000/svg" xmlns:xlink="http://www.w3.org/1999/xlink">
<g id="graph0" class="graph" transform="scale(1 1) rotate(0) translate(4 207)">
<title>dependencies</title>
<polygon fill="white" stroke="transparent" points="-4,4 -4,-207 730,-207 730,4 -4,4"/>
<text text-anchor="start" x="342.01" y="-42.4" font-family="Times-12" font-weight="bold" font-size="14.00">Legend</text>
<polygon fill="#ffffb3" stroke="transparent" points="129,-10 129,-30 149,-30 149,-10 129,-10"/>
<text text-anchor="start" x="152.63" y="-15.4" font-family="Times-12" font-size="14.00"> &#160;Declarations</text>
<polygon fill="#8dd3c7" stroke="transparent" points="242,-10 242,-30 262,-30 262,-10 242,-10"/>
<text text-anchor="start" x="265.73" y="-15.4" font-family="Times-12" font-size="14.00"> &#160;Module</text>
<polygon fill="#80b1d3" stroke="transparent" points="328,-10 328,-30 348,-30 348,-10 328,-10"/>
<text text-anchor="start" x="351.78" y="-15.4" font-family="Times-12" font-size="14.00"> &#160;Bootstrap</text>
<polygon fill="#fdb462" stroke="transparent" points="425,-10 425,-30 445,-30 445,-10 425,-10"/>
<text text-anchor="start" x="448.67" y="-15.4" font-family="Times-12" font-size="14.00"> &#160;Providers</text>
<polygon fill="#fb8072" stroke="transparent" points="521,-10 521,-30 541,-30 541,-10 521,-10"/>
<text text-anchor="start" x="544.73" y="-15.4" font-family="Times-12" font-size="14.00"> &#160;Exports</text>
<g id="clust1" class="cluster">
<title>cluster_DynamicGrafanaDashboardModule</title>
<polygon fill="none" stroke="black" stroke-dasharray="1,5" points="8,-70 8,-195 718,-195 718,-70 8,-70"/>
</g>
<g id="clust2" class="cluster">
<title>cluster_DynamicGrafanaDashboardModule_declarations</title>
<polygon fill="none" stroke="black" points="456,-78 456,-130 710,-130 710,-78 456,-78"/>
</g>
<g id="clust4" class="cluster">
<title>cluster_DynamicGrafanaDashboardModule_imports</title>
<polygon fill="none" stroke="black" points="16,-78 16,-130 448,-130 448,-78 16,-78"/>
</g>
<!-- DynamicGrafanaDashboardComponent -->
<g id="node1" class="node">
<title>DynamicGrafanaDashboardComponent</title>
<polygon fill="#ffffb3" stroke="black" points="702.36,-122 463.64,-122 463.64,-86 702.36,-86 702.36,-122"/>
<text text-anchor="middle" x="583" y="-99.8" font-family="Times,serif" font-size="14.00">DynamicGrafanaDashboardComponent</text>
</g>
<!-- DynamicGrafanaDashboardModule -->
<g id="node2" class="node">
<title>DynamicGrafanaDashboardModule</title>
<polygon fill="#8dd3c7" stroke="black" points="417.08,-187 414.08,-191 393.08,-191 390.08,-187 200.92,-187 200.92,-151 417.08,-151 417.08,-187"/>
<text text-anchor="middle" x="309" y="-164.8" font-family="Times,serif" font-size="14.00">DynamicGrafanaDashboardModule</text>
</g>
<!-- DynamicGrafanaDashboardComponent&#45;&gt;DynamicGrafanaDashboardModule -->
<g id="edge1" class="edge">
<title>DynamicGrafanaDashboardComponent&#45;&gt;DynamicGrafanaDashboardModule</title>
<path fill="none" stroke="black" d="M583,-122.11C583,-141.34 583,-169 583,-169 583,-169 427.29,-169 427.29,-169"/>
<polygon fill="black" stroke="black" points="427.29,-165.5 417.29,-169 427.29,-172.5 427.29,-165.5"/>
</g>
<!-- DynamicGrafanaDashboardRoutingModule -->
<g id="node3" class="node">
<title>DynamicGrafanaDashboardRoutingModule</title>
<polygon fill="#8dd3c7" stroke="black" points="439.7,-122 436.7,-126 415.7,-126 412.7,-122 178.3,-122 178.3,-86 439.7,-86 439.7,-122"/>
<text text-anchor="middle" x="309" y="-99.8" font-family="Times,serif" font-size="14.00">DynamicGrafanaDashboardRoutingModule</text>
</g>
<!-- DynamicGrafanaDashboardRoutingModule&#45;&gt;DynamicGrafanaDashboardModule -->
<g id="edge2" class="edge">
<title>DynamicGrafanaDashboardRoutingModule&#45;&gt;DynamicGrafanaDashboardModule</title>
<path fill="none" stroke="black" d="M309,-122.11C309,-122.11 309,-140.99 309,-140.99"/>
<polygon fill="black" stroke="black" points="305.5,-140.99 309,-150.99 312.5,-140.99 305.5,-140.99"/>
</g>
<!-- ToolsGrafanaModule -->
<g id="node4" class="node">
<title>ToolsGrafanaModule</title>
<polygon fill="#8dd3c7" stroke="black" points="160.01,-122 157.01,-126 136.01,-126 133.01,-122 23.99,-122 23.99,-86 160.01,-86 160.01,-122"/>
<text text-anchor="middle" x="92" y="-99.8" font-family="Times,serif" font-size="14.00">ToolsGrafanaModule</text>
</g>
<!-- ToolsGrafanaModule&#45;&gt;DynamicGrafanaDashboardModule -->
<g id="edge3" class="edge">
<title>ToolsGrafanaModule&#45;&gt;DynamicGrafanaDashboardModule</title>
<path fill="none" stroke="black" d="M92,-122.11C92,-141.34 92,-169 92,-169 92,-169 190.82,-169 190.82,-169"/>
<polygon fill="black" stroke="black" points="190.82,-172.5 200.82,-169 190.82,-165.5 190.82,-172.5"/>
</g>
</g>
</svg>
