<?xml version="1.0" encoding="UTF-8" standalone="no"?>
<!DOCTYPE svg PUBLIC "-//W3C//DTD SVG 1.1//EN"
 "http://www.w3.org/Graphics/SVG/1.1/DTD/svg11.dtd">
<!-- Generated by graphviz version 2.47.0 (20210316.0004)
 -->
<!-- Title: dependencies Pages: 1 -->
<svg width="650pt" height="211pt"
 viewBox="0.00 0.00 650.00 211.00" xmlns="http://www.w3.org/2000/svg" xmlns:xlink="http://www.w3.org/1999/xlink">
<g id="graph0" class="graph" transform="scale(1 1) rotate(0) translate(4 207)">
<title>dependencies</title>
<polygon fill="white" stroke="transparent" points="-4,4 -4,-207 646,-207 646,4 -4,4"/>
<text text-anchor="start" x="300.01" y="-42.4" font-family="Times-12" font-weight="bold" font-size="14.00">Legend</text>
<polygon fill="#ffffb3" stroke="transparent" points="87,-10 87,-30 107,-30 107,-10 87,-10"/>
<text text-anchor="start" x="110.63" y="-15.4" font-family="Times-12" font-size="14.00"> &#160;Declarations</text>
<polygon fill="#8dd3c7" stroke="transparent" points="200,-10 200,-30 220,-30 220,-10 200,-10"/>
<text text-anchor="start" x="223.73" y="-15.4" font-family="Times-12" font-size="14.00"> &#160;Module</text>
<polygon fill="#80b1d3" stroke="transparent" points="286,-10 286,-30 306,-30 306,-10 286,-10"/>
<text text-anchor="start" x="309.78" y="-15.4" font-family="Times-12" font-size="14.00"> &#160;Bootstrap</text>
<polygon fill="#fdb462" stroke="transparent" points="383,-10 383,-30 403,-30 403,-10 383,-10"/>
<text text-anchor="start" x="406.67" y="-15.4" font-family="Times-12" font-size="14.00"> &#160;Providers</text>
<polygon fill="#fb8072" stroke="transparent" points="479,-10 479,-30 499,-30 499,-10 479,-10"/>
<text text-anchor="start" x="502.73" y="-15.4" font-family="Times-12" font-size="14.00"> &#160;Exports</text>
<g id="clust1" class="cluster">
<title>cluster_CreateEditSubscriptionModule</title>
<polygon fill="none" stroke="black" stroke-dasharray="1,5" points="8,-70 8,-195 634,-195 634,-70 8,-70"/>
</g>
<g id="clust4" class="cluster">
<title>cluster_CreateEditSubscriptionModule_imports</title>
<polygon fill="none" stroke="black" points="252,-78 252,-130 626,-130 626,-78 252,-78"/>
</g>
<g id="clust2" class="cluster">
<title>cluster_CreateEditSubscriptionModule_declarations</title>
<polygon fill="none" stroke="black" points="16,-78 16,-130 244,-130 244,-78 16,-78"/>
</g>
<!-- CreateEditSubscriptionComponent -->
<g id="node1" class="node">
<title>CreateEditSubscriptionComponent</title>
<polygon fill="#ffffb3" stroke="black" points="235.97,-122 24.03,-122 24.03,-86 235.97,-86 235.97,-122"/>
<text text-anchor="middle" x="130" y="-99.8" font-family="Times,serif" font-size="14.00">CreateEditSubscriptionComponent</text>
</g>
<!-- CreateEditSubscriptionModule -->
<g id="node2" class="node">
<title>CreateEditSubscriptionModule</title>
<polygon fill="#8dd3c7" stroke="black" points="407.19,-187 404.19,-191 383.19,-191 380.19,-187 216.81,-187 216.81,-151 407.19,-151 407.19,-187"/>
<text text-anchor="middle" x="312" y="-164.8" font-family="Times,serif" font-size="14.00">CreateEditSubscriptionModule</text>
</g>
<!-- CreateEditSubscriptionComponent&#45;&gt;CreateEditSubscriptionModule -->
<g id="edge1" class="edge">
<title>CreateEditSubscriptionComponent&#45;&gt;CreateEditSubscriptionModule</title>
<path fill="none" stroke="black" d="M226.45,-122.11C226.45,-122.11 226.45,-140.99 226.45,-140.99"/>
<polygon fill="black" stroke="black" points="222.95,-140.99 226.45,-150.99 229.95,-140.99 222.95,-140.99"/>
</g>
<!-- CreateEditSubscriptionRoutingModule -->
<g id="node3" class="node">
<title>CreateEditSubscriptionRoutingModule</title>
<polygon fill="#8dd3c7" stroke="black" points="617.81,-122 614.81,-126 593.81,-126 590.81,-122 382.19,-122 382.19,-86 617.81,-86 617.81,-122"/>
<text text-anchor="middle" x="500" y="-99.8" font-family="Times,serif" font-size="14.00">CreateEditSubscriptionRoutingModule</text>
</g>
<!-- CreateEditSubscriptionRoutingModule&#45;&gt;CreateEditSubscriptionModule -->
<g id="edge2" class="edge">
<title>CreateEditSubscriptionRoutingModule&#45;&gt;CreateEditSubscriptionModule</title>
<path fill="none" stroke="black" d="M394.72,-122.11C394.72,-122.11 394.72,-140.99 394.72,-140.99"/>
<polygon fill="black" stroke="black" points="391.22,-140.99 394.72,-150.99 398.22,-140.99 391.22,-140.99"/>
</g>
<!-- LayoutsModule -->
<g id="node4" class="node">
<title>LayoutsModule</title>
<polygon fill="#8dd3c7" stroke="black" points="364.15,-122 361.15,-126 340.15,-126 337.15,-122 259.85,-122 259.85,-86 364.15,-86 364.15,-122"/>
<text text-anchor="middle" x="312" y="-99.8" font-family="Times,serif" font-size="14.00">LayoutsModule</text>
</g>
<!-- LayoutsModule&#45;&gt;CreateEditSubscriptionModule -->
<g id="edge3" class="edge">
<title>LayoutsModule&#45;&gt;CreateEditSubscriptionModule</title>
<path fill="none" stroke="black" d="M312,-122.11C312,-122.11 312,-140.99 312,-140.99"/>
<polygon fill="black" stroke="black" points="308.5,-140.99 312,-150.99 315.5,-140.99 308.5,-140.99"/>
</g>
</g>
</svg>
