<?xml version="1.0" encoding="UTF-8" standalone="no"?>
<!DOCTYPE svg PUBLIC "-//W3C//DTD SVG 1.1//EN"
 "http://www.w3.org/Graphics/SVG/1.1/DTD/svg11.dtd">
<!-- Generated by graphviz version 2.47.0 (20210316.0004)
 -->
<!-- Title: dependencies Pages: 1 -->
<svg width="911pt" height="211pt"
 viewBox="0.00 0.00 911.00 211.00" xmlns="http://www.w3.org/2000/svg" xmlns:xlink="http://www.w3.org/1999/xlink">
<g id="graph0" class="graph" transform="scale(1 1) rotate(0) translate(4 207)">
<title>dependencies</title>
<polygon fill="white" stroke="transparent" points="-4,4 -4,-207 907,-207 907,4 -4,4"/>
<text text-anchor="start" x="430.51" y="-42.4" font-family="Times-12" font-weight="bold" font-size="14.00">Legend</text>
<polygon fill="#ffffb3" stroke="transparent" points="217.5,-10 217.5,-30 237.5,-30 237.5,-10 217.5,-10"/>
<text text-anchor="start" x="241.13" y="-15.4" font-family="Times-12" font-size="14.00"> &#160;Declarations</text>
<polygon fill="#8dd3c7" stroke="transparent" points="330.5,-10 330.5,-30 350.5,-30 350.5,-10 330.5,-10"/>
<text text-anchor="start" x="354.23" y="-15.4" font-family="Times-12" font-size="14.00"> &#160;Module</text>
<polygon fill="#80b1d3" stroke="transparent" points="416.5,-10 416.5,-30 436.5,-30 436.5,-10 416.5,-10"/>
<text text-anchor="start" x="440.28" y="-15.4" font-family="Times-12" font-size="14.00"> &#160;Bootstrap</text>
<polygon fill="#fdb462" stroke="transparent" points="513.5,-10 513.5,-30 533.5,-30 533.5,-10 513.5,-10"/>
<text text-anchor="start" x="537.17" y="-15.4" font-family="Times-12" font-size="14.00"> &#160;Providers</text>
<polygon fill="#fb8072" stroke="transparent" points="609.5,-10 609.5,-30 629.5,-30 629.5,-10 609.5,-10"/>
<text text-anchor="start" x="633.23" y="-15.4" font-family="Times-12" font-size="14.00"> &#160;Exports</text>
<g id="clust1" class="cluster">
<title>cluster_StackOverviewModule</title>
<polygon fill="none" stroke="black" stroke-dasharray="1,5" points="8,-70 8,-195 895,-195 895,-70 8,-70"/>
</g>
<g id="clust2" class="cluster">
<title>cluster_StackOverviewModule_declarations</title>
<polygon fill="none" stroke="black" points="489,-78 489,-130 887,-130 887,-78 489,-78"/>
</g>
<g id="clust5" class="cluster">
<title>cluster_StackOverviewModule_imports</title>
<polygon fill="none" stroke="black" points="16,-78 16,-130 481,-130 481,-78 16,-78"/>
</g>
<!-- PauseReleaseDialogComponent -->
<g id="node1" class="node">
<title>PauseReleaseDialogComponent</title>
<polygon fill="#ffffb3" stroke="black" points="878.62,-122 683.38,-122 683.38,-86 878.62,-86 878.62,-122"/>
<text text-anchor="middle" x="781" y="-99.8" font-family="Times,serif" font-size="14.00">PauseReleaseDialogComponent</text>
</g>
<!-- StackOverviewModule -->
<g id="node3" class="node">
<title>StackOverviewModule</title>
<polygon fill="#8dd3c7" stroke="black" points="486.85,-187 483.85,-191 462.85,-191 459.85,-187 341.15,-187 341.15,-151 486.85,-151 486.85,-187"/>
<text text-anchor="middle" x="414" y="-164.8" font-family="Times,serif" font-size="14.00">StackOverviewModule</text>
</g>
<!-- PauseReleaseDialogComponent&#45;&gt;StackOverviewModule -->
<g id="edge1" class="edge">
<title>PauseReleaseDialogComponent&#45;&gt;StackOverviewModule</title>
<path fill="none" stroke="black" d="M781,-122.11C781,-141.34 781,-169 781,-169 781,-169 496.95,-169 496.95,-169"/>
<polygon fill="black" stroke="black" points="496.95,-165.5 486.95,-169 496.95,-172.5 496.95,-165.5"/>
</g>
<!-- StackOverviewComponent -->
<g id="node2" class="node">
<title>StackOverviewComponent</title>
<polygon fill="#ffffb3" stroke="black" points="664.63,-122 497.37,-122 497.37,-86 664.63,-86 664.63,-122"/>
<text text-anchor="middle" x="581" y="-99.8" font-family="Times,serif" font-size="14.00">StackOverviewComponent</text>
</g>
<!-- StackOverviewComponent&#45;&gt;StackOverviewModule -->
<g id="edge2" class="edge">
<title>StackOverviewComponent&#45;&gt;StackOverviewModule</title>
<path fill="none" stroke="black" d="M497.37,-104C486.88,-104 479.73,-104 479.73,-104 479.73,-104 479.73,-140.89 479.73,-140.89"/>
<polygon fill="black" stroke="black" points="476.23,-140.89 479.73,-150.89 483.23,-140.89 476.23,-140.89"/>
</g>
<!-- DirectivesModule -->
<g id="node4" class="node">
<title>DirectivesModule</title>
<polygon fill="#8dd3c7" stroke="black" points="472.58,-122 469.58,-126 448.58,-126 445.58,-122 355.42,-122 355.42,-86 472.58,-86 472.58,-122"/>
<text text-anchor="middle" x="414" y="-99.8" font-family="Times,serif" font-size="14.00">DirectivesModule</text>
</g>
<!-- DirectivesModule&#45;&gt;StackOverviewModule -->
<g id="edge3" class="edge">
<title>DirectivesModule&#45;&gt;StackOverviewModule</title>
<path fill="none" stroke="black" d="M414,-122.11C414,-122.11 414,-140.99 414,-140.99"/>
<polygon fill="black" stroke="black" points="410.5,-140.99 414,-150.99 417.5,-140.99 410.5,-140.99"/>
</g>
<!-- LayoutsModule -->
<g id="node5" class="node">
<title>LayoutsModule</title>
<polygon fill="#8dd3c7" stroke="black" points="337.15,-122 334.15,-126 313.15,-126 310.15,-122 232.85,-122 232.85,-86 337.15,-86 337.15,-122"/>
<text text-anchor="middle" x="285" y="-99.8" font-family="Times,serif" font-size="14.00">LayoutsModule</text>
</g>
<!-- LayoutsModule&#45;&gt;StackOverviewModule -->
<g id="edge4" class="edge">
<title>LayoutsModule&#45;&gt;StackOverviewModule</title>
<path fill="none" stroke="black" d="M337.25,-104C343.81,-104 348.27,-104 348.27,-104 348.27,-104 348.27,-140.89 348.27,-140.89"/>
<polygon fill="black" stroke="black" points="344.77,-140.89 348.27,-150.89 351.77,-140.89 344.77,-140.89"/>
</g>
<!-- StackOverviewRoutingModule -->
<g id="node6" class="node">
<title>StackOverviewRoutingModule</title>
<polygon fill="#8dd3c7" stroke="black" points="214.46,-122 211.46,-126 190.46,-126 187.46,-122 23.54,-122 23.54,-86 214.46,-86 214.46,-122"/>
<text text-anchor="middle" x="119" y="-99.8" font-family="Times,serif" font-size="14.00">StackOverviewRoutingModule</text>
</g>
<!-- StackOverviewRoutingModule&#45;&gt;StackOverviewModule -->
<g id="edge5" class="edge">
<title>StackOverviewRoutingModule&#45;&gt;StackOverviewModule</title>
<path fill="none" stroke="black" d="M119,-122.11C119,-141.34 119,-169 119,-169 119,-169 331.08,-169 331.08,-169"/>
<polygon fill="black" stroke="black" points="331.08,-172.5 341.08,-169 331.08,-165.5 331.08,-172.5"/>
</g>
</g>
</svg>
