<?xml version="1.0" encoding="UTF-8" standalone="no"?>
<!DOCTYPE svg PUBLIC "-//W3C//DTD SVG 1.1//EN"
 "http://www.w3.org/Graphics/SVG/1.1/DTD/svg11.dtd">
<!-- Generated by graphviz version 2.47.0 (20210316.0004)
 -->
<!-- Title: dependencies Pages: 1 -->
<svg width="694pt" height="211pt"
 viewBox="0.00 0.00 694.00 211.00" xmlns="http://www.w3.org/2000/svg" xmlns:xlink="http://www.w3.org/1999/xlink">
<g id="graph0" class="graph" transform="scale(1 1) rotate(0) translate(4 207)">
<title>dependencies</title>
<polygon fill="white" stroke="transparent" points="-4,4 -4,-207 690,-207 690,4 -4,4"/>
<text text-anchor="start" x="322.01" y="-42.4" font-family="Times-12" font-weight="bold" font-size="14.00">Legend</text>
<polygon fill="#ffffb3" stroke="transparent" points="109,-10 109,-30 129,-30 129,-10 109,-10"/>
<text text-anchor="start" x="132.63" y="-15.4" font-family="Times-12" font-size="14.00"> &#160;Declarations</text>
<polygon fill="#8dd3c7" stroke="transparent" points="222,-10 222,-30 242,-30 242,-10 222,-10"/>
<text text-anchor="start" x="245.73" y="-15.4" font-family="Times-12" font-size="14.00"> &#160;Module</text>
<polygon fill="#80b1d3" stroke="transparent" points="308,-10 308,-30 328,-30 328,-10 308,-10"/>
<text text-anchor="start" x="331.78" y="-15.4" font-family="Times-12" font-size="14.00"> &#160;Bootstrap</text>
<polygon fill="#fdb462" stroke="transparent" points="405,-10 405,-30 425,-30 425,-10 405,-10"/>
<text text-anchor="start" x="428.67" y="-15.4" font-family="Times-12" font-size="14.00"> &#160;Providers</text>
<polygon fill="#fb8072" stroke="transparent" points="501,-10 501,-30 521,-30 521,-10 501,-10"/>
<text text-anchor="start" x="524.73" y="-15.4" font-family="Times-12" font-size="14.00"> &#160;Exports</text>
<g id="clust1" class="cluster">
<title>cluster_StackCreateV2Module</title>
<polygon fill="none" stroke="black" stroke-dasharray="1,5" points="8,-70 8,-195 678,-195 678,-70 8,-70"/>
</g>
<g id="clust4" class="cluster">
<title>cluster_StackCreateV2Module_imports</title>
<polygon fill="none" stroke="black" points="206,-78 206,-130 670,-130 670,-78 206,-78"/>
</g>
<g id="clust2" class="cluster">
<title>cluster_StackCreateV2Module_declarations</title>
<polygon fill="none" stroke="black" points="16,-78 16,-130 198,-130 198,-78 16,-78"/>
</g>
<!-- StackCreateV2Component -->
<g id="node1" class="node">
<title>StackCreateV2Component</title>
<polygon fill="#ffffb3" stroke="black" points="190.07,-122 23.93,-122 23.93,-86 190.07,-86 190.07,-122"/>
<text text-anchor="middle" x="107" y="-99.8" font-family="Times,serif" font-size="14.00">StackCreateV2Component</text>
</g>
<!-- StackCreateV2Module -->
<g id="node2" class="node">
<title>StackCreateV2Module</title>
<polygon fill="#8dd3c7" stroke="black" points="463.29,-187 460.29,-191 439.29,-191 436.29,-187 318.71,-187 318.71,-151 463.29,-151 463.29,-187"/>
<text text-anchor="middle" x="391" y="-164.8" font-family="Times,serif" font-size="14.00">StackCreateV2Module</text>
</g>
<!-- StackCreateV2Component&#45;&gt;StackCreateV2Module -->
<g id="edge1" class="edge">
<title>StackCreateV2Component&#45;&gt;StackCreateV2Module</title>
<path fill="none" stroke="black" d="M107,-122.11C107,-141.34 107,-169 107,-169 107,-169 308.6,-169 308.6,-169"/>
<polygon fill="black" stroke="black" points="308.6,-172.5 318.6,-169 308.6,-165.5 308.6,-172.5"/>
</g>
<!-- DirectivesModule -->
<g id="node3" class="node">
<title>DirectivesModule</title>
<polygon fill="#8dd3c7" stroke="black" points="661.58,-122 658.58,-126 637.58,-126 634.58,-122 544.42,-122 544.42,-86 661.58,-86 661.58,-122"/>
<text text-anchor="middle" x="603" y="-99.8" font-family="Times,serif" font-size="14.00">DirectivesModule</text>
</g>
<!-- DirectivesModule&#45;&gt;StackCreateV2Module -->
<g id="edge2" class="edge">
<title>DirectivesModule&#45;&gt;StackCreateV2Module</title>
<path fill="none" stroke="black" d="M603,-122.11C603,-141.34 603,-169 603,-169 603,-169 473.37,-169 473.37,-169"/>
<polygon fill="black" stroke="black" points="473.37,-165.5 463.37,-169 473.37,-172.5 473.37,-165.5"/>
</g>
<!-- LayoutsModule -->
<g id="node4" class="node">
<title>LayoutsModule</title>
<polygon fill="#8dd3c7" stroke="black" points="526.15,-122 523.15,-126 502.15,-126 499.15,-122 421.85,-122 421.85,-86 526.15,-86 526.15,-122"/>
<text text-anchor="middle" x="474" y="-99.8" font-family="Times,serif" font-size="14.00">LayoutsModule</text>
</g>
<!-- LayoutsModule&#45;&gt;StackCreateV2Module -->
<g id="edge3" class="edge">
<title>LayoutsModule&#45;&gt;StackCreateV2Module</title>
<path fill="none" stroke="black" d="M442.41,-122.11C442.41,-122.11 442.41,-140.99 442.41,-140.99"/>
<polygon fill="black" stroke="black" points="438.91,-140.99 442.41,-150.99 445.91,-140.99 438.91,-140.99"/>
</g>
<!-- StackCreateV2RoutingModule -->
<g id="node5" class="node">
<title>StackCreateV2RoutingModule</title>
<polygon fill="#8dd3c7" stroke="black" points="403.91,-122 400.91,-126 379.91,-126 376.91,-122 214.09,-122 214.09,-86 403.91,-86 403.91,-122"/>
<text text-anchor="middle" x="309" y="-99.8" font-family="Times,serif" font-size="14.00">StackCreateV2RoutingModule</text>
</g>
<!-- StackCreateV2RoutingModule&#45;&gt;StackCreateV2Module -->
<g id="edge4" class="edge">
<title>StackCreateV2RoutingModule&#45;&gt;StackCreateV2Module</title>
<path fill="none" stroke="black" d="M361.28,-122.11C361.28,-122.11 361.28,-140.99 361.28,-140.99"/>
<polygon fill="black" stroke="black" points="357.78,-140.99 361.28,-150.99 364.78,-140.99 357.78,-140.99"/>
</g>
</g>
</svg>
