<?xml version="1.0" encoding="UTF-8" standalone="no"?>
<!DOCTYPE svg PUBLIC "-//W3C//DTD SVG 1.1//EN"
 "http://www.w3.org/Graphics/SVG/1.1/DTD/svg11.dtd">
<!-- Generated by graphviz version 2.47.0 (20210316.0004)
 -->
<!-- Title: dependencies Pages: 1 -->
<svg width="891pt" height="211pt"
 viewBox="0.00 0.00 891.00 211.00" xmlns="http://www.w3.org/2000/svg" xmlns:xlink="http://www.w3.org/1999/xlink">
<g id="graph0" class="graph" transform="scale(1 1) rotate(0) translate(4 207)">
<title>dependencies</title>
<polygon fill="white" stroke="transparent" points="-4,4 -4,-207 887,-207 887,4 -4,4"/>
<text text-anchor="start" x="420.51" y="-42.4" font-family="Times-12" font-weight="bold" font-size="14.00">Legend</text>
<polygon fill="#ffffb3" stroke="transparent" points="207.5,-10 207.5,-30 227.5,-30 227.5,-10 207.5,-10"/>
<text text-anchor="start" x="231.13" y="-15.4" font-family="Times-12" font-size="14.00"> &#160;Declarations</text>
<polygon fill="#8dd3c7" stroke="transparent" points="320.5,-10 320.5,-30 340.5,-30 340.5,-10 320.5,-10"/>
<text text-anchor="start" x="344.23" y="-15.4" font-family="Times-12" font-size="14.00"> &#160;Module</text>
<polygon fill="#80b1d3" stroke="transparent" points="406.5,-10 406.5,-30 426.5,-30 426.5,-10 406.5,-10"/>
<text text-anchor="start" x="430.28" y="-15.4" font-family="Times-12" font-size="14.00"> &#160;Bootstrap</text>
<polygon fill="#fdb462" stroke="transparent" points="503.5,-10 503.5,-30 523.5,-30 523.5,-10 503.5,-10"/>
<text text-anchor="start" x="527.17" y="-15.4" font-family="Times-12" font-size="14.00"> &#160;Providers</text>
<polygon fill="#fb8072" stroke="transparent" points="599.5,-10 599.5,-30 619.5,-30 619.5,-10 599.5,-10"/>
<text text-anchor="start" x="623.23" y="-15.4" font-family="Times-12" font-size="14.00"> &#160;Exports</text>
<g id="clust1" class="cluster">
<title>cluster_CostExplorerModule</title>
<polygon fill="none" stroke="black" stroke-dasharray="1,5" points="8,-70 8,-195 875,-195 875,-70 8,-70"/>
</g>
<g id="clust2" class="cluster">
<title>cluster_CostExplorerModule_declarations</title>
<polygon fill="none" stroke="black" points="220,-78 220,-130 867,-130 867,-78 220,-78"/>
</g>
<g id="clust6" class="cluster">
<title>cluster_CostExplorerModule_imports</title>
<polygon fill="none" stroke="black" points="16,-78 16,-130 212,-130 212,-78 16,-78"/>
</g>
<!-- CostExplorerComponent -->
<g id="node1" class="node">
<title>CostExplorerComponent</title>
<polygon fill="#ffffb3" stroke="black" points="858.98,-122 703.02,-122 703.02,-86 858.98,-86 858.98,-122"/>
<text text-anchor="middle" x="781" y="-99.8" font-family="Times,serif" font-size="14.00">CostExplorerComponent</text>
</g>
<!-- CostExplorerModule -->
<g id="node4" class="node">
<title>CostExplorerModule</title>
<polygon fill="#8dd3c7" stroke="black" points="529.2,-187 526.2,-191 505.2,-191 502.2,-187 394.8,-187 394.8,-151 529.2,-151 529.2,-187"/>
<text text-anchor="middle" x="462" y="-164.8" font-family="Times,serif" font-size="14.00">CostExplorerModule</text>
</g>
<!-- CostExplorerComponent&#45;&gt;CostExplorerModule -->
<g id="edge1" class="edge">
<title>CostExplorerComponent&#45;&gt;CostExplorerModule</title>
<path fill="none" stroke="black" d="M781,-122.11C781,-141.34 781,-169 781,-169 781,-169 539.26,-169 539.26,-169"/>
<polygon fill="black" stroke="black" points="539.26,-165.5 529.26,-169 539.26,-172.5 539.26,-165.5"/>
</g>
<!-- CostExplorerRunbookComponent -->
<g id="node2" class="node">
<title>CostExplorerRunbookComponent</title>
<polygon fill="#ffffb3" stroke="black" points="684.82,-122 477.18,-122 477.18,-86 684.82,-86 684.82,-122"/>
<text text-anchor="middle" x="581" y="-99.8" font-family="Times,serif" font-size="14.00">CostExplorerRunbookComponent</text>
</g>
<!-- CostExplorerRunbookComponent&#45;&gt;CostExplorerModule -->
<g id="edge2" class="edge">
<title>CostExplorerRunbookComponent&#45;&gt;CostExplorerModule</title>
<path fill="none" stroke="black" d="M503.22,-122.11C503.22,-122.11 503.22,-140.99 503.22,-140.99"/>
<polygon fill="black" stroke="black" points="499.72,-140.99 503.22,-150.99 506.72,-140.99 499.72,-140.99"/>
</g>
<!-- CostExplorerUserMessageComponent -->
<g id="node3" class="node">
<title>CostExplorerUserMessageComponent</title>
<polygon fill="#ffffb3" stroke="black" points="459.89,-122 228.11,-122 228.11,-86 459.89,-86 459.89,-122"/>
<text text-anchor="middle" x="344" y="-99.8" font-family="Times,serif" font-size="14.00">CostExplorerUserMessageComponent</text>
</g>
<!-- CostExplorerUserMessageComponent&#45;&gt;CostExplorerModule -->
<g id="edge3" class="edge">
<title>CostExplorerUserMessageComponent&#45;&gt;CostExplorerModule</title>
<path fill="none" stroke="black" d="M427.3,-122.11C427.3,-122.11 427.3,-140.99 427.3,-140.99"/>
<polygon fill="black" stroke="black" points="423.8,-140.99 427.3,-150.99 430.8,-140.99 423.8,-140.99"/>
</g>
<!-- CostExplorerRoutingModule -->
<g id="node5" class="node">
<title>CostExplorerRoutingModule</title>
<polygon fill="#8dd3c7" stroke="black" points="203.82,-122 200.82,-126 179.82,-126 176.82,-122 24.18,-122 24.18,-86 203.82,-86 203.82,-122"/>
<text text-anchor="middle" x="114" y="-99.8" font-family="Times,serif" font-size="14.00">CostExplorerRoutingModule</text>
</g>
<!-- CostExplorerRoutingModule&#45;&gt;CostExplorerModule -->
<g id="edge4" class="edge">
<title>CostExplorerRoutingModule&#45;&gt;CostExplorerModule</title>
<path fill="none" stroke="black" d="M114,-122.11C114,-141.34 114,-169 114,-169 114,-169 384.49,-169 384.49,-169"/>
<polygon fill="black" stroke="black" points="384.49,-172.5 394.49,-169 384.49,-165.5 384.49,-172.5"/>
</g>
</g>
</svg>
