<?xml version="1.0" encoding="UTF-8" standalone="no"?>
<!DOCTYPE svg PUBLIC "-//W3C//DTD SVG 1.1//EN"
 "http://www.w3.org/Graphics/SVG/1.1/DTD/svg11.dtd">
<!-- Generated by graphviz version 2.47.0 (20210316.0004)
 -->
<!-- Title: dependencies Pages: 1 -->
<svg width="677pt" height="211pt"
 viewBox="0.00 0.00 677.00 211.00" xmlns="http://www.w3.org/2000/svg" xmlns:xlink="http://www.w3.org/1999/xlink">
<g id="graph0" class="graph" transform="scale(1 1) rotate(0) translate(4 207)">
<title>dependencies</title>
<polygon fill="white" stroke="transparent" points="-4,4 -4,-207 673,-207 673,4 -4,4"/>
<text text-anchor="start" x="313.51" y="-42.4" font-family="Times-12" font-weight="bold" font-size="14.00">Legend</text>
<polygon fill="#ffffb3" stroke="transparent" points="100.5,-10 100.5,-30 120.5,-30 120.5,-10 100.5,-10"/>
<text text-anchor="start" x="124.13" y="-15.4" font-family="Times-12" font-size="14.00"> &#160;Declarations</text>
<polygon fill="#8dd3c7" stroke="transparent" points="213.5,-10 213.5,-30 233.5,-30 233.5,-10 213.5,-10"/>
<text text-anchor="start" x="237.23" y="-15.4" font-family="Times-12" font-size="14.00"> &#160;Module</text>
<polygon fill="#80b1d3" stroke="transparent" points="299.5,-10 299.5,-30 319.5,-30 319.5,-10 299.5,-10"/>
<text text-anchor="start" x="323.28" y="-15.4" font-family="Times-12" font-size="14.00"> &#160;Bootstrap</text>
<polygon fill="#fdb462" stroke="transparent" points="396.5,-10 396.5,-30 416.5,-30 416.5,-10 396.5,-10"/>
<text text-anchor="start" x="420.17" y="-15.4" font-family="Times-12" font-size="14.00"> &#160;Providers</text>
<polygon fill="#fb8072" stroke="transparent" points="492.5,-10 492.5,-30 512.5,-30 512.5,-10 492.5,-10"/>
<text text-anchor="start" x="516.23" y="-15.4" font-family="Times-12" font-size="14.00"> &#160;Exports</text>
<g id="clust1" class="cluster">
<title>cluster_ResourceOverrideHistoryModule</title>
<polygon fill="none" stroke="black" stroke-dasharray="1,5" points="8,-70 8,-195 661,-195 661,-70 8,-70"/>
</g>
<g id="clust2" class="cluster">
<title>cluster_ResourceOverrideHistoryModule_declarations</title>
<polygon fill="none" stroke="black" points="411,-78 411,-130 653,-130 653,-78 411,-78"/>
</g>
<g id="clust4" class="cluster">
<title>cluster_ResourceOverrideHistoryModule_imports</title>
<polygon fill="none" stroke="black" points="16,-78 16,-130 403,-130 403,-78 16,-78"/>
</g>
<!-- ResourceOverrideHistoryComponent -->
<g id="node1" class="node">
<title>ResourceOverrideHistoryComponent</title>
<polygon fill="#ffffb3" stroke="black" points="644.66,-122 419.34,-122 419.34,-86 644.66,-86 644.66,-122"/>
<text text-anchor="middle" x="532" y="-99.8" font-family="Times,serif" font-size="14.00">ResourceOverrideHistoryComponent</text>
</g>
<!-- ResourceOverrideHistoryModule -->
<g id="node2" class="node">
<title>ResourceOverrideHistoryModule</title>
<polygon fill="#8dd3c7" stroke="black" points="444.88,-187 441.88,-191 420.88,-191 417.88,-187 241.12,-187 241.12,-151 444.88,-151 444.88,-187"/>
<text text-anchor="middle" x="343" y="-164.8" font-family="Times,serif" font-size="14.00">ResourceOverrideHistoryModule</text>
</g>
<!-- ResourceOverrideHistoryComponent&#45;&gt;ResourceOverrideHistoryModule -->
<g id="edge1" class="edge">
<title>ResourceOverrideHistoryComponent&#45;&gt;ResourceOverrideHistoryModule</title>
<path fill="none" stroke="black" d="M432.05,-122.11C432.05,-122.11 432.05,-140.99 432.05,-140.99"/>
<polygon fill="black" stroke="black" points="428.55,-140.99 432.05,-150.99 435.55,-140.99 428.55,-140.99"/>
</g>
<!-- LayoutsModule -->
<g id="node3" class="node">
<title>LayoutsModule</title>
<polygon fill="#8dd3c7" stroke="black" points="395.15,-122 392.15,-126 371.15,-126 368.15,-122 290.85,-122 290.85,-86 395.15,-86 395.15,-122"/>
<text text-anchor="middle" x="343" y="-99.8" font-family="Times,serif" font-size="14.00">LayoutsModule</text>
</g>
<!-- LayoutsModule&#45;&gt;ResourceOverrideHistoryModule -->
<g id="edge2" class="edge">
<title>LayoutsModule&#45;&gt;ResourceOverrideHistoryModule</title>
<path fill="none" stroke="black" d="M343,-122.11C343,-122.11 343,-140.99 343,-140.99"/>
<polygon fill="black" stroke="black" points="339.5,-140.99 343,-150.99 346.5,-140.99 339.5,-140.99"/>
</g>
<!-- ResourceOverrideHistoryRoutingModule -->
<g id="node4" class="node">
<title>ResourceOverrideHistoryRoutingModule</title>
<polygon fill="#8dd3c7" stroke="black" points="272.49,-122 269.49,-126 248.49,-126 245.49,-122 23.51,-122 23.51,-86 272.49,-86 272.49,-122"/>
<text text-anchor="middle" x="148" y="-99.8" font-family="Times,serif" font-size="14.00">ResourceOverrideHistoryRoutingModule</text>
</g>
<!-- ResourceOverrideHistoryRoutingModule&#45;&gt;ResourceOverrideHistoryModule -->
<g id="edge3" class="edge">
<title>ResourceOverrideHistoryRoutingModule&#45;&gt;ResourceOverrideHistoryModule</title>
<path fill="none" stroke="black" d="M256.78,-122.11C256.78,-122.11 256.78,-140.99 256.78,-140.99"/>
<polygon fill="black" stroke="black" points="253.28,-140.99 256.78,-150.99 260.28,-140.99 253.28,-140.99"/>
</g>
</g>
</svg>
