<?xml version="1.0" encoding="UTF-8" standalone="no"?>
<!DOCTYPE svg PUBLIC "-//W3C//DTD SVG 1.1//EN"
 "http://www.w3.org/Graphics/SVG/1.1/DTD/svg11.dtd">
<!-- Generated by graphviz version 2.47.0 (20210316.0004)
 -->
<!-- Title: dependencies Pages: 1 -->
<svg width="579pt" height="211pt"
 viewBox="0.00 0.00 579.00 211.00" xmlns="http://www.w3.org/2000/svg" xmlns:xlink="http://www.w3.org/1999/xlink">
<g id="graph0" class="graph" transform="scale(1 1) rotate(0) translate(4 207)">
<title>dependencies</title>
<polygon fill="white" stroke="transparent" points="-4,4 -4,-207 575,-207 575,4 -4,4"/>
<text text-anchor="start" x="264.51" y="-42.4" font-family="Times-12" font-weight="bold" font-size="14.00">Legend</text>
<polygon fill="#ffffb3" stroke="transparent" points="51.5,-10 51.5,-30 71.5,-30 71.5,-10 51.5,-10"/>
<text text-anchor="start" x="75.13" y="-15.4" font-family="Times-12" font-size="14.00"> &#160;Declarations</text>
<polygon fill="#8dd3c7" stroke="transparent" points="164.5,-10 164.5,-30 184.5,-30 184.5,-10 164.5,-10"/>
<text text-anchor="start" x="188.23" y="-15.4" font-family="Times-12" font-size="14.00"> &#160;Module</text>
<polygon fill="#80b1d3" stroke="transparent" points="250.5,-10 250.5,-30 270.5,-30 270.5,-10 250.5,-10"/>
<text text-anchor="start" x="274.28" y="-15.4" font-family="Times-12" font-size="14.00"> &#160;Bootstrap</text>
<polygon fill="#fdb462" stroke="transparent" points="347.5,-10 347.5,-30 367.5,-30 367.5,-10 347.5,-10"/>
<text text-anchor="start" x="371.17" y="-15.4" font-family="Times-12" font-size="14.00"> &#160;Providers</text>
<polygon fill="#fb8072" stroke="transparent" points="443.5,-10 443.5,-30 463.5,-30 463.5,-10 443.5,-10"/>
<text text-anchor="start" x="467.23" y="-15.4" font-family="Times-12" font-size="14.00"> &#160;Exports</text>
<g id="clust1" class="cluster">
<title>cluster_GuardrailsModule</title>
<polygon fill="none" stroke="black" stroke-dasharray="1,5" points="8,-70 8,-195 563,-195 563,-70 8,-70"/>
</g>
<g id="clust2" class="cluster">
<title>cluster_GuardrailsModule_declarations</title>
<polygon fill="none" stroke="black" points="204,-78 204,-130 555,-130 555,-78 204,-78"/>
</g>
<g id="clust5" class="cluster">
<title>cluster_GuardrailsModule_imports</title>
<polygon fill="none" stroke="black" points="16,-78 16,-130 196,-130 196,-78 16,-78"/>
</g>
<!-- CreateGuardrailsComponent -->
<g id="node1" class="node">
<title>CreateGuardrailsComponent</title>
<polygon fill="#ffffb3" stroke="black" points="547.45,-122 370.55,-122 370.55,-86 547.45,-86 547.45,-122"/>
<text text-anchor="middle" x="459" y="-99.8" font-family="Times,serif" font-size="14.00">CreateGuardrailsComponent</text>
</g>
<!-- GuardrailsModule -->
<g id="node3" class="node">
<title>GuardrailsModule</title>
<polygon fill="#8dd3c7" stroke="black" points="341.13,-187 338.13,-191 317.13,-191 314.13,-187 222.87,-187 222.87,-151 341.13,-151 341.13,-187"/>
<text text-anchor="middle" x="282" y="-164.8" font-family="Times,serif" font-size="14.00">GuardrailsModule</text>
</g>
<!-- CreateGuardrailsComponent&#45;&gt;GuardrailsModule -->
<g id="edge1" class="edge">
<title>CreateGuardrailsComponent&#45;&gt;GuardrailsModule</title>
<path fill="none" stroke="black" d="M459,-122.11C459,-141.34 459,-169 459,-169 459,-169 351.43,-169 351.43,-169"/>
<polygon fill="black" stroke="black" points="351.43,-165.5 341.43,-169 351.43,-172.5 351.43,-165.5"/>
</g>
<!-- GuardrailsComponent -->
<g id="node2" class="node">
<title>GuardrailsComponent</title>
<polygon fill="#ffffb3" stroke="black" points="352.42,-122 211.58,-122 211.58,-86 352.42,-86 352.42,-122"/>
<text text-anchor="middle" x="282" y="-99.8" font-family="Times,serif" font-size="14.00">GuardrailsComponent</text>
</g>
<!-- GuardrailsComponent&#45;&gt;GuardrailsModule -->
<g id="edge2" class="edge">
<title>GuardrailsComponent&#45;&gt;GuardrailsModule</title>
<path fill="none" stroke="black" d="M282,-122.11C282,-122.11 282,-140.99 282,-140.99"/>
<polygon fill="black" stroke="black" points="278.5,-140.99 282,-150.99 285.5,-140.99 278.5,-140.99"/>
</g>
<!-- GuardrailsRoutingModule -->
<g id="node4" class="node">
<title>GuardrailsRoutingModule</title>
<polygon fill="#8dd3c7" stroke="black" points="187.75,-122 184.75,-126 163.75,-126 160.75,-122 24.25,-122 24.25,-86 187.75,-86 187.75,-122"/>
<text text-anchor="middle" x="106" y="-99.8" font-family="Times,serif" font-size="14.00">GuardrailsRoutingModule</text>
</g>
<!-- GuardrailsRoutingModule&#45;&gt;GuardrailsModule -->
<g id="edge3" class="edge">
<title>GuardrailsRoutingModule&#45;&gt;GuardrailsModule</title>
<path fill="none" stroke="black" d="M106,-122.11C106,-141.34 106,-169 106,-169 106,-169 212.41,-169 212.41,-169"/>
<polygon fill="black" stroke="black" points="212.41,-172.5 222.41,-169 212.41,-165.5 212.41,-172.5"/>
</g>
</g>
</svg>
