<?xml version="1.0" encoding="UTF-8" standalone="no"?>
<!DOCTYPE svg PUBLIC "-//W3C//DTD SVG 1.1//EN"
 "http://www.w3.org/Graphics/SVG/1.1/DTD/svg11.dtd">
<!-- Generated by graphviz version 2.47.0 (20210316.0004)
 -->
<!-- Title: dependencies Pages: 1 -->
<svg width="504pt" height="211pt"
 viewBox="0.00 0.00 504.00 211.00" xmlns="http://www.w3.org/2000/svg" xmlns:xlink="http://www.w3.org/1999/xlink">
<g id="graph0" class="graph" transform="scale(1 1) rotate(0) translate(4 207)">
<title>dependencies</title>
<polygon fill="white" stroke="transparent" points="-4,4 -4,-207 500,-207 500,4 -4,4"/>
<text text-anchor="start" x="227.01" y="-42.4" font-family="Times-12" font-weight="bold" font-size="14.00">Legend</text>
<polygon fill="#ffffb3" stroke="transparent" points="14,-10 14,-30 34,-30 34,-10 14,-10"/>
<text text-anchor="start" x="37.63" y="-15.4" font-family="Times-12" font-size="14.00"> &#160;Declarations</text>
<polygon fill="#8dd3c7" stroke="transparent" points="127,-10 127,-30 147,-30 147,-10 127,-10"/>
<text text-anchor="start" x="150.73" y="-15.4" font-family="Times-12" font-size="14.00"> &#160;Module</text>
<polygon fill="#80b1d3" stroke="transparent" points="213,-10 213,-30 233,-30 233,-10 213,-10"/>
<text text-anchor="start" x="236.78" y="-15.4" font-family="Times-12" font-size="14.00"> &#160;Bootstrap</text>
<polygon fill="#fdb462" stroke="transparent" points="310,-10 310,-30 330,-30 330,-10 310,-10"/>
<text text-anchor="start" x="333.67" y="-15.4" font-family="Times-12" font-size="14.00"> &#160;Providers</text>
<polygon fill="#fb8072" stroke="transparent" points="406,-10 406,-30 426,-30 426,-10 406,-10"/>
<text text-anchor="start" x="429.73" y="-15.4" font-family="Times-12" font-size="14.00"> &#160;Exports</text>
<g id="clust1" class="cluster">
<title>cluster_ClusterTunnelModule</title>
<polygon fill="none" stroke="black" stroke-dasharray="1,5" points="87,-70 87,-195 409,-195 409,-70 87,-70"/>
</g>
<g id="clust2" class="cluster">
<title>cluster_ClusterTunnelModule_declarations</title>
<polygon fill="none" stroke="black" points="223,-78 223,-130 401,-130 401,-78 223,-78"/>
</g>
<g id="clust4" class="cluster">
<title>cluster_ClusterTunnelModule_imports</title>
<polygon fill="none" stroke="black" points="95,-78 95,-130 215,-130 215,-78 95,-78"/>
</g>
<!-- ClusterTunnelComponent -->
<g id="node1" class="node">
<title>ClusterTunnelComponent</title>
<polygon fill="#ffffb3" stroke="black" points="392.93,-122 231.07,-122 231.07,-86 392.93,-86 392.93,-122"/>
<text text-anchor="middle" x="312" y="-99.8" font-family="Times,serif" font-size="14.00">ClusterTunnelComponent</text>
</g>
<!-- ClusterTunnelModule -->
<g id="node2" class="node">
<title>ClusterTunnelModule</title>
<polygon fill="#8dd3c7" stroke="black" points="307.65,-187 304.65,-191 283.65,-191 280.65,-187 168.35,-187 168.35,-151 307.65,-151 307.65,-187"/>
<text text-anchor="middle" x="238" y="-164.8" font-family="Times,serif" font-size="14.00">ClusterTunnelModule</text>
</g>
<!-- ClusterTunnelComponent&#45;&gt;ClusterTunnelModule -->
<g id="edge1" class="edge">
<title>ClusterTunnelComponent&#45;&gt;ClusterTunnelModule</title>
<path fill="none" stroke="black" d="M269.55,-122.11C269.55,-122.11 269.55,-140.99 269.55,-140.99"/>
<polygon fill="black" stroke="black" points="266.05,-140.99 269.55,-150.99 273.05,-140.99 266.05,-140.99"/>
</g>
<!-- LayoutsModule -->
<g id="node3" class="node">
<title>LayoutsModule</title>
<polygon fill="#8dd3c7" stroke="black" points="207.15,-122 204.15,-126 183.15,-126 180.15,-122 102.85,-122 102.85,-86 207.15,-86 207.15,-122"/>
<text text-anchor="middle" x="155" y="-99.8" font-family="Times,serif" font-size="14.00">LayoutsModule</text>
</g>
<!-- LayoutsModule&#45;&gt;ClusterTunnelModule -->
<g id="edge2" class="edge">
<title>LayoutsModule&#45;&gt;ClusterTunnelModule</title>
<path fill="none" stroke="black" d="M187.75,-122.11C187.75,-122.11 187.75,-140.99 187.75,-140.99"/>
<polygon fill="black" stroke="black" points="184.25,-140.99 187.75,-150.99 191.25,-140.99 184.25,-140.99"/>
</g>
</g>
</svg>
