<?xml version="1.0" encoding="UTF-8" standalone="no"?>
<!DOCTYPE svg PUBLIC "-//W3C//DTD SVG 1.1//EN"
 "http://www.w3.org/Graphics/SVG/1.1/DTD/svg11.dtd">
<!-- Generated by graphviz version 2.47.0 (20210316.0004)
 -->
<!-- Title: dependencies Pages: 1 -->
<svg width="649pt" height="211pt"
 viewBox="0.00 0.00 649.00 211.00" xmlns="http://www.w3.org/2000/svg" xmlns:xlink="http://www.w3.org/1999/xlink">
<g id="graph0" class="graph" transform="scale(1 1) rotate(0) translate(4 207)">
<title>dependencies</title>
<polygon fill="white" stroke="transparent" points="-4,4 -4,-207 645,-207 645,4 -4,4"/>
<text text-anchor="start" x="299.51" y="-42.4" font-family="Times-12" font-weight="bold" font-size="14.00">Legend</text>
<polygon fill="#ffffb3" stroke="transparent" points="86.5,-10 86.5,-30 106.5,-30 106.5,-10 86.5,-10"/>
<text text-anchor="start" x="110.13" y="-15.4" font-family="Times-12" font-size="14.00"> &#160;Declarations</text>
<polygon fill="#8dd3c7" stroke="transparent" points="199.5,-10 199.5,-30 219.5,-30 219.5,-10 199.5,-10"/>
<text text-anchor="start" x="223.23" y="-15.4" font-family="Times-12" font-size="14.00"> &#160;Module</text>
<polygon fill="#80b1d3" stroke="transparent" points="285.5,-10 285.5,-30 305.5,-30 305.5,-10 285.5,-10"/>
<text text-anchor="start" x="309.28" y="-15.4" font-family="Times-12" font-size="14.00"> &#160;Bootstrap</text>
<polygon fill="#fdb462" stroke="transparent" points="382.5,-10 382.5,-30 402.5,-30 402.5,-10 382.5,-10"/>
<text text-anchor="start" x="406.17" y="-15.4" font-family="Times-12" font-size="14.00"> &#160;Providers</text>
<polygon fill="#fb8072" stroke="transparent" points="478.5,-10 478.5,-30 498.5,-30 498.5,-10 478.5,-10"/>
<text text-anchor="start" x="502.23" y="-15.4" font-family="Times-12" font-size="14.00"> &#160;Exports</text>
<g id="clust1" class="cluster">
<title>cluster_CreateUserModule</title>
<polygon fill="none" stroke="black" stroke-dasharray="1,5" points="8,-70 8,-195 633,-195 633,-70 8,-70"/>
</g>
<g id="clust2" class="cluster">
<title>cluster_CreateUserModule_declarations</title>
<polygon fill="none" stroke="black" points="465,-78 465,-130 625,-130 625,-78 465,-78"/>
</g>
<g id="clust4" class="cluster">
<title>cluster_CreateUserModule_imports</title>
<polygon fill="none" stroke="black" points="16,-78 16,-130 457,-130 457,-78 16,-78"/>
</g>
<!-- CreateUserComponent -->
<g id="node1" class="node">
<title>CreateUserComponent</title>
<polygon fill="#ffffb3" stroke="black" points="617.29,-122 472.71,-122 472.71,-86 617.29,-86 617.29,-122"/>
<text text-anchor="middle" x="545" y="-99.8" font-family="Times,serif" font-size="14.00">CreateUserComponent</text>
</g>
<!-- CreateUserModule -->
<g id="node2" class="node">
<title>CreateUserModule</title>
<polygon fill="#8dd3c7" stroke="black" points="346.01,-187 343.01,-191 322.01,-191 319.01,-187 223.99,-187 223.99,-151 346.01,-151 346.01,-187"/>
<text text-anchor="middle" x="285" y="-164.8" font-family="Times,serif" font-size="14.00">CreateUserModule</text>
</g>
<!-- CreateUserComponent&#45;&gt;CreateUserModule -->
<g id="edge1" class="edge">
<title>CreateUserComponent&#45;&gt;CreateUserModule</title>
<path fill="none" stroke="black" d="M545,-122.11C545,-141.34 545,-169 545,-169 545,-169 356.29,-169 356.29,-169"/>
<polygon fill="black" stroke="black" points="356.29,-165.5 346.29,-169 356.29,-172.5 356.29,-165.5"/>
</g>
<!-- CreateUserRoutingModule -->
<g id="node3" class="node">
<title>CreateUserRoutingModule</title>
<polygon fill="#8dd3c7" stroke="black" points="448.63,-122 445.63,-126 424.63,-126 421.63,-122 281.37,-122 281.37,-86 448.63,-86 448.63,-122"/>
<text text-anchor="middle" x="365" y="-99.8" font-family="Times,serif" font-size="14.00">CreateUserRoutingModule</text>
</g>
<!-- CreateUserRoutingModule&#45;&gt;CreateUserModule -->
<g id="edge2" class="edge">
<title>CreateUserRoutingModule&#45;&gt;CreateUserModule</title>
<path fill="none" stroke="black" d="M313.72,-122.11C313.72,-122.11 313.72,-140.99 313.72,-140.99"/>
<polygon fill="black" stroke="black" points="310.22,-140.99 313.72,-150.99 317.22,-140.99 310.22,-140.99"/>
</g>
<!-- DirectivesModule -->
<g id="node4" class="node">
<title>DirectivesModule</title>
<polygon fill="#8dd3c7" stroke="black" points="263.58,-122 260.58,-126 239.58,-126 236.58,-122 146.42,-122 146.42,-86 263.58,-86 263.58,-122"/>
<text text-anchor="middle" x="205" y="-99.8" font-family="Times,serif" font-size="14.00">DirectivesModule</text>
</g>
<!-- DirectivesModule&#45;&gt;CreateUserModule -->
<g id="edge3" class="edge">
<title>DirectivesModule&#45;&gt;CreateUserModule</title>
<path fill="none" stroke="black" d="M243.64,-122.11C243.64,-122.11 243.64,-140.99 243.64,-140.99"/>
<polygon fill="black" stroke="black" points="240.14,-140.99 243.64,-150.99 247.14,-140.99 240.14,-140.99"/>
</g>
<!-- LayoutsModule -->
<g id="node5" class="node">
<title>LayoutsModule</title>
<polygon fill="#8dd3c7" stroke="black" points="128.15,-122 125.15,-126 104.15,-126 101.15,-122 23.85,-122 23.85,-86 128.15,-86 128.15,-122"/>
<text text-anchor="middle" x="76" y="-99.8" font-family="Times,serif" font-size="14.00">LayoutsModule</text>
</g>
<!-- LayoutsModule&#45;&gt;CreateUserModule -->
<g id="edge4" class="edge">
<title>LayoutsModule&#45;&gt;CreateUserModule</title>
<path fill="none" stroke="black" d="M76,-122.11C76,-141.34 76,-169 76,-169 76,-169 213.99,-169 213.99,-169"/>
<polygon fill="black" stroke="black" points="213.99,-172.5 223.99,-169 213.99,-165.5 213.99,-172.5"/>
</g>
</g>
</svg>
