<?xml version="1.0" encoding="UTF-8" standalone="no"?>
<!DOCTYPE svg PUBLIC "-//W3C//DTD SVG 1.1//EN"
 "http://www.w3.org/Graphics/SVG/1.1/DTD/svg11.dtd">
<!-- Generated by graphviz version 2.47.0 (20210316.0004)
 -->
<!-- Title: dependencies Pages: 1 -->
<svg width="666pt" height="211pt"
 viewBox="0.00 0.00 666.00 211.00" xmlns="http://www.w3.org/2000/svg" xmlns:xlink="http://www.w3.org/1999/xlink">
<g id="graph0" class="graph" transform="scale(1 1) rotate(0) translate(4 207)">
<title>dependencies</title>
<polygon fill="white" stroke="transparent" points="-4,4 -4,-207 662,-207 662,4 -4,4"/>
<text text-anchor="start" x="308.01" y="-42.4" font-family="Times-12" font-weight="bold" font-size="14.00">Legend</text>
<polygon fill="#ffffb3" stroke="transparent" points="95,-10 95,-30 115,-30 115,-10 95,-10"/>
<text text-anchor="start" x="118.63" y="-15.4" font-family="Times-12" font-size="14.00"> &#160;Declarations</text>
<polygon fill="#8dd3c7" stroke="transparent" points="208,-10 208,-30 228,-30 228,-10 208,-10"/>
<text text-anchor="start" x="231.73" y="-15.4" font-family="Times-12" font-size="14.00"> &#160;Module</text>
<polygon fill="#80b1d3" stroke="transparent" points="294,-10 294,-30 314,-30 314,-10 294,-10"/>
<text text-anchor="start" x="317.78" y="-15.4" font-family="Times-12" font-size="14.00"> &#160;Bootstrap</text>
<polygon fill="#fdb462" stroke="transparent" points="391,-10 391,-30 411,-30 411,-10 391,-10"/>
<text text-anchor="start" x="414.67" y="-15.4" font-family="Times-12" font-size="14.00"> &#160;Providers</text>
<polygon fill="#fb8072" stroke="transparent" points="487,-10 487,-30 507,-30 507,-10 487,-10"/>
<text text-anchor="start" x="510.73" y="-15.4" font-family="Times-12" font-size="14.00"> &#160;Exports</text>
<g id="clust1" class="cluster">
<title>cluster_ResourceGrafanaModule</title>
<polygon fill="none" stroke="black" stroke-dasharray="1,5" points="8,-70 8,-195 650,-195 650,-70 8,-70"/>
</g>
<g id="clust5" class="cluster">
<title>cluster_ResourceGrafanaModule_imports</title>
<polygon fill="none" stroke="black" points="302,-78 302,-130 642,-130 642,-78 302,-78"/>
</g>
<g id="clust2" class="cluster">
<title>cluster_ResourceGrafanaModule_declarations</title>
<polygon fill="none" stroke="black" points="16,-78 16,-130 294,-130 294,-78 16,-78"/>
</g>
<!-- ResourceGrafanaComponent -->
<g id="node1" class="node">
<title>ResourceGrafanaComponent</title>
<polygon fill="#ffffb3" stroke="black" points="286.49,-122 107.51,-122 107.51,-86 286.49,-86 286.49,-122"/>
<text text-anchor="middle" x="197" y="-99.8" font-family="Times,serif" font-size="14.00">ResourceGrafanaComponent</text>
</g>
<!-- ResourceGrafanaModule -->
<g id="node3" class="node">
<title>ResourceGrafanaModule</title>
<polygon fill="#8dd3c7" stroke="black" points="382.21,-187 379.21,-191 358.21,-191 355.21,-187 225.79,-187 225.79,-151 382.21,-151 382.21,-187"/>
<text text-anchor="middle" x="304" y="-164.8" font-family="Times,serif" font-size="14.00">ResourceGrafanaModule</text>
</g>
<!-- ResourceGrafanaComponent&#45;&gt;ResourceGrafanaModule -->
<g id="edge1" class="edge">
<title>ResourceGrafanaComponent&#45;&gt;ResourceGrafanaModule</title>
<path fill="none" stroke="black" d="M255.95,-122.11C255.95,-122.11 255.95,-140.99 255.95,-140.99"/>
<polygon fill="black" stroke="black" points="252.45,-140.99 255.95,-150.99 259.45,-140.99 252.45,-140.99"/>
</g>
<!-- SafePipe -->
<g id="node2" class="node">
<title>SafePipe</title>
<polygon fill="#ffffb3" stroke="black" points="89.76,-122 24.24,-122 24.24,-86 89.76,-86 89.76,-122"/>
<text text-anchor="middle" x="57" y="-99.8" font-family="Times,serif" font-size="14.00">SafePipe</text>
</g>
<!-- SafePipe&#45;&gt;ResourceGrafanaModule -->
<g id="edge2" class="edge">
<title>SafePipe&#45;&gt;ResourceGrafanaModule</title>
<path fill="none" stroke="black" d="M57,-122.11C57,-141.34 57,-169 57,-169 57,-169 215.51,-169 215.51,-169"/>
<polygon fill="black" stroke="black" points="215.51,-172.5 225.51,-169 215.51,-165.5 215.51,-172.5"/>
</g>
<!-- LayoutsModule -->
<g id="node4" class="node">
<title>LayoutsModule</title>
<polygon fill="#8dd3c7" stroke="black" points="634.15,-122 631.15,-126 610.15,-126 607.15,-122 529.85,-122 529.85,-86 634.15,-86 634.15,-122"/>
<text text-anchor="middle" x="582" y="-99.8" font-family="Times,serif" font-size="14.00">LayoutsModule</text>
</g>
<!-- LayoutsModule&#45;&gt;ResourceGrafanaModule -->
<g id="edge3" class="edge">
<title>LayoutsModule&#45;&gt;ResourceGrafanaModule</title>
<path fill="none" stroke="black" d="M582,-122.11C582,-141.34 582,-169 582,-169 582,-169 392.55,-169 392.55,-169"/>
<polygon fill="black" stroke="black" points="392.55,-165.5 382.55,-169 392.55,-172.5 392.55,-165.5"/>
</g>
<!-- ResourceGrafanaRoutingModule -->
<g id="node5" class="node">
<title>ResourceGrafanaRoutingModule</title>
<polygon fill="#8dd3c7" stroke="black" points="511.82,-122 508.82,-126 487.82,-126 484.82,-122 310.18,-122 310.18,-86 511.82,-86 511.82,-122"/>
<text text-anchor="middle" x="411" y="-99.8" font-family="Times,serif" font-size="14.00">ResourceGrafanaRoutingModule</text>
</g>
<!-- ResourceGrafanaRoutingModule&#45;&gt;ResourceGrafanaModule -->
<g id="edge4" class="edge">
<title>ResourceGrafanaRoutingModule&#45;&gt;ResourceGrafanaModule</title>
<path fill="none" stroke="black" d="M346.22,-122.11C346.22,-122.11 346.22,-140.99 346.22,-140.99"/>
<polygon fill="black" stroke="black" points="342.72,-140.99 346.22,-150.99 349.72,-140.99 342.72,-140.99"/>
</g>
</g>
</svg>
