<?xml version="1.0" encoding="UTF-8" standalone="no"?>
<!DOCTYPE svg PUBLIC "-//W3C//DTD SVG 1.1//EN"
 "http://www.w3.org/Graphics/SVG/1.1/DTD/svg11.dtd">
<!-- Generated by graphviz version 2.47.0 (20210316.0004)
 -->
<!-- Title: dependencies Pages: 1 -->
<svg width="714pt" height="211pt"
 viewBox="0.00 0.00 714.00 211.00" xmlns="http://www.w3.org/2000/svg" xmlns:xlink="http://www.w3.org/1999/xlink">
<g id="graph0" class="graph" transform="scale(1 1) rotate(0) translate(4 207)">
<title>dependencies</title>
<polygon fill="white" stroke="transparent" points="-4,4 -4,-207 710,-207 710,4 -4,4"/>
<text text-anchor="start" x="332.01" y="-42.4" font-family="Times-12" font-weight="bold" font-size="14.00">Legend</text>
<polygon fill="#ffffb3" stroke="transparent" points="119,-10 119,-30 139,-30 139,-10 119,-10"/>
<text text-anchor="start" x="142.63" y="-15.4" font-family="Times-12" font-size="14.00"> &#160;Declarations</text>
<polygon fill="#8dd3c7" stroke="transparent" points="232,-10 232,-30 252,-30 252,-10 232,-10"/>
<text text-anchor="start" x="255.73" y="-15.4" font-family="Times-12" font-size="14.00"> &#160;Module</text>
<polygon fill="#80b1d3" stroke="transparent" points="318,-10 318,-30 338,-30 338,-10 318,-10"/>
<text text-anchor="start" x="341.78" y="-15.4" font-family="Times-12" font-size="14.00"> &#160;Bootstrap</text>
<polygon fill="#fdb462" stroke="transparent" points="415,-10 415,-30 435,-30 435,-10 415,-10"/>
<text text-anchor="start" x="438.67" y="-15.4" font-family="Times-12" font-size="14.00"> &#160;Providers</text>
<polygon fill="#fb8072" stroke="transparent" points="511,-10 511,-30 531,-30 531,-10 511,-10"/>
<text text-anchor="start" x="534.73" y="-15.4" font-family="Times-12" font-size="14.00"> &#160;Exports</text>
<g id="clust1" class="cluster">
<title>cluster_ClusterAvailabilitySchedulerModule</title>
<polygon fill="none" stroke="black" stroke-dasharray="1,5" points="8,-70 8,-195 698,-195 698,-70 8,-70"/>
</g>
<g id="clust4" class="cluster">
<title>cluster_ClusterAvailabilitySchedulerModule_imports</title>
<polygon fill="none" stroke="black" points="284,-78 284,-130 690,-130 690,-78 284,-78"/>
</g>
<g id="clust2" class="cluster">
<title>cluster_ClusterAvailabilitySchedulerModule_declarations</title>
<polygon fill="none" stroke="black" points="16,-78 16,-130 276,-130 276,-78 16,-78"/>
</g>
<!-- ClusterAvailabilitySchedulerComponent -->
<g id="node1" class="node">
<title>ClusterAvailabilitySchedulerComponent</title>
<polygon fill="#ffffb3" stroke="black" points="268.13,-122 23.87,-122 23.87,-86 268.13,-86 268.13,-122"/>
<text text-anchor="middle" x="146" y="-99.8" font-family="Times,serif" font-size="14.00">ClusterAvailabilitySchedulerComponent</text>
</g>
<!-- ClusterAvailabilitySchedulerModule -->
<g id="node2" class="node">
<title>ClusterAvailabilitySchedulerModule</title>
<polygon fill="#8dd3c7" stroke="black" points="455.34,-187 452.34,-191 431.34,-191 428.34,-187 232.66,-187 232.66,-151 455.34,-151 455.34,-187"/>
<text text-anchor="middle" x="344" y="-164.8" font-family="Times,serif" font-size="14.00">ClusterAvailabilitySchedulerModule</text>
</g>
<!-- ClusterAvailabilitySchedulerComponent&#45;&gt;ClusterAvailabilitySchedulerModule -->
<g id="edge1" class="edge">
<title>ClusterAvailabilitySchedulerComponent&#45;&gt;ClusterAvailabilitySchedulerModule</title>
<path fill="none" stroke="black" d="M250.45,-122.11C250.45,-122.11 250.45,-140.99 250.45,-140.99"/>
<polygon fill="black" stroke="black" points="246.95,-140.99 250.45,-150.99 253.95,-140.99 246.95,-140.99"/>
</g>
<!-- ClusterAvailabilitySchedulerRoutingModule -->
<g id="node3" class="node">
<title>ClusterAvailabilitySchedulerRoutingModule</title>
<polygon fill="#8dd3c7" stroke="black" points="681.96,-122 678.96,-126 657.96,-126 654.96,-122 414.04,-122 414.04,-86 681.96,-86 681.96,-122"/>
<text text-anchor="middle" x="548" y="-99.8" font-family="Times,serif" font-size="14.00">ClusterAvailabilitySchedulerRoutingModule</text>
</g>
<!-- ClusterAvailabilitySchedulerRoutingModule&#45;&gt;ClusterAvailabilitySchedulerModule -->
<g id="edge2" class="edge">
<title>ClusterAvailabilitySchedulerRoutingModule&#45;&gt;ClusterAvailabilitySchedulerModule</title>
<path fill="none" stroke="black" d="M434.72,-122.11C434.72,-122.11 434.72,-140.99 434.72,-140.99"/>
<polygon fill="black" stroke="black" points="431.22,-140.99 434.72,-150.99 438.22,-140.99 431.22,-140.99"/>
</g>
<!-- LayoutsModule -->
<g id="node4" class="node">
<title>LayoutsModule</title>
<polygon fill="#8dd3c7" stroke="black" points="396.15,-122 393.15,-126 372.15,-126 369.15,-122 291.85,-122 291.85,-86 396.15,-86 396.15,-122"/>
<text text-anchor="middle" x="344" y="-99.8" font-family="Times,serif" font-size="14.00">LayoutsModule</text>
</g>
<!-- LayoutsModule&#45;&gt;ClusterAvailabilitySchedulerModule -->
<g id="edge3" class="edge">
<title>LayoutsModule&#45;&gt;ClusterAvailabilitySchedulerModule</title>
<path fill="none" stroke="black" d="M344,-122.11C344,-122.11 344,-140.99 344,-140.99"/>
<polygon fill="black" stroke="black" points="340.5,-140.99 344,-150.99 347.5,-140.99 340.5,-140.99"/>
</g>
</g>
</svg>
