<?xml version="1.0" encoding="UTF-8" standalone="no"?>
<!DOCTYPE svg PUBLIC "-//W3C//DTD SVG 1.1//EN"
 "http://www.w3.org/Graphics/SVG/1.1/DTD/svg11.dtd">
<!-- Generated by graphviz version 2.47.0 (20210316.0004)
 -->
<!-- Title: dependencies Pages: 1 -->
<svg width="638pt" height="211pt"
 viewBox="0.00 0.00 638.00 211.00" xmlns="http://www.w3.org/2000/svg" xmlns:xlink="http://www.w3.org/1999/xlink">
<g id="graph0" class="graph" transform="scale(1 1) rotate(0) translate(4 207)">
<title>dependencies</title>
<polygon fill="white" stroke="transparent" points="-4,4 -4,-207 634,-207 634,4 -4,4"/>
<text text-anchor="start" x="294.01" y="-42.4" font-family="Times-12" font-weight="bold" font-size="14.00">Legend</text>
<polygon fill="#ffffb3" stroke="transparent" points="81,-10 81,-30 101,-30 101,-10 81,-10"/>
<text text-anchor="start" x="104.63" y="-15.4" font-family="Times-12" font-size="14.00"> &#160;Declarations</text>
<polygon fill="#8dd3c7" stroke="transparent" points="194,-10 194,-30 214,-30 214,-10 194,-10"/>
<text text-anchor="start" x="217.73" y="-15.4" font-family="Times-12" font-size="14.00"> &#160;Module</text>
<polygon fill="#80b1d3" stroke="transparent" points="280,-10 280,-30 300,-30 300,-10 280,-10"/>
<text text-anchor="start" x="303.78" y="-15.4" font-family="Times-12" font-size="14.00"> &#160;Bootstrap</text>
<polygon fill="#fdb462" stroke="transparent" points="377,-10 377,-30 397,-30 397,-10 377,-10"/>
<text text-anchor="start" x="400.67" y="-15.4" font-family="Times-12" font-size="14.00"> &#160;Providers</text>
<polygon fill="#fb8072" stroke="transparent" points="473,-10 473,-30 493,-30 493,-10 473,-10"/>
<text text-anchor="start" x="496.73" y="-15.4" font-family="Times-12" font-size="14.00"> &#160;Exports</text>
<g id="clust1" class="cluster">
<title>cluster_ArtifactsCreateCIModule</title>
<polygon fill="none" stroke="black" stroke-dasharray="1,5" points="8,-70 8,-195 622,-195 622,-70 8,-70"/>
</g>
<g id="clust4" class="cluster">
<title>cluster_ArtifactsCreateCIModule_imports</title>
<polygon fill="none" stroke="black" points="220,-78 220,-130 614,-130 614,-78 220,-78"/>
</g>
<g id="clust2" class="cluster">
<title>cluster_ArtifactsCreateCIModule_declarations</title>
<polygon fill="none" stroke="black" points="16,-78 16,-130 212,-130 212,-78 16,-78"/>
</g>
<!-- ArtifactsCreateCIComponent -->
<g id="node1" class="node">
<title>ArtifactsCreateCIComponent</title>
<polygon fill="#ffffb3" stroke="black" points="204.33,-122 23.67,-122 23.67,-86 204.33,-86 204.33,-122"/>
<text text-anchor="middle" x="114" y="-99.8" font-family="Times,serif" font-size="14.00">ArtifactsCreateCIComponent</text>
</g>
<!-- ArtifactsCreateCIModule -->
<g id="node2" class="node">
<title>ArtifactsCreateCIModule</title>
<polygon fill="#8dd3c7" stroke="black" points="385.55,-187 382.55,-191 361.55,-191 358.55,-187 226.45,-187 226.45,-151 385.55,-151 385.55,-187"/>
<text text-anchor="middle" x="306" y="-164.8" font-family="Times,serif" font-size="14.00">ArtifactsCreateCIModule</text>
</g>
<!-- ArtifactsCreateCIComponent&#45;&gt;ArtifactsCreateCIModule -->
<g id="edge1" class="edge">
<title>ArtifactsCreateCIComponent&#45;&gt;ArtifactsCreateCIModule</title>
<path fill="none" stroke="black" d="M114,-122.11C114,-141.34 114,-169 114,-169 114,-169 216.24,-169 216.24,-169"/>
<polygon fill="black" stroke="black" points="216.24,-172.5 226.24,-169 216.24,-165.5 216.24,-172.5"/>
</g>
<!-- ArtifactsCreateCIRoutingModule -->
<g id="node3" class="node">
<title>ArtifactsCreateCIRoutingModule</title>
<polygon fill="#8dd3c7" stroke="black" points="606.17,-122 603.17,-126 582.17,-126 579.17,-122 401.83,-122 401.83,-86 606.17,-86 606.17,-122"/>
<text text-anchor="middle" x="504" y="-99.8" font-family="Times,serif" font-size="14.00">ArtifactsCreateCIRoutingModule</text>
</g>
<!-- ArtifactsCreateCIRoutingModule&#45;&gt;ArtifactsCreateCIModule -->
<g id="edge2" class="edge">
<title>ArtifactsCreateCIRoutingModule&#45;&gt;ArtifactsCreateCIModule</title>
<path fill="none" stroke="black" d="M504,-122.11C504,-141.34 504,-169 504,-169 504,-169 395.68,-169 395.68,-169"/>
<polygon fill="black" stroke="black" points="395.68,-165.5 385.68,-169 395.68,-172.5 395.68,-165.5"/>
</g>
<!-- WorkflowDetailsModule -->
<g id="node4" class="node">
<title>WorkflowDetailsModule</title>
<polygon fill="#8dd3c7" stroke="black" points="384.24,-122 381.24,-126 360.24,-126 357.24,-122 227.76,-122 227.76,-86 384.24,-86 384.24,-122"/>
<text text-anchor="middle" x="306" y="-99.8" font-family="Times,serif" font-size="14.00">WorkflowDetailsModule</text>
</g>
<!-- WorkflowDetailsModule&#45;&gt;ArtifactsCreateCIModule -->
<g id="edge3" class="edge">
<title>WorkflowDetailsModule&#45;&gt;ArtifactsCreateCIModule</title>
<path fill="none" stroke="black" d="M306,-122.11C306,-122.11 306,-140.99 306,-140.99"/>
<polygon fill="black" stroke="black" points="302.5,-140.99 306,-150.99 309.5,-140.99 302.5,-140.99"/>
</g>
</g>
</svg>
