<?xml version="1.0" encoding="UTF-8" standalone="no"?>
<!DOCTYPE svg PUBLIC "-//W3C//DTD SVG 1.1//EN"
 "http://www.w3.org/Graphics/SVG/1.1/DTD/svg11.dtd">
<!-- Generated by graphviz version 2.47.0 (20210316.0004)
 -->
<!-- Title: dependencies Pages: 1 -->
<svg width="526pt" height="284pt"
 viewBox="0.00 0.00 526.00 284.00" xmlns="http://www.w3.org/2000/svg" xmlns:xlink="http://www.w3.org/1999/xlink">
<g id="graph0" class="graph" transform="scale(1 1) rotate(0) translate(4 280)">
<title>dependencies</title>
<polygon fill="white" stroke="transparent" points="-4,4 -4,-280 522,-280 522,4 -4,4"/>
<text text-anchor="start" x="238.01" y="-42.4" font-family="Times-12" font-weight="bold" font-size="14.00">Legend</text>
<polygon fill="#ffffb3" stroke="transparent" points="25,-10 25,-30 45,-30 45,-10 25,-10"/>
<text text-anchor="start" x="48.63" y="-15.4" font-family="Times-12" font-size="14.00"> &#160;Declarations</text>
<polygon fill="#8dd3c7" stroke="transparent" points="138,-10 138,-30 158,-30 158,-10 138,-10"/>
<text text-anchor="start" x="161.73" y="-15.4" font-family="Times-12" font-size="14.00"> &#160;Module</text>
<polygon fill="#80b1d3" stroke="transparent" points="224,-10 224,-30 244,-30 244,-10 224,-10"/>
<text text-anchor="start" x="247.78" y="-15.4" font-family="Times-12" font-size="14.00"> &#160;Bootstrap</text>
<polygon fill="#fdb462" stroke="transparent" points="321,-10 321,-30 341,-30 341,-10 321,-10"/>
<text text-anchor="start" x="344.67" y="-15.4" font-family="Times-12" font-size="14.00"> &#160;Providers</text>
<polygon fill="#fb8072" stroke="transparent" points="417,-10 417,-30 437,-30 437,-10 417,-10"/>
<text text-anchor="start" x="440.73" y="-15.4" font-family="Times-12" font-size="14.00"> &#160;Exports</text>
<g id="clust1" class="cluster">
<title>cluster_ChannelListModule</title>
<polygon fill="none" stroke="black" stroke-dasharray="1,5" points="8,-70 8,-268 510,-268 510,-70 8,-70"/>
</g>
<g id="clust4" class="cluster">
<title>cluster_ChannelListModule_imports</title>
<polygon fill="none" stroke="black" points="190,-78 190,-130 502,-130 502,-78 190,-78"/>
</g>
<g id="clust2" class="cluster">
<title>cluster_ChannelListModule_declarations</title>
<polygon fill="none" stroke="black" points="16,-78 16,-130 182,-130 182,-78 16,-78"/>
</g>
<g id="clust5" class="cluster">
<title>cluster_ChannelListModule_exports</title>
<polygon fill="none" stroke="black" points="165,-208 165,-260 335,-260 335,-208 165,-208"/>
</g>
<!-- ChannelListComponent -->
<g id="node1" class="node">
<title>ChannelListComponent</title>
<polygon fill="#ffffb3" stroke="black" points="173.77,-122 24.23,-122 24.23,-86 173.77,-86 173.77,-122"/>
<text text-anchor="middle" x="99" y="-99.8" font-family="Times,serif" font-size="14.00">ChannelListComponent</text>
</g>
<!-- ChannelListModule -->
<g id="node2" class="node">
<title>ChannelListModule</title>
<polygon fill="#8dd3c7" stroke="black" points="313.98,-187 310.98,-191 289.98,-191 286.98,-187 186.02,-187 186.02,-151 313.98,-151 313.98,-187"/>
<text text-anchor="middle" x="250" y="-164.8" font-family="Times,serif" font-size="14.00">ChannelListModule</text>
</g>
<!-- ChannelListComponent&#45;&gt;ChannelListModule -->
<g id="edge1" class="edge">
<title>ChannelListComponent&#45;&gt;ChannelListModule</title>
<path fill="none" stroke="black" d="M173.94,-104C184.5,-104 191.84,-104 191.84,-104 191.84,-104 191.84,-140.89 191.84,-140.89"/>
<polygon fill="black" stroke="black" points="188.34,-140.89 191.84,-150.89 195.34,-140.89 188.34,-140.89"/>
</g>
<!-- ChannelListComponent  -->
<g id="node5" class="node">
<title>ChannelListComponent </title>
<polygon fill="#fb8072" stroke="black" points="326.77,-252 173.23,-252 173.23,-216 326.77,-216 326.77,-252"/>
<text text-anchor="middle" x="250" y="-229.8" font-family="Times,serif" font-size="14.00">ChannelListComponent </text>
</g>
<!-- ChannelListModule&#45;&gt;ChannelListComponent  -->
<g id="edge4" class="edge">
<title>ChannelListModule&#45;&gt;ChannelListComponent </title>
<path fill="none" stroke="black" stroke-dasharray="5,2" d="M250,-187.11C250,-187.11 250,-205.99 250,-205.99"/>
<polygon fill="black" stroke="black" points="246.5,-205.99 250,-215.99 253.5,-205.99 246.5,-205.99"/>
</g>
<!-- ChannelListRoutingModule -->
<g id="node3" class="node">
<title>ChannelListRoutingModule</title>
<polygon fill="#8dd3c7" stroke="black" points="493.6,-122 490.6,-126 469.6,-126 466.6,-122 320.4,-122 320.4,-86 493.6,-86 493.6,-122"/>
<text text-anchor="middle" x="407" y="-99.8" font-family="Times,serif" font-size="14.00">ChannelListRoutingModule</text>
</g>
<!-- ChannelListRoutingModule&#45;&gt;ChannelListModule -->
<g id="edge2" class="edge">
<title>ChannelListRoutingModule&#45;&gt;ChannelListModule</title>
<path fill="none" stroke="black" d="M320.28,-104C312.89,-104 308.16,-104 308.16,-104 308.16,-104 308.16,-140.89 308.16,-140.89"/>
<polygon fill="black" stroke="black" points="304.66,-140.89 308.16,-150.89 311.66,-140.89 304.66,-140.89"/>
</g>
<!-- LayoutsModule -->
<g id="node4" class="node">
<title>LayoutsModule</title>
<polygon fill="#8dd3c7" stroke="black" points="302.15,-122 299.15,-126 278.15,-126 275.15,-122 197.85,-122 197.85,-86 302.15,-86 302.15,-122"/>
<text text-anchor="middle" x="250" y="-99.8" font-family="Times,serif" font-size="14.00">LayoutsModule</text>
</g>
<!-- LayoutsModule&#45;&gt;ChannelListModule -->
<g id="edge3" class="edge">
<title>LayoutsModule&#45;&gt;ChannelListModule</title>
<path fill="none" stroke="black" d="M250,-122.11C250,-122.11 250,-140.99 250,-140.99"/>
<polygon fill="black" stroke="black" points="246.5,-140.99 250,-150.99 253.5,-140.99 246.5,-140.99"/>
</g>
</g>
</svg>
