<?xml version="1.0" encoding="UTF-8" standalone="no"?>
<!DOCTYPE svg PUBLIC "-//W3C//DTD SVG 1.1//EN"
 "http://www.w3.org/Graphics/SVG/1.1/DTD/svg11.dtd">
<!-- Generated by graphviz version 2.47.0 (20210316.0004)
 -->
<!-- Title: dependencies Pages: 1 -->
<svg width="669pt" height="211pt"
 viewBox="0.00 0.00 669.00 211.00" xmlns="http://www.w3.org/2000/svg" xmlns:xlink="http://www.w3.org/1999/xlink">
<g id="graph0" class="graph" transform="scale(1 1) rotate(0) translate(4 207)">
<title>dependencies</title>
<polygon fill="white" stroke="transparent" points="-4,4 -4,-207 665,-207 665,4 -4,4"/>
<text text-anchor="start" x="309.51" y="-42.4" font-family="Times-12" font-weight="bold" font-size="14.00">Legend</text>
<polygon fill="#ffffb3" stroke="transparent" points="96.5,-10 96.5,-30 116.5,-30 116.5,-10 96.5,-10"/>
<text text-anchor="start" x="120.13" y="-15.4" font-family="Times-12" font-size="14.00"> &#160;Declarations</text>
<polygon fill="#8dd3c7" stroke="transparent" points="209.5,-10 209.5,-30 229.5,-30 229.5,-10 209.5,-10"/>
<text text-anchor="start" x="233.23" y="-15.4" font-family="Times-12" font-size="14.00"> &#160;Module</text>
<polygon fill="#80b1d3" stroke="transparent" points="295.5,-10 295.5,-30 315.5,-30 315.5,-10 295.5,-10"/>
<text text-anchor="start" x="319.28" y="-15.4" font-family="Times-12" font-size="14.00"> &#160;Bootstrap</text>
<polygon fill="#fdb462" stroke="transparent" points="392.5,-10 392.5,-30 412.5,-30 412.5,-10 392.5,-10"/>
<text text-anchor="start" x="416.17" y="-15.4" font-family="Times-12" font-size="14.00"> &#160;Providers</text>
<polygon fill="#fb8072" stroke="transparent" points="488.5,-10 488.5,-30 508.5,-30 508.5,-10 488.5,-10"/>
<text text-anchor="start" x="512.23" y="-15.4" font-family="Times-12" font-size="14.00"> &#160;Exports</text>
<g id="clust1" class="cluster">
<title>cluster_ClusterReleaseSchedulerModule</title>
<polygon fill="none" stroke="black" stroke-dasharray="1,5" points="8,-70 8,-195 653,-195 653,-70 8,-70"/>
</g>
<g id="clust2" class="cluster">
<title>cluster_ClusterReleaseSchedulerModule_declarations</title>
<polygon fill="none" stroke="black" points="407,-78 407,-130 645,-130 645,-78 407,-78"/>
</g>
<g id="clust4" class="cluster">
<title>cluster_ClusterReleaseSchedulerModule_imports</title>
<polygon fill="none" stroke="black" points="16,-78 16,-130 399,-130 399,-78 16,-78"/>
</g>
<!-- ClusterReleaseSchedulerComponent -->
<g id="node1" class="node">
<title>ClusterReleaseSchedulerComponent</title>
<polygon fill="#ffffb3" stroke="black" points="636.78,-122 415.22,-122 415.22,-86 636.78,-86 636.78,-122"/>
<text text-anchor="middle" x="526" y="-99.8" font-family="Times,serif" font-size="14.00">ClusterReleaseSchedulerComponent</text>
</g>
<!-- ClusterReleaseSchedulerModule -->
<g id="node2" class="node">
<title>ClusterReleaseSchedulerModule</title>
<polygon fill="#8dd3c7" stroke="black" points="369,-187 366,-191 345,-191 342,-187 169,-187 169,-151 369,-151 369,-187"/>
<text text-anchor="middle" x="269" y="-164.8" font-family="Times,serif" font-size="14.00">ClusterReleaseSchedulerModule</text>
</g>
<!-- ClusterReleaseSchedulerComponent&#45;&gt;ClusterReleaseSchedulerModule -->
<g id="edge1" class="edge">
<title>ClusterReleaseSchedulerComponent&#45;&gt;ClusterReleaseSchedulerModule</title>
<path fill="none" stroke="black" d="M526,-122.11C526,-141.34 526,-169 526,-169 526,-169 379.1,-169 379.1,-169"/>
<polygon fill="black" stroke="black" points="379.1,-165.5 369.1,-169 379.1,-172.5 379.1,-165.5"/>
</g>
<!-- ClusterReleaseSchedulerRoutingModule -->
<g id="node3" class="node">
<title>ClusterReleaseSchedulerRoutingModule</title>
<polygon fill="#8dd3c7" stroke="black" points="391.11,-122 388.11,-126 367.11,-126 364.11,-122 146.89,-122 146.89,-86 391.11,-86 391.11,-122"/>
<text text-anchor="middle" x="269" y="-99.8" font-family="Times,serif" font-size="14.00">ClusterReleaseSchedulerRoutingModule</text>
</g>
<!-- ClusterReleaseSchedulerRoutingModule&#45;&gt;ClusterReleaseSchedulerModule -->
<g id="edge2" class="edge">
<title>ClusterReleaseSchedulerRoutingModule&#45;&gt;ClusterReleaseSchedulerModule</title>
<path fill="none" stroke="black" d="M269,-122.11C269,-122.11 269,-140.99 269,-140.99"/>
<polygon fill="black" stroke="black" points="265.5,-140.99 269,-150.99 272.5,-140.99 265.5,-140.99"/>
</g>
<!-- LayoutsModule -->
<g id="node4" class="node">
<title>LayoutsModule</title>
<polygon fill="#8dd3c7" stroke="black" points="128.15,-122 125.15,-126 104.15,-126 101.15,-122 23.85,-122 23.85,-86 128.15,-86 128.15,-122"/>
<text text-anchor="middle" x="76" y="-99.8" font-family="Times,serif" font-size="14.00">LayoutsModule</text>
</g>
<!-- LayoutsModule&#45;&gt;ClusterReleaseSchedulerModule -->
<g id="edge3" class="edge">
<title>LayoutsModule&#45;&gt;ClusterReleaseSchedulerModule</title>
<path fill="none" stroke="black" d="M76,-122.11C76,-141.34 76,-169 76,-169 76,-169 159.11,-169 159.11,-169"/>
<polygon fill="black" stroke="black" points="159.11,-172.5 169.11,-169 159.11,-165.5 159.11,-172.5"/>
</g>
</g>
</svg>
