<?xml version="1.0" encoding="UTF-8" standalone="no"?>
<!DOCTYPE svg PUBLIC "-//W3C//DTD SVG 1.1//EN"
 "http://www.w3.org/Graphics/SVG/1.1/DTD/svg11.dtd">
<!-- Generated by graphviz version 2.47.0 (20210316.0004)
 -->
<!-- Title: dependencies Pages: 1 -->
<svg width="16207pt" height="211pt"
 viewBox="0.00 0.00 16207.00 211.00" xmlns="http://www.w3.org/2000/svg" xmlns:xlink="http://www.w3.org/1999/xlink">
<g id="graph0" class="graph" transform="scale(1 1) rotate(0) translate(4 207)">
<title>dependencies</title>
<polygon fill="white" stroke="transparent" points="-4,4 -4,-207 16203,-207 16203,4 -4,4"/>
<text text-anchor="start" x="8078.51" y="-42.4" font-family="Times-12" font-weight="bold" font-size="14.00">Legend</text>
<polygon fill="#ffffb3" stroke="transparent" points="7865.5,-10 7865.5,-30 7885.5,-30 7885.5,-10 7865.5,-10"/>
<text text-anchor="start" x="7889.13" y="-15.4" font-family="Times-12" font-size="14.00"> &#160;Declarations</text>
<polygon fill="#8dd3c7" stroke="transparent" points="7978.5,-10 7978.5,-30 7998.5,-30 7998.5,-10 7978.5,-10"/>
<text text-anchor="start" x="8002.23" y="-15.4" font-family="Times-12" font-size="14.00"> &#160;Module</text>
<polygon fill="#80b1d3" stroke="transparent" points="8064.5,-10 8064.5,-30 8084.5,-30 8084.5,-10 8064.5,-10"/>
<text text-anchor="start" x="8088.28" y="-15.4" font-family="Times-12" font-size="14.00"> &#160;Bootstrap</text>
<polygon fill="#fdb462" stroke="transparent" points="8161.5,-10 8161.5,-30 8181.5,-30 8181.5,-10 8161.5,-10"/>
<text text-anchor="start" x="8185.17" y="-15.4" font-family="Times-12" font-size="14.00"> &#160;Providers</text>
<polygon fill="#fb8072" stroke="transparent" points="8257.5,-10 8257.5,-30 8277.5,-30 8277.5,-10 8257.5,-10"/>
<text text-anchor="start" x="8281.23" y="-15.4" font-family="Times-12" font-size="14.00"> &#160;Exports</text>
<g id="clust1" class="cluster">
<title>cluster_ApiModule</title>
<polygon fill="none" stroke="black" stroke-dasharray="1,5" points="8,-70 8,-195 16191,-195 16191,-70 8,-70"/>
</g>
<g id="clust6" class="cluster">
<title>cluster_ApiModule_providers</title>
<polygon fill="none" stroke="black" points="16,-78 16,-130 16183,-130 16183,-78 16,-78"/>
</g>
<!-- ApiConfiguration -->
<g id="node1" class="node">
<title>ApiConfiguration</title>
<ellipse fill="#fdb462" stroke="black" cx="16095" cy="-104" rx="79.9" ry="18"/>
<text text-anchor="middle" x="16095" y="-99.8" font-family="Times,serif" font-size="14.00">ApiConfiguration</text>
</g>
<!-- ApiModule -->
<g id="node59" class="node">
<title>ApiModule</title>
<polygon fill="#8dd3c7" stroke="black" points="8374.05,-187 8371.05,-191 8350.05,-191 8347.05,-187 8293.95,-187 8293.95,-151 8374.05,-151 8374.05,-187"/>
<text text-anchor="middle" x="8334" y="-164.8" font-family="Times,serif" font-size="14.00">ApiModule</text>
</g>
<!-- ApiConfiguration&#45;&gt;ApiModule -->
<g id="edge1" class="edge">
<title>ApiConfiguration&#45;&gt;ApiModule</title>
<path fill="none" stroke="black" d="M16095,-122.2C16095,-146.36 16095,-186 16095,-186 16095,-186 8384.37,-186 8384.37,-186"/>
<polygon fill="black" stroke="black" points="8384.37,-182.5 8374.37,-186 8384.37,-189.5 8384.37,-182.5"/>
</g>
<!-- ApplicationControllerService -->
<g id="node2" class="node">
<title>ApplicationControllerService</title>
<ellipse fill="#fdb462" stroke="black" cx="15872" cy="-104" rx="125.06" ry="18"/>
<text text-anchor="middle" x="15872" y="-99.8" font-family="Times,serif" font-size="14.00">ApplicationControllerService</text>
</g>
<!-- ApplicationControllerService&#45;&gt;ApiModule -->
<g id="edge2" class="edge">
<title>ApplicationControllerService&#45;&gt;ApiModule</title>
<path fill="none" stroke="black" d="M15872,-122.38C15872,-146.28 15872,-185 15872,-185 15872,-185 8384.1,-185 8384.1,-185"/>
<polygon fill="black" stroke="black" points="8384.1,-181.5 8374.1,-185 8384.1,-188.5 8384.1,-181.5"/>
</g>
<!-- ArtifactControllerService -->
<g id="node3" class="node">
<title>ArtifactControllerService</title>
<ellipse fill="#fdb462" stroke="black" cx="15619" cy="-104" rx="109.92" ry="18"/>
<text text-anchor="middle" x="15619" y="-99.8" font-family="Times,serif" font-size="14.00">ArtifactControllerService</text>
</g>
<!-- ArtifactControllerService&#45;&gt;ApiModule -->
<g id="edge3" class="edge">
<title>ArtifactControllerService&#45;&gt;ApiModule</title>
<path fill="none" stroke="black" d="M15619,-122.15C15619,-145.76 15619,-184 15619,-184 15619,-184 8384.08,-184 8384.08,-184"/>
<polygon fill="black" stroke="black" points="8384.08,-180.5 8374.08,-184 8384.08,-187.5 8384.08,-180.5"/>
</g>
<!-- ArtifactoryControllerService -->
<g id="node4" class="node">
<title>ArtifactoryControllerService</title>
<ellipse fill="#fdb462" stroke="black" cx="15369" cy="-104" rx="122.66" ry="18"/>
<text text-anchor="middle" x="15369" y="-99.8" font-family="Times,serif" font-size="14.00">ArtifactoryControllerService</text>
</g>
<!-- ArtifactoryControllerService&#45;&gt;ApiModule -->
<g id="edge4" class="edge">
<title>ArtifactoryControllerService&#45;&gt;ApiModule</title>
<path fill="none" stroke="black" d="M15369,-122.32C15369,-145.66 15369,-183 15369,-183 15369,-183 8384.43,-183 8384.43,-183"/>
<polygon fill="black" stroke="black" points="8384.43,-179.5 8374.43,-183 8384.43,-186.5 8384.43,-179.5"/>
</g>
<!-- AwsClusterControllerService -->
<g id="node5" class="node">
<title>AwsClusterControllerService</title>
<ellipse fill="#fdb462" stroke="black" cx="15103" cy="-104" rx="125.05" ry="18"/>
<text text-anchor="middle" x="15103" y="-99.8" font-family="Times,serif" font-size="14.00">AwsClusterControllerService</text>
</g>
<!-- AwsClusterControllerService&#45;&gt;ApiModule -->
<g id="edge5" class="edge">
<title>AwsClusterControllerService&#45;&gt;ApiModule</title>
<path fill="none" stroke="black" d="M15103,-122.25C15103,-145.02 15103,-181 15103,-181 15103,-181 8384.18,-181 8384.18,-181"/>
<polygon fill="black" stroke="black" points="8384.18,-177.5 8374.18,-181 8384.18,-184.5 8384.18,-177.5"/>
</g>
<!-- AzureClusterControllerService -->
<g id="node6" class="node">
<title>AzureClusterControllerService</title>
<ellipse fill="#fdb462" stroke="black" cx="14829" cy="-104" rx="131.33" ry="18"/>
<text text-anchor="middle" x="14829" y="-99.8" font-family="Times,serif" font-size="14.00">AzureClusterControllerService</text>
</g>
<!-- AzureClusterControllerService&#45;&gt;ApiModule -->
<g id="edge6" class="edge">
<title>AzureClusterControllerService&#45;&gt;ApiModule</title>
<path fill="none" stroke="black" d="M14829,-122.01C14829,-144.49 14829,-180 14829,-180 14829,-180 8384.21,-180 8384.21,-180"/>
<polygon fill="black" stroke="black" points="8384.21,-176.5 8374.21,-180 8384.21,-183.5 8384.21,-176.5"/>
</g>
<!-- BuildControllerService -->
<g id="node7" class="node">
<title>BuildControllerService</title>
<ellipse fill="#fdb462" stroke="black" cx="14579" cy="-104" rx="101.3" ry="18"/>
<text text-anchor="middle" x="14579" y="-99.8" font-family="Times,serif" font-size="14.00">BuildControllerService</text>
</g>
<!-- BuildControllerService&#45;&gt;ApiModule -->
<g id="edge7" class="edge">
<title>BuildControllerService&#45;&gt;ApiModule</title>
<path fill="none" stroke="black" d="M14579,-122.16C14579,-144.35 14579,-179 14579,-179 14579,-179 8384.29,-179 8384.29,-179"/>
<polygon fill="black" stroke="black" points="8384.29,-175.5 8374.29,-179 8384.29,-182.5 8384.29,-175.5"/>
</g>
<!-- CallbackControllerService -->
<g id="node8" class="node">
<title>CallbackControllerService</title>
<ellipse fill="#fdb462" stroke="black" cx="14346" cy="-104" rx="114.02" ry="18"/>
<text text-anchor="middle" x="14346" y="-99.8" font-family="Times,serif" font-size="14.00">CallbackControllerService</text>
</g>
<!-- CallbackControllerService&#45;&gt;ApiModule -->
<g id="edge8" class="edge">
<title>CallbackControllerService&#45;&gt;ApiModule</title>
<path fill="none" stroke="black" d="M14346,-122.29C14346,-144.21 14346,-178 14346,-178 14346,-178 8384.38,-178 8384.38,-178"/>
<polygon fill="black" stroke="black" points="8384.38,-174.5 8374.38,-178 8384.38,-181.5 8384.38,-174.5"/>
</g>
<!-- CapillaryCloudCallbackControllerService -->
<g id="node9" class="node">
<title>CapillaryCloudCallbackControllerService</title>
<ellipse fill="#fdb462" stroke="black" cx="14040" cy="-104" rx="173.61" ry="18"/>
<text text-anchor="middle" x="14040" y="-99.8" font-family="Times,serif" font-size="14.00">CapillaryCloudCallbackControllerService</text>
</g>
<!-- CapillaryCloudCallbackControllerService&#45;&gt;ApiModule -->
<g id="edge9" class="edge">
<title>CapillaryCloudCallbackControllerService&#45;&gt;ApiModule</title>
<path fill="none" stroke="black" d="M14040,-122.17C14040,-143.5 14040,-176 14040,-176 14040,-176 8384.26,-176 8384.26,-176"/>
<polygon fill="black" stroke="black" points="8384.26,-172.5 8374.26,-176 8384.26,-179.5 8384.26,-172.5"/>
</g>
<!-- CommonClusterControllerService -->
<g id="node10" class="node">
<title>CommonClusterControllerService</title>
<ellipse fill="#fdb462" stroke="black" cx="13705" cy="-104" rx="143.56" ry="18"/>
<text text-anchor="middle" x="13705" y="-99.8" font-family="Times,serif" font-size="14.00">CommonClusterControllerService</text>
</g>
<!-- CommonClusterControllerService&#45;&gt;ApiModule -->
<g id="edge10" class="edge">
<title>CommonClusterControllerService&#45;&gt;ApiModule</title>
<path fill="none" stroke="black" d="M13705,-122.28C13705,-143.32 13705,-175 13705,-175 13705,-175 8384.14,-175 8384.14,-175"/>
<polygon fill="black" stroke="black" points="8384.14,-171.5 8374.14,-175 8384.14,-178.5 8384.14,-171.5"/>
</g>
<!-- DeploymentControllerService -->
<g id="node11" class="node">
<title>DeploymentControllerService</title>
<ellipse fill="#fdb462" stroke="black" cx="13416" cy="-104" rx="127.35" ry="18"/>
<text text-anchor="middle" x="13416" y="-99.8" font-family="Times,serif" font-size="14.00">DeploymentControllerService</text>
</g>
<!-- DeploymentControllerService&#45;&gt;ApiModule -->
<g id="edge11" class="edge">
<title>DeploymentControllerService&#45;&gt;ApiModule</title>
<path fill="none" stroke="black" d="M13416,-122.03C13416,-142.77 13416,-174 13416,-174 13416,-174 8384.17,-174 8384.17,-174"/>
<polygon fill="black" stroke="black" points="8384.17,-170.5 8374.17,-174 8384.17,-177.5 8384.17,-170.5"/>
</g>
<!-- GcpClusterControllerService -->
<g id="node12" class="node">
<title>GcpClusterControllerService</title>
<ellipse fill="#fdb462" stroke="black" cx="13147" cy="-104" rx="123.83" ry="18"/>
<text text-anchor="middle" x="13147" y="-99.8" font-family="Times,serif" font-size="14.00">GcpClusterControllerService</text>
</g>
<!-- GcpClusterControllerService&#45;&gt;ApiModule -->
<g id="edge12" class="edge">
<title>GcpClusterControllerService&#45;&gt;ApiModule</title>
<path fill="none" stroke="black" d="M13147,-122.13C13147,-142.57 13147,-173 13147,-173 13147,-173 8384.16,-173 8384.16,-173"/>
<polygon fill="black" stroke="black" points="8384.16,-169.5 8374.16,-173 8384.16,-176.5 8384.16,-169.5"/>
</g>
<!-- MetaControllerService -->
<g id="node13" class="node">
<title>MetaControllerService</title>
<ellipse fill="#fdb462" stroke="black" cx="12906" cy="-104" rx="99.55" ry="18"/>
<text text-anchor="middle" x="12906" y="-99.8" font-family="Times,serif" font-size="14.00">MetaControllerService</text>
</g>
<!-- MetaControllerService&#45;&gt;ApiModule -->
<g id="edge13" class="edge">
<title>MetaControllerService&#45;&gt;ApiModule</title>
<path fill="none" stroke="black" d="M12906,-122.31C12906,-142.15 12906,-171 12906,-171 12906,-171 8384.22,-171 8384.22,-171"/>
<polygon fill="black" stroke="black" points="8384.22,-167.5 8374.22,-171 8384.22,-174.5 8384.22,-167.5"/>
</g>
<!-- PublicApIsService -->
<g id="node14" class="node">
<title>PublicApIsService</title>
<ellipse fill="#fdb462" stroke="black" cx="12705" cy="-104" rx="83.38" ry="18"/>
<text text-anchor="middle" x="12705" y="-99.8" font-family="Times,serif" font-size="14.00">PublicApIsService</text>
</g>
<!-- PublicApIsService&#45;&gt;ApiModule -->
<g id="edge14" class="edge">
<title>PublicApIsService&#45;&gt;ApiModule</title>
<path fill="none" stroke="black" d="M12705,-122.03C12705,-141.58 12705,-170 12705,-170 12705,-170 8384.14,-170 8384.14,-170"/>
<polygon fill="black" stroke="black" points="8384.14,-166.5 8374.14,-170 8384.14,-173.5 8384.14,-166.5"/>
</g>
<!-- StackControllerService -->
<g id="node15" class="node">
<title>StackControllerService</title>
<ellipse fill="#fdb462" stroke="black" cx="12502" cy="-104" rx="101.28" ry="18"/>
<text text-anchor="middle" x="12502" y="-99.8" font-family="Times,serif" font-size="14.00">StackControllerService</text>
</g>
<!-- StackControllerService&#45;&gt;ApiModule -->
<g id="edge15" class="edge">
<title>StackControllerService&#45;&gt;ApiModule</title>
<path fill="none" stroke="black" d="M12502,-122.11C12502,-141.34 12502,-169 12502,-169 12502,-169 8384.25,-169 8384.25,-169"/>
<polygon fill="black" stroke="black" points="8384.25,-165.5 8374.25,-169 8384.25,-172.5 8384.25,-165.5"/>
</g>
<!-- UiAccountsControllerService -->
<g id="node16" class="node">
<title>UiAccountsControllerService</title>
<ellipse fill="#fdb462" stroke="black" cx="12257" cy="-104" rx="125.62" ry="18"/>
<text text-anchor="middle" x="12257" y="-99.8" font-family="Times,serif" font-size="14.00">UiAccountsControllerService</text>
</g>
<!-- UiAccountsControllerService&#45;&gt;ApiModule -->
<g id="edge16" class="edge">
<title>UiAccountsControllerService&#45;&gt;ApiModule</title>
<path fill="none" stroke="black" d="M12257,-122.17C12257,-141.09 12257,-168 12257,-168 12257,-168 8384.11,-168 8384.11,-168"/>
<polygon fill="black" stroke="black" points="8384.11,-164.5 8374.11,-168 8384.11,-171.5 8384.11,-164.5"/>
</g>
<!-- UiAlertsControllerService -->
<g id="node17" class="node">
<title>UiAlertsControllerService</title>
<ellipse fill="#fdb462" stroke="black" cx="12000" cy="-104" rx="112.87" ry="18"/>
<text text-anchor="middle" x="12000" y="-99.8" font-family="Times,serif" font-size="14.00">UiAlertsControllerService</text>
</g>
<!-- UiAlertsControllerService&#45;&gt;ApiModule -->
<g id="edge17" class="edge">
<title>UiAlertsControllerService&#45;&gt;ApiModule</title>
<path fill="none" stroke="black" d="M12000,-122.27C12000,-140.56 12000,-166 12000,-166 12000,-166 8384.23,-166 8384.23,-166"/>
<polygon fill="black" stroke="black" points="8384.23,-162.5 8374.23,-166 8384.23,-169.5 8384.23,-162.5"/>
</g>
<!-- UiApplicationControllerService -->
<g id="node18" class="node">
<title>UiApplicationControllerService</title>
<ellipse fill="#fdb462" stroke="black" cx="11734" cy="-104" rx="134.87" ry="18"/>
<text text-anchor="middle" x="11734" y="-99.8" font-family="Times,serif" font-size="14.00">UiApplicationControllerService</text>
</g>
<!-- UiApplicationControllerService&#45;&gt;ApiModule -->
<g id="edge18" class="edge">
<title>UiApplicationControllerService&#45;&gt;ApiModule</title>
<path fill="none" stroke="black" d="M11734,-122.3C11734,-140.27 11734,-165 11734,-165 11734,-165 8384.25,-165 8384.25,-165"/>
<polygon fill="black" stroke="black" points="8384.25,-161.5 8374.25,-165 8384.25,-168.5 8384.25,-161.5"/>
</g>
<!-- UiArtifactCiControllerService -->
<g id="node19" class="node">
<title>UiArtifactCiControllerService</title>
<ellipse fill="#fdb462" stroke="black" cx="11453" cy="-104" rx="128.48" ry="18"/>
<text text-anchor="middle" x="11453" y="-99.8" font-family="Times,serif" font-size="14.00">UiArtifactCiControllerService</text>
</g>
<!-- UiArtifactCiControllerService&#45;&gt;ApiModule -->
<g id="edge19" class="edge">
<title>UiArtifactCiControllerService&#45;&gt;ApiModule</title>
<path fill="none" stroke="black" d="M11453,-122C11453,-139.68 11453,-164 11453,-164 11453,-164 8384.29,-164 8384.29,-164"/>
<polygon fill="black" stroke="black" points="8384.29,-160.5 8374.29,-164 8384.29,-167.5 8384.29,-160.5"/>
</g>
<!-- UiArtifactRoutingRuleControllerService -->
<g id="node20" class="node">
<title>UiArtifactRoutingRuleControllerService</title>
<ellipse fill="#fdb462" stroke="black" cx="11138" cy="-104" rx="168.95" ry="18"/>
<text text-anchor="middle" x="11138" y="-99.8" font-family="Times,serif" font-size="14.00">UiArtifactRoutingRuleControllerService</text>
</g>
<!-- UiArtifactRoutingRuleControllerService&#45;&gt;ApiModule -->
<g id="edge20" class="edge">
<title>UiArtifactRoutingRuleControllerService&#45;&gt;ApiModule</title>
<path fill="none" stroke="black" d="M11138,-122.02C11138,-139.37 11138,-163 11138,-163 11138,-163 8384.18,-163 8384.18,-163"/>
<polygon fill="black" stroke="black" points="8384.18,-159.5 8374.18,-163 8384.18,-166.5 8384.18,-159.5"/>
</g>
<!-- UiArtifactoryControllerService -->
<g id="node21" class="node">
<title>UiArtifactoryControllerService</title>
<ellipse fill="#fdb462" stroke="black" cx="10819" cy="-104" rx="132.47" ry="18"/>
<text text-anchor="middle" x="10819" y="-99.8" font-family="Times,serif" font-size="14.00">UiArtifactoryControllerService</text>
</g>
<!-- UiArtifactoryControllerService&#45;&gt;ApiModule -->
<g id="edge21" class="edge">
<title>UiArtifactoryControllerService&#45;&gt;ApiModule</title>
<path fill="none" stroke="black" d="M10819,-122.04C10819,-138.73 10819,-161 10819,-161 10819,-161 8384.29,-161 8384.29,-161"/>
<polygon fill="black" stroke="black" points="8384.29,-157.5 8374.29,-161 8384.29,-164.5 8384.29,-157.5"/>
</g>
<!-- UiArtifactsControllerService -->
<g id="node22" class="node">
<title>UiArtifactsControllerService</title>
<ellipse fill="#fdb462" stroke="black" cx="10546" cy="-104" rx="123.24" ry="18"/>
<text text-anchor="middle" x="10546" y="-99.8" font-family="Times,serif" font-size="14.00">UiArtifactsControllerService</text>
</g>
<!-- UiArtifactsControllerService&#45;&gt;ApiModule -->
<g id="edge22" class="edge">
<title>UiArtifactsControllerService&#45;&gt;ApiModule</title>
<path fill="none" stroke="black" d="M10546,-122.03C10546,-138.4 10546,-160 10546,-160 10546,-160 8384.28,-160 8384.28,-160"/>
<polygon fill="black" stroke="black" points="8384.28,-156.5 8374.28,-160 8384.28,-163.5 8384.28,-156.5"/>
</g>
<!-- UiAuditLogsControllerService -->
<g id="node23" class="node">
<title>UiAuditLogsControllerService</title>
<ellipse fill="#fdb462" stroke="black" cx="10274" cy="-104" rx="130.8" ry="18"/>
<text text-anchor="middle" x="10274" y="-99.8" font-family="Times,serif" font-size="14.00">UiAuditLogsControllerService</text>
</g>
<!-- UiAuditLogsControllerService&#45;&gt;ApiModule -->
<g id="edge23" class="edge">
<title>UiAuditLogsControllerService&#45;&gt;ApiModule</title>
<path fill="none" stroke="black" d="M10274,-122.01C10274,-138.05 10274,-159 10274,-159 10274,-159 8384.07,-159 8384.07,-159"/>
<polygon fill="black" stroke="black" points="8384.07,-155.5 8374.07,-159 8384.07,-162.5 8384.07,-155.5"/>
</g>
<!-- UiAwsClusterControllerService -->
<g id="node24" class="node">
<title>UiAwsClusterControllerService</title>
<ellipse fill="#fdb462" stroke="black" cx="9990" cy="-104" rx="134.86" ry="18"/>
<text text-anchor="middle" x="9990" y="-99.8" font-family="Times,serif" font-size="14.00">UiAwsClusterControllerService</text>
</g>
<!-- UiAwsClusterControllerService&#45;&gt;ApiModule -->
<g id="edge24" class="edge">
<title>UiAwsClusterControllerService&#45;&gt;ApiModule</title>
<path fill="none" stroke="black" d="M9990,-122.28C9990,-137.95 9990,-158 9990,-158 9990,-158 8384.11,-158 8384.11,-158"/>
<polygon fill="black" stroke="black" points="8384.11,-154.5 8374.11,-158 8384.11,-161.5 8384.11,-154.5"/>
</g>
<!-- UiAzureClusterControllerService -->
<g id="node25" class="node">
<title>UiAzureClusterControllerService</title>
<ellipse fill="#fdb462" stroke="black" cx="9696" cy="-104" rx="140.64" ry="18"/>
<text text-anchor="middle" x="9696" y="-99.8" font-family="Times,serif" font-size="14.00">UiAzureClusterControllerService</text>
</g>
<!-- UiAzureClusterControllerService&#45;&gt;ApiModule -->
<g id="edge25" class="edge">
<title>UiAzureClusterControllerService&#45;&gt;ApiModule</title>
<path fill="none" stroke="black" d="M9696,-122.19C9696,-137.18 9696,-156 9696,-156 9696,-156 8384.39,-156 8384.39,-156"/>
<polygon fill="black" stroke="black" points="8384.39,-152.5 8374.39,-156 8384.39,-159.5 8384.39,-152.5"/>
</g>
<!-- UiBlueprintDesignerControllerService -->
<g id="node26" class="node">
<title>UiBlueprintDesignerControllerService</title>
<ellipse fill="#fdb462" stroke="black" cx="9377" cy="-104" rx="160.85" ry="18"/>
<text text-anchor="middle" x="9377" y="-99.8" font-family="Times,serif" font-size="14.00">UiBlueprintDesignerControllerService</text>
</g>
<!-- UiBlueprintDesignerControllerService&#45;&gt;ApiModule -->
<g id="edge26" class="edge">
<title>UiBlueprintDesignerControllerService&#45;&gt;ApiModule</title>
<path fill="none" stroke="black" d="M9377,-122.12C9377,-136.78 9377,-155 9377,-155 9377,-155 8384.25,-155 8384.25,-155"/>
<polygon fill="black" stroke="black" points="8384.25,-151.5 8374.25,-155 8384.25,-158.5 8384.25,-151.5"/>
</g>
<!-- UiChatGptControllerService -->
<g id="node27" class="node">
<title>UiChatGptControllerService</title>
<ellipse fill="#fdb462" stroke="black" cx="9076" cy="-104" rx="122.12" ry="18"/>
<text text-anchor="middle" x="9076" y="-99.8" font-family="Times,serif" font-size="14.00">UiChatGptControllerService</text>
</g>
<!-- UiChatGptControllerService&#45;&gt;ApiModule -->
<g id="edge27" class="edge">
<title>UiChatGptControllerService&#45;&gt;ApiModule</title>
<path fill="none" stroke="black" d="M9076,-122.05C9076,-136.37 9076,-154 9076,-154 9076,-154 8384.16,-154 8384.16,-154"/>
<polygon fill="black" stroke="black" points="8384.16,-150.5 8374.16,-154 8384.16,-157.5 8384.16,-150.5"/>
</g>
<!-- UiCloudCostExplorerControllerService -->
<g id="node28" class="node">
<title>UiCloudCostExplorerControllerService</title>
<ellipse fill="#fdb462" stroke="black" cx="8771" cy="-104" rx="164.38" ry="18"/>
<text text-anchor="middle" x="8771" y="-99.8" font-family="Times,serif" font-size="14.00">UiCloudCostExplorerControllerService</text>
</g>
<!-- UiCloudCostExplorerControllerService&#45;&gt;ApiModule -->
<g id="edge28" class="edge">
<title>UiCloudCostExplorerControllerService&#45;&gt;ApiModule</title>
<path fill="none" stroke="black" d="M8771,-122.25C8771,-136.18 8771,-153 8771,-153 8771,-153 8384.33,-153 8384.33,-153"/>
<polygon fill="black" stroke="black" points="8384.33,-149.5 8374.33,-153 8384.33,-156.5 8384.33,-149.5"/>
</g>
<!-- UiCoderControllerService -->
<g id="node29" class="node">
<title>UiCoderControllerService</title>
<ellipse fill="#fdb462" stroke="black" cx="8476" cy="-104" rx="112.88" ry="18"/>
<text text-anchor="middle" x="8476" y="-99.8" font-family="Times,serif" font-size="14.00">UiCoderControllerService</text>
</g>
<!-- UiCoderControllerService&#45;&gt;ApiModule -->
<g id="edge29" class="edge">
<title>UiCoderControllerService&#45;&gt;ApiModule</title>
<path fill="none" stroke="black" d="M8368.67,-110C8368.67,-110 8368.67,-140.76 8368.67,-140.76"/>
<polygon fill="black" stroke="black" points="8365.17,-140.76 8368.67,-150.76 8372.17,-140.76 8365.17,-140.76"/>
</g>
<!-- UiCommonClusterControllerService -->
<g id="node30" class="node">
<title>UiCommonClusterControllerService</title>
<ellipse fill="#fdb462" stroke="black" cx="8192" cy="-104" rx="153.37" ry="18"/>
<text text-anchor="middle" x="8192" y="-99.8" font-family="Times,serif" font-size="14.00">UiCommonClusterControllerService</text>
</g>
<!-- UiCommonClusterControllerService&#45;&gt;ApiModule -->
<g id="edge30" class="edge">
<title>UiCommonClusterControllerService&#45;&gt;ApiModule</title>
<path fill="none" stroke="black" d="M8319.45,-114.16C8319.45,-114.16 8319.45,-140.81 8319.45,-140.81"/>
<polygon fill="black" stroke="black" points="8315.95,-140.81 8319.45,-150.81 8322.95,-140.81 8315.95,-140.81"/>
</g>
<!-- UiCustomRoleControllerService -->
<g id="node31" class="node">
<title>UiCustomRoleControllerService</title>
<ellipse fill="#fdb462" stroke="black" cx="7883" cy="-104" rx="137.76" ry="18"/>
<text text-anchor="middle" x="7883" y="-99.8" font-family="Times,serif" font-size="14.00">UiCustomRoleControllerService</text>
</g>
<!-- UiCustomRoleControllerService&#45;&gt;ApiModule -->
<g id="edge31" class="edge">
<title>UiCustomRoleControllerService&#45;&gt;ApiModule</title>
<path fill="none" stroke="black" d="M7883,-122.25C7883,-136.18 7883,-153 7883,-153 7883,-153 8283.58,-153 8283.58,-153"/>
<polygon fill="black" stroke="black" points="8283.58,-156.5 8293.58,-153 8283.58,-149.5 8283.58,-156.5"/>
</g>
<!-- UiDeliveryPipelineControllerService -->
<g id="node32" class="node">
<title>UiDeliveryPipelineControllerService</title>
<ellipse fill="#fdb462" stroke="black" cx="7573" cy="-104" rx="154.55" ry="18"/>
<text text-anchor="middle" x="7573" y="-99.8" font-family="Times,serif" font-size="14.00">UiDeliveryPipelineControllerService</text>
</g>
<!-- UiDeliveryPipelineControllerService&#45;&gt;ApiModule -->
<g id="edge32" class="edge">
<title>UiDeliveryPipelineControllerService&#45;&gt;ApiModule</title>
<path fill="none" stroke="black" d="M7573,-122.05C7573,-136.37 7573,-154 7573,-154 7573,-154 8283.89,-154 8283.89,-154"/>
<polygon fill="black" stroke="black" points="8283.89,-157.5 8293.89,-154 8283.89,-150.5 8283.89,-157.5"/>
</g>
<!-- UiDeploymentControllerService -->
<g id="node33" class="node">
<title>UiDeploymentControllerService</title>
<ellipse fill="#fdb462" stroke="black" cx="7263" cy="-104" rx="137.16" ry="18"/>
<text text-anchor="middle" x="7263" y="-99.8" font-family="Times,serif" font-size="14.00">UiDeploymentControllerService</text>
</g>
<!-- UiDeploymentControllerService&#45;&gt;ApiModule -->
<g id="edge33" class="edge">
<title>UiDeploymentControllerService&#45;&gt;ApiModule</title>
<path fill="none" stroke="black" d="M7263,-122.12C7263,-136.78 7263,-155 7263,-155 7263,-155 8283.65,-155 8283.65,-155"/>
<polygon fill="black" stroke="black" points="8283.65,-158.5 8293.65,-155 8283.65,-151.5 8283.65,-158.5"/>
</g>
<!-- UiDomainMappingControllerService -->
<g id="node34" class="node">
<title>UiDomainMappingControllerService</title>
<ellipse fill="#fdb462" stroke="black" cx="6953" cy="-104" rx="155.14" ry="18"/>
<text text-anchor="middle" x="6953" y="-99.8" font-family="Times,serif" font-size="14.00">UiDomainMappingControllerService</text>
</g>
<!-- UiDomainMappingControllerService&#45;&gt;ApiModule -->
<g id="edge34" class="edge">
<title>UiDomainMappingControllerService&#45;&gt;ApiModule</title>
<path fill="none" stroke="black" d="M6953,-122.19C6953,-137.18 6953,-156 6953,-156 6953,-156 8283.79,-156 8283.79,-156"/>
<polygon fill="black" stroke="black" points="8283.79,-159.5 8293.79,-156 8283.79,-152.5 8283.79,-159.5"/>
</g>
<!-- UiDropdownsControllerService -->
<g id="node35" class="node">
<title>UiDropdownsControllerService</title>
<ellipse fill="#fdb462" stroke="black" cx="6645" cy="-104" rx="134.29" ry="18"/>
<text text-anchor="middle" x="6645" y="-99.8" font-family="Times,serif" font-size="14.00">UiDropdownsControllerService</text>
</g>
<!-- UiDropdownsControllerService&#45;&gt;ApiModule -->
<g id="edge35" class="edge">
<title>UiDropdownsControllerService&#45;&gt;ApiModule</title>
<path fill="none" stroke="black" d="M6645,-122.28C6645,-137.95 6645,-158 6645,-158 6645,-158 8283.92,-158 8283.92,-158"/>
<polygon fill="black" stroke="black" points="8283.92,-161.5 8293.92,-158 8283.92,-154.5 8283.92,-161.5"/>
</g>
<!-- UiGcpClusterControllerService -->
<g id="node36" class="node">
<title>UiGcpClusterControllerService</title>
<ellipse fill="#fdb462" stroke="black" cx="6359" cy="-104" rx="133.14" ry="18"/>
<text text-anchor="middle" x="6359" y="-99.8" font-family="Times,serif" font-size="14.00">UiGcpClusterControllerService</text>
</g>
<!-- UiGcpClusterControllerService&#45;&gt;ApiModule -->
<g id="edge36" class="edge">
<title>UiGcpClusterControllerService&#45;&gt;ApiModule</title>
<path fill="none" stroke="black" d="M6359,-122.01C6359,-138.05 6359,-159 6359,-159 6359,-159 8283.65,-159 8283.65,-159"/>
<polygon fill="black" stroke="black" points="8283.65,-162.5 8293.65,-159 8283.65,-155.5 8283.65,-162.5"/>
</g>
<!-- UiIacRepoControllerService -->
<g id="node37" class="node">
<title>UiIacRepoControllerService</title>
<ellipse fill="#fdb462" stroke="black" cx="6086" cy="-104" rx="121.52" ry="18"/>
<text text-anchor="middle" x="6086" y="-99.8" font-family="Times,serif" font-size="14.00">UiIacRepoControllerService</text>
</g>
<!-- UiIacRepoControllerService&#45;&gt;ApiModule -->
<g id="edge37" class="edge">
<title>UiIacRepoControllerService&#45;&gt;ApiModule</title>
<path fill="none" stroke="black" d="M6086,-122.03C6086,-138.4 6086,-160 6086,-160 6086,-160 8283.55,-160 8283.55,-160"/>
<polygon fill="black" stroke="black" points="8283.55,-163.5 8293.55,-160 8283.55,-156.5 8283.55,-163.5"/>
</g>
<!-- UiK8sClusterControllerService -->
<g id="node38" class="node">
<title>UiK8sClusterControllerService</title>
<ellipse fill="#fdb462" stroke="black" cx="5814" cy="-104" rx="132.58" ry="18"/>
<text text-anchor="middle" x="5814" y="-99.8" font-family="Times,serif" font-size="14.00">UiK8sClusterControllerService</text>
</g>
<!-- UiK8sClusterControllerService&#45;&gt;ApiModule -->
<g id="edge38" class="edge">
<title>UiK8sClusterControllerService&#45;&gt;ApiModule</title>
<path fill="none" stroke="black" d="M5814,-122.04C5814,-138.73 5814,-161 5814,-161 5814,-161 8283.91,-161 8283.91,-161"/>
<polygon fill="black" stroke="black" points="8283.91,-164.5 8293.91,-161 8283.91,-157.5 8283.91,-164.5"/>
</g>
<!-- UiKubernetesExplorerControllerService -->
<g id="node39" class="node">
<title>UiKubernetesExplorerControllerService</title>
<ellipse fill="#fdb462" stroke="black" cx="5496" cy="-104" rx="167.19" ry="18"/>
<text text-anchor="middle" x="5496" y="-99.8" font-family="Times,serif" font-size="14.00">UiKubernetesExplorerControllerService</text>
</g>
<!-- UiKubernetesExplorerControllerService&#45;&gt;ApiModule -->
<g id="edge39" class="edge">
<title>UiKubernetesExplorerControllerService&#45;&gt;ApiModule</title>
<path fill="none" stroke="black" d="M5496,-122.02C5496,-139.37 5496,-163 5496,-163 5496,-163 8283.88,-163 8283.88,-163"/>
<polygon fill="black" stroke="black" points="8283.88,-166.5 8293.88,-163 8283.88,-159.5 8283.88,-166.5"/>
</g>
<!-- UiLocalClusterControllerService -->
<g id="node40" class="node">
<title>UiLocalClusterControllerService</title>
<ellipse fill="#fdb462" stroke="black" cx="5172" cy="-104" rx="139.44" ry="18"/>
<text text-anchor="middle" x="5172" y="-99.8" font-family="Times,serif" font-size="14.00">UiLocalClusterControllerService</text>
</g>
<!-- UiLocalClusterControllerService&#45;&gt;ApiModule -->
<g id="edge40" class="edge">
<title>UiLocalClusterControllerService&#45;&gt;ApiModule</title>
<path fill="none" stroke="black" d="M5172,-122C5172,-139.68 5172,-164 5172,-164 5172,-164 8283.73,-164 8283.73,-164"/>
<polygon fill="black" stroke="black" points="8283.73,-167.5 8293.73,-164 8283.73,-160.5 8283.73,-167.5"/>
</g>
<!-- UiMetaControllerService -->
<g id="node41" class="node">
<title>UiMetaControllerService</title>
<ellipse fill="#fdb462" stroke="black" cx="4906" cy="-104" rx="109.36" ry="18"/>
<text text-anchor="middle" x="4906" y="-99.8" font-family="Times,serif" font-size="14.00">UiMetaControllerService</text>
</g>
<!-- UiMetaControllerService&#45;&gt;ApiModule -->
<g id="edge41" class="edge">
<title>UiMetaControllerService&#45;&gt;ApiModule</title>
<path fill="none" stroke="black" d="M4906,-122.3C4906,-140.27 4906,-165 4906,-165 4906,-165 8283.72,-165 8283.72,-165"/>
<polygon fill="black" stroke="black" points="8283.72,-168.5 8293.72,-165 8283.72,-161.5 8283.72,-168.5"/>
</g>
<!-- UiNoAuthUserControllerService -->
<g id="node42" class="node">
<title>UiNoAuthUserControllerService</title>
<ellipse fill="#fdb462" stroke="black" cx="4640" cy="-104" rx="138.86" ry="18"/>
<text text-anchor="middle" x="4640" y="-99.8" font-family="Times,serif" font-size="14.00">UiNoAuthUserControllerService</text>
</g>
<!-- UiNoAuthUserControllerService&#45;&gt;ApiModule -->
<g id="edge42" class="edge">
<title>UiNoAuthUserControllerService&#45;&gt;ApiModule</title>
<path fill="none" stroke="black" d="M4640,-122.27C4640,-140.56 4640,-166 4640,-166 4640,-166 8283.77,-166 8283.77,-166"/>
<polygon fill="black" stroke="black" points="8283.77,-169.5 8293.77,-166 8283.77,-162.5 8283.77,-169.5"/>
</g>
<!-- UiNotificationControllerService -->
<g id="node43" class="node">
<title>UiNotificationControllerService</title>
<ellipse fill="#fdb462" stroke="black" cx="4347" cy="-104" rx="136.01" ry="18"/>
<text text-anchor="middle" x="4347" y="-99.8" font-family="Times,serif" font-size="14.00">UiNotificationControllerService</text>
</g>
<!-- UiNotificationControllerService&#45;&gt;ApiModule -->
<g id="edge43" class="edge">
<title>UiNotificationControllerService&#45;&gt;ApiModule</title>
<path fill="none" stroke="black" d="M4347,-122.17C4347,-141.09 4347,-168 4347,-168 4347,-168 8283.89,-168 8283.89,-168"/>
<polygon fill="black" stroke="black" points="8283.89,-171.5 8293.89,-168 8283.89,-164.5 8283.89,-171.5"/>
</g>
<!-- UiOAuthControllerService -->
<g id="node44" class="node">
<title>UiOAuthControllerService</title>
<ellipse fill="#fdb462" stroke="black" cx="4077" cy="-104" rx="115.75" ry="18"/>
<text text-anchor="middle" x="4077" y="-99.8" font-family="Times,serif" font-size="14.00">UiOAuthControllerService</text>
</g>
<!-- UiOAuthControllerService&#45;&gt;ApiModule -->
<g id="edge44" class="edge">
<title>UiOAuthControllerService&#45;&gt;ApiModule</title>
<path fill="none" stroke="black" d="M4077,-122.11C4077,-141.34 4077,-169 4077,-169 4077,-169 8283.91,-169 8283.91,-169"/>
<polygon fill="black" stroke="black" points="8283.91,-172.5 8293.91,-169 8283.91,-165.5 8283.91,-172.5"/>
</g>
<!-- UiOpaControllerService -->
<g id="node45" class="node">
<title>UiOpaControllerService</title>
<ellipse fill="#fdb462" stroke="black" cx="3838" cy="-104" rx="105.35" ry="18"/>
<text text-anchor="middle" x="3838" y="-99.8" font-family="Times,serif" font-size="14.00">UiOpaControllerService</text>
</g>
<!-- UiOpaControllerService&#45;&gt;ApiModule -->
<g id="edge45" class="edge">
<title>UiOpaControllerService&#45;&gt;ApiModule</title>
<path fill="none" stroke="black" d="M3838,-122.03C3838,-141.58 3838,-170 3838,-170 3838,-170 8283.76,-170 8283.76,-170"/>
<polygon fill="black" stroke="black" points="8283.76,-173.5 8293.76,-170 8283.76,-166.5 8283.76,-173.5"/>
</g>
<!-- UiPromotionWorkflowControllerService -->
<g id="node46" class="node">
<title>UiPromotionWorkflowControllerService</title>
<ellipse fill="#fdb462" stroke="black" cx="3545" cy="-104" rx="169.6" ry="18"/>
<text text-anchor="middle" x="3545" y="-99.8" font-family="Times,serif" font-size="14.00">UiPromotionWorkflowControllerService</text>
</g>
<!-- UiPromotionWorkflowControllerService&#45;&gt;ApiModule -->
<g id="edge46" class="edge">
<title>UiPromotionWorkflowControllerService&#45;&gt;ApiModule</title>
<path fill="none" stroke="black" d="M3545,-122.31C3545,-142.15 3545,-171 3545,-171 3545,-171 8283.68,-171 8283.68,-171"/>
<polygon fill="black" stroke="black" points="8283.68,-174.5 8293.68,-171 8283.68,-167.5 8283.68,-174.5"/>
</g>
<!-- UiQueuedReleaseControllerService -->
<g id="node47" class="node">
<title>UiQueuedReleaseControllerService</title>
<ellipse fill="#fdb462" stroke="black" cx="3208" cy="-104" rx="149.29" ry="18"/>
<text text-anchor="middle" x="3208" y="-99.8" font-family="Times,serif" font-size="14.00">UiQueuedReleaseControllerService</text>
</g>
<!-- UiQueuedReleaseControllerService&#45;&gt;ApiModule -->
<g id="edge47" class="edge">
<title>UiQueuedReleaseControllerService&#45;&gt;ApiModule</title>
<path fill="none" stroke="black" d="M3208,-122.13C3208,-142.57 3208,-173 3208,-173 3208,-173 8283.86,-173 8283.86,-173"/>
<polygon fill="black" stroke="black" points="8283.86,-176.5 8293.86,-173 8283.86,-169.5 8283.86,-176.5"/>
</g>
<!-- UiReleaseStreamControllerService -->
<g id="node48" class="node">
<title>UiReleaseStreamControllerService</title>
<ellipse fill="#fdb462" stroke="black" cx="2894" cy="-104" rx="146.94" ry="18"/>
<text text-anchor="middle" x="2894" y="-99.8" font-family="Times,serif" font-size="14.00">UiReleaseStreamControllerService</text>
</g>
<!-- UiReleaseStreamControllerService&#45;&gt;ApiModule -->
<g id="edge48" class="edge">
<title>UiReleaseStreamControllerService&#45;&gt;ApiModule</title>
<path fill="none" stroke="black" d="M2894,-122.03C2894,-142.77 2894,-174 2894,-174 2894,-174 8283.72,-174 8283.72,-174"/>
<polygon fill="black" stroke="black" points="8283.72,-177.5 8293.72,-174 8283.72,-170.5 8283.72,-177.5"/>
</g>
<!-- UiResourceGroupControllerService -->
<g id="node49" class="node">
<title>UiResourceGroupControllerService</title>
<ellipse fill="#fdb462" stroke="black" cx="2579" cy="-104" rx="149.88" ry="18"/>
<text text-anchor="middle" x="2579" y="-99.8" font-family="Times,serif" font-size="14.00">UiResourceGroupControllerService</text>
</g>
<!-- UiResourceGroupControllerService&#45;&gt;ApiModule -->
<g id="edge49" class="edge">
<title>UiResourceGroupControllerService&#45;&gt;ApiModule</title>
<path fill="none" stroke="black" d="M2579,-122.28C2579,-143.32 2579,-175 2579,-175 2579,-175 8283.78,-175 8283.78,-175"/>
<polygon fill="black" stroke="black" points="8283.78,-178.5 8293.78,-175 8283.78,-171.5 8283.78,-178.5"/>
</g>
<!-- UiSettingsControllerService -->
<g id="node50" class="node">
<title>UiSettingsControllerService</title>
<ellipse fill="#fdb462" stroke="black" cx="2291" cy="-104" rx="120.42" ry="18"/>
<text text-anchor="middle" x="2291" y="-99.8" font-family="Times,serif" font-size="14.00">UiSettingsControllerService</text>
</g>
<!-- UiSettingsControllerService&#45;&gt;ApiModule -->
<g id="edge50" class="edge">
<title>UiSettingsControllerService&#45;&gt;ApiModule</title>
<path fill="none" stroke="black" d="M2291,-122.17C2291,-143.5 2291,-176 2291,-176 2291,-176 8283.81,-176 8283.81,-176"/>
<polygon fill="black" stroke="black" points="8283.81,-179.5 8293.81,-176 8283.81,-172.5 8283.81,-179.5"/>
</g>
<!-- UiStackControllerService -->
<g id="node51" class="node">
<title>UiStackControllerService</title>
<ellipse fill="#fdb462" stroke="black" cx="2042" cy="-104" rx="110.59" ry="18"/>
<text text-anchor="middle" x="2042" y="-99.8" font-family="Times,serif" font-size="14.00">UiStackControllerService</text>
</g>
<!-- UiStackControllerService&#45;&gt;ApiModule -->
<g id="edge51" class="edge">
<title>UiStackControllerService&#45;&gt;ApiModule</title>
<path fill="none" stroke="black" d="M2042,-122.29C2042,-144.21 2042,-178 2042,-178 2042,-178 8283.82,-178 8283.82,-178"/>
<polygon fill="black" stroke="black" points="8283.82,-181.5 8293.82,-178 8283.82,-174.5 8283.82,-181.5"/>
</g>
<!-- UiTeamControllerService -->
<g id="node52" class="node">
<title>UiTeamControllerService</title>
<ellipse fill="#fdb462" stroke="black" cx="1802" cy="-104" rx="111.15" ry="18"/>
<text text-anchor="middle" x="1802" y="-99.8" font-family="Times,serif" font-size="14.00">UiTeamControllerService</text>
</g>
<!-- UiTeamControllerService&#45;&gt;ApiModule -->
<g id="edge52" class="edge">
<title>UiTeamControllerService&#45;&gt;ApiModule</title>
<path fill="none" stroke="black" d="M1802,-122.16C1802,-144.35 1802,-179 1802,-179 1802,-179 8283.56,-179 8283.56,-179"/>
<polygon fill="black" stroke="black" points="8283.56,-182.5 8293.56,-179 8283.56,-175.5 8283.56,-182.5"/>
</g>
<!-- UiTfVersionControllerService -->
<g id="node53" class="node">
<title>UiTfVersionControllerService</title>
<ellipse fill="#fdb462" stroke="black" cx="1544" cy="-104" rx="129.05" ry="18"/>
<text text-anchor="middle" x="1544" y="-99.8" font-family="Times,serif" font-size="14.00">UiTfVersionControllerService</text>
</g>
<!-- UiTfVersionControllerService&#45;&gt;ApiModule -->
<g id="edge53" class="edge">
<title>UiTfVersionControllerService&#45;&gt;ApiModule</title>
<path fill="none" stroke="black" d="M1544,-122.01C1544,-144.49 1544,-180 1544,-180 1544,-180 8283.7,-180 8283.7,-180"/>
<polygon fill="black" stroke="black" points="8283.7,-183.5 8293.7,-180 8283.7,-176.5 8283.7,-183.5"/>
</g>
<!-- UiThemeFileControllerService -->
<g id="node54" class="node">
<title>UiThemeFileControllerService</title>
<ellipse fill="#fdb462" stroke="black" cx="1266" cy="-104" rx="131.35" ry="18"/>
<text text-anchor="middle" x="1266" y="-99.8" font-family="Times,serif" font-size="14.00">UiThemeFileControllerService</text>
</g>
<!-- UiThemeFileControllerService&#45;&gt;ApiModule -->
<g id="edge54" class="edge">
<title>UiThemeFileControllerService&#45;&gt;ApiModule</title>
<path fill="none" stroke="black" d="M1266,-122.25C1266,-145.02 1266,-181 1266,-181 1266,-181 8283.81,-181 8283.81,-181"/>
<polygon fill="black" stroke="black" points="8283.81,-184.5 8293.81,-181 8283.81,-177.5 8283.81,-184.5"/>
</g>
<!-- UiUserControllerService -->
<g id="node55" class="node">
<title>UiUserControllerService</title>
<ellipse fill="#fdb462" stroke="black" cx="1009" cy="-104" rx="107.64" ry="18"/>
<text text-anchor="middle" x="1009" y="-99.8" font-family="Times,serif" font-size="14.00">UiUserControllerService</text>
</g>
<!-- UiUserControllerService&#45;&gt;ApiModule -->
<g id="edge55" class="edge">
<title>UiUserControllerService&#45;&gt;ApiModule</title>
<path fill="none" stroke="black" d="M1009,-122.32C1009,-145.66 1009,-183 1009,-183 1009,-183 8283.7,-183 8283.7,-183"/>
<polygon fill="black" stroke="black" points="8283.7,-186.5 8293.7,-183 8283.7,-179.5 8283.7,-186.5"/>
</g>
<!-- UiUserGroupControllerService -->
<g id="node56" class="node">
<title>UiUserGroupControllerService</title>
<ellipse fill="#fdb462" stroke="black" cx="751" cy="-104" rx="132.48" ry="18"/>
<text text-anchor="middle" x="751" y="-99.8" font-family="Times,serif" font-size="14.00">UiUserGroupControllerService</text>
</g>
<!-- UiUserGroupControllerService&#45;&gt;ApiModule -->
<g id="edge56" class="edge">
<title>UiUserGroupControllerService&#45;&gt;ApiModule</title>
<path fill="none" stroke="black" d="M751,-122.15C751,-145.76 751,-184 751,-184 751,-184 8283.66,-184 8283.66,-184"/>
<polygon fill="black" stroke="black" points="8283.66,-187.5 8293.66,-184 8283.66,-180.5 8283.66,-187.5"/>
</g>
<!-- UiUserVcsTokenControllerService -->
<g id="node57" class="node">
<title>UiUserVcsTokenControllerService</title>
<ellipse fill="#fdb462" stroke="black" cx="454" cy="-104" rx="147.01" ry="18"/>
<text text-anchor="middle" x="454" y="-99.8" font-family="Times,serif" font-size="14.00">UiUserVcsTokenControllerService</text>
</g>
<!-- UiUserVcsTokenControllerService&#45;&gt;ApiModule -->
<g id="edge57" class="edge">
<title>UiUserVcsTokenControllerService&#45;&gt;ApiModule</title>
<path fill="none" stroke="black" d="M454,-122.38C454,-146.28 454,-185 454,-185 454,-185 8283.94,-185 8283.94,-185"/>
<polygon fill="black" stroke="black" points="8283.94,-188.5 8293.94,-185 8283.94,-181.5 8283.94,-188.5"/>
</g>
<!-- UiVersioningControllerService -->
<g id="node58" class="node">
<title>UiVersioningControllerService</title>
<ellipse fill="#fdb462" stroke="black" cx="156" cy="-104" rx="132.5" ry="18"/>
<text text-anchor="middle" x="156" y="-99.8" font-family="Times,serif" font-size="14.00">UiVersioningControllerService</text>
</g>
<!-- UiVersioningControllerService&#45;&gt;ApiModule -->
<g id="edge58" class="edge">
<title>UiVersioningControllerService&#45;&gt;ApiModule</title>
<path fill="none" stroke="black" d="M156,-122.2C156,-146.36 156,-186 156,-186 156,-186 8283.86,-186 8283.86,-186"/>
<polygon fill="black" stroke="black" points="8283.86,-189.5 8293.86,-186 8283.86,-182.5 8283.86,-189.5"/>
</g>
</g>
</svg>
