<?xml version="1.0" encoding="UTF-8" standalone="no"?>
<!DOCTYPE svg PUBLIC "-//W3C//DTD SVG 1.1//EN"
 "http://www.w3.org/Graphics/SVG/1.1/DTD/svg11.dtd">
<!-- Generated by graphviz version 2.47.0 (20210316.0004)
 -->
<!-- Title: dependencies Pages: 1 -->
<svg width="697pt" height="211pt"
 viewBox="0.00 0.00 697.00 211.00" xmlns="http://www.w3.org/2000/svg" xmlns:xlink="http://www.w3.org/1999/xlink">
<g id="graph0" class="graph" transform="scale(1 1) rotate(0) translate(4 207)">
<title>dependencies</title>
<polygon fill="white" stroke="transparent" points="-4,4 -4,-207 693,-207 693,4 -4,4"/>
<text text-anchor="start" x="323.51" y="-42.4" font-family="Times-12" font-weight="bold" font-size="14.00">Legend</text>
<polygon fill="#ffffb3" stroke="transparent" points="110.5,-10 110.5,-30 130.5,-30 130.5,-10 110.5,-10"/>
<text text-anchor="start" x="134.13" y="-15.4" font-family="Times-12" font-size="14.00"> &#160;Declarations</text>
<polygon fill="#8dd3c7" stroke="transparent" points="223.5,-10 223.5,-30 243.5,-30 243.5,-10 223.5,-10"/>
<text text-anchor="start" x="247.23" y="-15.4" font-family="Times-12" font-size="14.00"> &#160;Module</text>
<polygon fill="#80b1d3" stroke="transparent" points="309.5,-10 309.5,-30 329.5,-30 329.5,-10 309.5,-10"/>
<text text-anchor="start" x="333.28" y="-15.4" font-family="Times-12" font-size="14.00"> &#160;Bootstrap</text>
<polygon fill="#fdb462" stroke="transparent" points="406.5,-10 406.5,-30 426.5,-30 426.5,-10 406.5,-10"/>
<text text-anchor="start" x="430.17" y="-15.4" font-family="Times-12" font-size="14.00"> &#160;Providers</text>
<polygon fill="#fb8072" stroke="transparent" points="502.5,-10 502.5,-30 522.5,-30 522.5,-10 502.5,-10"/>
<text text-anchor="start" x="526.23" y="-15.4" font-family="Times-12" font-size="14.00"> &#160;Exports</text>
<g id="clust1" class="cluster">
<title>cluster_ClusterChooserModule</title>
<polygon fill="none" stroke="black" stroke-dasharray="1,5" points="8,-70 8,-195 681,-195 681,-70 8,-70"/>
</g>
<g id="clust2" class="cluster">
<title>cluster_ClusterChooserModule_declarations</title>
<polygon fill="none" stroke="black" points="489,-78 489,-130 673,-130 673,-78 489,-78"/>
</g>
<g id="clust4" class="cluster">
<title>cluster_ClusterChooserModule_imports</title>
<polygon fill="none" stroke="black" points="16,-78 16,-130 481,-130 481,-78 16,-78"/>
</g>
<!-- ClusterChooserComponent -->
<g id="node1" class="node">
<title>ClusterChooserComponent</title>
<polygon fill="#ffffb3" stroke="black" points="665.43,-122 496.57,-122 496.57,-86 665.43,-86 665.43,-122"/>
<text text-anchor="middle" x="581" y="-99.8" font-family="Times,serif" font-size="14.00">ClusterChooserComponent</text>
</g>
<!-- ClusterChooserModule -->
<g id="node2" class="node">
<title>ClusterChooserModule</title>
<polygon fill="#8dd3c7" stroke="black" points="364.14,-187 361.14,-191 340.14,-191 337.14,-187 217.86,-187 217.86,-151 364.14,-151 364.14,-187"/>
<text text-anchor="middle" x="291" y="-164.8" font-family="Times,serif" font-size="14.00">ClusterChooserModule</text>
</g>
<!-- ClusterChooserComponent&#45;&gt;ClusterChooserModule -->
<g id="edge1" class="edge">
<title>ClusterChooserComponent&#45;&gt;ClusterChooserModule</title>
<path fill="none" stroke="black" d="M581,-122.11C581,-141.34 581,-169 581,-169 581,-169 374.18,-169 374.18,-169"/>
<polygon fill="black" stroke="black" points="374.18,-165.5 364.18,-169 374.18,-172.5 374.18,-165.5"/>
</g>
<!-- ClusterChooserRoutingModule -->
<g id="node3" class="node">
<title>ClusterChooserRoutingModule</title>
<polygon fill="#8dd3c7" stroke="black" points="472.76,-122 469.76,-126 448.76,-126 445.76,-122 281.24,-122 281.24,-86 472.76,-86 472.76,-122"/>
<text text-anchor="middle" x="377" y="-99.8" font-family="Times,serif" font-size="14.00">ClusterChooserRoutingModule</text>
</g>
<!-- ClusterChooserRoutingModule&#45;&gt;ClusterChooserModule -->
<g id="edge2" class="edge">
<title>ClusterChooserRoutingModule&#45;&gt;ClusterChooserModule</title>
<path fill="none" stroke="black" d="M322.72,-122.11C322.72,-122.11 322.72,-140.99 322.72,-140.99"/>
<polygon fill="black" stroke="black" points="319.22,-140.99 322.72,-150.99 326.22,-140.99 319.22,-140.99"/>
</g>
<!-- DirectivesModule -->
<g id="node4" class="node">
<title>DirectivesModule</title>
<polygon fill="#8dd3c7" stroke="black" points="263.58,-122 260.58,-126 239.58,-126 236.58,-122 146.42,-122 146.42,-86 263.58,-86 263.58,-122"/>
<text text-anchor="middle" x="205" y="-99.8" font-family="Times,serif" font-size="14.00">DirectivesModule</text>
</g>
<!-- DirectivesModule&#45;&gt;ClusterChooserModule -->
<g id="edge3" class="edge">
<title>DirectivesModule&#45;&gt;ClusterChooserModule</title>
<path fill="none" stroke="black" d="M240.61,-122.11C240.61,-122.11 240.61,-140.99 240.61,-140.99"/>
<polygon fill="black" stroke="black" points="237.11,-140.99 240.61,-150.99 244.11,-140.99 237.11,-140.99"/>
</g>
<!-- LayoutsModule -->
<g id="node5" class="node">
<title>LayoutsModule</title>
<polygon fill="#8dd3c7" stroke="black" points="128.15,-122 125.15,-126 104.15,-126 101.15,-122 23.85,-122 23.85,-86 128.15,-86 128.15,-122"/>
<text text-anchor="middle" x="76" y="-99.8" font-family="Times,serif" font-size="14.00">LayoutsModule</text>
</g>
<!-- LayoutsModule&#45;&gt;ClusterChooserModule -->
<g id="edge4" class="edge">
<title>LayoutsModule&#45;&gt;ClusterChooserModule</title>
<path fill="none" stroke="black" d="M76,-122.11C76,-141.34 76,-169 76,-169 76,-169 207.61,-169 207.61,-169"/>
<polygon fill="black" stroke="black" points="207.61,-172.5 217.61,-169 207.61,-165.5 207.61,-172.5"/>
</g>
</g>
</svg>
