<?xml version="1.0" encoding="UTF-8" standalone="no"?>
<!DOCTYPE svg PUBLIC "-//W3C//DTD SVG 1.1//EN"
 "http://www.w3.org/Graphics/SVG/1.1/DTD/svg11.dtd">
<!-- Generated by graphviz version 2.47.0 (20210316.0004)
 -->
<!-- Title: dependencies Pages: 1 -->
<svg width="521pt" height="211pt"
 viewBox="0.00 0.00 521.00 211.00" xmlns="http://www.w3.org/2000/svg" xmlns:xlink="http://www.w3.org/1999/xlink">
<g id="graph0" class="graph" transform="scale(1 1) rotate(0) translate(4 207)">
<title>dependencies</title>
<polygon fill="white" stroke="transparent" points="-4,4 -4,-207 517,-207 517,4 -4,4"/>
<text text-anchor="start" x="235.51" y="-42.4" font-family="Times-12" font-weight="bold" font-size="14.00">Legend</text>
<polygon fill="#ffffb3" stroke="transparent" points="22.5,-10 22.5,-30 42.5,-30 42.5,-10 22.5,-10"/>
<text text-anchor="start" x="46.13" y="-15.4" font-family="Times-12" font-size="14.00"> &#160;Declarations</text>
<polygon fill="#8dd3c7" stroke="transparent" points="135.5,-10 135.5,-30 155.5,-30 155.5,-10 135.5,-10"/>
<text text-anchor="start" x="159.23" y="-15.4" font-family="Times-12" font-size="14.00"> &#160;Module</text>
<polygon fill="#80b1d3" stroke="transparent" points="221.5,-10 221.5,-30 241.5,-30 241.5,-10 221.5,-10"/>
<text text-anchor="start" x="245.28" y="-15.4" font-family="Times-12" font-size="14.00"> &#160;Bootstrap</text>
<polygon fill="#fdb462" stroke="transparent" points="318.5,-10 318.5,-30 338.5,-30 338.5,-10 318.5,-10"/>
<text text-anchor="start" x="342.17" y="-15.4" font-family="Times-12" font-size="14.00"> &#160;Providers</text>
<polygon fill="#fb8072" stroke="transparent" points="414.5,-10 414.5,-30 434.5,-30 434.5,-10 414.5,-10"/>
<text text-anchor="start" x="438.23" y="-15.4" font-family="Times-12" font-size="14.00"> &#160;Exports</text>
<g id="clust1" class="cluster">
<title>cluster_SSOLgoutPageModule</title>
<polygon fill="none" stroke="black" stroke-dasharray="1,5" points="8,-70 8,-195 505,-195 505,-70 8,-70"/>
</g>
<g id="clust4" class="cluster">
<title>cluster_SSOLgoutPageModule_imports</title>
<polygon fill="none" stroke="black" points="188,-78 188,-130 497,-130 497,-78 188,-78"/>
</g>
<g id="clust2" class="cluster">
<title>cluster_SSOLgoutPageModule_declarations</title>
<polygon fill="none" stroke="black" points="16,-78 16,-130 180,-130 180,-78 16,-78"/>
</g>
<!-- SSOLogoutComponent -->
<g id="node1" class="node">
<title>SSOLogoutComponent</title>
<polygon fill="#ffffb3" stroke="black" points="171.95,-122 24.05,-122 24.05,-86 171.95,-86 171.95,-122"/>
<text text-anchor="middle" x="98" y="-99.8" font-family="Times,serif" font-size="14.00">SSOLogoutComponent</text>
</g>
<!-- SSOLgoutPageModule -->
<g id="node2" class="node">
<title>SSOLgoutPageModule</title>
<polygon fill="#8dd3c7" stroke="black" points="353.88,-187 350.88,-191 329.88,-191 326.88,-187 208.12,-187 208.12,-151 353.88,-151 353.88,-187"/>
<text text-anchor="middle" x="281" y="-164.8" font-family="Times,serif" font-size="14.00">SSOLgoutPageModule</text>
</g>
<!-- SSOLogoutComponent&#45;&gt;SSOLgoutPageModule -->
<g id="edge1" class="edge">
<title>SSOLogoutComponent&#45;&gt;SSOLgoutPageModule</title>
<path fill="none" stroke="black" d="M98,-122.11C98,-141.34 98,-169 98,-169 98,-169 197.88,-169 197.88,-169"/>
<polygon fill="black" stroke="black" points="197.88,-172.5 207.88,-169 197.88,-165.5 197.88,-172.5"/>
</g>
<!-- LayoutsModule -->
<g id="node3" class="node">
<title>LayoutsModule</title>
<polygon fill="#8dd3c7" stroke="black" points="489.15,-122 486.15,-126 465.15,-126 462.15,-122 384.85,-122 384.85,-86 489.15,-86 489.15,-122"/>
<text text-anchor="middle" x="437" y="-99.8" font-family="Times,serif" font-size="14.00">LayoutsModule</text>
</g>
<!-- LayoutsModule&#45;&gt;SSOLgoutPageModule -->
<g id="edge2" class="edge">
<title>LayoutsModule&#45;&gt;SSOLgoutPageModule</title>
<path fill="none" stroke="black" d="M437,-122.11C437,-141.34 437,-169 437,-169 437,-169 363.98,-169 363.98,-169"/>
<polygon fill="black" stroke="black" points="363.98,-165.5 353.98,-169 363.98,-172.5 363.98,-165.5"/>
</g>
<!-- SSOLogoutRoutingModule -->
<g id="node4" class="node">
<title>SSOLogoutRoutingModule</title>
<polygon fill="#8dd3c7" stroke="black" points="366.28,-122 363.28,-126 342.28,-126 339.28,-122 195.72,-122 195.72,-86 366.28,-86 366.28,-122"/>
<text text-anchor="middle" x="281" y="-99.8" font-family="Times,serif" font-size="14.00">SSOLogoutRoutingModule</text>
</g>
<!-- SSOLogoutRoutingModule&#45;&gt;SSOLgoutPageModule -->
<g id="edge3" class="edge">
<title>SSOLogoutRoutingModule&#45;&gt;SSOLgoutPageModule</title>
<path fill="none" stroke="black" d="M281,-122.11C281,-122.11 281,-140.99 281,-140.99"/>
<polygon fill="black" stroke="black" points="277.5,-140.99 281,-150.99 284.5,-140.99 277.5,-140.99"/>
</g>
</g>
</svg>
