<?xml version="1.0" encoding="UTF-8" standalone="no"?>
<!DOCTYPE svg PUBLIC "-//W3C//DTD SVG 1.1//EN"
 "http://www.w3.org/Graphics/SVG/1.1/DTD/svg11.dtd">
<!-- Generated by graphviz version 2.47.0 (20210316.0004)
 -->
<!-- Title: dependencies Pages: 1 -->
<svg width="685pt" height="211pt"
 viewBox="0.00 0.00 685.00 211.00" xmlns="http://www.w3.org/2000/svg" xmlns:xlink="http://www.w3.org/1999/xlink">
<g id="graph0" class="graph" transform="scale(1 1) rotate(0) translate(4 207)">
<title>dependencies</title>
<polygon fill="white" stroke="transparent" points="-4,4 -4,-207 681,-207 681,4 -4,4"/>
<text text-anchor="start" x="317.51" y="-42.4" font-family="Times-12" font-weight="bold" font-size="14.00">Legend</text>
<polygon fill="#ffffb3" stroke="transparent" points="104.5,-10 104.5,-30 124.5,-30 124.5,-10 104.5,-10"/>
<text text-anchor="start" x="128.13" y="-15.4" font-family="Times-12" font-size="14.00"> &#160;Declarations</text>
<polygon fill="#8dd3c7" stroke="transparent" points="217.5,-10 217.5,-30 237.5,-30 237.5,-10 217.5,-10"/>
<text text-anchor="start" x="241.23" y="-15.4" font-family="Times-12" font-size="14.00"> &#160;Module</text>
<polygon fill="#80b1d3" stroke="transparent" points="303.5,-10 303.5,-30 323.5,-30 323.5,-10 303.5,-10"/>
<text text-anchor="start" x="327.28" y="-15.4" font-family="Times-12" font-size="14.00"> &#160;Bootstrap</text>
<polygon fill="#fdb462" stroke="transparent" points="400.5,-10 400.5,-30 420.5,-30 420.5,-10 400.5,-10"/>
<text text-anchor="start" x="424.17" y="-15.4" font-family="Times-12" font-size="14.00"> &#160;Providers</text>
<polygon fill="#fb8072" stroke="transparent" points="496.5,-10 496.5,-30 516.5,-30 516.5,-10 496.5,-10"/>
<text text-anchor="start" x="520.23" y="-15.4" font-family="Times-12" font-size="14.00"> &#160;Exports</text>
<g id="clust1" class="cluster">
<title>cluster_CreateEditTemplateInputsModule</title>
<polygon fill="none" stroke="black" stroke-dasharray="1,5" points="8,-70 8,-195 669,-195 669,-70 8,-70"/>
</g>
<g id="clust2" class="cluster">
<title>cluster_CreateEditTemplateInputsModule_declarations</title>
<polygon fill="none" stroke="black" points="415,-78 415,-130 661,-130 661,-78 415,-78"/>
</g>
<g id="clust4" class="cluster">
<title>cluster_CreateEditTemplateInputsModule_imports</title>
<polygon fill="none" stroke="black" points="16,-78 16,-130 407,-130 407,-78 16,-78"/>
</g>
<!-- CreateEditTemplateInputsComponent -->
<g id="node1" class="node">
<title>CreateEditTemplateInputsComponent</title>
<polygon fill="#ffffb3" stroke="black" points="652.56,-122 423.44,-122 423.44,-86 652.56,-86 652.56,-122"/>
<text text-anchor="middle" x="538" y="-99.8" font-family="Times,serif" font-size="14.00">CreateEditTemplateInputsComponent</text>
</g>
<!-- CreateEditTemplateInputsModule -->
<g id="node2" class="node">
<title>CreateEditTemplateInputsModule</title>
<polygon fill="#8dd3c7" stroke="black" points="376.78,-187 373.78,-191 352.78,-191 349.78,-187 169.22,-187 169.22,-151 376.78,-151 376.78,-187"/>
<text text-anchor="middle" x="273" y="-164.8" font-family="Times,serif" font-size="14.00">CreateEditTemplateInputsModule</text>
</g>
<!-- CreateEditTemplateInputsComponent&#45;&gt;CreateEditTemplateInputsModule -->
<g id="edge1" class="edge">
<title>CreateEditTemplateInputsComponent&#45;&gt;CreateEditTemplateInputsModule</title>
<path fill="none" stroke="black" d="M538,-122.11C538,-141.34 538,-169 538,-169 538,-169 386.97,-169 386.97,-169"/>
<polygon fill="black" stroke="black" points="386.97,-165.5 376.97,-169 386.97,-172.5 386.97,-165.5"/>
</g>
<!-- CreateEditTemplateInputsRoutingModule -->
<g id="node3" class="node">
<title>CreateEditTemplateInputsRoutingModule</title>
<polygon fill="#8dd3c7" stroke="black" points="399.4,-122 396.4,-126 375.4,-126 372.4,-122 146.6,-122 146.6,-86 399.4,-86 399.4,-122"/>
<text text-anchor="middle" x="273" y="-99.8" font-family="Times,serif" font-size="14.00">CreateEditTemplateInputsRoutingModule</text>
</g>
<!-- CreateEditTemplateInputsRoutingModule&#45;&gt;CreateEditTemplateInputsModule -->
<g id="edge2" class="edge">
<title>CreateEditTemplateInputsRoutingModule&#45;&gt;CreateEditTemplateInputsModule</title>
<path fill="none" stroke="black" d="M273,-122.11C273,-122.11 273,-140.99 273,-140.99"/>
<polygon fill="black" stroke="black" points="269.5,-140.99 273,-150.99 276.5,-140.99 269.5,-140.99"/>
</g>
<!-- LayoutsModule -->
<g id="node4" class="node">
<title>LayoutsModule</title>
<polygon fill="#8dd3c7" stroke="black" points="128.15,-122 125.15,-126 104.15,-126 101.15,-122 23.85,-122 23.85,-86 128.15,-86 128.15,-122"/>
<text text-anchor="middle" x="76" y="-99.8" font-family="Times,serif" font-size="14.00">LayoutsModule</text>
</g>
<!-- LayoutsModule&#45;&gt;CreateEditTemplateInputsModule -->
<g id="edge3" class="edge">
<title>LayoutsModule&#45;&gt;CreateEditTemplateInputsModule</title>
<path fill="none" stroke="black" d="M76,-122.11C76,-141.34 76,-169 76,-169 76,-169 159.31,-169 159.31,-169"/>
<polygon fill="black" stroke="black" points="159.31,-172.5 169.31,-169 159.31,-165.5 159.31,-172.5"/>
</g>
</g>
</svg>
