<?xml version="1.0" encoding="UTF-8" standalone="no"?>
<!DOCTYPE svg PUBLIC "-//W3C//DTD SVG 1.1//EN"
 "http://www.w3.org/Graphics/SVG/1.1/DTD/svg11.dtd">
<!-- Generated by graphviz version 2.47.0 (20210316.0004)
 -->
<!-- Title: dependencies Pages: 1 -->
<svg width="920pt" height="284pt"
 viewBox="0.00 0.00 920.00 284.00" xmlns="http://www.w3.org/2000/svg" xmlns:xlink="http://www.w3.org/1999/xlink">
<g id="graph0" class="graph" transform="scale(1 1) rotate(0) translate(4 280)">
<title>dependencies</title>
<polygon fill="white" stroke="transparent" points="-4,4 -4,-280 916,-280 916,4 -4,4"/>
<text text-anchor="start" x="435.01" y="-42.4" font-family="Times-12" font-weight="bold" font-size="14.00">Legend</text>
<polygon fill="#ffffb3" stroke="transparent" points="222,-10 222,-30 242,-30 242,-10 222,-10"/>
<text text-anchor="start" x="245.63" y="-15.4" font-family="Times-12" font-size="14.00"> &#160;Declarations</text>
<polygon fill="#8dd3c7" stroke="transparent" points="335,-10 335,-30 355,-30 355,-10 335,-10"/>
<text text-anchor="start" x="358.73" y="-15.4" font-family="Times-12" font-size="14.00"> &#160;Module</text>
<polygon fill="#80b1d3" stroke="transparent" points="421,-10 421,-30 441,-30 441,-10 421,-10"/>
<text text-anchor="start" x="444.78" y="-15.4" font-family="Times-12" font-size="14.00"> &#160;Bootstrap</text>
<polygon fill="#fdb462" stroke="transparent" points="518,-10 518,-30 538,-30 538,-10 518,-10"/>
<text text-anchor="start" x="541.67" y="-15.4" font-family="Times-12" font-size="14.00"> &#160;Providers</text>
<polygon fill="#fb8072" stroke="transparent" points="614,-10 614,-30 634,-30 634,-10 614,-10"/>
<text text-anchor="start" x="637.73" y="-15.4" font-family="Times-12" font-size="14.00"> &#160;Exports</text>
<g id="clust1" class="cluster">
<title>cluster_ArtifactoryManagementModule</title>
<polygon fill="none" stroke="black" stroke-dasharray="1,5" points="8,-70 8,-268 904,-268 904,-70 8,-70"/>
</g>
<g id="clust2" class="cluster">
<title>cluster_ArtifactoryManagementModule_declarations</title>
<polygon fill="none" stroke="black" points="402,-78 402,-130 896,-130 896,-78 402,-78"/>
</g>
<g id="clust6" class="cluster">
<title>cluster_ArtifactoryManagementModule_exports</title>
<polygon fill="none" stroke="black" points="140,-208 140,-260 642,-260 642,-208 140,-208"/>
</g>
<g id="clust5" class="cluster">
<title>cluster_ArtifactoryManagementModule_imports</title>
<polygon fill="none" stroke="black" points="16,-78 16,-130 394,-130 394,-78 16,-78"/>
</g>
<!-- ArtifactoryManagementComponent -->
<g id="node1" class="node">
<title>ArtifactoryManagementComponent</title>
<polygon fill="#ffffb3" stroke="black" points="888.11,-122 671.89,-122 671.89,-86 888.11,-86 888.11,-122"/>
<text text-anchor="middle" x="780" y="-99.8" font-family="Times,serif" font-size="14.00">ArtifactoryManagementComponent</text>
</g>
<!-- ArtifactoryManagementModule -->
<g id="node3" class="node">
<title>ArtifactoryManagementModule</title>
<polygon fill="#8dd3c7" stroke="black" points="493.32,-187 490.32,-191 469.32,-191 466.32,-187 298.68,-187 298.68,-151 493.32,-151 493.32,-187"/>
<text text-anchor="middle" x="396" y="-164.8" font-family="Times,serif" font-size="14.00">ArtifactoryManagementModule</text>
</g>
<!-- ArtifactoryManagementComponent&#45;&gt;ArtifactoryManagementModule -->
<g id="edge1" class="edge">
<title>ArtifactoryManagementComponent&#45;&gt;ArtifactoryManagementModule</title>
<path fill="none" stroke="black" d="M780,-122.11C780,-141.34 780,-169 780,-169 780,-169 503.4,-169 503.4,-169"/>
<polygon fill="black" stroke="black" points="503.4,-165.5 493.4,-169 503.4,-172.5 503.4,-165.5"/>
</g>
<!-- CreateEditContainerRegistryComponent -->
<g id="node2" class="node">
<title>CreateEditContainerRegistryComponent</title>
<polygon fill="#ffffb3" stroke="black" points="653.84,-122 410.16,-122 410.16,-86 653.84,-86 653.84,-122"/>
<text text-anchor="middle" x="532" y="-99.8" font-family="Times,serif" font-size="14.00">CreateEditContainerRegistryComponent</text>
</g>
<!-- CreateEditContainerRegistryComponent&#45;&gt;ArtifactoryManagementModule -->
<g id="edge2" class="edge">
<title>CreateEditContainerRegistryComponent&#45;&gt;ArtifactoryManagementModule</title>
<path fill="none" stroke="black" d="M451.75,-122.11C451.75,-122.11 451.75,-140.99 451.75,-140.99"/>
<polygon fill="black" stroke="black" points="448.25,-140.99 451.75,-150.99 455.25,-140.99 448.25,-140.99"/>
</g>
<!-- ArtifactoryManagementComponent  -->
<g id="node6" class="node">
<title>ArtifactoryManagementComponent </title>
<polygon fill="#fb8072" stroke="black" points="634.11,-252 413.89,-252 413.89,-216 634.11,-216 634.11,-252"/>
<text text-anchor="middle" x="524" y="-229.8" font-family="Times,serif" font-size="14.00">ArtifactoryManagementComponent </text>
</g>
<!-- ArtifactoryManagementModule&#45;&gt;ArtifactoryManagementComponent  -->
<g id="edge5" class="edge">
<title>ArtifactoryManagementModule&#45;&gt;ArtifactoryManagementComponent </title>
<path fill="none" stroke="black" stroke-dasharray="5,2" d="M453.68,-187.11C453.68,-187.11 453.68,-205.99 453.68,-205.99"/>
<polygon fill="black" stroke="black" points="450.18,-205.99 453.68,-215.99 457.18,-205.99 450.18,-205.99"/>
</g>
<!-- CreateEditContainerRegistryComponent  -->
<g id="node7" class="node">
<title>CreateEditContainerRegistryComponent </title>
<polygon fill="#fb8072" stroke="black" points="395.84,-252 148.16,-252 148.16,-216 395.84,-216 395.84,-252"/>
<text text-anchor="middle" x="272" y="-229.8" font-family="Times,serif" font-size="14.00">CreateEditContainerRegistryComponent </text>
</g>
<!-- ArtifactoryManagementModule&#45;&gt;CreateEditContainerRegistryComponent  -->
<g id="edge6" class="edge">
<title>ArtifactoryManagementModule&#45;&gt;CreateEditContainerRegistryComponent </title>
<path fill="none" stroke="black" stroke-dasharray="5,2" d="M347.13,-187.11C347.13,-187.11 347.13,-205.99 347.13,-205.99"/>
<polygon fill="black" stroke="black" points="343.63,-205.99 347.13,-215.99 350.63,-205.99 343.63,-205.99"/>
</g>
<!-- ArtifactoryManagementRoutingModule -->
<g id="node4" class="node">
<title>ArtifactoryManagementRoutingModule</title>
<polygon fill="#8dd3c7" stroke="black" points="385.94,-122 382.94,-126 361.94,-126 358.94,-122 146.06,-122 146.06,-86 385.94,-86 385.94,-122"/>
<text text-anchor="middle" x="266" y="-99.8" font-family="Times,serif" font-size="14.00">ArtifactoryManagementRoutingModule</text>
</g>
<!-- ArtifactoryManagementRoutingModule&#45;&gt;ArtifactoryManagementModule -->
<g id="edge3" class="edge">
<title>ArtifactoryManagementRoutingModule&#45;&gt;ArtifactoryManagementModule</title>
<path fill="none" stroke="black" d="M342.28,-122.11C342.28,-122.11 342.28,-140.99 342.28,-140.99"/>
<polygon fill="black" stroke="black" points="338.78,-140.99 342.28,-150.99 345.78,-140.99 338.78,-140.99"/>
</g>
<!-- LayoutsModule -->
<g id="node5" class="node">
<title>LayoutsModule</title>
<polygon fill="#8dd3c7" stroke="black" points="128.15,-122 125.15,-126 104.15,-126 101.15,-122 23.85,-122 23.85,-86 128.15,-86 128.15,-122"/>
<text text-anchor="middle" x="76" y="-99.8" font-family="Times,serif" font-size="14.00">LayoutsModule</text>
</g>
<!-- LayoutsModule&#45;&gt;ArtifactoryManagementModule -->
<g id="edge4" class="edge">
<title>LayoutsModule&#45;&gt;ArtifactoryManagementModule</title>
<path fill="none" stroke="black" d="M76,-122.11C76,-141.34 76,-169 76,-169 76,-169 288.25,-169 288.25,-169"/>
<polygon fill="black" stroke="black" points="288.25,-172.5 298.25,-169 288.25,-165.5 288.25,-172.5"/>
</g>
</g>
</svg>
