<?xml version="1.0" encoding="UTF-8" standalone="no"?>
<!DOCTYPE svg PUBLIC "-//W3C//DTD SVG 1.1//EN"
 "http://www.w3.org/Graphics/SVG/1.1/DTD/svg11.dtd">
<!-- Generated by graphviz version 2.47.0 (20210316.0004)
 -->
<!-- Title: dependencies Pages: 1 -->
<svg width="868pt" height="284pt"
 viewBox="0.00 0.00 868.00 284.00" xmlns="http://www.w3.org/2000/svg" xmlns:xlink="http://www.w3.org/1999/xlink">
<g id="graph0" class="graph" transform="scale(1 1) rotate(0) translate(4 280)">
<title>dependencies</title>
<polygon fill="white" stroke="transparent" points="-4,4 -4,-280 864,-280 864,4 -4,4"/>
<text text-anchor="start" x="409.01" y="-42.4" font-family="Times-12" font-weight="bold" font-size="14.00">Legend</text>
<polygon fill="#ffffb3" stroke="transparent" points="196,-10 196,-30 216,-30 216,-10 196,-10"/>
<text text-anchor="start" x="219.63" y="-15.4" font-family="Times-12" font-size="14.00"> &#160;Declarations</text>
<polygon fill="#8dd3c7" stroke="transparent" points="309,-10 309,-30 329,-30 329,-10 309,-10"/>
<text text-anchor="start" x="332.73" y="-15.4" font-family="Times-12" font-size="14.00"> &#160;Module</text>
<polygon fill="#80b1d3" stroke="transparent" points="395,-10 395,-30 415,-30 415,-10 395,-10"/>
<text text-anchor="start" x="418.78" y="-15.4" font-family="Times-12" font-size="14.00"> &#160;Bootstrap</text>
<polygon fill="#fdb462" stroke="transparent" points="492,-10 492,-30 512,-30 512,-10 492,-10"/>
<text text-anchor="start" x="515.67" y="-15.4" font-family="Times-12" font-size="14.00"> &#160;Providers</text>
<polygon fill="#fb8072" stroke="transparent" points="588,-10 588,-30 608,-30 608,-10 588,-10"/>
<text text-anchor="start" x="611.73" y="-15.4" font-family="Times-12" font-size="14.00"> &#160;Exports</text>
<g id="clust1" class="cluster">
<title>cluster_CiRulesModule</title>
<polygon fill="none" stroke="black" stroke-dasharray="1,5" points="8,-70 8,-268 852,-268 852,-70 8,-70"/>
</g>
<g id="clust7" class="cluster">
<title>cluster_CiRulesModule_imports</title>
<polygon fill="none" stroke="black" points="678,-78 678,-130 844,-130 844,-78 678,-78"/>
</g>
<g id="clust8" class="cluster">
<title>cluster_CiRulesModule_exports</title>
<polygon fill="none" stroke="black" points="353,-208 353,-260 497,-260 497,-208 353,-208"/>
</g>
<g id="clust2" class="cluster">
<title>cluster_CiRulesModule_declarations</title>
<polygon fill="none" stroke="black" points="16,-78 16,-130 670,-130 670,-78 16,-78"/>
</g>
<!-- CiRulesComponent -->
<g id="node1" class="node">
<title>CiRulesComponent</title>
<polygon fill="#ffffb3" stroke="black" points="662.45,-122 535.55,-122 535.55,-86 662.45,-86 662.45,-122"/>
<text text-anchor="middle" x="599" y="-99.8" font-family="Times,serif" font-size="14.00">CiRulesComponent</text>
</g>
<!-- CiRulesModule -->
<g id="node5" class="node">
<title>CiRulesModule</title>
<polygon fill="#8dd3c7" stroke="black" points="477.16,-187 474.16,-191 453.16,-191 450.16,-187 372.84,-187 372.84,-151 477.16,-151 477.16,-187"/>
<text text-anchor="middle" x="425" y="-164.8" font-family="Times,serif" font-size="14.00">CiRulesModule</text>
</g>
<!-- CiRulesComponent&#45;&gt;CiRulesModule -->
<g id="edge1" class="edge">
<title>CiRulesComponent&#45;&gt;CiRulesModule</title>
<path fill="none" stroke="black" d="M599,-122.02C599,-139.37 599,-163 599,-163 599,-163 487.21,-163 487.21,-163"/>
<polygon fill="black" stroke="black" points="487.21,-159.5 477.21,-163 487.21,-166.5 487.21,-159.5"/>
</g>
<!-- CreateEditCiRulesComponent -->
<g id="node2" class="node">
<title>CreateEditCiRulesComponent</title>
<polygon fill="#ffffb3" stroke="black" points="518.31,-122 331.69,-122 331.69,-86 518.31,-86 518.31,-122"/>
<text text-anchor="middle" x="425" y="-99.8" font-family="Times,serif" font-size="14.00">CreateEditCiRulesComponent</text>
</g>
<!-- CreateEditCiRulesComponent&#45;&gt;CiRulesModule -->
<g id="edge2" class="edge">
<title>CreateEditCiRulesComponent&#45;&gt;CiRulesModule</title>
<path fill="none" stroke="black" d="M425,-122.11C425,-122.11 425,-140.99 425,-140.99"/>
<polygon fill="black" stroke="black" points="421.5,-140.99 425,-150.99 428.5,-140.99 421.5,-140.99"/>
</g>
<!-- CriteriaComponent -->
<g id="node3" class="node">
<title>CriteriaComponent</title>
<polygon fill="#ffffb3" stroke="black" points="314.09,-122 189.91,-122 189.91,-86 314.09,-86 314.09,-122"/>
<text text-anchor="middle" x="252" y="-99.8" font-family="Times,serif" font-size="14.00">CriteriaComponent</text>
</g>
<!-- CriteriaComponent&#45;&gt;CiRulesModule -->
<g id="edge3" class="edge">
<title>CriteriaComponent&#45;&gt;CiRulesModule</title>
<path fill="none" stroke="black" d="M252,-122.02C252,-139.37 252,-163 252,-163 252,-163 362.62,-163 362.62,-163"/>
<polygon fill="black" stroke="black" points="362.62,-166.5 372.62,-163 362.62,-159.5 362.62,-166.5"/>
</g>
<!-- ListCiRulesComponent -->
<g id="node4" class="node">
<title>ListCiRulesComponent</title>
<polygon fill="#ffffb3" stroke="black" points="172.22,-122 23.78,-122 23.78,-86 172.22,-86 172.22,-122"/>
<text text-anchor="middle" x="98" y="-99.8" font-family="Times,serif" font-size="14.00">ListCiRulesComponent</text>
</g>
<!-- ListCiRulesComponent&#45;&gt;CiRulesModule -->
<g id="edge4" class="edge">
<title>ListCiRulesComponent&#45;&gt;CiRulesModule</title>
<path fill="none" stroke="black" d="M98,-122.28C98,-143.32 98,-175 98,-175 98,-175 362.82,-175 362.82,-175"/>
<polygon fill="black" stroke="black" points="362.82,-178.5 372.82,-175 362.82,-171.5 362.82,-178.5"/>
</g>
<!-- CriteriaComponent  -->
<g id="node7" class="node">
<title>CriteriaComponent </title>
<polygon fill="#fb8072" stroke="black" points="488.59,-252 361.41,-252 361.41,-216 488.59,-216 488.59,-252"/>
<text text-anchor="middle" x="425" y="-229.8" font-family="Times,serif" font-size="14.00">CriteriaComponent </text>
</g>
<!-- CiRulesModule&#45;&gt;CriteriaComponent  -->
<g id="edge6" class="edge">
<title>CiRulesModule&#45;&gt;CriteriaComponent </title>
<path fill="none" stroke="black" stroke-dasharray="5,2" d="M425,-187.11C425,-187.11 425,-205.99 425,-205.99"/>
<polygon fill="black" stroke="black" points="421.5,-205.99 425,-215.99 428.5,-205.99 421.5,-205.99"/>
</g>
<!-- CiRulesRoutingModule -->
<g id="node6" class="node">
<title>CiRulesRoutingModule</title>
<polygon fill="#8dd3c7" stroke="black" points="835.78,-122 832.78,-126 811.78,-126 808.78,-122 686.22,-122 686.22,-86 835.78,-86 835.78,-122"/>
<text text-anchor="middle" x="761" y="-99.8" font-family="Times,serif" font-size="14.00">CiRulesRoutingModule</text>
</g>
<!-- CiRulesRoutingModule&#45;&gt;CiRulesModule -->
<g id="edge5" class="edge">
<title>CiRulesRoutingModule&#45;&gt;CiRulesModule</title>
<path fill="none" stroke="black" d="M761,-122.28C761,-143.32 761,-175 761,-175 761,-175 487.5,-175 487.5,-175"/>
<polygon fill="black" stroke="black" points="487.5,-171.5 477.5,-175 487.5,-178.5 487.5,-171.5"/>
</g>
</g>
</svg>
